<?xml version="1.0" encoding="UTF-8" standalone="no"?>
<!-- Created with Inkscape (http://www.inkscape.org/) -->

<svg
   width="119.9776mm"
   height="51.305485mm"
   viewBox="0 0 119.9776 51.305485"
   version="1.1"
   id="svg1"
   inkscape:export-filename="tree2.png"
   inkscape:export-xdpi="96"
   inkscape:export-ydpi="96"
   xmlns:inkscape="http://www.inkscape.org/namespaces/inkscape"
   xmlns:sodipodi="http://sodipodi.sourceforge.net/DTD/sodipodi-0.dtd"
   xmlns="http://www.w3.org/2000/svg"
   xmlns:svg="http://www.w3.org/2000/svg">
  <sodipodi:namedview
     id="namedview1"
     pagecolor="#ffffff"
     bordercolor="#cccccc"
     borderopacity="1"
     inkscape:showpageshadow="0"
     inkscape:pageopacity="1"
     inkscape:pagecheckerboard="0"
     inkscape:deskcolor="#d1d1d1"
     inkscape:document-units="mm" />
  <defs
     id="defs1" />
  <g
     inkscape:label="Слой 1"
     inkscape:groupmode="layer"
     id="layer1"
     transform="translate(-63.888853,-128.58624)">
    <path
       style="fill:none;stroke:#000000;stroke-width:0.264583px;stroke-linecap:butt;stroke-linejoin:miter;stroke-opacity:1"
       d="m 81.536645,142.41242 c 0.614907,-0.12298 1.249815,-0.17064 1.84472,-0.36894 0.164997,-0.055 0.245964,-0.24597 0.368945,-0.36895 0.491924,-0.49192 0.983851,-0.98385 1.475775,-1.47577 1.04834,-1.04834 1.68135,-1.82049 2.951554,-2.58261 0.105455,-0.0633 0.245962,0 0.368943,0 0.491926,0 0.99854,0.11931 1.475777,0 0.119308,-0.0298 -0.06822,-0.26662 0,-0.36895 0.408786,-0.61318 0.840671,-0.83464 1.475777,-1.10683 0.608727,-0.26088 1.233389,-0.48317 1.84472,-0.73789 0.864552,-0.36023 1.685509,-0.8377 2.582608,-1.10683 1.654469,-0.49634 0.674598,0.80118 2.213666,-0.73789 0.08696,-0.087 -0.08696,-0.28198 0,-0.36894 0.03289,-0.0329 0.986287,0.0201 1.106831,0 0.618554,-0.10309 1.283839,-0.0885 1.844719,-0.36895 0.24597,-0.12298 0.1745,-0.54343 0.36895,-0.73788 0.087,-0.087 0.24596,0 0.36894,0 0.24596,0 0.49927,0.0597 0.73789,0 0.26678,-0.0667 0.49192,-0.24597 0.73789,-0.36895 0.49192,-0.24596 0.96512,-0.53363 1.47577,-0.73789 0.11419,-0.0457 0.24597,0 0.36895,0 0.36894,0 0.74505,0.0724 1.10683,0 0.26965,-0.0539 0.49192,-0.24596 0.73789,-0.36894 0.24596,-0.12298 0.50908,-0.2164 0.73789,-0.36894 0.14471,-0.0965 0.21338,-0.29117 0.36894,-0.36895 0.11,-0.055 0.24596,0 0.36894,0 0.24597,0 0.49193,0 0.73789,0 0.98008,0 1.70844,0.15556 2.58261,-0.36894 0.20326,-0.12196 0.60981,-0.9864 1.10683,-0.73789 1.68851,0.84425 -1.56558,-0.15292 1.10684,0.73789 0.11667,0.0389 0.24596,0 0.36894,0 0.86087,0.36894 1.75796,0.66279 2.58261,1.10683 0.19828,0.10677 3.56533,2.44814 4.05838,2.58261 0.71189,0.19415 1.5069,-0.21203 2.21367,0 0.58897,0.17669 0.9485,0.79046 1.47577,1.10683 0.17052,0.10231 0.88247,-0.0748 1.10684,0 0.003,7.9e-4 4.23315,1.56316 4.79627,1.84472 0.15556,0.0778 0.21338,0.29116 0.36894,0.36894 0.11,0.055 0.24964,-0.0298 0.36895,0 0.60248,0.15063 2.67456,0.95295 2.95155,1.10684 0.53753,0.29862 0.97541,0.74942 1.47578,1.10683 0.36082,0.25773 0.76058,0.46089 1.10683,0.73789 0.27162,0.21729 0.49193,0.49192 0.73789,0.73789 0.12298,0.12298 0.21338,0.29116 0.36894,0.36894 0.11,0.055 0.25895,-0.055 0.36895,0 0.15556,0.0778 0.24596,0.24596 0.36894,0.36894 0.36894,0.24597 0.69513,0.57321 1.10683,0.73789 0.22837,0.0914 0.50455,-0.0778 0.73789,0 0.165,0.055 0.21981,0.27946 0.36894,0.36895 0.47162,0.28296 0.96513,0.53362 1.47578,0.73788 0.21343,0.0854 1.26235,-0.0854 1.47578,0 0.4117,0.16468 0.7266,0.50976 1.10683,0.73789 0.2358,0.14149 0.50908,0.21641 0.73789,0.36895 0.14471,0.0965 0.2298,0.26459 0.36894,0.36894 0.35473,0.26605 0.7521,0.47184 1.10683,0.73789 0.13914,0.10435 0.24597,0.24596 0.36895,0.36894 0.24596,0.24597 0.58233,0.42677 0.73789,0.73789 0.11,0.22 -0.0778,0.50455 0,0.73789 0.055,0.165 0.27946,0.21981 0.36894,0.36894 0.28297,0.47162 0.45492,1.00417 0.73789,1.47578 -0.0368,0.7309 0.54344,0.17449 0.73789,0.36894 0.087,0.087 -0.055,0.25895 0,0.36895 0.0792,0.15843 1.46658,1.46964 1.47577,1.47578 0.10233,0.0682 0.28199,-0.087 0.36895,0 0.087,0.087 -0.087,0.28198 0,0.36894 0.087,0.087 0.28198,0.087 0.36894,0 0.087,-0.087 -0.087,-0.28198 0,-0.36894 0.087,-0.087 0.24596,0 0.36895,0 1.35279,0 2.70559,0 4.05838,0 0.86087,0 1.72174,0 2.58261,0 0.24596,0 0.49192,0 0.73789,0 0.24596,0 0.50455,0.0778 0.73788,0 0.52177,-0.17393 0.98386,-0.49193 1.47578,-0.73789 0.24597,-0.12298 0.46823,-0.31502 0.73789,-0.36895 0.36178,-0.0724 0.73789,0 1.10683,0 0.24597,0 0.49193,0 0.73789,0 0.36895,0 0.73789,0 1.10683,0 0.12298,0 0.24835,-0.0241 0.36895,0 0.49721,0.0994 0.98169,0.25493 1.47577,0.36895 1.1048,0.25495 2.21367,0.49192 3.3205,0.73789 1.10683,0.24596 2.19806,0.57753 3.3205,0.73788 0.60872,0.087 1.22981,0 1.84472,0 0.61491,0 1.22981,0 1.84472,0 0.73789,0 1.47577,0 2.21366,0 0.24596,0 0.50952,-0.0914 0.73789,0 0.91374,-0.20454 0.92579,0.83184 1.47578,1.10684 0.21999,0.10999 0.56396,-0.17393 0.73788,0 0.087,0.087 -0.055,0.25894 0,0.36894 0.0778,0.15556 0.36895,0.19502 0.36895,0.36894 0,0.12299 -0.31395,-0.10999 -0.36895,0 -0.10999,0.22 0.0778,0.50455 0,0.73789 -0.17052,0.51156 -1.26254,0.60995 -1.47577,0.73789 -1.50153,0.90092 0.0232,0.60717 -1.47578,1.10683 -0.18549,0.0618 -2.1173,0 -2.21366,0 -0.12298,0 -0.28198,-0.087 -0.36895,0 -0.087,0.087 0.087,0.28199 0,0.36895 -0.19445,0.19445 -0.54343,0.17449 -0.73788,0.36894 -0.087,0.087 0,0.24596 0,0.36894 -0.36895,0.24597 -0.71023,0.53959 -1.10684,0.73789 -0.11,0.055 -0.24596,0 -0.36894,0 -0.21,0 -1.43801,-0.0252 -1.47578,0 -0.22881,0.15254 -0.13314,0.59641 -0.36894,0.73789 -1.83324,1.09995 -0.91106,0.0433 -2.21367,0.36894 -1.04433,0.26109 -0.65444,0.71008 -1.84472,1.10684 -0.35001,0.11667 -0.73788,0 -1.10683,0 -1.10683,0 -2.21366,0 -3.32049,0 -0.24597,0 -0.53324,-0.13644 -0.73789,0 -1.9677,1.3118 1.35279,0.28695 -1.10683,1.10683 -0.11668,0.0389 -0.24597,0 -0.36895,0 -0.61491,0 -1.22981,0 -1.84472,0 -0.98385,0 -1.9677,0 -2.95155,0 -0.0964,0 -2.02818,0.0618 -2.21367,0 -0.26088,-0.087 -0.46663,-0.32374 -0.73789,-0.36895 -0.48523,-0.0809 -0.98385,0 -1.47577,0 -1.10683,0 -2.21367,0 -3.3205,0 -0.24596,0 -0.49192,0 -0.73789,0 -0.36894,0 -0.7489,0.0895 -1.10683,0 -0.16873,-0.0422 -0.22981,-0.26458 -0.36894,-0.36894 -0.35474,-0.26605 -0.71023,-0.53958 -1.10684,-0.73789 -0.10999,-0.055 -0.24596,0 -0.36894,0 -0.49193,0 -0.98385,0 -1.47578,0 -1.47577,0 -2.95155,0 -4.42733,0 -4.55031,0 -9.10062,0 -13.65093,0 -5.41118,0 -10.82236,0 -16.23354,0 -2.33664,0 -4.67329,0 -7.00993,0 -0.73789,0 -1.4803,-0.0815 -2.21367,0 -0.38652,0.0429 -0.72322,0.30501 -1.10683,0.36895 -0.36393,0.0607 -0.73789,0 -1.106833,0 -0.737889,0 -1.475777,0 -2.213666,0 -1.229815,0 -2.459627,0 -3.68944,0 -5.042236,0 -10.084472,0 -15.126708,0 -2.213665,0 -4.427331,0 -6.640994,0 -0.08948,0 -1.094967,0.0119 -1.106834,0 -0.08696,-0.087 0,-0.24597 0,-0.36895 0,-0.12298 0,-0.24596 0,-0.36894 0,-0.49193 0,-0.98385 0,-1.47578 0,-0.36894 0.137023,-0.76427 0,-1.10683 -0.129185,-0.32297 -0.52918,-0.45961 -0.737888,-0.73789 -0.423942,-0.56526 -0.368943,-0.58929 -0.368943,-1.10683 0,-0.12298 0.04568,-0.25476 0,-0.36894 -0.204261,-0.51066 -0.491927,-0.98385 -0.737889,-1.47578 -0.122981,-0.24596 -0.281982,-0.47701 -0.368943,-0.73789 -0.03889,-0.11667 0,-0.24596 0,-0.36894 0,-0.24596 0,-0.49193 0,-0.73789 0,-0.12298 -0.055,-0.25895 0,-0.36894 0.1983,-0.39661 0.539586,-0.71024 0.737889,-1.10684 0.172048,-0.3441 -0.330277,-0.56308 0.368943,-0.73789 0.357928,-0.0895 0.745053,0.0724 1.106831,0 0.269656,-0.0539 0.48513,-0.26061 0.737889,-0.36894 0.608727,-0.26088 1.233389,-0.48317 1.84472,-0.73789 0.864552,-0.36023 1.685512,-0.8377 2.582608,-1.10683 0.353386,-0.10602 0.737889,0 1.106834,0 0.245962,0 0.491924,0 0.737889,0 0.122981,0 0.330052,0.11667 0.368943,0 0.11667,-0.35001 -0.164997,-0.77684 0,-1.10683 0.122981,-0.24597 0.502081,-0.22746 0.737888,-0.36895 0.380225,-0.22813 0.79329,-0.42434 1.106832,-0.73789 0.19445,-0.19445 0.216405,-0.50907 0.368945,-0.73788 0.09647,-0.14471 0.264592,-0.22981 0.368943,-0.36895 0.266049,-0.35473 0.491927,-0.73789 0.737889,-1.10683 z"
       id="path25" />
    <path
       style="fill:none;stroke:#000000;stroke-width:0.264583px;stroke-linecap:butt;stroke-linejoin:miter;stroke-opacity:1"
       d="m 76.438682,150.26853 c 0.521764,-0.52176 0.951336,-1.15599 1.565296,-1.56529 0.217067,-0.14471 0.549307,0.11667 0.782649,0 0.329993,-0.165 0.452654,-0.61765 0.782648,-0.78265 0.233341,-0.11667 0.521766,0 0.78265,0 0.08696,0 0.188527,-0.0482 0.260882,0 0.411454,0.2743 0.607679,0.60611 0.782648,1.04353 0.102132,0.25532 0.119401,0.54684 0.260885,0.78265 0.126545,0.21091 0.443984,0.28842 0.521763,0.52176 0.109998,0.33 0,0.69569 0,1.04354 0,0.17392 -0.07778,0.3662 0,0.52176 0.155914,0.31182 0.521767,-0.50247 0.521767,0.26088 0,0.43262 -0.365853,0.18293 -0.521767,0.26089 -0.109998,0.055 -0.173921,0.17392 -0.260882,0.26088 -0.173921,0.17392 -0.347842,0.34784 -0.521766,0.52177 -0.173921,0.17392 -0.3297,0.36811 -0.521766,0.52176 -0.955273,0.76422 -0.985105,0.53247 -2.347944,1.04353 -0.182071,0.0683 -0.337294,0.1994 -0.521767,0.26088 -0.0825,0.0275 -0.173921,0 -0.260881,0 -0.260885,0 -0.521767,0 -0.782651,0 -0.08696,0 -0.173921,0 -0.260882,0 -0.08696,0 -0.183102,0.0389 -0.260882,0 -0.109998,-0.055 -0.150886,-0.20588 -0.260884,-0.26088 -0.347843,-0.17392 -0.260882,0.26088 -0.260882,-0.26088 0,-0.34784 0,-0.69569 0,-1.04353 0,-0.087 -0.03889,-0.1831 0,-0.26088 0.140219,-0.28045 0.300059,-0.56094 0.521766,-0.78265 0.06149,-0.0615 0.221991,0.0778 0.260882,0 0.07778,-0.15556 0.02156,-0.34919 0,-0.52177 -0.06561,-0.52488 -0.173921,-1.04353 -0.260882,-1.5653 z"
       id="path27" />
    <path
       style="fill:none;stroke:#000000;stroke-width:0.264583px;stroke-linecap:butt;stroke-linejoin:miter;stroke-opacity:1"
       d="m 68.612196,153.66001 c 0.36321,1.81605 0.260882,0.861 0.260882,2.86971 0,0.43326 -0.184473,0.82086 0.260882,1.04353 0.463793,0.2319 0.144936,-0.14493 0.260884,-0.26088 1.262846,-1.26284 -0.196389,0.56573 1.04353,-0.26088 0.161793,-0.10786 0.123386,-0.38427 0.260885,-0.52177 0.962329,-0.96233 0.105269,0.62475 1.04353,-0.78264 0.04824,-0.0724 0,-0.17393 0,-0.26089 0,-0.17392 0.07778,-0.3662 0,-0.52177 -0.03889,-0.0778 -0.19939,-0.0615 -0.260882,0 -0.06149,0.0615 0,0.17393 0,0.26089"
       id="path28" />
    <path
       style="fill:none;stroke:#000000;stroke-width:0.264583px;stroke-linecap:butt;stroke-linejoin:miter;stroke-opacity:1"
       d="m 68.873078,152.09471 c -0.202512,0.14465 -2.377117,1.67657 -2.86971,2.08707 -0.643433,0.53619 -0.521767,0.41743 -0.521767,1.04353 0,0.087 -0.07778,0.22199 0,0.26088 0.155559,0.0778 0.35677,-0.055 0.521767,0 0.233338,0.0778 0.301767,0.41177 0.521763,0.52177 0.07778,0.0389 0.173924,0 0.260885,0 0.08696,0 0.199392,0.0615 0.260881,0 0.06149,-0.0615 -0.06149,-0.1994 0,-0.26088 0.14626,-0.14626 0.850691,-0.47411 1.043533,-0.78266 1.254138,-2.00662 1.196843,-1.21293 0.782648,-2.86971 z"
       id="path29" />
    <path
       style="fill:#c8b7b7;stroke:#00a700;stroke-width:0.349158"
       d="m 250.71022,587.90911 c -0.49841,-0.63095 -1.13651,-1.02653 -1.65589,-1.02653 -1.30934,0 -1.15129,-1.66383 0.28797,-3.03154 0.95086,-0.90359 7.85723,-6.03209 9.22476,-6.85008 0.51268,-0.30666 1.9851,2.38637 1.70453,3.11755 -0.10323,0.26901 -0.50637,0.48911 -0.89585,0.48911 -0.52384,0 -0.70816,0.2279 -0.70816,0.87557 0,1.3388 -2.07048,4.17508 -3.94348,5.40204 -0.92264,0.6044 -1.76301,1.32168 -1.86749,1.59395 -0.30493,0.79463 -1.27108,0.53802 -2.14639,-0.57007 z"
       id="path30"
       transform="scale(0.26458333)" />
    <path
       style="fill:#f4d7d7;stroke:#00a700;stroke-width:0.349158"
       d="m 261.02802,594.35594 c -0.10092,-0.10092 -0.10238,-1.89476 -0.003,-3.9863 0.10969,-2.31411 0.016,-4.63765 -0.23931,-5.93538 -0.33296,-1.69242 -0.3294,-2.2412 0.0172,-2.65889 0.37374,-0.45033 0.55085,-0.30838 1.22673,0.98316 0.49255,0.9412 0.79587,2.14586 0.80569,3.19984 0.0191,2.04947 0.76895,3.73252 2.23736,5.0218 1.10354,0.96893 1.27983,1.9631 0.40746,2.29786 -0.26787,0.10279 -0.54414,-0.10856 -0.64473,-0.49323 -0.25093,-0.95955 -0.7506,-0.84104 -2.28011,0.54077 -0.73898,0.66762 -1.42617,1.13129 -1.52709,1.03037 z"
       id="path31"
       transform="scale(0.26458333)" />
    <path
       style="fill:#f4d7d7;stroke:#00a700;stroke-width:0.349158"
       d="m 250.82389,587.57979 c -0.55108,-0.5752 -1.28637,-1.04582 -1.63396,-1.04582 -1.04255,0 -0.73013,-1.15895 0.67528,-2.50507 1.3916,-1.33289 8.40126,-6.55876 8.79753,-6.55876 0.19739,0 0.5887,0.64772 1.31666,2.17946 0.0685,0.14416 -0.25747,0.40736 -0.72441,0.58489 -0.61516,0.23388 -0.91745,0.68975 -1.0976,1.65524 -0.19767,1.05939 -0.82219,1.88612 -3.04745,4.03417 -1.53936,1.48595 -2.90802,2.70172 -3.04146,2.70172 -0.13345,0 -0.69351,-0.47062 -1.24459,-1.04583 z"
       id="path32"
       transform="scale(0.26458333)" />
    <path
       style="fill:#280b0b;stroke:#00a700;stroke-width:0.349158"
       d="m 261.43567,589.77917 c -0.0114,-2.07246 -0.15137,-4.55249 -0.31097,-5.51116 -0.1596,-0.95867 -0.21586,-1.82123 -0.12502,-1.9168 0.36036,-0.3791 1.13652,1.22825 1.32708,2.74824 0.35712,2.8485 0.9251,4.36845 2.13224,5.70598 1.27664,1.41453 1.63475,2.52241 0.47652,1.47423 -0.68303,-0.61814 -0.73286,-0.61647 -1.65589,0.0555 -1.89819,1.38186 -1.82166,1.48793 -1.84396,-2.55598 z"
       id="path33"
       transform="scale(0.26458333)" />
    <path
       style="fill:#f4d7d7;stroke:#000000;stroke-width:0.264583px;stroke-linecap:butt;stroke-linejoin:miter;stroke-opacity:1"
       d="m 79.138509,151.45155 c 0.122981,0 0.245962,0 0.368943,0 0.03074,0.0308 0.05099,0.0785 0.09224,0.0922 0.116671,0.0389 0.258946,-0.055 0.368943,0 0.0275,0.0138 -0.01376,0.0647 0,0.0922 0.122984,0.24597 0.122984,-0.0615 0,0.18447 -0.03602,0.072 -0.103878,0.38059 -0.18447,0.46119 -0.02175,0.0217 -0.06474,-0.0138 -0.09224,0 -0.03889,0.0194 -0.06149,0.0615 -0.09224,0.0922 -0.06149,0.0615 -0.112117,0.13624 -0.184472,0.18447 -0.02559,0.0171 -0.06149,0 -0.09224,0 -0.03074,0 -0.06149,0 -0.09223,0 -0.09224,0 -0.184473,0 -0.27671,0 -0.03074,0 -0.06307,0.01 -0.09224,0 -0.06522,-0.0217 -0.11925,-0.0705 -0.184473,-0.0922 -0.138353,-0.0461 -0.09223,0.0922 -0.276706,0 -0.0275,-0.0138 0.0097,-0.0631 0,-0.0922 -0.02833,-0.085 -0.126966,-0.17252 -0.09224,-0.27671 0.02175,-0.0652 0.07556,-0.11777 0.09224,-0.18447 0.01492,-0.0597 -0.0275,-0.12947 0,-0.18447 0.01664,-0.0333 0.131979,0.0262 0.184472,0 0.383863,-0.19193 -0.09861,0.006 0.09223,-0.18447 0.133488,-0.13349 0.294815,-0.0922 0.461182,-0.0922 z"
       id="path34" />
    <path
       style="fill:#000000;stroke:#00a700;stroke-width:0.349158"
       d="m 261.7206,588.35585 c -0.0979,-2.44005 -0.13707,-4.48364 -0.0871,-4.54133 0.05,-0.0577 0.26449,0.88356 0.47675,2.09165 0.21225,1.2081 0.76689,2.93189 1.23252,3.83067 l 0.8466,1.63413 -0.75639,0.4827 c -0.41602,0.26549 -0.93145,0.58529 -1.14541,0.71067 -0.27427,0.16071 -0.4415,-1.08067 -0.56696,-4.20849 z"
       id="path36"
       transform="scale(0.26458333)" />
    <path
       style="fill:#000000;stroke:#00a700;stroke-width:0.0617229"
       d="m 297.79572,575.87444 c -0.33889,-0.16479 -0.47364,-0.19894 -0.69737,-0.17673 l -0.27732,0.0275 -0.16952,-0.34709 -0.16953,-0.34709 0.18493,-0.36303 c 0.10172,-0.19967 0.18493,-0.42846 0.18493,-0.50842 0,-0.0974 0.0356,-0.14539 0.10785,-0.14543 0.15418,-7e-5 0.8219,-0.33052 0.98601,-0.48798 0.0902,-0.0865 0.13866,-0.20582 0.13866,-0.34118 0,-0.11449 0.0347,-0.22148 0.077,-0.23776 0.0424,-0.0163 0.53461,-0.0144 1.09386,0.004 0.93959,0.0311 1.02959,0.0443 1.18483,0.17331 0.22296,0.18532 0.47262,0.23335 0.94825,0.18241 0.48561,-0.052 0.4813,-0.0801 0.14333,0.93411 -0.23958,0.71892 -0.25853,0.75275 -0.44468,0.79363 -0.13161,0.0289 -0.34446,0.19888 -0.65873,0.52604 l -0.4643,0.48334 -0.87409,0.0173 -0.87408,0.0173 z"
       id="path38"
       transform="scale(0.26458333)" />
    <path
       style="fill:#782121;stroke:#00a700;stroke-width:0.987567"
       d="m 589.63638,607.87764 c -0.81346,-0.5257 -7.1787,-0.96262 -14.14499,-0.97092 -11.38306,-0.0136 -12.96883,-0.23075 -15.65601,-2.14418 l -2.99003,-2.1291 -143.83177,0.70328 -143.83175,0.70327 v -5.84855 c 0,-3.99583 0.46853,-6.2374 1.47902,-7.07604 1.82517,-1.51475 2.039,-7.26514 0.2465,-6.62907 -0.67788,0.24055 -1.13436,1.34422 -1.0144,2.4526 0.29376,2.71409 -2.75022,3.80915 -4.38266,1.57665 -0.6922,-0.94663 -1.26944,-2.41283 -1.28278,-3.25822 -0.0133,-0.84538 -0.9163,-4.1993 -2.00659,-7.45315 -1.92067,-5.732 -1.92758,-6.03078 -0.22226,-9.60232 1.21093,-2.53611 2.41261,-3.68977 3.85147,-3.69755 1.15026,-0.006 6.65927,-2.03661 12.24225,-4.51197 7.72832,-3.42655 11.11192,-4.43007 14.17785,-4.20492 3.70662,0.2722 4.05106,0.0888 4.32968,-2.3051 0.206,-1.76995 1.19108,-2.96881 3.08352,-3.75268 1.52944,-0.63352 4.15979,-3.27999 5.84522,-5.88104 2.50455,-3.86518 3.72364,-4.83617 6.67278,-5.31474 2.82532,-0.45849 5.4756,-2.41275 12.21287,-9.00552 7.64638,-7.48239 9.00818,-8.41996 12.22981,-8.41996 2.60714,0 4.23511,-0.68194 5.79655,-2.42808 2.58681,-2.89282 19.57321,-10.39011 23.54058,-10.39011 1.5334,0 3.61038,-0.82237 4.61551,-1.8275 1.04442,-1.04443 3.87063,-2.0578 6.59562,-2.36494 2.71035,-0.3055 5.26646,-1.21894 5.92281,-2.11655 0.63508,-0.86852 1.89992,-1.57912 2.81078,-1.57912 0.91086,0 3.39558,-0.88741 5.5216,-1.97203 2.12603,-1.08461 5.32522,-1.97737 7.10932,-1.9839 1.78411,-0.007 5.17487,-1.1158 7.53503,-2.46504 3.20223,-1.83061 5.72822,-2.45315 9.95383,-2.45315 4.40705,0 6.05763,-0.43649 7.44412,-1.96855 1.13577,-1.25501 2.17402,-1.64491 2.86436,-1.07569 0.59558,0.49107 3.8394,1.81974 7.2085,2.95259 3.36909,1.13285 9.87086,4.50101 14.44839,7.48478 7.24322,4.72138 8.95476,5.42505 13.19532,5.42505 3.62033,0 5.33121,0.5068 6.65722,1.97203 0.98157,1.08461 2.79489,1.97202 4.02961,1.97202 2.3752,0 16.65973,5.00723 21.00663,7.36357 1.41468,0.76686 4.83486,2.0995 7.60039,2.96142 5.06273,1.57788 19.12911,10.71119 19.12911,12.42054 0,0.50534 0.4733,0.91881 1.0518,0.91881 0.57849,0 2.50612,1.10927 4.28363,2.46504 1.7775,1.35577 3.76225,2.46503 4.41055,2.46503 0.6483,0 2.9182,0.88741 5.04423,1.97203 2.12602,1.08461 5.07243,1.97203 6.54756,1.97203 4.10083,0 18.97101,10.26495 18.96879,13.09423 -9.6e-4,1.22957 4.49967,10.48515 5.12019,10.52969 0.3097,0.0222 2.68829,2.0767 5.28575,4.5655 3.40645,3.26396 5.02197,4.22576 5.79668,3.45105 0.68429,-0.6843 6.74148,-1.07404 16.69234,-1.07404 13.67245,0 16.09989,-0.24569 19.48379,-1.97203 5.88898,-3.00433 14.80139,-2.59762 32.15378,1.46733 13.06277,3.06007 16.20524,3.44065 28.4954,3.45105 12.73876,0.0108 13.90935,0.16513 15.04508,1.98372 0.67735,1.08462 1.89334,1.97203 2.70221,1.97203 0.89882,0 1.47067,0.92877 1.47067,2.38857 0,1.83922 -0.76628,2.64146 -3.33182,3.48816 -1.83251,0.60479 -4.11981,1.97031 -5.08289,3.03452 -1.32382,1.46279 -3.03701,1.9349 -7.02133,1.9349 -2.89864,0 -5.27026,0.44371 -5.27026,0.98602 0,0.54231 -0.66556,0.98601 -1.47902,0.98601 -0.81346,0 -1.47902,0.50572 -1.47902,1.12382 0,2.06119 -3.40489,3.74319 -7.64161,3.7749 -2.90955,0.0218 -4.19056,0.45123 -4.19056,1.40488 0,1.70495 -2.14052,2.57053 -6.35676,2.57053 -1.78058,0 -4.3656,0.88741 -5.74446,1.97203 -2.14265,1.6854 -4.00004,1.97202 -12.77928,1.97202 -9.68218,0 -10.40527,0.14161 -12.58803,2.46504 -2.24283,2.38738 -2.72194,2.46456 -15.20858,2.44994 -7.09105,-0.008 -13.55838,-0.44522 -14.37184,-0.97092 z M 300.73427,584.29426 c 5.72818,-2.20182 12.81819,-7.98049 12.81819,-10.44737 0,-0.80617 -0.44371,-1.46575 -0.98602,-1.46575 -0.54231,0 -0.98601,-1.30494 -0.98601,-2.89986 0,-1.59491 -0.45043,-3.17823 -1.00095,-3.51847 -0.55053,-0.34024 -1.63056,-2.12546 -2.40006,-3.96715 -1.9122,-4.57654 -4.85314,-5.13 -10.96014,-2.06263 -7.45388,3.74387 -9.64507,6.5204 -8.85172,11.21625 0.48664,2.88037 0.26307,4.17374 -0.88635,5.12767 -1.98897,1.6507 -2.05654,8.53371 -0.0946,9.63169 2.2786,1.27517 7.46097,0.64837 13.34762,-1.61438 z"
       id="path39"
       transform="scale(0.26458333)" />
    <path
       style="fill:none;stroke:#000000;stroke-width:0.264583px;stroke-linecap:butt;stroke-linejoin:miter;stroke-opacity:1"
       d="m 151.44251,151.44251 c -1.21139,4.60327 0.007,0.31244 -1.82618,5.60898 -0.0237,0.0684 0.0191,0.50261 0,0.52176 -0.0308,0.0308 -0.0997,-0.0307 -0.13044,0 -0.19687,0.19687 -0.34058,0.44083 -0.52177,0.65221 -0.44926,0.52414 -0.84096,0.97141 -1.30442,1.43486"
       id="path40" />
    <path
       style="fill:#a02c2c;stroke:#00a700;stroke-width:0.493783"
       d="m 592.49351,607.60924 c -1.81801,-0.21192 -3.54419,-0.53285 -3.83597,-0.71318 -0.29177,-0.18032 -6.13576,-0.49282 -12.98663,-0.69444 -11.77194,-0.34645 -12.56839,-0.42967 -14.49961,-1.51508 l -2.04348,-1.1485 3.05236,-3.49978 c 1.67879,-1.92488 3.21874,-3.57373 3.42211,-3.66412 0.20336,-0.0904 0.37834,-0.64501 0.38883,-1.23251 0.0105,-0.5875 1.02057,-3.73042 2.24462,-6.98427 1.22404,-3.25385 2.81328,-8.08568 3.53165,-10.7374 1.05699,-3.90172 1.45166,-4.75794 2.06919,-4.48905 0.94315,0.41067 1.388,0.39113 5.69316,-0.25005 1.89807,-0.28268 8.10996,-0.52569 13.80419,-0.54001 11.91107,-0.03 15.20842,-0.40156 19.77521,-2.22856 6.48065,-2.59267 12.87194,-2.23792 31.25102,1.73457 13.55145,2.92904 18.04073,3.44581 29.934,3.44581 5.09661,0 9.94048,0.19328 10.76416,0.42951 0.82367,0.23622 2.19172,1.12364 3.04011,1.97203 0.84839,0.84838 1.8665,1.54252 2.26246,1.54252 0.91177,0 1.34447,1.57206 0.73329,2.66417 -0.25615,0.45771 -1.61372,1.34704 -3.01683,1.9763 -1.4031,0.62926 -3.40643,1.83359 -4.45183,2.67629 -2.00664,1.61757 -2.96662,1.87252 -8.35298,2.21843 -1.9915,0.12789 -3.69207,0.51393 -4.19056,0.95129 -0.46143,0.40483 -1.31607,0.88117 -1.89921,1.05854 -0.58314,0.17736 -1.19645,0.86513 -1.36291,1.52837 -0.42138,1.67892 -2.65787,2.68471 -7.06995,3.17951 -3.68477,0.41323 -4.00835,0.58026 -5.30741,2.73959 -0.36509,0.60687 -1.52972,0.93714 -4.24054,1.20257 -2.05547,0.20125 -4.43575,0.73139 -5.28951,1.17808 -0.85376,0.4467 -2.27331,1.19618 -3.15456,1.66552 -1.29826,0.69143 -3.42639,0.90609 -11.21591,1.13134 -5.60153,0.16198 -10.02514,0.50708 -10.59965,0.82691 -0.54231,0.3019 -1.52417,1.12426 -2.18192,1.82745 -0.65776,0.7032 -1.98887,1.49882 -2.95805,1.76805 -2.03302,0.56476 -18.41327,0.55078 -23.30885,-0.0199 z"
       id="path41"
       transform="scale(0.26458333)" />
    <path
       style="fill:none;stroke:#000000;stroke-width:0.264583px;stroke-linecap:butt;stroke-linejoin:miter;stroke-opacity:1"
       d="m 154.63832,151.05118 c 0.0212,0.10603 0.13044,0.63399 0.13044,0.71743 0,0.0896 -0.0563,0.17169 -0.0652,0.26088 -0.013,0.1298 0,0.26089 0,0.39133 0,0.13044 0,0.26088 0,0.39132 0,0.26502 0.0205,0.52536 -0.0652,0.78265 -0.0792,0.2376 -0.15767,0.22859 -0.19566,0.45655 -0.0107,0.0643 0.0206,0.13378 0,0.19566 -0.0248,0.0744 -0.11049,0.11985 -0.13044,0.19566 -0.13307,0.50565 -0.23612,1.21618 -0.26088,1.76096 -0.0109,0.2389 0.0538,0.48441 0,0.71743 -0.0176,0.0764 -0.14024,0.075 -0.19567,0.13044 -0.0154,0.0154 0,0.0435 0,0.0652 0,0.13044 0.0162,0.26189 0,0.39132 -0.002,0.013 -0.26039,1.29706 -0.26088,1.30442 -0.007,0.11061 0.047,0.21675 0.0652,0.3261 0.004,0.0215 0,0.0435 0,0.0652 0,0.0652 0.0128,0.13171 0,0.19566 -0.01,0.0477 -0.0498,0.0843 -0.0652,0.13045 -0.007,0.0206 0,0.0435 0,0.0652 0,0.0217 0,0.0435 0,0.0652 0,0.087 0.009,0.17435 0,0.26088 -0.0131,0.13159 -0.0365,0.26223 -0.0652,0.39132 -0.0721,0.32444 -0.0652,0.0927 -0.0652,0.26089"
       id="path42" />
    <path
       style="fill:none;stroke:#000000;stroke-width:0.264583px;stroke-linecap:butt;stroke-linejoin:miter;stroke-opacity:1"
       d="m 159.9212,150.4642 c 0,1.00005 0,2.0001 0,3.00015 0,0.19566 0,0.39132 0,0.58699 0,0.15218 0.007,0.30453 0,0.45654 -0.0667,1.40039 -0.0872,0.5071 -0.13044,2.15229 -0.0109,0.41291 -0.0411,0.82817 0,1.23919 0.0247,0.24664 0.14372,0.47505 0.19566,0.71743 0.01,0.0449 0,0.46609 0,0.52176 0,0.0435 -0.0138,0.0892 0,0.13044 0.0307,0.0922 0.0943,0.17062 0.13044,0.26089 0.008,0.0202 -0.002,0.0436 0,0.0652 0.0196,0.19589 0.0554,0.39036 0.0652,0.58698 0.0119,0.23885 0,0.47829 0,0.71743 0,0.2174 0,0.43481 0,0.65221 0,0.17392 0,0.34784 0,0.52176 0,0.0652 -0.0206,0.13379 0,0.19567 0.007,0.0206 0.0435,0 0.0652,0 0.0217,0 0.0498,0.0154 0.0652,0 0.0154,-0.0154 -0.002,-0.0436 0,-0.0652 0.0196,-0.19588 0.0398,-0.39177 0.0652,-0.58698 0.0398,-0.30487 0.0671,-0.61223 0.13044,-0.91309 0.0241,-0.11456 0.0983,-0.21353 0.13044,-0.3261 0.0119,-0.0418 0.0307,-0.0997 0,-0.13045 -0.0217,-0.0217 -0.0578,0.0354 -0.0652,0.0652 -0.0158,0.0633 0,0.13045 0,0.19567 0,0.0435 0.0195,0.0915 0,0.13044 -0.01,0.0195 -0.0458,-0.01 -0.0652,0 -0.0275,0.0138 -0.0435,0.0435 -0.0652,0.0652"
       id="path43" />
    <path
       style="fill:none;stroke:#000000;stroke-width:0.264583px;stroke-linecap:butt;stroke-linejoin:miter;stroke-opacity:1"
       d="m 169.89997,150.4642 c -0.0464,0.78341 0.0959,1.56559 0.0652,2.34794 -0.0223,0.56856 -0.11519,1.13246 -0.19566,1.69574 -0.007,0.0481 -0.0652,0.0818 -0.0652,0.13044 0,0.34853 0.054,0.69519 0.0652,1.04353 0.0105,0.32594 0,0.65221 0,0.97832 0,0.19566 0.0122,0.3917 0,0.58698 -0.0109,0.17494 -0.0339,0.34932 -0.0652,0.52177 -0.0123,0.0676 -0.0652,0.12691 -0.0652,0.19566 0,0.0307 0.0515,0.0377 0.0652,0.0652 0.01,0.0195 0,0.0435 0,0.0652 0,0.0652 0,0.13044 0,0.19566 0,0.13044 0,0.26089 0,0.39133 0,0.23914 0,0.47828 0,0.71742 0,0.0435 0,0.087 0,0.13045 0,0.0217 0.007,0.0446 0,0.0652 -0.0652,0.17392 -0.13044,0.34784 -0.19566,0.52176 -0.0217,0.17392 -0.0129,0.35447 -0.0652,0.52177 -0.29977,0.95927 -0.26088,0.16644 -0.26088,0.78265 0,0.0217 0,-0.0435 0,-0.0652 0,-0.0652 0,-0.13045 0,-0.19567 0,-0.17392 0,-0.34784 0,-0.52176 0,-0.1087 -0.009,-0.21778 0,-0.32611 0.0332,-0.3979 0.10808,-0.46214 0.0652,-0.84786 -0.008,-0.0683 -0.0345,-0.13418 -0.0652,-0.19567 -0.0217,-0.0435 -0.1087,-0.1087 -0.13044,-0.0652 -0.0195,0.0389 0,0.087 0,0.13044 0,0.0217 0,-0.0435 0,-0.0652"
       id="path44" />
    <path
       style="fill:none;stroke:#000000;stroke-width:0.264583px;stroke-linecap:butt;stroke-linejoin:miter;stroke-opacity:1"
       d="m 178.44389,151.96427 c -0.0217,0.13044 -0.0435,0.26089 -0.0652,0.39133 -0.0217,0.15218 -0.0399,0.30491 -0.0652,0.45654 -0.0737,0.44249 -0.0652,0.18632 -0.0652,0.45655 0,0.1087 0,0.2174 0,0.3261 0,0.0217 0.0154,0.0499 0,0.0652 -0.0154,0.0154 -0.0652,-0.0217 -0.0652,0 0,0.0308 0.0515,0.0377 0.0652,0.0652 0.01,0.0194 0,0.0435 0,0.0652 0,0.1087 0,0.21741 0,0.32611 0,0.0435 -0.0105,0.0883 0,0.13044 0.0118,0.0472 0.0498,0.0843 0.0652,0.13044 0.007,0.0206 0.002,0.0436 0,0.0652 -0.0196,0.19589 -0.0408,0.39164 -0.0652,0.58699 -0.0191,0.15254 -0.0462,0.304 -0.0652,0.45654 -0.003,0.0216 0,0.0435 0,0.0652 0.0217,0.0217 0.0652,0.0345 0.0652,0.0652 0,0.0308 -0.0652,0.0345 -0.0652,0.0652 0,0.0486 0.0499,0.0843 0.0652,0.13044 0.007,0.0206 0,0.0435 0,0.0652 0,0.0435 0,0.087 0,0.13045 0,0.0652 0.0206,0.13379 0,0.19566 -0.007,0.0206 -0.0435,0 -0.0652,0"
       id="path45" />
    <path
       style="fill:none;stroke:#000000;stroke-width:0.264583px;stroke-linecap:butt;stroke-linejoin:miter;stroke-opacity:1"
       d="m 151.31207,153.52957 c 1.52181,0 3.04363,0 4.56544,0 0.21741,0 0.43481,0 0.65221,0 0.0652,0 0.13045,0 0.19567,0 0.0435,0 0.0874,-0.006 0.13044,0 0.30574,0.0437 0.39573,0.10363 0.71743,0.13044 0.12999,0.0108 0.26088,0 0.39132,0 0.0435,0 0.087,0 0.13044,0 0.0435,0 0.0892,-0.0138 0.13044,0 0.0292,0.01 0.0435,0.0435 0.0652,0.0652 0.1087,0.0435 0.21182,0.10505 0.32611,0.13044 0.0849,0.0189 0.17585,-0.0182 0.26088,0 0.85735,0.18372 0.38259,0.18745 1.04353,0.26089 0.0648,0.007 0.13044,0 0.19566,0 0.0652,0 0.13044,0 0.19566,0 0.19567,0 0.39133,0 0.58699,0 0.84787,0 1.69574,0 2.54361,0 0.34784,0 0.69569,0 1.04353,0 0.1087,0 0.2174,0 0.3261,0 0.0652,0 0.13239,-0.0158 0.19567,0 0.13339,0.0333 0.25534,0.11004 0.39132,0.13044 0.44245,0.0664 0.86547,0.0652 1.30442,0.0652 0.50002,0 1.00005,0 1.50007,0 1.63052,0 3.26104,0 4.89156,0 0.13044,0 0.26088,0 0.39132,0 0.0435,0 0.0885,-0.0114 0.13044,0 0.19898,0.0543 0.3869,0.14564 0.58699,0.19566 0.30794,0.077 0.60192,0.0652 0.91309,0.0652 0.2174,0 0.4348,0 0.6522,0 0.0652,0 0.13045,0 0.19567,0 0.0217,0 0.0446,-0.007 0.0652,0 0.0461,0.0154 0.0822,0.0592 0.13044,0.0652 0.12943,0.0162 0.26127,0.01 0.39132,0 1.14334,-0.088 0.0975,0.0491 0.58699,-0.19566 0.0389,-0.0194 0.087,0 0.13044,0 0.1087,0 0.2174,0 0.3261,0 0.0217,0 0.0458,0.01 0.0652,0 0.0275,-0.0138 0.0435,-0.0435 0.0652,-0.0652 0.0435,-0.0435 0.0754,-0.10294 0.13044,-0.13044 0.0802,-0.0401 0.17469,-0.0406 0.26088,-0.0652 0.0661,-0.0189 0.12785,-0.0539 0.19566,-0.0652 0.12184,-0.0203 0.28408,0.042 0.39133,-0.0652 0.0307,-0.0308 -0.0195,-0.0916 0,-0.13045 0.01,-0.0194 0.0435,0 0.0652,0 0.0652,0 0.13044,0 0.19566,0 0.17392,0 0.34784,0 0.52176,0 0.10871,0 0.22065,0.0264 0.32611,0 0.17656,0.0725 0.15776,-0.16128 0.26088,-0.19566 0.0412,-0.0138 0.087,0 0.13044,0 0.1087,0 0.21741,0 0.32611,0 0.13044,0 0.26088,0 0.39132,0 0.23915,0 0.47992,0.0279 0.71743,0 0.13044,-0.0435 0.26088,-0.087 0.39132,-0.13044 0.0217,-0.0217 0.0361,-0.0555 0.0652,-0.0652 0.0413,-0.0138 0.087,0 0.13045,0 0.1087,0 0.21888,0.0179 0.3261,0 0.20871,-0.0348 0.0739,-0.0739 0.19566,-0.19566 0.0154,-0.0154 0.0435,0 0.0652,0 0.1087,0 0.2174,0 0.32611,0"
       id="path46" />
    <path
       style="fill:none;stroke:#000000;stroke-width:0.264583px;stroke-linecap:butt;stroke-linejoin:miter;stroke-opacity:1"
       d="m 150.20331,156.4645 c 0.41979,0.08 2.69606,0.5092 3.00016,0.58699 0.39962,0.10223 0.77204,0.29857 1.17397,0.39132 0.088,0.0203 0.5795,0 0.78265,0 0.2174,0 0.4348,0 0.6522,0 0.0652,0 0.13239,0.0158 0.19567,0 0.0597,-0.0149 0.0701,-0.11838 0.13044,-0.13044 0.0853,-0.0171 0.17392,0 0.26088,0 0.0331,0 1.467,0 1.50008,0 0.13044,0 0.26088,0 0.39132,0 0.0217,0 0.0435,0 0.0652,0 0.0217,0 0.0499,0.0154 0.0652,0 0.3942,-0.3942 -0.95532,0.22679 0.65221,-0.13044 0.20902,-0.0464 0.3801,-0.20571 0.58699,-0.26088 0.12604,-0.0336 0.26088,0 0.39132,0 0.2174,0 0.43481,0 0.65221,0 0.73917,0 1.47834,0 2.2175,0 0.19566,0 0.39133,0 0.58699,0 0.19566,0 0.3943,0.034 0.58699,0 0.18292,-0.0323 0.34256,-0.14679 0.52176,-0.19566 0.0629,-0.0172 0.13044,0 0.19566,0 0.0896,0 0.45838,0.009 0.52177,0 0.0681,-0.01 0.12995,-0.045 0.19566,-0.0652 0.21694,-0.0668 0.42964,-0.15115 0.65221,-0.19567 0.10659,-0.0213 0.22619,0.0428 0.3261,0 0.0721,-0.0309 0.075,-0.14023 0.13044,-0.19566 0.0154,-0.0154 0.0435,0 0.0652,0 0.10869,0 0.2174,0 0.3261,0 0.13044,0 0.26088,0 0.39132,0 1.15224,0 2.30447,0 3.4567,0 1.17397,0 2.34795,0 3.52192,0 0.2174,0 0.43481,0 0.65221,0 0.0435,0 0.087,0 0.13044,0 0.0217,0 0.0555,0.0194 0.0652,0 0.0194,-0.0389 -0.0404,-0.11429 0,-0.13044 0.10093,-0.0404 0.2174,0 0.3261,0 0.0435,0 0.087,0 0.13044,0 0.0435,0 0.0883,0.0106 0.13045,0 0.0472,-0.0118 0.087,-0.0435 0.13044,-0.0652 0.15218,-0.0435 0.303,-0.0921 0.45654,-0.13044 0.10755,-0.0269 0.22094,-0.0302 0.32611,-0.0652 0.0583,-0.0194 0.0754,-0.10294 0.13044,-0.13043 0.0194,-0.01 0.0435,0 0.0652,0 0.0435,0 0.087,0 0.13044,0 0.13044,0 0.26088,0 0.39132,0 0.36959,0 0.73917,0 1.10875,0 0.17076,0 0.35469,0.0139 0.52177,0 0.6478,-0.054 0.25896,-0.0123 0.71743,-0.19567 0.0202,-0.008 0.0435,0 0.0652,0 0.0652,0 0.13044,0 0.19566,0 0.1087,0 0.2174,0 0.32611,0 0.0435,0 0.0892,0.0138 0.13044,0 0.0292,-0.01 0.0435,-0.0435 0.0652,-0.0652 0.0217,-0.0217 0.0515,-0.0377 0.0652,-0.0652 0.01,-0.0195 -0.0195,-0.0555 0,-0.0652 0.0389,-0.0195 0.087,0 0.13044,0 0.13044,0 0.26088,0 0.39132,0"
       id="path47" />
    <path
       style="fill:none;stroke:#000000;stroke-width:0.264583px;stroke-linecap:butt;stroke-linejoin:miter;stroke-opacity:1"
       d="m 87.395761,159.9212 c -0.573876,0.57388 -0.464005,0.41481 -0.913088,1.04353 -0.09112,0.12757 -0.150029,0.28047 -0.260884,0.39133 -0.602324,0.60232 -0.2128,-0.13134 -0.782649,0.6522 -0.241265,0.33174 -0.417959,0.7068 -0.652208,1.04353 -0.461867,0.66394 -0.963165,1.29963 -1.434854,1.95663 -0.745805,1.03879 -1.53552,2.04882 -2.217505,3.13059 -0.581093,0.92174 -1.009004,1.9328 -1.565298,2.86971 -0.304364,0.43481 -0.608725,0.86961 -0.913088,1.30442 -0.04348,0 -0.105169,-0.0354 -0.130442,0 -0.203753,0.28525 -0.311436,0.63265 -0.521767,0.91309 -0.636381,0.84851 -0.587626,0.37613 -1.043532,1.17397 -0.06822,0.11938 -0.09709,0.25793 -0.13044,0.39132 -0.01056,0.0422 0.04348,0.13045 0,0.13045 -0.06149,0 -0.07928,-0.0963 -0.130442,-0.13045 -0.0809,-0.0539 -0.165544,-0.11137 -0.260882,-0.13044 -0.12791,-0.0256 -0.260884,0 -0.391324,0 -0.08696,0 -0.173924,0 -0.260884,0 -0.652206,0 -1.304415,0 -1.95662,0 -0.391324,0 -0.783191,0.0206 -1.173975,0 -0.436369,-0.023 -0.880488,-0.0245 -1.304414,-0.13044 -0.454316,-0.11358 -0.865931,-0.35733 -1.304415,-0.52176 -0.257484,-0.0966 -0.521766,-0.17393 -0.782648,-0.26089 -0.304363,-0.13044 -0.605636,-0.26834 -0.91309,-0.39132 -0.344927,-0.13797 -0.680281,-0.31349 -1.04353,-0.39133 -0.255093,-0.0547 -0.521766,0 -0.782651,0 -0.565245,0 -1.13049,0 -1.695738,0 -0.173921,0 -0.347843,0 -0.521766,0 -0.04348,0 -0.09155,0.0195 -0.13044,0 -0.055,-0.0275 -0.110998,-0.0721 -0.130442,-0.13044 -0.116203,-0.3486 0.18501,-0.40463 0.391324,-0.6522 0.100362,-0.12044 0.162949,-0.26891 0.260884,-0.39133 0.07682,-0.096 0.192665,-0.15856 0.260882,-0.26088 0.02413,-0.0362 0,-0.087 0,-0.13044 0,-0.087 0,-0.17392 0,-0.26089 0,-0.0435 -0.03889,-0.11099 0,-0.13044 0.07778,-0.0389 0.192977,0.0543 0.260882,0 0.169764,-0.13581 0.237598,-0.36804 0.391324,-0.52176 0.06875,-0.0688 0.217403,-0.0435 0.260884,-0.13045 0.05834,-0.11667 -0.04125,-0.26757 0,-0.39132 0.01376,-0.0413 0.09155,0.0195 0.130443,0 0.140218,-0.0701 0.265906,-0.16682 0.391324,-0.26088 0.04919,-0.0369 0.07014,-0.11838 0.130439,-0.13044 0.170545,-0.0341 0.35677,0.055 0.521766,0 1.157124,-0.38571 -0.749112,-0.19114 0.652209,-0.39133 0.172172,-0.0246 0.366204,0.0778 0.521764,0 0.140221,-0.0701 0.138467,-0.29339 0.260884,-0.39132 0.107368,-0.0859 0.264943,-0.0763 0.391324,-0.13044 0.442762,-0.18976 0.688544,-0.40041 1.173972,-0.52177 0.298276,-0.0746 0.632137,-0.006 0.913091,-0.13044 0.143258,-0.0637 0.135466,-0.29726 0.260884,-0.39133 0.04187,-0.0314 0.436142,0.0285 0.521764,0 0.05833,-0.0194 0.08125,-0.0935 0.130442,-0.13044 0.125418,-0.0941 0.254283,-0.18474 0.391324,-0.26088 0.254971,-0.14165 0.53254,-0.24126 0.782648,-0.39132 1.070583,-0.64235 0.02758,-0.11852 0.91309,-0.78265 0.549191,-0.4119 0.588082,-0.28785 1.043533,-0.65221 0.09603,-0.0768 0.16833,-0.1799 0.260882,-0.26088 0.255571,-0.22363 0.530232,-0.42503 0.78265,-0.65221 0.182822,-0.16454 0.336659,-0.3598 0.521764,-0.52176 0.163613,-0.14317 0.355804,-0.2509 0.521766,-0.39133 0.39969,-0.3382 0.771753,-0.70835 1.173972,-1.04353 0.120436,-0.10036 0.280472,-0.15003 0.391327,-0.26088 0.03074,-0.0307 -0.01945,-0.0915 0,-0.13045 0.07011,-0.14022 0.173921,-0.26088 0.260882,-0.39132 0.130442,-0.43481 0.222731,-0.88293 0.391324,-1.30441 0.180544,-0.45136 0.457359,-0.85905 0.652208,-1.30442 0.110223,-0.25194 0.185336,-0.51823 0.260882,-0.78265 0.01193,-0.0418 0,-0.087 0,-0.13044 0,-0.0435 0.04348,-0.13044 0,-0.13044 -0.0546,0 0.03402,0.15882 0,0.26088 -0.169331,0.508 -0.130442,0.0122 -0.130442,0.52177 0,0.30426 0.03094,1.1497 0,1.30441 -0.03814,0.19068 -0.173921,0.34785 -0.260882,0.52177 -0.04348,0.087 -0.08696,0.17392 -0.130442,0.26088"
       id="path48" />
    <path
       style="fill:none;stroke:#000000;stroke-width:0.264583px;stroke-linecap:butt;stroke-linejoin:miter;stroke-opacity:1"
       d="m 94.048275,159.9212 c -0.44966,0.89932 -0.391324,0.49097 -0.391324,1.17397 0,0.2174 0.04888,0.44037 0,0.65221 -0.08354,0.36198 -0.301223,0.68313 -0.391325,1.04353 -0.743913,4.46348 0.141492,0.0973 -0.521766,2.08707 -0.0275,0.0825 0,0.17392 0,0.26088 0,0.31314 0.01614,0.3671 -0.260882,0.78265 -0.05393,0.0809 -0.192135,0.0617 -0.260884,0.13044 -0.247367,0.24736 -0.01352,0.53528 -0.260882,0.78265 -0.06875,0.0687 -0.206952,0.0495 -0.260882,0.13044 -0.04824,0.0724 0,0.17392 0,0.26088 0,0.17392 0.04778,0.35454 0,0.52177 -0.04307,0.15073 -0.169762,0.26375 -0.260884,0.39132 -0.126362,0.17691 -0.255514,0.352 -0.391324,0.52177 -0.120989,0.15123 -0.226589,0.15126 -0.260882,0.39132 -0.03075,0.21522 0.05273,0.4413 0,0.65221 -0.03802,0.15209 -0.20266,0.24576 -0.260884,0.39132 -0.0323,0.0807 0.0275,0.17839 0,0.26088 -0.06149,0.18448 -0.192607,0.3397 -0.260882,0.52177 -0.323953,0.21599 -0.0468,0.53174 -0.130442,0.78265 -0.01945,0.0583 -0.08696,0.087 -0.13044,0.13044 -0.08696,0.087 -0.205886,0.15089 -0.260885,0.26088 -0.03889,0.0778 0.0323,0.18014 0,0.26089 -0.137038,0.34259 -0.824116,0.95455 -1.043529,1.17397 -0.130443,0.13044 -0.260885,0.26088 -0.391327,0.39132 -0.08696,0.087 -0.164849,0.18406 -0.260882,0.26089 -0.122417,0.0979 -0.245766,0.20266 -0.391324,0.26088 -0.08074,0.0323 -0.173921,0 -0.260884,0 -0.244192,0 -0.410263,-0.0147 -0.652206,0.13044 -1.196023,0.71762 1.218858,-0.34854 -0.782648,0.65221 -0.07778,0.0389 -0.173921,0 -0.260885,0 -0.260882,0 -0.521763,0 -0.782648,0 -0.91309,0 -1.82618,0 -2.739271,0 -0.434803,0 -0.869608,0 -1.304414,0 -0.13044,0 -0.260882,0 -0.391324,0 -0.08696,0 -0.175609,0.0171 -0.260882,0 -0.134826,-0.027 -0.255699,-0.10784 -0.391324,-0.13044 -0.128667,-0.0215 -0.270214,0.0484 -0.391324,0 -0.114186,-0.0457 -0.162499,-0.1871 -0.260884,-0.26089 -0.36952,-0.27714 -0.136057,-0.034 -0.521764,-0.13044 -0.09432,-0.0236 -0.173924,-0.087 -0.260885,-0.13044 -0.08696,-0.0435 -0.173921,-0.087 -0.260881,-0.13044 -0.08696,-0.0435 -0.168648,-0.0997 -0.260885,-0.13044 -0.03787,-0.0126 -0.386082,0.0105 -0.391324,0 -0.03889,-0.0778 0,-0.17392 0,-0.26088"
       id="path49" />
    <path
       style="fill:none;stroke:#000000;stroke-width:0.264583px;stroke-linecap:butt;stroke-linejoin:miter;stroke-opacity:1"
       d="m 80.091041,169.96519 c 3.612332,0 0.133596,-0.0506 3.391477,0.13044 0.260482,0.0145 0.524388,0.0369 0.78265,0 0.06087,-0.009 0.08696,-0.087 0.13044,-0.13044 0.08696,-0.087 0.173924,-0.17392 0.260884,-0.26088 0.04348,-0.0435 0.07211,-0.111 0.13044,-0.13044 0.0825,-0.0275 0.183105,0.0389 0.260884,0 0.03889,-0.0195 -0.02413,-0.0943 0,-0.13045 0.06822,-0.10232 0.166405,-0.18215 0.260882,-0.26088 0.167013,-0.13918 0.340876,-0.27073 0.521766,-0.39132 0.0809,-0.0539 0.192136,-0.0617 0.260882,-0.13044 0.06875,-0.0687 0.04955,-0.20696 0.130443,-0.26089 0.07236,-0.0482 0.187139,0.0461 0.260884,0 0.357254,-0.22328 1.094605,-0.88479 1.304414,-1.30441 0.05834,-0.11667 0,-0.26088 0,-0.39132 0,-0.0435 0,-0.087 0,-0.13045 0,-0.087 0.0108,-0.17459 0,-0.26088 -0.03814,-0.30508 -0.10491,-0.6067 -0.130442,-0.91309 -0.02527,-0.30331 0,-0.60873 0,-0.91309 0,-0.17392 -0.055,-0.35677 0,-0.52176 0.04958,-0.14873 0.173921,-0.26089 0.260882,-0.39133 0.08696,-0.13044 0.180226,-0.25689 0.260884,-0.39132 0.05002,-0.0834 0.07211,-0.18311 0.13044,-0.26089 0.07379,-0.0984 0.221993,-0.14421 0.260884,-0.26088 0.055,-0.165 -0.07778,-0.3662 0,-0.52177 0.07011,-0.14022 0.310666,-0.12645 0.391324,-0.26088 0.06711,-0.11185 -0.04125,-0.26758 0,-0.39132 0.04957,-0.14873 0.180224,-0.2569 0.260882,-0.39133 0.05002,-0.0834 0.0997,-0.16864 0.130442,-0.26088 0.02114,-0.0634 0,-0.67302 0,-0.78265"
       id="path50" />
    <path
       style="fill:none;stroke:#000000;stroke-width:0.264583px;stroke-linecap:butt;stroke-linejoin:miter;stroke-opacity:1"
       d="m 140.74631,160.05164 c 0,0.88032 0.0422,0.35304 -0.26088,1.5653 -0.087,0.34784 -0.1475,0.70338 -0.26089,1.04353 -0.10471,0.31415 -0.30419,0.59362 -0.39132,0.91309 -0.30436,1.116 0.22827,0 0,0.91309 -0.41784,1.67134 -0.10599,0.0571 -0.39133,0.91309 -0.0181,0.0544 0.021,0.23985 0,0.26088 -0.0307,0.0308 -0.087,0 -0.13044,0 -0.087,0.13045 -0.2113,0.2426 -0.26088,0.39133 -0.0412,0.12375 0.0316,0.26477 0,0.39132 -0.087,0.2174 -0.17392,0.43481 -0.26088,0.65221 -0.0435,0.0435 -0.10295,0.0754 -0.13044,0.13044 -0.0194,0.0389 0.0106,0.0883 0,0.13044 -0.0333,0.13339 -0.0763,0.26495 -0.13045,0.39133 -0.0766,0.17872 -0.1926,0.33969 -0.26088,0.52176 -0.0629,0.16786 -0.0598,0.35699 -0.13044,0.52177 -0.0618,0.14409 -0.19077,0.2511 -0.26088,0.39132 -0.0195,0.0389 0.0153,0.0897 0,0.13044 -0.11627,0.31006 -0.25256,0.61243 -0.39133,0.91309 -0.12223,0.26483 -0.26088,0.52177 -0.39132,0.78265 -0.087,0.17392 -0.16441,0.35294 -0.26088,0.52177 -0.0778,0.13611 -0.17393,0.26088 -0.26089,0.39132 -0.087,0.13044 -0.16976,0.26376 -0.26088,0.39133 -0.12636,0.1769 -0.2941,0.32731 -0.39132,0.52176 -0.0389,0.0778 0.0275,0.17839 0,0.26089 -0.0847,0.25397 -0.33071,0.0547 -0.39133,0.13044 -0.15838,0.19797 -0.26088,0.4348 -0.39132,0.6522 -0.21741,0.26089 -0.42859,0.52708 -0.65221,0.78265 -0.081,0.0926 -0.15088,0.20589 -0.26088,0.26089 -0.55968,0.27984 -0.86234,0.24819 -1.43486,0.39132 -0.30709,0.0768 -0.61765,0.14725 -0.91309,0.26088 -0.27223,0.10471 -0.54931,0.21632 -0.78265,0.39133 -0.17392,0.13044 -0.19687,0.42454 -0.39132,0.52176 -0.0389,0.0195 -0.0878,-0.009 -0.13044,0 -0.1758,0.0352 -0.35271,0.0708 -0.52177,0.13044 -0.57108,0.20156 -1.1409,0.40947 -1.69574,0.65221 -0.70114,0.30675 -0.0555,0.28413 -0.91309,0.39132 -0.17258,0.0216 -0.34784,0 -0.52176,0 -0.30437,0 -0.60873,0 -0.91309,0 -0.17392,0 -0.34785,0 -0.52177,0 -0.087,0 -0.17392,0 -0.26088,0 -0.0435,0 -0.0915,0.0195 -0.13044,0 -0.055,-0.0275 -0.0708,-0.11552 -0.13045,-0.13044 -0.12654,-0.0316 -0.27465,0.0583 -0.39132,0 -0.087,-0.0435 -0.087,-0.17392 -0.13044,-0.26088 -0.13044,-0.0435 -0.25793,-0.0971 -0.39133,-0.13044 -0.0422,-0.0106 -0.087,0 -0.13044,0 -0.17392,0 -0.34784,0 -0.52176,0 -0.30436,0 -0.60873,0 -0.91309,0 -0.087,0 -0.17392,0 -0.26088,0 -0.0435,0 -0.0957,0.0261 -0.13045,0 -0.14757,-0.11068 -0.22632,-0.30883 -0.39132,-0.39132 -0.11667,-0.0583 -0.26088,0 -0.39132,0 -0.26089,0 -0.52177,0 -0.78265,0 -0.087,0 -0.18311,0.0389 -0.26089,0 -0.10999,-0.055 -0.17392,-0.17393 -0.26088,-0.26089 -0.40715,-0.40715 -0.13044,-0.069 -0.13044,-1.30441 0,-0.39133 0,-0.78265 0,-1.17397 0,-0.17393 0,-0.34785 0,-0.52177 0,-0.0435 -0.0106,-0.0883 0,-0.13044 0.0768,-0.30709 0.14332,-0.61919 0.26088,-0.91309 0.0582,-0.14556 0.19077,-0.25111 0.26089,-0.39133 0.0801,-0.16023 0.0644,-0.42353 0.26088,-0.52176 0.0389,-0.0194 0.087,0 0.13044,0 0.13044,0 0.26088,0 0.39132,0 0.13045,0 0.26089,0 0.39133,0 0.30436,0 0.61287,0.05 0.91309,0 0.23096,-0.0385 0.4348,-0.17392 0.6522,-0.26089 0.26089,-0.0435 0.51948,-0.10412 0.78265,-0.13044 0.11595,-0.0116 1.12687,0.0145 1.17398,0 2.769,-0.852 -0.65145,-0.22846 2.08706,-0.91309 0.21091,-0.0527 0.4348,0 0.65221,0 0.087,0 0.1831,0.0389 0.26088,0 0.0389,-0.0194 -0.0308,-0.0997 0,-0.13044 -0.20756,-0.552 0.41069,-0.18683 0.52177,-0.26088 0.10232,-0.0682 0.17392,-0.17392 0.26088,-0.26088 0.17392,-0.17392 0.3643,-0.33281 0.52176,-0.52177 0.10037,-0.12044 0.13332,-0.3002 0.26089,-0.39132 0.19053,-0.1361 0.44278,-0.15617 0.6522,-0.26089 0.055,-0.0275 0.0793,-0.0963 0.13045,-0.13044 0.0809,-0.0539 0.17998,-0.0765 0.26088,-0.13044 0.39132,-0.26088 -0.26088,0 0.39132,-0.39132 0.11791,-0.0708 0.27692,-0.0542 0.39133,-0.13045 1.04353,-0.69568 0.058,-0.17392 0.52176,-0.52176 0.12542,-0.0941 0.26089,-0.17392 0.39133,-0.26088 0.13044,-0.087 0.25689,-0.18023 0.39132,-0.26089 0.0834,-0.05 0.18497,-0.0697 0.26089,-0.13044 0.13043,-0.13044 0.26088,-0.26088 0.39132,-0.39132 0,-0.0435 -0.0241,-0.0943 0,-0.13044 0.0682,-0.10233 0.17392,-0.17393 0.26088,-0.26089 0.13044,-0.13044 0.27609,-0.24727 0.39132,-0.39132 0.0607,-0.0759 0.0765,-0.17999 0.13045,-0.26088 0.11504,-0.17257 0.4461,-0.35153 0.52176,-0.52177 0.12856,-0.28926 0.16079,-0.61279 0.26089,-0.91309 -0.0171,-0.36638 0.28661,-0.59894 0.39132,-0.91309 0.0138,-0.0412 0,-0.087 0,-0.13044 0,-0.087 0,-0.17392 0,-0.26088 0,-0.30437 -0.0638,-0.61549 0,-0.91309 0.0778,-0.36326 0.28457,-0.68771 0.39132,-1.04354 0.0375,-0.12493 0,-0.26088 0,-0.39132 0,-0.26088 0,-0.52177 0,-0.78265 0,-0.4348 0,-0.86961 0,-1.30441"
       id="path51" />
    <path
       style="fill:none;stroke:#000000;stroke-width:0.264583px;stroke-linecap:butt;stroke-linejoin:miter;stroke-opacity:1"
       d="m 121.96274,160.05164 c -0.0435,0.17392 -0.1082,0.34388 -0.13044,0.52177 -0.0216,0.17258 0,0.34784 0,0.52176 0,0.2174 0,0.43481 0,0.65221 0,0.0435 0.0307,0.0997 0,0.13044 -0.0307,0.0307 -0.10435,-0.0348 -0.13044,0 -0.11667,0.15556 -0.20746,0.3348 -0.26088,0.52177 -0.0575,0.20126 0.0377,0.55662 0,0.78265 -0.20388,1.22323 0.0537,0.24558 -0.39133,0.91309 -0.0241,0.0362 0,0.087 0,0.13044 0,0.2174 0,0.4348 0,0.65221 0,0.56524 0,1.13049 0,1.69573 0,0.26089 0,0.52177 0,0.78265 0,0.087 0.0211,0.17652 0,0.26088 -0.0236,0.0943 -0.087,0.17393 -0.13044,0.26089 -0.087,0.17392 -0.21229,0.33348 -0.26088,0.52176 -0.30051,1.16446 -0.5468,2.34266 -0.78265,3.52192 -0.0688,0.34374 -0.13044,0.69298 -0.13044,1.04353 0,0.0615 0.11944,0.07 0.13044,0.13045 0.0782,0.42992 0.0969,0.86872 0.13044,1.30441 0.01,0.13006 0,0.26088 0,0.39132 0,0.0435 0.0241,0.0943 0,0.13045 -0.0682,0.10232 -0.19267,0.15855 -0.26088,0.26088 -0.0241,0.0362 0.0224,0.0932 0,0.13044 -0.11186,0.18642 -0.27073,0.34088 -0.39133,0.52177 -0.14063,0.21095 -0.25069,0.44125 -0.39132,0.6522 -0.12059,0.18089 -0.2941,0.32732 -0.39132,0.52177 -0.0389,0.0778 0.0389,0.1831 0,0.26088 -0.0194,0.0389 -0.0892,-0.0138 -0.13045,0 -0.0922,0.0307 -0.20695,0.0495 -0.26088,0.13044 -0.0482,0.0724 0.0389,0.1831 0,0.26088 -0.055,0.11 -0.18709,0.1625 -0.26088,0.26089 -0.0583,0.0778 -0.0495,0.20695 -0.13044,0.26088 -0.0724,0.0482 -0.18014,-0.0323 -0.26089,0 -0.14556,0.0582 -0.25521,0.1831 -0.39132,0.26089 -0.4934,0.28194 -0.89572,0.40061 -1.43486,0.6522 -0.51891,0.24216 -0.90354,0.51938 -1.43485,0.65221 -0.0844,0.0211 -0.17392,0 -0.26089,0 -0.13044,0 -0.26088,0 -0.39132,0 -0.0728,0 -0.5925,0.0199 -0.65221,0 -0.0583,-0.0195 -0.0754,-0.10294 -0.13044,-0.13044 -0.0389,-0.0195 -0.087,0 -0.13044,0 -0.0435,0 -0.087,0 -0.13044,0 -0.2174,0 -0.43998,0.0472 -0.65221,0 -0.18982,-0.0422 -0.33229,-0.21716 -0.52177,-0.26088 -0.38364,-0.0885 -0.781,-0.10589 -1.17397,-0.13045 -0.30377,-0.019 -0.60872,0 -0.91309,0 -0.0435,0 -0.087,0 -0.13044,0 -0.0435,0 -0.0956,0.0261 -0.13044,0 -0.14758,-0.11068 -0.22177,-0.31866 -0.39132,-0.39132 -0.86076,-0.3689 -0.19748,0.34664 -0.91309,-0.13044 -0.0362,-0.0241 0,-0.087 0,-0.13045 -0.0435,-0.0435 -0.0755,-0.10294 -0.13045,-0.13043 -0.0778,-0.0389 -0.17838,0.0275 -0.26088,0 -0.44603,-0.14868 -0.0971,-0.1082 -0.52176,-0.39133 -0.0362,-0.0241 -0.111,0.0389 -0.13045,0 -0.0389,-0.0778 0.0275,-0.17838 0,-0.26088 -0.0194,-0.0583 -0.0988,-0.0777 -0.13044,-0.13045 -0.28032,-0.46721 -0.26088,-0.3482 -0.26088,-0.6522 0,-0.0435 -0.0161,-0.0901 0,-0.13044 0.0523,-0.13079 0.73069,-1.68302 0.91309,-1.95662 0.0241,-0.0362 0.0915,0.0194 0.13044,0 0.22677,-0.11339 0.43208,-0.26554 0.65221,-0.39133 0.19566,-0.11181 0.65221,-0.29815 0.78265,-0.39132 0.15011,-0.10722 0.23314,-0.29642 0.39132,-0.39133 0.0746,-0.0447 0.18142,0.0353 0.26088,0 0.32034,-0.14237 0.58762,-0.39157 0.9131,-0.52176 0.12111,-0.0484 0.26088,0 0.39132,0 0.0435,0 0.0915,0.0194 0.13044,0 0.14022,-0.0701 0.2511,-0.19077 0.39133,-0.26089 0.0389,-0.0194 0.0957,0.0261 0.13043,0 0.14758,-0.11068 0.24728,-0.27608 0.39133,-0.39132 0.0759,-0.0607 0.17751,-0.0804 0.26088,-0.13044 0.13443,-0.0807 0.26591,-0.16682 0.39133,-0.26088 0.0492,-0.0369 0.0812,-0.0936 0.13044,-0.13045 0.12541,-0.0941 0.26891,-0.16295 0.39132,-0.26088 0.096,-0.0768 0.1625,-0.18709 0.26089,-0.26088 0.0778,-0.0583 0.17998,-0.0765 0.26088,-0.13044 0.0512,-0.0341 0.0891,-0.0849 0.13044,-0.13045 0.39349,-0.43284 0.78877,-0.86417 1.17397,-1.30441 0.22363,-0.25557 0.43481,-0.52177 0.65221,-0.78265 0.2174,-0.26088 0.42858,-0.52708 0.65221,-0.78265 0.081,-0.0925 0.20588,-0.15088 0.26088,-0.26088 0.0802,-0.16035 0.0953,-0.34597 0.13044,-0.52177 0.0953,-0.47668 0.17543,-0.9563 0.26088,-1.43485 0.13195,-0.7389 0.2638,-1.47783 0.39133,-2.2175 0.17919,-1.03932 0.11763,-1.40924 0.52176,-2.21751 -0.0723,-0.32306 0.29411,-0.32732 0.39133,-0.52177 0.0195,-0.0389 0,-0.087 0,-0.13044 0,-0.17392 0,-0.34784 0,-0.52176 0,-0.39133 0,-0.78265 0,-1.17398"
       id="path52" />
    <path
       style="fill:#782121;fill-opacity:1;stroke:#00a700;stroke-width:0.493783"
       d="m 268.93532,658.46151 c -5.61006,-2.05547 -8.04528,-2.98836 -10.95961,-4.19841 -2.7545,-1.1437 -3.71804,-1.27532 -9.33612,-1.27532 h -6.26462 l 1.24646,-1.35577 c 0.68555,-0.74567 1.97714,-2.46503 2.8702,-3.8208 0.89306,-1.35577 2.03756,-2.75493 2.54334,-3.10925 0.50577,-0.35432 0.91958,-0.88449 0.91958,-1.17817 0,-0.85682 1.61466,-1.84249 3.04608,-1.85949 0.72631,-0.009 1.65334,-0.34846 2.06007,-0.75519 0.40673,-0.40673 1.24022,-0.73951 1.85221,-0.73951 0.61199,0 1.57071,-0.39965 2.1305,-0.8881 1.33294,-1.16309 5.47558,-2.91997 7.74709,-3.28551 0.98958,-0.15925 2.07055,-0.61646 2.40215,-1.01601 0.3316,-0.39956 0.88867,-0.72646 1.23792,-0.72646 1.00716,0 7.80404,-3.99754 8.52072,-5.01141 0.35686,-0.50483 1.46613,-1.34127 2.46504,-1.85875 0.99891,-0.51748 3.36917,-2.34617 5.26724,-4.06375 1.89808,-1.71758 4.67125,-4.14524 6.16259,-5.3948 5.28725,-4.43004 5.77056,-5.02677 6.67123,-8.23672 0.82034,-2.9237 2.10296,-5.02722 1.4297,-2.34477 -0.42837,1.70679 0.89574,1.73956 1.66951,0.0413 l 0.56157,-1.23251 h 12.09624 12.09623 l -1.30502,1.97202 c -0.71777,1.08462 -1.60978,1.97203 -1.98226,1.97203 -0.37247,0 -1.64193,1.49751 -2.82101,3.3278 -1.17908,1.83029 -5.00709,7.25384 -8.50668,12.05233 -3.49959,4.79849 -7.80244,11.4071 -9.5619,14.68579 -1.75945,3.2787 -4.02922,7.00659 -5.04393,8.28421 -1.0147,1.27762 -2.26739,2.98851 -2.78375,3.80197 -0.51636,0.81346 -2.0156,2.74608 -3.33165,4.29471 l -2.39282,2.81569 -9.12063,0.003 c -7.62121,0.003 -9.52588,-0.14547 -11.58567,-0.90017 z"
       id="path53"
       transform="scale(0.26458333)" />
    <path
       style="fill:#782121;fill-opacity:1;stroke:#00a700;stroke-width:0.493783"
       d="m 301.72029,661.00802 c -0.67789,-0.12463 -1.53561,-0.47575 -1.90605,-0.78027 -0.71499,-0.58775 -3.53162,-1.72418 -5.34722,-2.15746 -1.07652,-0.2569 -1.07012,-0.28802 0.49301,-2.39781 4.44677,-6.0019 6.21599,-8.54661 7.29754,-10.49625 l 1.18824,-2.14197 7.65812,0.32672 c 7.33238,0.31281 7.69736,0.28334 8.58078,-0.69283 0.50747,-0.56074 1.22802,-1.01953 1.60124,-1.01953 0.37321,0 0.79925,-0.31447 0.94674,-0.69883 0.14749,-0.38435 1.77116,-1.70723 3.60816,-2.93972 1.83699,-1.23249 4.17459,-3.16469 5.19465,-4.29378 1.78316,-1.97374 1.84152,-2.15028 1.51372,-4.57864 -0.18752,-1.38916 -0.43327,-3.92455 -0.5461,-5.63419 -0.19508,-2.95579 -0.10821,-3.2544 1.76866,-6.08009 1.0856,-1.6344 1.8442,-3.18135 1.68579,-3.43767 -0.15841,-0.25631 0.13796,-0.84807 0.65861,-1.31501 0.52065,-0.46695 1.36001,-2.12465 1.86523,-3.68378 L 338.9,606.15212 h 7.20496 7.20495 l -0.0972,2.83479 c -0.0535,1.55913 -0.43023,3.61127 -0.83727,4.56031 -0.40703,0.94904 -0.89317,2.78781 -1.0803,4.08617 -0.18713,1.29835 -0.65814,3.12151 -1.04671,4.05147 -0.38856,0.92996 -0.70647,2.25476 -0.70647,2.94401 0,0.68925 -0.44371,1.63309 -0.98602,2.09743 -0.5423,0.46434 -0.98601,1.09781 -0.98601,1.40771 0,0.3099 -0.45899,1.14696 -1.01997,1.86014 -0.65578,0.83369 -0.90703,1.65256 -0.70365,2.29336 0.22345,0.70401 -0.23706,1.75054 -1.56831,3.56407 -1.03655,1.41207 -1.90047,3.12768 -1.91982,3.81246 -0.0344,1.21726 -0.5236,2.59771 -2.04772,5.7784 -0.41516,0.86641 -0.62871,1.90399 -0.47454,2.30574 0.15416,0.40174 -0.0521,1.00632 -0.45839,1.34351 -0.40628,0.33718 -1.02838,1.29627 -1.38244,2.13132 -0.35405,0.83505 -1.98867,2.79392 -3.63247,4.35306 -2.43249,2.30721 -3.30014,2.83479 -4.66205,2.83479 -1.16245,0 -2.17911,0.45156 -3.32994,1.47902 l -1.65661,1.47902 -10.88061,-0.0671 c -5.98434,-0.0369 -11.43525,-0.16911 -12.11313,-0.29374 z"
       id="path54"
       transform="scale(0.26458333)" />
    <path
       style="fill:#782121;fill-opacity:1;stroke:#00a700;stroke-width:0.493783"
       d="m 424.98171,678.25761 c -1.21487,-0.10684 -2.49535,-0.43203 -2.8455,-0.72264 -0.35016,-0.2906 -2.73943,-0.63835 -5.3095,-0.77278 -2.57007,-0.13444 -4.67285,-0.40914 -4.67285,-0.61044 0,-0.5417 -2.82254,-1.6136 -3.36543,-1.27807 -0.2568,0.15871 -0.74106,-0.0418 -1.07614,-0.44552 -0.33508,-0.40375 -0.9445,-0.73408 -1.35427,-0.73408 -0.93915,0 -3.00909,-2.34557 -3.3986,-3.85116 -0.18294,-0.70714 0.21964,-2.35009 1.06087,-4.32942 1.15288,-2.71264 1.69672,-3.38279 3.63536,-4.47976 1.25382,-0.70946 2.80996,-1.64531 3.4581,-2.07966 2.42602,-1.62582 6.10003,-3.33917 7.95213,-3.70845 1.31913,-0.26301 8.48995,-5.27332 11.2519,-7.86179 0.9065,-0.84956 3.60796,-3.88763 6.00323,-6.75126 l 4.35505,-5.2066 1.55223,-8.8441 c 2.39138,-13.62535 2.44614,-13.85671 3.72633,-15.74318 0.82983,-1.22283 1.20274,-2.45339 1.20274,-3.96897 v -2.19664 h 6.40153 6.40153 l -0.28553,3.0813 c -0.15704,1.69471 -0.58413,3.75252 -0.94908,4.57292 -0.36495,0.82039 -0.65105,2.39738 -0.63577,3.50442 0.0153,1.10703 -0.34055,2.57492 -0.79072,3.26197 -0.67066,1.02356 -0.80567,2.44816 -0.7475,7.88742 0.0539,5.03691 -0.10683,6.98231 -0.66612,8.06458 -0.4054,0.78449 -1.4111,4.53229 -2.23488,8.32844 -1.17304,5.40562 -1.5024,8.14902 -1.51908,12.65317 -0.0208,5.62384 -0.0561,5.80381 -1.59433,8.13462 -0.86517,1.31095 -2.27324,3.27096 -3.12906,4.35557 -0.85581,1.08462 -1.69763,2.35635 -1.8707,2.82607 -0.17448,0.47353 -3.26421,2.28569 -6.93475,4.06731 -6.97917,3.38757 -7.12509,3.41806 -13.62119,2.84673 z"
       id="path55"
       transform="scale(0.26458333)" />
    <path
       style="fill:#f4d7d7;fill-opacity:1;stroke:#00a700;stroke-width:0.493783"
       d="m 471.18593,669.75002 c -1.39372,-0.74699 -2.78159,-0.98601 -5.72516,-0.98601 -2.85231,0 -4.04867,-0.19665 -4.49922,-0.73951 -0.41545,-0.50059 -1.53044,-0.73952 -3.45105,-0.73952 -3.5185,0 -4.18081,-0.63573 -3.71402,-3.56502 0.18445,-1.1575 0.30518,-3.80329 0.26828,-5.87953 -0.0532,-2.99429 0.16871,-4.29214 1.07307,-6.27581 l 1.14016,-2.50085 3.51231,-0.01 c 1.93178,-0.006 4.45552,-0.3428 5.60831,-0.74954 1.1528,-0.40673 3.37133,-0.73951 4.93008,-0.73951 3.14069,0 6.73965,-1.0684 7.61043,-2.25927 0.3625,-0.49574 1.68076,-0.87479 3.6695,-1.05513 1.93924,-0.17584 3.19983,-0.53174 3.35977,-0.94855 0.1408,-0.36691 0.53679,-0.66712 0.87997,-0.66712 0.34319,0 1.54042,-0.99422 2.66053,-2.20939 1.1201,-1.21517 2.86772,-2.66612 3.88359,-3.22434 2.45602,-1.34957 5.03865,-3.11243 6.43731,-4.39401 0.62657,-0.57412 1.96646,-1.56607 2.97754,-2.20434 1.01108,-0.63826 2.41784,-1.90819 3.12615,-2.82207 0.7083,-0.91387 2.1128,-2.54899 3.1211,-3.63361 2.21576,-2.38345 4.33421,-7.90993 4.25212,-11.09266 -0.0315,-1.22019 0.43655,-3.60511 1.04004,-5.29982 l 1.09725,-3.0813 h 8.22613 c 7.43617,0 8.24366,0.0829 8.40875,0.86277 0.21707,1.02549 -1.64152,8.48756 -2.74887,11.03645 -0.42832,0.98592 -0.75904,2.77548 -0.73493,3.97679 0.0428,2.1331 -0.42081,3.3613 -2.17285,5.75604 -0.47452,0.64859 -0.86276,1.60846 -0.86276,2.13305 0,0.79174 -1.4019,4.64579 -3.46029,9.51288 -3.19931,7.5648 -6.59762,13.50425 -9.6044,16.78623 -0.54231,0.59193 -1.65157,2.01381 -2.46503,3.1597 -1.81344,2.55454 -2.33589,2.8445 -7.23208,4.01393 -4.46938,1.06748 -6.57146,2.03362 -7.43573,3.41754 -0.33335,0.53378 -0.89266,0.9705 -1.24291,0.9705 -1.01975,0 -8.66348,3.0214 -9.51797,3.76225 -0.54622,0.47358 -2.23909,0.67481 -5.67688,0.67481 -3.95665,0 -5.25229,-0.18959 -6.73824,-0.98601 z"
       id="path56"
       transform="scale(0.26458333)" />
    <path
       style="fill:#f4d7d7;fill-opacity:1;stroke:#00a700;stroke-width:0.0617229"
       d="m 262.25558,592.21012 c -0.0732,-0.24112 -0.15944,-0.95894 -0.22039,-1.83423 -0.078,-1.12061 -0.18814,-3.66879 -0.1824,-4.22137 l 0.004,-0.40057 0.14906,0.64707 c 0.36423,1.58111 0.76712,2.6885 1.46874,4.037 l 0.44916,0.86326 -0.58685,0.36926 c -1.09024,0.68598 -1.04404,0.66294 -1.08149,0.53958 z"
       id="path57"
       transform="scale(0.26458333)" />
    <path
       style="fill:#f4d7d7;fill-opacity:1;stroke:#00a700;stroke-width:0.0617229"
       d="m 261.17926,592.61692 c 0.008,-1.34121 0.014,-1.42586 0.0575,-0.79282 0.0889,1.2934 0.21115,1.57503 0.67836,1.56277 0.13274,-0.003 0.24134,6.1e-4 0.24134,0.009 0,0.023 -0.62121,0.49068 -0.81655,0.61479 l -0.16947,0.10767 z"
       id="path59"
       transform="scale(0.26458333)" />
    <path
       style="fill:#782121;fill-opacity:1;stroke:#00a700;stroke-width:0.0617229"
       d="m 266.22808,592.33699 c -0.002,-0.0738 -0.0993,-0.31645 -0.21542,-0.53922 -0.11612,-0.22278 -0.19238,-0.40422 -0.16947,-0.40321 0.0229,0.001 0.16209,0.10597 0.30929,0.23324 l 0.26765,0.2314 -0.0939,0.30598 c -0.0516,0.1683 -0.0958,0.24561 -0.0982,0.17181 z"
       id="path60"
       transform="scale(0.26458333)" />
    <path
       style="fill:#782121;fill-opacity:1;stroke:#00a700;stroke-width:0.493783"
       d="m 471.3147,669.25701 c -1.40134,-0.58802 -3.48972,-0.9475 -5.66958,-0.97593 -2.00774,-0.0262 -3.96652,-0.33969 -4.68357,-0.74959 -0.67788,-0.38752 -2.25915,-0.71244 -3.51393,-0.72204 -1.25478,-0.01 -2.50707,-0.29479 -2.78287,-0.63373 -0.82746,-1.01689 0.0399,-12.58499 1.10517,-14.73972 0.87807,-1.7761 0.9323,-1.80108 4.3961,-2.02489 3.26209,-0.21077 6.95084,-0.71723 13.61371,-1.86914 1.49135,-0.25783 3.29138,-0.89709 4.00007,-1.42059 0.70869,-0.52349 2.15074,-1.09124 3.20455,-1.26166 1.05381,-0.17043 2.36643,-0.4 2.91694,-0.51017 0.5505,-0.11016 2.54718,-1.54497 4.43706,-3.18846 1.88988,-1.64349 4.43448,-3.57429 5.65467,-4.29067 4.04037,-2.3721 10.33551,-7.59898 13.15735,-10.92458 3.43666,-4.05019 4.98146,-7.45316 5.59885,-12.33344 0.26181,-2.0695 0.82551,-4.81653 1.25268,-6.10452 l 0.77666,-2.34178 h 7.61746 c 6.28985,0 7.66653,0.12789 7.89904,0.73378 0.32147,0.83775 -0.43945,4.27784 -2.11562,9.56467 -0.63522,2.00357 -1.15495,4.40419 -1.15495,5.33471 0,0.93053 -0.64913,2.95182 -1.4425,4.49177 -0.79337,1.53994 -2.14365,4.79658 -3.0006,7.23696 -2.64924,7.54434 -7.49766,16.82051 -11.33803,21.69231 -4.24596,5.38632 -4.94601,6.00449 -7.56012,6.67582 -5.71619,1.46798 -7.35401,2.09384 -8.82526,3.37242 -0.88246,0.76689 -2.82466,1.79529 -4.31601,2.28532 -1.49134,0.49003 -4.04266,1.52039 -5.66958,2.28968 -2.54993,1.20573 -3.5362,1.39496 -7.1486,1.37155 -2.94556,-0.0191 -4.84968,-0.30373 -6.40909,-0.95808 z"
       id="path61"
       transform="scale(0.26458333)" />
  </g>
</svg>
