<?xml version="1.0" encoding="UTF-8" standalone="no"?>
<!-- Created with Inkscape (http://www.inkscape.org/) -->

<svg
   width="164.88483mm"
   height="164.9865mm"
   viewBox="0 0 164.88483 164.9865"
   version="1.1"
   id="svg1"
   xmlns:inkscape="http://www.inkscape.org/namespaces/inkscape"
   xmlns:sodipodi="http://sodipodi.sourceforge.net/DTD/sodipodi-0.dtd"
   xmlns="http://www.w3.org/2000/svg"
   xmlns:svg="http://www.w3.org/2000/svg">
  <sodipodi:namedview
     id="namedview1"
     pagecolor="#ffffff"
     bordercolor="#cccccc"
     borderopacity="1"
     inkscape:showpageshadow="0"
     inkscape:pageopacity="1"
     inkscape:pagecheckerboard="0"
     inkscape:deskcolor="#d1d1d1"
     inkscape:document-units="mm" />
  <defs
     id="defs1">
    <inkscape:path-effect
       effect="skeletal"
       id="path-effect28"
       is_visible="true"
       lpeversion="1"
       pattern="M 0,4.9921382 C 0,2.2364779 2.2364779,0 4.9921382,0 c 2.7556604,0 4.9921383,2.2364779 4.9921383,4.9921382 0,2.7556604 -2.2364779,4.9921383 -4.9921383,4.9921383 C 2.2364779,9.9842765 0,7.7477986 0,4.9921382 Z"
       copytype="single_stretched"
       prop_scale="1"
       scale_y_rel="false"
       spacing="0"
       normal_offset="0"
       tang_offset="0"
       prop_units="false"
       vertical_pattern="false"
       hide_knot="false"
       fuse_tolerance="0" />
    <inkscape:path-effect
       effect="skeletal"
       id="path-effect27"
       is_visible="true"
       lpeversion="1"
       pattern="M 0,4.9921382 C 0,2.2364779 2.2364779,0 4.9921382,0 c 2.7556604,0 4.9921383,2.2364779 4.9921383,4.9921382 0,2.7556604 -2.2364779,4.9921383 -4.9921383,4.9921383 C 2.2364779,9.9842765 0,7.7477986 0,4.9921382 Z"
       copytype="single_stretched"
       prop_scale="1"
       scale_y_rel="false"
       spacing="0"
       normal_offset="0"
       tang_offset="0"
       prop_units="false"
       vertical_pattern="false"
       hide_knot="false"
       fuse_tolerance="0" />
    <inkscape:path-effect
       effect="skeletal"
       id="path-effect26"
       is_visible="true"
       lpeversion="1"
       pattern="M 0,4.9921382 C 0,2.2364779 2.2364779,0 4.9921382,0 c 2.7556604,0 4.9921383,2.2364779 4.9921383,4.9921382 0,2.7556604 -2.2364779,4.9921383 -4.9921383,4.9921383 C 2.2364779,9.9842765 0,7.7477986 0,4.9921382 Z"
       copytype="single_stretched"
       prop_scale="1"
       scale_y_rel="false"
       spacing="0"
       normal_offset="0"
       tang_offset="0"
       prop_units="false"
       vertical_pattern="false"
       hide_knot="false"
       fuse_tolerance="0" />
    <inkscape:path-effect
       effect="skeletal"
       id="path-effect25"
       is_visible="true"
       lpeversion="1"
       pattern="M 0,4.9921382 C 0,2.2364779 2.2364779,0 4.9921382,0 c 2.7556604,0 4.9921383,2.2364779 4.9921383,4.9921382 0,2.7556604 -2.2364779,4.9921383 -4.9921383,4.9921383 C 2.2364779,9.9842765 0,7.7477986 0,4.9921382 Z"
       copytype="single_stretched"
       prop_scale="1"
       scale_y_rel="false"
       spacing="0"
       normal_offset="0"
       tang_offset="0"
       prop_units="false"
       vertical_pattern="false"
       hide_knot="false"
       fuse_tolerance="0" />
    <inkscape:path-effect
       effect="skeletal"
       id="path-effect23"
       is_visible="true"
       lpeversion="1"
       pattern="M 0,4.9921382 C 0,2.2364779 2.2364779,0 4.9921382,0 c 2.7556604,0 4.9921383,2.2364779 4.9921383,4.9921382 0,2.7556604 -2.2364779,4.9921383 -4.9921383,4.9921383 C 2.2364779,9.9842765 0,7.7477986 0,4.9921382 Z"
       copytype="single_stretched"
       prop_scale="1"
       scale_y_rel="false"
       spacing="0"
       normal_offset="0"
       tang_offset="0"
       prop_units="false"
       vertical_pattern="false"
       hide_knot="false"
       fuse_tolerance="0" />
    <inkscape:path-effect
       effect="skeletal"
       id="path-effect21"
       is_visible="true"
       lpeversion="1"
       pattern="M 0,4.9921382 C 0,2.2364779 2.2364779,0 4.9921382,0 c 2.7556604,0 4.9921383,2.2364779 4.9921383,4.9921382 0,2.7556604 -2.2364779,4.9921383 -4.9921383,4.9921383 C 2.2364779,9.9842765 0,7.7477986 0,4.9921382 Z"
       copytype="single_stretched"
       prop_scale="1"
       scale_y_rel="false"
       spacing="0"
       normal_offset="0"
       tang_offset="0"
       prop_units="false"
       vertical_pattern="false"
       hide_knot="false"
       fuse_tolerance="0" />
  </defs>
  <g
     inkscape:label="Слой 1"
     inkscape:groupmode="layer"
     id="layer1"
     transform="translate(-21.195282,-45.443923)">
    <ellipse
       style="fill:#800000;stroke:#654321;stroke-width:0.264583;stroke-linejoin:round"
       id="path1"
       cx="113.81925"
       cy="116.77081"
       rx="72.128578"
       ry="28.962111" />
    <ellipse
       style="fill:#ffff00;stroke:#654321;stroke-width:0.264583;stroke-linejoin:round"
       id="path2"
       cx="76.924843"
       cy="103.30434"
       rx="14.942236"
       ry="2.9515526" />
    <ellipse
       style="fill:#ffff00;stroke:#654321;stroke-width:0.264583;stroke-linejoin:round"
       id="path3"
       cx="116.03292"
       cy="95.372055"
       rx="16.786957"
       ry="3.136025" />
    <ellipse
       style="fill:#ffff00;stroke:#654321;stroke-width:0.264583;stroke-linejoin:round"
       id="path4"
       cx="125.99441"
       cy="111.97453"
       rx="17.524845"
       ry="3.136025" />
    <ellipse
       style="fill:#ffff00;stroke:#654321;stroke-width:0.264583;stroke-linejoin:round"
       id="path5"
       cx="158.46149"
       cy="102.38198"
       rx="13.097516"
       ry="3.8739133" />
    <ellipse
       style="fill:#ffff00;stroke:#654321;stroke-width:0.264583;stroke-linejoin:round"
       id="path6"
       cx="167.31615"
       cy="115.84844"
       rx="14.942236"
       ry="2.9515526" />
    <ellipse
       style="fill:#ffff00;stroke:#654321;stroke-width:0.264583;stroke-linejoin:round"
       id="path7"
       cx="128.94597"
       cy="128.94597"
       rx="19.73851"
       ry="3.136025" />
    <ellipse
       style="fill:#ffff00;stroke:#654321;stroke-width:0.264583;stroke-linejoin:round"
       id="path8"
       cx="88.177635"
       cy="116.21738"
       rx="12.913043"
       ry="3.3204968" />
    <ellipse
       style="fill:#ffff00;stroke:#654321;stroke-width:0.264583;stroke-linejoin:round"
       id="path9"
       cx="78.031677"
       cy="126.91676"
       rx="16.418013"
       ry="4.4273295" />
    <path
       style="fill:none;stroke:#000000;stroke-width:0.264583px;stroke-linecap:butt;stroke-linejoin:miter;stroke-opacity:1"
       d="m 46.486955,104.41118 c -0.491924,-0.36894 -0.969065,-0.75847 -1.475774,-1.10683 -1.461575,-1.00484 -2.951554,-1.9677 -4.427331,-2.95156 -1.609334,-1.072885 -3.971497,-2.33412 -5.165217,-4.05838 -0.626118,-0.904396 -0.96111,-1.979406 -1.475777,-2.951554 -4.100383,-7.745169 0.112051,1.018016 -2.951552,-6.640994 -0.306393,-0.765977 -0.824899,-1.438349 -1.106831,-2.213663 -1.398815,-3.846737 0.36327,-0.02553 -0.368946,-3.320497 -0.143666,-0.646504 -0.690702,-1.18413 -0.737888,-1.844723 -0.201528,-2.821381 0,-5.657141 0,-8.485714 0,-2.213663 0,-4.427328 0,-6.640994 0,-1.721739 0,-3.443478 0,-5.165217 0,-1.229812 -0.07222,-2.461749 0,-3.689439 0.05106,-0.868109 0.261083,-1.719715 0.368945,-2.582609 0.01524,-0.122031 -0.06822,-0.266618 0,-0.368945 0.472178,-0.708266 1.186868,-0.982388 1.84472,-1.475775 0.139137,-0.104354 0.272471,-0.224234 0.368943,-0.368945 0.15254,-0.228809 0.14895,-0.572892 0.368946,-0.737889 0.311121,-0.233339 0.745746,-0.224509 1.106831,-0.368943 0.255326,-0.102132 0.471104,-0.302249 0.737889,-0.368945 0.238619,-0.05965 0.504547,0.07778 0.737888,0 1.151591,-0.383863 -0.122981,-0.245962 0.368943,-0.737886 0.08696,-0.08696 0.245965,0 0.368946,0 0.122981,0 0.245962,0 0.368943,0 0.614907,0 1.231376,0.04381 1.84472,0 2.726541,-0.194755 2.91388,-0.287621 5.165219,-0.737889"
       id="path16" />
    <path
       style="fill:none;stroke:#000000;stroke-width:0.264583px;stroke-linecap:butt;stroke-linejoin:miter;stroke-opacity:1"
       d="m 43.904347,123.22733 c -0.491924,0 -0.998538,-0.11931 -1.475775,0 -0.533569,0.13339 -0.945168,0.59317 -1.475777,0.73789 -0.838967,0.22881 -1.727893,0.20868 -2.582608,0.36894 -1.114412,0.20895 -2.204956,0.53506 -3.320497,0.73789 -0.241996,0.044 -0.504547,-0.0778 -0.737889,0 -0.164997,0.055 -0.219808,0.27946 -0.368945,0.36894 -0.471612,0.28297 -1.028232,0.41822 -1.475775,0.73789 -1.239287,0.88521 -1.35324,1.66091 -2.213665,2.95155 -2.876825,4.31524 0.07586,-2.32194 -4.427329,8.48572 -1.397666,3.3544 -2.441551,6.81465 -3.320497,10.33043 -0.397947,1.59179 -0.894616,3.16928 -1.106832,4.79628 -0.159064,1.21948 0,2.45962 0,3.68944 0,2.70559 0,5.41118 0,8.11677 0,3.07453 0,6.14906 0,9.2236 0,1.72174 0,3.44348 0,5.16522 0,0.36894 0,0.73788 0,1.10683 0,0.24596 -0.04044,0.49527 0,0.73789 0.08336,0.50016 0.312948,0.97181 0.368944,1.47577 0.0679,0.61115 -0.120594,1.24176 0,1.84472 0.129882,0.64942 0.577262,1.20222 0.737888,1.84472 2.090134,8.36054 -0.803771,-1.33742 0.737888,4.05839 0.106839,0.37394 0.195022,0.75899 0.368944,1.10683 0.198302,0.3966 0.582195,0.69165 0.737888,1.10683 0.220184,0.58716 0.245963,1.22982 0.368944,1.84472 0.737889,1.59876 1.463911,3.20305 2.213665,4.79628 0.234182,0.49764 0.491926,0.98385 0.737888,1.47577 0.122981,0.24597 0.174493,0.54344 0.368943,0.73789 0.194453,0.19445 0.585348,0.14014 0.737889,0.36895 0.136435,0.20465 -0.09689,0.51181 0,0.73788 0.282479,0.65912 0.709059,1.24806 1.106834,1.84472 1.956006,2.93401 1.628523,2.50635 4.427328,4.79628 0.927899,0.75919 1.714566,1.47577 2.951552,1.47577"
       id="path17" />
    <ellipse
       style="fill:#ff0000;stroke:#654321;stroke-width:0.264583;stroke-linejoin:round"
       id="path18"
       cx="55.526089"
       cy="110.12981"
       rx="6.0875773"
       ry="2.0291924" />
    <ellipse
       style="fill:#ff0000;stroke:#654321;stroke-width:0.264583;stroke-linejoin:round"
       id="path19"
       cx="56.632919"
       cy="122.67391"
       rx="6.4565215"
       ry="2.3981366" />
    <path
       style="fill:#000000;stroke:none;stroke-width:0.264583px;stroke-linecap:butt;stroke-linejoin:miter;stroke-opacity:1"
       d="m 78.585093,91.498136 c -0.785673,0 -2.358307,-1.652616 -2.343382,-5.422198 0.05562,-1.103607 0.254536,-2.19993 0.127103,-2.579769 -0.04249,-0.417802 -0.236522,-1.375986 -0.180266,-2.621342 -0.104548,-3.034985 0.552465,-4.602808 0.373039,-3.733849 -0.0956,1.435578 -0.204009,0.310704 -0.108414,-1.124875 0.376748,-1.69823 0.601147,-2.108508 0.26658,-1.123899 -0.02757,-0.02217 -0.0093,0.223093 -0.01183,0.798185 -0.183174,-3.362488 0.176719,-4.97716 0.504883,-4.492532 0.90199,-1.732248 1.309252,-2.175906 0.785385,-1.391961 -0.486577,2.724054 -0.721925,3.33437 -0.524055,1.769258 -0.01366,-0.147965 -0.04771,-0.443677 -0.0717,-0.881264 -0.136301,0.149296 -0.134887,-0.611147 0.178535,-2.304471 0.582151,-1.631615 1.025474,-2.399882 1.017773,-2.341593 0.344564,-0.737999 0.699624,-1.483407 1.064731,-2.234726 0.201271,-0.422778 0.464481,-1.012673 0.825715,-1.712339 0.12245,-0.237171 0.256311,-0.487344 0.403541,-0.749649 1.70907,-2.139682 1.926668,-2.244864 0.425028,-0.459095 -0.214029,0.433457 0.01013,-0.24868 0.972422,-1.797078 0,0 5e-6,-6e-6 5e-6,-6e-6 1.142372,-1.358346 1.762428,-1.831888 1.462293,-1.496727 l 0,0 c 0.679149,-0.733596 1.222202,-1.277732 1.627473,-1.775745 l -10e-7,0 c 1.93e-4,0.134021 0.316645,-0.552086 1.177035,-1.743872 l 0,0 c 1.422162,-1.666275 2.314122,-2.146436 1.51078,-1.269875 l 0,0 c -0.928321,4.823887 -1.065986,4.441576 -0.257507,0.135519 l 0,0 c 0.871019,-1.152898 2.120487,-2.669704 1.249468,-1.516806 l 0,0 c 0.261565,-0.203104 0.726554,-0.642847 1.42032,-1.202313 l 0,0 c 1.02576,-0.745602 1.561889,-0.85994 1.564082,-0.78101 l 0,0 c 0.145863,-0.162144 0.278299,-0.297322 0.375606,-0.400177 l -10e-7,0 c 1.262006,0.257392 2.507429,0.515444 3.735968,0.773815 l 0,0 c 0.256886,-0.299673 0.465844,-0.588323 0.644954,-0.842249 0.08006,-0.106388 0.142295,-0.208096 0.198611,-0.306062 0.104303,-0.180721 0.177002,-0.346314 0.219998,-0.497276 0.104707,-0.367638 0.04374,-0.650093 -0.190331,-0.878546 0,0 -9e-6,-8e-6 -9e-6,-8e-6 l 0,0 c -2.855329,0.374581 -3.353597,0.214739 -2.046337,0.177217 l 0,2e-6 c -1.875914,6.091077 -2.047447,5.346175 -0.513974,0.141894 l 0,0 5.6e-5,-1.6e-5 0,0 c 4.624061,-1.310977 5.005301,-1.341577 1.340954,-0.619592 l 0,0 -4.4e-5,9e-6 10e-7,0 c -0.32593,0.322142 0.100144,0.01212 1.216952,-0.517715 l 0,0 c 0.829236,-0.293725 1.436598,-0.3821 1.844668,-0.380516 l 0,0 c 2.632361,-0.47606 2.110831,-0.01086 -0.99273,0.869287 l 0,0 c -0.916465,2.373868 -1.154452,3.255386 -0.685049,2.823436 l 10e-7,-1e-6 -1.5e-5,4e-6 0,0 c -0.721172,0.18156 -0.278252,-1.072958 1.307417,-3.558721 l 0,-1e-6 c 0.559473,-0.177647 1.241262,-0.423505 2.176287,-0.592652 l -1e-5,-3e-6 c 0.13895,-0.430906 1.21986,-0.129779 2.88575,0.823998 l 0,0 -1e-5,-6e-6 0,0 c -1.33074,-0.626508 -2.03201,-0.786065 -2.29491,-0.537369 l 0,0 c 0.15075,0.174033 0.6732,0.05758 1.16402,-0.0066 l 0,0 0,0 c 0.80816,-0.68095 1.02031,-0.104591 1.08248,0.109424 l 0,0 c 0,0 0,0 0,0 0.0769,-0.04098 0.14834,-0.07081 0.22685,-0.07425 0.58338,-0.02554 0.6699,0.281252 0.6699,0.535535 0,0.272025 -0.22417,0.514963 -0.0558,0.534136 0.0202,0.0023 0.062,0.02389 0.12674,0.0464 0,0 0,0 0,0 l 0,0 c -0.0203,0.685911 -0.42021,1.684701 -0.30535,1.465952 l 0,-10e-7 0,0 c -0.15074,0.35423 -0.46435,0.894965 -1.30861,1.471128 l 0,0 c -0.43985,0.317441 -1.36111,0.185492 -2.82051,-0.594397 l 0,0 -1e-5,-8e-6 0,0 c 1.51344,0.771059 2.299,1.141692 2.199,0.794501 l 0,0 c -0.0759,0.153995 -0.2599,0.51776 -0.77974,0.967685 l 0,0 c 1.4788,-2.422306 1.97373,-3.509656 1.29354,-3.207546 l 0,0 -1e-5,6e-6 0,0 c 0.50994,-0.303157 0.34246,0.73826 -0.67118,3.210144 l 0,0 c -3.327695,1.072632 -4.063811,1.273906 -1.73061,0.869287 l 0,0 c -0.31528,0.183687 -0.477612,0.291771 -0.369005,0.357374 l 0,0 c 0.304985,-0.126898 0.191265,0.19481 -0.996712,0.958063 l 0,0 -4.6e-5,10e-6 0,0 c -3.812698,0.820481 -3.916827,0.526211 0.603069,-0.619596 0,0 5.4e-5,-1.3e-5 5.4e-5,-1.3e-5 1.42249,-5.309166 1.5064,-5.068343 -0.513974,0.87978 l 0,0 c 0.669023,0.373177 -0.483708,0.969675 -4.110572,1.13517 l 0,0 c 0,0 -1.2e-5,-1e-5 -1.2e-5,-1e-5 -0.319686,-0.252037 -0.438995,-0.619584 -0.339187,-1.076419 0.04098,-0.187575 0.117136,-0.389933 0.227345,-0.606921 0.05935,-0.11648 0.131843,-0.237824 0.206627,-0.362849 0.142967,-0.232699 0.341679,-0.468791 0.578005,-0.732479 1.157632,0.382179 2.330114,0.763539 3.51775,1.143988 l 0,0 c -0.278885,0.521396 -0.557741,1.00993 -0.830937,1.47779 l 0,0 c -1.074682,1.155803 -1.92613,1.84428 -2.125358,2.170544 l 0,0 c -0.07345,0.109508 -0.307779,0.467841 -0.793344,1.011349 l 0,0 c -0.670627,0.812133 -0.648555,0.646044 0.511578,-0.77892 l 0,0 c 0.729034,-4.264513 0.777312,-3.978064 -0.257507,0.873411 l 0,0 c -1.42171,1.861728 -2.169723,2.346883 -1.44077,1.681679 l 0,0 c 0.04044,-0.04386 -0.178717,0.63165 -1.036633,1.945568 l 0,0 c -0.717744,1.045283 -1.425735,1.905544 -2.061968,2.651579 l 0,0 c -0.969405,1.088335 -1.298184,1.240999 -0.751366,0.716939 0,0 2e-6,-2e-6 2e-6,-2e-6 0.339173,-0.683534 0.268973,-0.208223 -0.503356,1.154476 -1.684337,2.089467 -1.844395,2.110018 -0.312862,0.278789 -0.05901,0.09862 -0.121468,0.215409 -0.189543,0.349891 -0.202574,0.400181 -0.451965,0.950198 -0.794865,1.615453 -0.381992,0.742879 -0.765283,1.474168 -1.148931,2.1926 -0.352458,0.734814 -0.895323,1.5119 -0.458005,0.609961 0.154878,-1.131276 0.251511,-1.332039 0.125585,-0.605563 -0.0084,0.227966 -0.0048,0.60107 -0.01875,1.109268 0.196571,-1.305549 0.07555,-0.448703 -0.524055,2.507148 -0.84336,1.446415 -1.330743,1.886636 -0.690391,0.821703 -0.0779,1.644978 -0.358335,0.472575 -0.288897,-1.712124 0.218903,1.360281 0.202388,2.420351 0.04406,3.182993 -0.253293,0.961953 -0.935165,2.830795 -0.471313,1.089764 -6.38e-4,-1.104258 0.07991,-0.657495 -0.108413,1.088794 -0.385479,2.162704 -1.534367,4.105332 -1.102737,2.169253 -0.277651,1.030264 -0.487063,2.504102 -0.918152,4.019652 -0.484108,1.433295 -1.07988,2.213503 -1.348675,2.585449 -1.503186,2.236474 -1.719839,4.17035 -3.081268,4.17035 z"
       id="path21"
       inkscape:path-effect="#path-effect21"
       inkscape:original-d="m 78.585093,91.498136 c 0,-2.351601 -0.141528,-2.584236 0.368943,-4.796274 0.201322,-0.87239 0.572892,-1.702626 0.737889,-2.582609 0.205232,-1.094568 0.21145,-2.218044 0.368943,-3.320497 -0.20061,-1.095086 0.571166,-1.95122 0.737888,-2.951551 0.06066,-0.363927 -0.06065,-0.742908 0,-1.106834 0.06394,-0.383609 0.305009,-0.723223 0.368946,-1.106832 0.288536,-1.731229 -0.486042,-0.587645 0.368943,-2.582608 0.17467,-0.407564 0.539586,-0.710229 0.737888,-1.106832 0.055,-0.109997 0,-0.245964 0,-0.368945 0,-0.441516 -0.0706,-1.59762 0,-1.84472 0.151093,-0.528828 0.491927,-0.983851 0.737889,-1.475777 0.368943,-0.737889 0.737888,-1.475777 1.106831,-2.213663 0.368946,-0.737889 0.697527,-1.497378 1.106832,-2.213666 0.08629,-0.151005 0.279463,-0.219807 0.368945,-0.368942 0.282967,-0.471615 0.418214,-1.028232 0.737889,-1.475777 0.303271,-0.42458 0.76019,-0.71686 1.106831,-1.106835 0.638133,-0.717896 1.279774,-1.436859 1.84472,-2.213662 0.421778,-0.579943 0.690028,-1.261195 1.106834,-1.84472 0.40436,-0.566106 1.089877,-0.89693 1.475775,-1.475777 0.06822,-0.102328 -0.055,-0.258948 0,-0.368946 0.07778,-0.155559 0.245964,-0.245962 0.368945,-0.368943 0.368943,-0.368943 0.714164,-0.763246 1.106832,-1.106831 0.592627,-0.518549 1.287899,-0.918957 1.84472,-1.475777 1.650256,-2.475384 -0.29377,-0.05012 1.84472,-1.475777 0.102327,-0.06822 -0.08696,-0.281983 0,-0.368943 0.08696,-0.08696 0.258947,0.055 0.368945,0 0.396603,-0.198303 0.710229,-0.539589 1.106832,-0.737889 0.347845,-0.173921 0.729543,-0.274622 1.106834,-0.368945 0.119308,-0.02983 0.281982,0.08696 0.368943,0 0.08696,-0.08696 -0.105455,-0.305671 0,-0.368943 3.19559,-1.917351 0.5546,0.368151 3.3205,-1.475777 1.23727,-0.82485 0.24423,-0.737889 1.10683,-0.737889" />
    <path
       style="fill:#000000;stroke:none;stroke-width:0.264583px;stroke-linecap:butt;stroke-linejoin:miter;stroke-opacity:1"
       d="m 99.98385,88.915527 c -0.499864,-0.09997 -0.735924,-1.097789 -1.288357,-1.156786 0.04794,0.459867 0.43966,0.882026 1.433387,1.28492 -1.087735,-0.266442 -1.856928,-0.796186 -2.04734,-1.594942 -0.232154,-0.85498 -0.243811,-1.46762 -0.297047,-1.924618 0.03867,-1.157017 0.325468,-2.188006 0.120677,-2.399694 -0.07431,-0.532831 -0.04445,-0.486977 -0.105068,0.334851 0.548948,1.109665 1.11998,1.826505 1.752518,2.111426 -2.143223,-2.494949 -2.836686,-3.911025 -2.03513,-3.987726 0.153436,-0.852149 0.317777,-1.40508 0.405665,-1.772765 0.466609,-1.073419 0.821884,-1.631371 0.742827,-1.584626 0.214318,-0.631779 0.367037,-1.010679 0.280262,-1.088561 0.08652,-0.455984 0.164868,-1.135567 0.393154,-2.087238 0.0042,-0.159843 0.09438,-0.649419 0.381719,-1.478922 0,0 10e-7,-5e-6 10e-7,-5e-6 0.342762,-0.894704 0.616012,-1.44852 0.649482,-1.64691 0.34252,-0.966054 0.75318,-2.183259 1.22978,-3.404025 0.2603,-0.59218 0.38704,-0.828595 0.31067,-0.720556 0.21261,-0.595163 0.52082,-1.590138 1.08746,-2.833636 0.5812,-1.109639 1.07452,-1.806977 1.35141,-2.14078 0.38751,-0.543536 0.65527,-0.870463 0.72729,-1.013231 0,0 0,0 0,0 0.38836,-0.60483 0.79761,-1.223684 1.23063,-1.849156 1.43457,0.688492 2.58966,1.883216 3.43823,3.573164 0,0 4e-5,3.8e-5 4e-5,3.8e-5 0.10762,0.0964 0.20766,0.193612 0.30002,0.300816 0.22074,0.256211 0.42419,0.521053 0.60805,0.790707 0.60737,0.890748 1.006,1.844588 1.19105,2.848708 -1.7086,0.65858 -3.61574,0.02982 -5.68409,-1.896864 -0.61905,-1.931485 -0.9645,-3.35662 -1.08749,-4.252083 -0.14442,-1.051552 0.0188,-1.365671 0.39843,-0.923881 1.68994,-3.043911 2.79924,-4.221924 3.09157,-3.683028 0.8983,-0.542965 0.81069,-0.406075 -0.13164,0.170095 -0.76374,0.741743 -0.25812,-0.07401 1.91934,-1.732755 l 0,0 2e-5,-6e-6 0,0 c 2.29659,-1.036977 2.77471,-1.01056 1.12224,-0.343235 l 0,0 c -0.88882,0.80498 -1.08367,0.81866 -0.18557,0.02528 l 0,0 c -0.89301,0.677617 -0.24606,0.131888 2.01578,-1.432186 l 0,0 c 1.17739,-0.39534 1.9639,-0.534714 2.34102,-0.558452 3.66034,-0.699127 2.94895,-0.128818 -2.06982,1.325381 l 0,0 c -1.66909,6.649468 -1.86193,6.491571 0.0149,-0.353974 l 0,0 c 1.79019,-1.360667 2.7221,-1.76829 2.71159,-1.501027 0.29832,-0.100091 0.75556,-0.235781 1.37252,-0.374301 2.67315,-0.284717 2.53708,-0.157231 0.0348,0.123283 l 0,0 -4e-5,5e-6 0,0 c -0.19733,0.0977 -0.3043,0.164647 -0.33054,0.218656 -1.86019,1.507818 -1.41113,1.107632 1.46877,-0.862331 3.03634,-0.402758 3.40095,-0.237388 0.75702,0.05738 l 0,-10e-7 -3e-5,2.5e-5 0,0 c -2.56847,1.912277 -3.1364,2.086015 -0.19447,-0.08618 3.67862,-0.637557 3.98833,-0.607137 0.95752,-0.207403 l 0,0 c -0.48963,0.263615 -0.4287,0.202984 0.19932,-0.0616 l 0,0 c 0.26072,-0.09992 0.51922,-0.197935 0.77542,-0.294001 l 0,0 c -0.30703,0.140977 0.24933,-0.129412 1.62275,-0.60053 l 0,0 c 2.95282,-0.363839 2.61713,-0.01396 -0.0674,0.390835 l 0,0 c -2.3979,3.588947 -3.07467,5.105462 -1.99777,4.699453 l 0,0 c -0.67653,0.482013 -0.36843,-0.986073 0.98269,-4.277919 l 0,0 c 2.8465,-1.441207 3.87111,-1.78805 3.09524,-1.165255 0,0 0,0 0,0 0.27648,0.02377 0.45596,0.05135 0.54422,0.0747 l 0,0 0,0 0,0 c 0.90428,-0.248893 0.56633,-0.04923 -1.43083,0.473326 0,0 -2e-5,1.2e-5 -2e-5,1.2e-5 l 0,0 c -1.48791,1.24947 -1.56154,1.169736 -0.003,-0.06761 l 0,0 c 0.80802,-0.43346 1.1977,-0.552838 1.19825,-0.493878 l 0,0 c -0.0496,0.05666 0.38878,-0.140386 1.25762,-0.44078 l 0,0 c 1.45307,-0.185946 1.68992,-0.145647 0.93459,-0.02864 l 0,0 c 0.33535,-0.07518 0.46955,-0.05001 0.45021,-0.0121 l 0,0 c -0.4825,0.274954 -0.0515,0.05989 1.19571,-0.340933 l 0,0 c 1.28486,-0.110258 1.69178,-0.01393 1.48234,0.07224 l 0,0 c 1.54137,-0.330278 0.85981,0.113948 -1.62144,0.915036 l 0,0 c -0.74058,1.333545 -0.64239,0.932452 0.52023,-0.58703 l 1e-5,0 c 3.35342,-0.951263 3.62695,-0.898899 1.09369,-0.389171 l 0,0 c -1.25924,1.062192 -0.97721,0.750986 0.74576,-0.352907 l -1e-5,5e-6 c 1.97175,-0.205777 1.57343,0.10223 0.90332,0.210291 l -1e-5,0 c 0.46221,0.218935 1.41006,0.07392 2.0645,0.207474 l 0,0 c 0,0 0,10e-7 0,10e-7 0.15974,0.18785 0.32423,0.479758 0.45124,0.709802 l 0,0 c 0,0 0,10e-7 0,10e-7 -0.002,0.03768 -0.0317,0.02541 -0.0479,0.03046 0,0 0,0 0,0 -0.16539,0.05155 0.0735,-0.05221 0.31799,-0.05222 0.24809,-2e-6 0.4769,0.107828 0.34105,0.570388 0,0 -1e-5,1e-6 -1e-5,1e-6 -0.0133,0.04529 -0.0262,0.121768 -0.071,0.145753 0,0 0,0 0,0 l 0,0 c -0.0833,0.210057 -0.15353,0.38455 -0.28666,0.709804 0,0 0,0 0,10e-7 l 0,0 c -0.17748,0.334526 -0.55825,1.06091 -1.62495,1.68325 l 0,0 c -1.39794,0.284165 -1.76791,0.227386 -0.57244,0.21029 l 0,0 c 1.21497,-0.868212 1.76895,-0.978661 0.008,0.384985 l 0,0 c -2.37228,0.537491 -3.19662,0.469453 0.35581,-0.389171 l 0,0 c 0.43779,-0.640634 1.26092,-1.365044 -0.21766,0.888748 l 0,0 c -2.70048,0.993224 -3.59862,1.235223 -2.35932,0.915036 l 0,0 c -0.71349,0.09128 -0.76256,0.05922 0.007,0.07224 l 0,0 c 0.67811,-0.253376 0.77333,-0.111321 -0.28007,0.396953 l 0,1e-6 c -0.71877,0.317691 -1.33769,0.547268 -1.76345,0.725789 l 0,0 c -1.03804,0.122131 -0.9819,0.07422 0.19671,-0.02864 l 0,0 c 0.34964,-0.127132 0.33893,-0.01364 -0.21816,0.297106 l 0,0 c -0.48698,0.303135 -0.61602,0.365632 -0.27753,0.244014 l 0,0 c 1.2709,-1.047159 1.06027,-0.737214 -0.74115,0.670273 l 0,0 c 0,0 -2e-5,1.4e-5 -2e-5,1.4e-5 -2.24405,0.668308 -3.20051,0.776679 -2.59083,0.471616 l 0,0 -1e-5,0 0,0 c -0.13859,0.0065 -0.18751,0.01482 -0.14109,0.03335 0,0 1e-5,0 1e-5,0 -0.90219,0.62099 -0.0292,0.229347 2.72687,-1.12219 l 0,0 c 1.25429,-3.195461 1.6325,-4.497726 0.99994,-3.885004 l 0,0 c 1.11555,-0.287255 0.49552,1.398881 -2.01502,5.044428 l 0,0 c -3.26318,0.648 -3.86813,0.615847 -1.54316,0.390835 l 0,0 c 0.83059,-0.33334 0.96651,-0.25967 0.14697,0.137356 l 0,0 c -0.2305,0.147274 -0.46398,0.295255 -0.70036,0.443885 l 0,0 c 0.13259,-0.01807 -0.25197,0.23311 -1.27646,0.676295 l 0,0 c -3.13846,0.460037 -3.36279,0.337361 0.21964,-0.207403 2.40562,-1.852132 2.19407,-1.537615 -0.93236,0.651706 l 0,0 -4e-5,2.6e-5 0,0 c -3.06268,0.446767 -3.32861,0.309349 -0.71876,0.05737 2.51856,-1.838879 2.9134,-1.850649 0.73089,-0.124439 -0.48147,0.357422 -1.08185,0.683141 -1.80632,0.956542 l 0,0 -5e-5,7e-6 0,0 c -2.80815,0.366918 -3.0633,0.340116 -0.70304,0.123281 0.009,0.01335 -0.12541,0.0924 -0.42545,0.208769 -0.66245,0.504496 -0.47075,0.253268 0.82012,-0.608319 l 0,0 c 1.68379,-6.659508 1.87654,-6.453248 0.0149,0.383916 -5.20858,1.637628 -6.20675,1.972312 -2.80772,1.325381 -0.60934,0.1742 -0.83416,0.19422 -0.61052,0.179434 1.93032,-1.429393 2.42639,-1.626262 1.27788,-0.6943 0.34288,-0.248248 -0.10655,0.279047 -1.66133,1.501057 l 0,0 c -2.30641,1.063544 -2.72433,1.033293 -1.09143,0.394655 l 0,0 1e-5,-4e-6 0,0 c 1.03703,-0.990745 0.81434,-0.330914 -1.0322,1.218793 -1.30281,0.843105 -1.77629,1.061554 -1.2783,0.726261 -0.13448,0.760342 0.45246,-0.189277 2.02455,-2.763416 0.28709,0.825331 0.27756,0.918205 0.0656,0.270104 -0.18219,-0.557079 -0.51334,-1.658483 -0.9394,-3.320293 -2.0102,-1.845346 -3.8026,-2.454084 -5.4159,-1.825293 0.28254,0.973636 0.76755,1.869691 1.45814,2.701434 0.20906,0.25179 0.43651,0.496716 0.6846,0.738609 0.1038,0.101213 0.20658,0.210391 0.30839,0.318326 0,0 4e-5,4.2e-5 4e-5,4.2e-5 0.77432,1.837578 1.81997,3.159243 3.1599,3.98279 -0.37818,0.531721 -0.75932,1.079818 -1.14016,1.628838 0,0 0,4e-6 0,4e-6 -0.49999,0.715371 -0.89648,1.184112 -1.12061,1.450389 -0.41272,0.580638 -0.5635,0.667505 -0.49013,0.560813 -0.27787,0.443752 -0.60047,1.269731 -1.1262,2.331581 -0.30274,0.61664 -0.46023,0.846961 -0.42721,0.75522 -0.54317,1.017066 -1.09883,2.120675 -1.72178,3.236969 -0.43335,0.813889 -0.74825,1.212535 -0.8263,1.304644 0,0 0,-10e-7 0,-10e-7 -0.0228,-0.104335 -0.11771,0.169044 -0.35616,0.734738 -0.28121,0.576777 -0.61238,1.404163 -1.08262,2.340092 -0.50337,0.966402 -0.94004,1.549954 -1.19552,1.862989 -0.5975,0.823118 -0.85255,0.893689 -0.73295,0.629042 -0.27176,0.486117 -0.46756,0.652836 -0.52534,0.640052 0.75298,0.106368 0.0164,-1.058768 -1.954,-3.489266 0.7886,0.343876 1.48973,1.175674 2.07412,2.445552 0.0826,1.493276 -0.10709,2.161895 -0.31468,2.254663 -0.55727,1.42441 -1.17814,1.886967 -1.3551,2.027633 -0.2311,0.599083 -0.52298,0.687046 -0.63522,0.688568 -0.16944,-0.599992 -0.80271,-0.973803 -1.709175,-1.256577 1.191845,0.385522 1.705475,0.986991 1.771555,1.623287 -0.3236,1.416008 -1.31027,1.519654 -1.62652,1.456404 z"
       id="path22"
       inkscape:path-effect="#path-effect23"
       inkscape:original-d="m 99.98385,88.915527 c 0.60118,-3.005918 -0.601184,0.05436 0,-2.951554 0.15254,-0.762698 0.56916,-1.454383 0.73789,-2.213663 0.48829,-2.197332 -0.760584,0.05295 0.36894,-2.582608 0.17467,-0.407564 0.49193,-0.737889 0.73789,-1.106834 0.24596,-0.491924 0.53363,-0.965123 0.73789,-1.475775 0.28887,-0.722172 0.49192,-1.475777 0.73789,-2.213665 0.12298,-0.368946 0.21575,-0.749377 0.36894,-1.106832 0.21665,-0.50552 0.50741,-0.97641 0.73789,-1.475777 0.50757,-1.099743 0.97457,-2.217838 1.47578,-3.320497 0.11379,-0.250346 0.25725,-0.486595 0.36894,-0.737888 0.38039,-0.855874 0.68797,-1.74489 1.10683,-2.582609 0.33,-0.66 1.51048,-2.081254 1.84472,-2.582608 2.62825,-3.942363 0.42174,-0.211164 1.10683,-2.951554 0.0868,-0.347218 0.96694,-0.632968 1.10684,-0.737889 0.55655,-0.417412 0.87923,-1.117846 1.47577,-1.475774 0.33348,-0.200088 0.77336,-0.168857 1.10684,-0.368946 0.29827,-0.178964 0.49192,-0.491923 0.73788,-0.737888 0.12299,-0.122981 0.20746,-0.30435 0.36895,-0.368943 0.47079,-0.18832 0.97856,-0.269499 1.47577,-0.368943 0.1206,-0.02413 0.28199,0.08696 0.36895,0 0.087,-0.08696 -0.087,-0.281985 0,-0.368945 0.25445,-0.254453 1.65261,-0.689862 1.84472,-0.737889 0.11931,-0.02983 0.25227,0.03889 0.36894,0 0.26088,-0.08696 0.50908,-0.216403 0.73789,-0.368943 0.14471,-0.09648 0.20395,-0.313947 0.36894,-0.368946 0.23335,-0.07778 0.50455,0.07778 0.73789,0 0.165,-0.055 0.21339,-0.291163 0.36895,-0.368942 0.10999,-0.055 0.25227,0.03889 0.36894,0 0.26088,-0.08696 0.49193,-0.245962 0.73789,-0.368946 0.24596,-0.122981 0.49192,-0.245962 0.73789,-0.368943 0.24596,-0.122981 0.4711,-0.302249 0.73789,-0.368943 0.23861,-0.05965 0.51789,0.109998 0.73788,0 0.11,-0.055 -0.087,-0.281985 0,-0.368945 0.0754,-0.07542 0.96055,0.07314 1.10684,0 0.15556,-0.07778 0.22423,-0.272471 0.36894,-0.368943 0.22881,-0.152541 0.49193,-0.245965 0.73789,-0.368946 0.24596,-0.122981 0.47701,-0.281982 0.73789,-0.368943 0.11667,-0.03889 0.24596,0 0.36894,0 0.36895,-0.122981 0.74575,-0.224509 1.10683,-0.368945 0.25533,-0.10213 0.47111,-0.302247 0.73789,-0.368943 0.23862,-0.05966 0.49193,0 0.73789,0 0.12298,0 0.28198,0.08696 0.36894,0 0.19445,-0.194451 0.1745,-0.543439 0.36895,-0.737889 0.087,-0.08696 0.25894,0.055 0.36894,0 0.15556,-0.07778 0.20395,-0.313944 0.36895,-0.368943 0.23334,-0.07778 0.50139,0.06757 0.73788,0 0.6368,-0.181941 1.21644,-0.52846 1.84472,-0.737888 0.49193,-0.163976 0.36895,0.286956 0.36895,-0.368946" />
    <path
       style="fill:#000000;stroke:none;stroke-width:0.264583px;stroke-linecap:butt;stroke-linejoin:miter;stroke-opacity:1"
       d="m 136.87826,88.915527 c -0.49466,0 -2.00797,-0.903837 -1.68182,-3.771865 0.16076,-1.026006 0.51833,-2.00665 0.46837,-2.51387 0.0142,-0.396393 0.005,-1.182862 0.22457,-2.236909 0.18375,-1.011514 0.44676,-2.094716 0.6305,-3.10623 0.34562,-1.737798 0.83161,-4.067377 1.75198,-6.515699 0,-10e-7 0,-2e-6 0,-3e-6 0.22745,-0.667491 0.58915,-1.628602 1.23899,-2.807901 1.36347,-1.720142 1.79929,-2.042179 0.9189,-1.103149 0,0 0,6e-6 0,6e-6 -0.97169,1.597219 -0.85277,1.137728 0.78494,-1.278783 2.96027,-2.127894 3.61294,-2.081916 1.42825,-0.785384 0,0 -1e-5,5e-6 -1e-5,5e-6 -0.016,-0.149996 -0.15141,0.231261 -0.59005,1.148753 0.41922,-1.470692 0.99793,-2.603278 1.64463,-3.376495 0,0 0,-4e-6 0,-4e-6 3.85055,-2.891207 4.07408,-2.621145 0.47366,-0.02773 -0.96088,5.17235 -1.24262,4.625962 -0.31699,-0.205744 1.47479,-2.030598 2.06267,-2.56432 1.66933,-2.037146 -4e-5,3.7e-5 0.10827,-0.108363 0.10823,-0.108326 0.21058,-0.210576 0.42099,-0.419904 0.63119,-0.627952 -0.21439,0.188337 0.0554,-0.09298 0.90552,-0.829712 0.81542,-0.58381 1.20881,-0.780249 1.11645,-0.724993 l 0,0 c -1.26052,1.671275 -1.13688,1.124792 -0.39284,0.127059 l 0,1e-6 c 1.35748,-1.611131 1.54831,-1.700834 0.37993,-0.361177 -0.80799,1.371737 -0.55984,0.788493 1.00245,-1.471751 l 0,0 c 2.36823,-1.847659 3.6065,-2.173825 3.39973,-1.984342 l 0,0 -1e-5,1.1e-5 0,0 c -1.31685,1.631281 -1.49303,2.013455 -0.38403,1.491986 l 0,0 c 0.51986,-2.721159 2.08487,-3.837341 4.41408,-3.327404 l 0,0 c 1.83067,-0.222385 1.21957,0.09037 -1.60631,0.560993 l 0,0 c 0.51624,-1.049127 -0.0811,-0.116964 -1.95287,2.593939 l 0,-1e-6 3e-5,1.58e-4 0,10e-7 c 0.74108,4.131307 1.29959,5.764842 1.76636,4.939013 0,0 2e-5,-3.1e-5 2e-5,-3.1e-5 l 0,0 c 0,-1e-6 -5e-5,-1.69e-4 -5e-5,-1.69e-4 -1.18896,-4.263435 -0.93839,-6.954204 0.67408,-8.051903 l 0,-10e-7 c 1.18475,-0.401901 1.89831,-0.541905 2.14438,-0.519091 l 0,0 c -0.006,1.441161 0.43949,2.885793 1.28453,4.402961 l -1.1e-4,-4e-5 c 0,0 -6e-5,8.2e-5 -6e-5,8.2e-5 -1.40498,1.884391 -2.89283,1.911273 -4.40593,0.110269 0,0 -6e-5,-7.8e-5 -6e-5,-7.8e-5 l 0,-2e-6 c 1.8961,-4.478461 2.92443,-5.815078 2.81503,-4.358616 l 0,0 c 0,0 3e-5,-6e-6 3e-5,-6e-6 4.07416,-0.741172 4.47792,-0.510625 0.77083,0.06594 l -1e-5,0 c 1.08182,-0.436911 1.89592,-0.66352 2.46444,-0.887299 l 0,0 c 0.95913,0.719005 1.31767,2.070863 1.07052,4.017824 l 0,0 c 0.0507,0.02975 0.0983,0.05701 0.13949,0.09001 0.084,0.0673 0.16538,0.140998 0.24489,0.214056 0,0 1e-5,1.2e-5 1e-5,1.2e-5 0.89645,0.823699 1.51584,1.728279 1.86946,2.676129 l 0,0 c -0.10869,0.02012 -0.21416,0.04101 -0.31665,0.06302 l 0,0 c 0,0 0,0 0,0 -0.0445,0.01147 -0.057,0.0062 -0.038,-0.01355 l 0,0 -4e-5,-4.2e-5 0,0 c -0.85121,-0.843359 -1.18305,-2.115214 -0.99632,-3.791718 0,0 1e-5,-8.4e-5 1e-5,-8.4e-5 l 0,0 c -0.0453,-0.04597 -0.0869,-0.09024 -0.12389,-0.139139 -0.10766,-0.142226 -0.21249,-0.289977 -0.31431,-0.437057 -0.57118,-0.825008 -1.04713,-1.671088 -1.43013,-2.52898 l 0,0 c 0.28319,-0.03845 0.62028,-0.109704 0.98732,-0.189583 l 0,-1e-6 c -0.56059,0.300925 -0.1288,0.0781 1.23189,-0.37664 l 0,0 c 1.39112,-0.128252 1.83439,-0.04481 1.56624,0.03838 l 0,0 1e-5,-2e-6 0,0 c 1.12594,-0.116491 0.69032,0.09136 -1.06222,0.412957 l 0,0 c 0.17307,-0.06316 0.18768,-0.01583 0.0602,0.09872 l 0,0 -1e-5,-4e-5 0,0 c -0.40034,-1.437159 -0.57833,-0.01533 -0.67767,4.107362 l 0,0 7e-5,4.9e-5 0,0 c 2.23117,1.510993 3.02964,1.952098 2.51286,1.323289 l 0,0 -2e-5,-2e-5 0,0 c 0.12696,-0.02386 0.15051,-0.03768 0.0788,-0.04852 l 0,1e-6 -10e-6,-2.5e-5 0,0 c -0.14585,-0.965873 -0.52875,-1.900678 -1.13215,-2.817281 l 0,0 c 0,0 0,-3e-6 0,-3e-6 -0.0165,-0.06709 0.01,-0.153122 0.0392,-0.228805 0,0 0,-4e-6 0,-4e-6 0.46347,-1.202767 0.71065,-2.092444 0.81771,-2.827404 l 0,0 c 2.59897,-0.473788 2.12324,-0.02927 -0.59124,0.717457 l 0,-10e-7 c -0.77591,2.11745 -0.97272,2.83569 -0.56729,2.380944 l 0,0 c -0.83158,0.163129 -0.26787,-1.01115 1.59914,-3.252337 l 0,0 c 1.99489,-0.192306 1.86153,0.190295 1.47282,0.295254 l 0,0 c -0.5736,0.383951 -0.22596,0.216918 0.60289,0.02873 l 0,0 c 1.87841,-0.166281 1.11566,0.345754 0.70005,0.46072 l 0,0 c 0.5728,-0.383049 0.63278,-0.02282 0.57071,0.245139 l 0,0 c 0,0 0,-10e-7 0,-10e-7 0.0515,-0.02843 0.0667,-0.05957 0.078,-0.07193 0.019,-0.0027 0.0375,0.002 0.0554,0.0052 0.0445,0.0075 0.0864,0.01695 0.12512,0.02746 0.38225,0.103753 0.48291,0.331403 0.48291,0.573619 -1e-5,0.239246 -0.0935,0.47495 -0.0945,0.565166 -1e-4,0.0092 7.2e-4,0.0168 0.003,0.02311 0.002,0.0028 0.006,0.0038 0.009,0.0088 0.0529,0.03101 0.12027,0.06913 0.14941,0.101229 0,0 0,0 0,0 l 0,0 c -0.16884,0.541768 -0.41812,0.993586 -0.23059,0.819041 l 0,0 c -1.10477,0.398868 -1.80161,0.434253 -0.77573,0.460719 l 0,0 c 0.27288,-0.0187 0.35979,0.225348 -0.87289,0.766613 l 0,0 c -1.26485,0.291979 -1.76029,0.226976 -0.74084,0.295254 l 0,0 c 1.75321,-2.204574 2.36672,-3.199725 1.57689,-2.919443 l 0,0 c 0.44739,-0.319548 0.3335,0.564171 -0.54504,2.785942 l 0,0 c -2.96591,0.946699 -3.60372,1.094846 -1.32914,0.717456 l 0,0 c -0.56893,-0.503942 -1.05598,-1.212073 -1.30813,-2.082645 0,0 0,-3e-6 0,-3e-6 -0.0159,-0.05486 -0.0272,-0.101687 0.006,-0.1689 0,0 0,-4e-6 0,-4e-6 l 0,0 c -0.49879,-0.916922 -0.77736,-1.870499 -0.81812,-2.849146 l 0,0 0,-2.5e-5 0,0 c 0.0624,-0.02698 0.22119,-0.05743 0.48512,-0.08475 l 0,0 -1e-5,-2e-5 0,0 c -0.43129,-0.630128 0.4774,-0.212941 2.75662,1.370102 l 0,0 7e-5,5.1e-5 0,0 c -0.0453,4.202253 -0.36951,5.706608 -0.85115,4.324627 l 0,0 -1e-5,-3.9e-5 0,0 c -0.39091,0.301876 -0.66039,0.487404 -0.78531,0.573847 l 0,0 c -1.99678,0.436634 -2.64974,0.526609 -1.8001,0.412957 l 0,0 1e-5,-2e-6 0,0 c -0.77738,0.08777 -0.78574,0.04352 0.0905,0.03838 l 0,0 c 0.78842,-0.305802 0.88559,-0.171409 -0.24389,0.361246 l 0,0 c -0.30961,0.190808 -0.67937,0.404713 -1.11742,0.623918 l 0,0 c -0.51672,-0.810253 -1.12661,-1.606658 -1.83643,-2.395903 -0.12663,-0.1408 -0.25632,-0.27988 -0.38958,-0.423723 -0.0458,-0.04942 -0.0877,-0.103342 -0.12671,-0.155478 l 0,0 c 0,0 1e-5,-8.7e-5 1e-5,-8.7e-5 0.23475,-1.72376 -0.0317,-3.02126 -0.82304,-3.896025 l 0,0 -4e-5,-4.4e-5 0,0 c 0.13301,-0.0795 0.23703,-0.140687 0.30982,-0.184393 0,0 0,-1e-6 0,-1e-6 l 0,0 c 0.19538,-0.118045 0.39378,-0.231149 0.59494,-0.33915 l 0,0 c 0.5778,0.855477 1.42043,1.654916 2.55666,2.42515 0,0 1e-5,1.2e-5 1e-5,1.2e-5 0.10079,0.06833 0.2043,0.135195 0.30957,0.207538 0.0516,0.03546 0.0978,0.0764 0.1421,0.114671 l 0,0 c -0.30187,2.019151 -0.0308,3.410848 0.85114,4.178097 l 0,0 c -1.08047,0.812742 -2.00489,1.354746 -2.81729,1.870561 l 0,0 c -4.09642,0.794328 -4.38027,0.59147 -0.70496,0.06594 0,0 3e-5,-4e-6 3e-5,-4e-6 l 0,0 c -0.42288,1.621891 0.11202,0.39168 2.01389,-3.725408 l 0,-3e-6 c 0,0 -6e-5,-7.3e-5 -6e-5,-7.3e-5 -1.51069,-1.712109 -2.89738,-1.634227 -4.2148,0.267642 0,0 -5e-5,8.4e-5 -5e-5,8.4e-5 l 0,0 c 0.32165,1.430918 0.22646,2.908471 -0.31924,4.35022 l 0,0 c -0.26691,0.151727 -0.0853,0.104894 0.6117,-0.07091 l 0,0 c 1.51702,-1.053425 1.709,-3.645725 0.60755,-7.850064 0,0 -4e-5,-1.66e-4 -4e-5,-1.66e-4 l 0,0 c 0,0 2e-5,-2.9e-5 2e-5,-2.9e-5 0.55715,-0.764575 1.23492,0.947987 1.94601,5.184783 l 0,1e-6 3e-5,1.62e-4 0,2e-6 c -1.95971,3.025585 -2.96567,4.078318 -2.747,3.173917 l 0,0 c -3.27592,0.678905 -4.25776,0.73075 -2.92911,0.497969 l 0,0 c 1.85967,0.490533 2.97497,-0.282222 3.52322,-2.52649 l 0,0 c 0.54981,-0.104264 0.0461,0.94207 -1.85981,2.967756 l 0,0 -1e-5,1.3e-5 0,0 c -1.83066,1.272089 -2.69688,1.378055 -1.76547,0.967212 l 0,0 c 1.13717,-1.814059 1.41616,-1.888132 0.26455,0.004 -1.35735,1.624993 -1.52484,1.701238 -0.35795,0.37671 l 0,0 c 0.46381,-0.536058 -0.10172,0.405161 -1.86862,2.340729 l 0,0 c -0.79761,0.5842 -1.19864,0.799096 -1.09721,0.750783 0.55667,-0.514475 0.64419,-0.540873 0.16762,-0.09183 -0.208,0.21015 -0.41734,0.420581 -0.62799,0.631225 0,7e-6 -0.10836,0.108265 -0.10837,0.108272 -0.9469,1.095555 -0.91436,0.773607 0.19357,-0.56137 0.73699,-4.584549 0.88852,-4.113957 -0.31699,1.270034 -3.98193,3.114901 -4.43409,3.110639 -1.00212,0.710153 0,0 0,0 0,0 -0.0121,0.05023 0.0296,-0.165326 0.21676,-0.624785 -0.65705,1.868897 -1.42075,3.033285 -2.11374,3.562257 0,0 -1e-5,9e-6 -1e-5,9e-6 -2.95703,2.069997 -3.7351,2.052413 -1.52331,0.690388 1.20564,-1.960812 1.38841,-1.902153 0.0471,0.196995 0,0 -1e-5,1e-5 -1e-5,1e-5 -1.15625,1.333285 -1.70138,1.67384 -0.55687,0.372623 -0.23536,0.238801 -0.53187,0.836021 -0.97467,1.619431 0,0 0,10e-7 0,10e-7 -0.95489,1.600468 -1.75931,3.490159 -2.67534,5.290507 -0.55021,1.108533 -1.14566,2.076355 -1.58318,2.796874 -0.33204,0.470175 -0.71459,1.311034 -1.25119,2.190421 -0.7211,1.141687 -1.44004,1.666209 -1.74531,1.913458 -1.07694,0.479659 -1.62684,2.131241 -2.4197,2.131241 z"
       id="path24"
       inkscape:path-effect="#path-effect25"
       inkscape:original-d="m 136.87826,88.915527 c 0,-1.272328 -0.11931,-1.73092 0.36894,-2.951554 0.3064,-0.765976 0.78953,-1.452139 1.10684,-2.213663 0.29915,-0.717973 0.47628,-1.481177 0.73788,-2.213665 0.35341,-0.989539 0.75712,-1.960703 1.10684,-2.951552 1.26594,-3.586853 0.75727,-2.747597 2.21366,-5.903105 0.34572,-0.749054 0.66959,-1.514081 1.10683,-2.213666 0.18436,-0.29497 0.52919,-0.459613 0.73789,-0.737888 0.165,-0.219996 0.17449,-0.543438 0.36894,-0.737889 0.38891,-0.3889 1.08688,-0.348985 1.47578,-0.737888 1.22137,-1.221372 0.3183,-1.135764 1.47578,-2.582609 0.17178,-0.214733 0.58535,-0.140133 0.73789,-0.368943 0.13643,-0.204655 -0.11,-0.517892 0,-0.737888 0.15556,-0.311121 0.49192,-0.491927 0.73788,-0.737889 0.24597,-0.245961 0.49193,-0.491926 0.73789,-0.737888 0.12298,-0.122981 0.22981,-0.264591 0.36895,-0.368943 0.35473,-0.266049 0.7521,-0.471839 1.10683,-0.737888 0.56395,-0.422966 0.29028,-0.435425 0.73789,-1.106835 0.0965,-0.144711 0.27247,-0.224231 0.36894,-0.368943 0.15254,-0.228809 0.1745,-0.543438 0.36895,-0.737888 0.75478,-0.75478 1.7145,-0.897038 2.5826,-1.475777 0.28943,-0.192947 0.45962,-0.52918 0.73789,-0.737886 -0.042,-0.698939 0.86087,-0.245965 1.10683,-0.368945 1.12512,-0.56256 -0.67477,-0.292487 1.10684,-0.737889 1.67954,0 0.0211,0.173921 1.10683,-0.368943 0.22,-0.109998 0.51789,0.109998 0.73789,0 6.55327,-3.276637 -1.2083,0.188161 2.95155,-1.475777 0.25533,-0.102129 0.4711,-0.302249 0.73789,-0.368943 0.23862,-0.05965 0.49192,0 0.73789,0 0.12298,0 0.25894,0.055 0.36894,0 1.68851,-0.844256 -1.56558,0.152916 1.10683,-0.737888 0.11667,-0.03889 0.28199,0.08696 0.36895,0 0.087,-0.08696 -0.11667,-0.330055 0,-0.368946 0.35001,-0.116671 0.74505,0.07236 1.10683,0 0.26965,-0.05393 0.477,-0.281982 0.73789,-0.368943 0.23334,-0.07778 0.51789,0.109998 0.73789,0 0.9118,-0.455906 -0.12736,-0.368945 0.73788,-0.368945" />
    <path
       style="fill:#000000;stroke:none;stroke-width:0.264583px;stroke-linecap:butt;stroke-linejoin:miter;stroke-opacity:1"
       d="m 66.040994,138.35404 c 0.374443,0.14978 1.123346,1.01289 0.746936,2.69319 -0.571811,1.00161 -1.008119,1.41613 -0.426297,0.96726 0.09429,0.1085 0.730643,0.61589 0.171295,2.88831 -0.648328,1.5025 -1.047465,1.9718 -0.543864,1.33492 0.09519,-0.177 0.235134,0.10937 0.01764,1.172 -0.198518,0.91118 -0.321548,1.18967 -0.107477,0.75919 0.04214,-0.39271 0.173409,-0.29477 0.203242,0.51556 0.109746,0.82543 0.213358,1.68734 0.310366,2.58261 0.139449,1.28695 0.265248,2.64283 0.375997,4.05838 0.214196,2.64664 0.344253,5.73996 0.78915,8.19227 -0.02153,0.0921 0.399936,0.92832 0.769039,2.72511 0.230952,1.18287 0.398069,2.31936 0.541574,3.41904 0.28251,2.16485 0.445325,3.91704 0.804958,5.50355 0.358583,1.90558 1.298468,4.09775 2.0624,6.55121 0.358746,1.12125 0.636674,2.21942 0.860199,3.00311 0.195985,0.7321 0.531045,1.63739 0.845343,2.6872 0.411132,1.36438 0.522957,2.31541 0.669659,2.94675 -0.412459,-0.49528 -0.103178,-0.13939 0.498668,1.07672 0.53675,3.06732 0.432958,3.38537 -0.05576,0.39683 -0.806584,-0.94663 -0.877602,-1.13552 -0.322581,-0.43902 0.556135,0.72285 0.846906,1.3228 0.99777,1.58791 -0.774624,-0.35696 -0.530705,-0.28767 0.389503,0.34303 0.982386,0.86982 0.877104,0.945 0.297095,0.47636 -0.362372,-0.0991 -0.05061,0.0702 0.613866,0.55529 0.869854,0.78583 0.756658,0.86725 0.281356,0.50004 -0.290791,-0.0389 0.03529,0.16296 0.581185,0.60359 0.669621,0.56846 0.662678,0.72272 0.376085,0.58227 -0.225632,-0.35799 -0.878797,-0.0968 -1.730488,0.29715 -0.317012,1.2813 -0.494049,1.51878 -0.234661,0.68228 0.410381,-0.72201 0.841492,-1.10685 1.286119,-1.10685 0.444627,0 0.875738,0.38484 1.286119,1.10685 0.176316,-0.37064 0.33946,-0.28895 -0.234661,1.42016 -1.068071,0.61106 -2.113332,0.78455 -2.614755,0.18263 -0.514965,-0.33153 -0.618284,-0.42674 -0.215424,-0.0411 0.102693,0.138 -0.09171,0.23652 -0.894593,-0.13431 -0.808552,-0.59435 -0.977907,-0.77794 -0.45653,-0.23784 0.203496,0.17449 0.0068,0.24643 -0.86191,-0.18261 -0.921791,-0.70403 -1.070678,-0.88283 -0.440797,-0.26152 0.402792,0.28346 0.204672,0.37 -1.086273,-0.39485 -0.826026,-0.52809 -1.490776,-1.07578 -1.95378,-1.36365 0.278504,0.40938 -0.06125,0.12855 -1.060471,-1.1769 -0.578394,-3.0746 -0.502366,-3.31824 -0.05576,-0.34107 0.178638,0.36787 -0.139833,0.26116 -0.977108,-1.13694 -0.676159,-1.17895 -1.133756,-2.26727 -1.544005,-2.95635 -0.336366,-0.59152 -0.861592,-1.44526 -1.368322,-2.47802 -0.517532,-1.05448 -0.942823,-2.05161 -1.353468,-2.90001 -0.902146,-1.85283 -2.218561,-4.39 -3.102816,-7.46865 -0.622311,-2.34315 -0.928026,-4.52126 -1.197325,-6.59206 -0.138141,-1.06224 -0.258661,-2.0251 -0.407691,-2.93255 7.67e-4,-0.22905 -0.415055,-1.28901 -0.706739,-3.17801 -0.370489,-3.5572 -0.167749,-6.86642 0.05126,-9.51705 0.110749,-1.41555 0.236548,-2.77143 0.375997,-4.05838 0.09701,-0.89527 0.20062,-1.75718 0.310366,-2.58261 0.02934,0.0423 0.04072,-0.57824 0.203242,-1.6981 0.352864,-1.2364 0.618548,-1.61591 0.630415,-1.45449 0.0762,0.0295 0.266415,-0.68796 0.75553,-1.77954 0.983792,-1.67238 1.187062,-1.38974 0.931912,-0.87874 0.262633,0.0804 0.670843,-1.65339 1.647073,-3.01481 1.107977,-1.23304 1.217843,-0.80379 1.049479,-0.5085 0.843107,-0.29753 1.665032,-1.21933 2.222714,-0.99625 z"
       id="path25"
       inkscape:path-effect="#path-effect26"
       inkscape:original-d="m 66.040994,138.35404 c -0.245965,0.6149 -0.409308,1.2697 -0.737889,1.84472 -0.172579,0.30201 -0.558924,0.43961 -0.737888,0.73788 -0.455176,0.75863 -0.473385,2.24621 -0.737889,2.95156 -0.155694,0.41518 -0.563218,0.69927 -0.737888,1.10683 -0.199742,0.46607 -0.229643,0.98822 -0.368943,1.47577 -0.106841,0.37394 -0.305009,0.72323 -0.368946,1.10684 -0.06065,0.36392 0,0.73789 0,1.10683 0,0.86087 0,1.72174 0,2.58261 0,1.35279 0,2.70559 0,4.05838 0,3.24698 -0.08762,5.50652 0.368946,8.85466 0.137022,1.00483 0.556474,1.95378 0.737889,2.95156 0.537773,2.95775 0.738695,6.27528 1.475774,9.2236 0.541787,2.16714 1.790552,4.97321 2.582608,7.00993 0.380842,0.97931 0.716593,1.97596 1.106834,2.95156 0.347843,0.86961 0.758987,1.713 1.106832,2.58261 0.390239,0.9756 0.672028,1.99498 1.106831,2.95155 0.183489,0.40367 0.539589,0.71023 0.737889,1.10683 0.055,0.11 -0.055,0.25895 0,0.36895 0.07778,0.15556 0.245962,0.24596 0.368945,0.36894 0.491924,0.49192 0.941335,1.03041 1.475775,1.47578 0.211256,0.17604 0.509079,0.2164 0.737888,0.36894 0.144712,0.0965 0.224232,0.27247 0.368946,0.36894 0.228809,0.15254 0.509077,0.21641 0.737888,0.36895 0.144712,0.0965 0.224232,0.27247 0.368943,0.36894 0.228809,0.15254 0.50908,0.21641 0.737889,0.36895 0.08645,0.0576 0.456266,0.65056 0.737888,0.36894 0.08696,-0.087 0,-0.24596 0,-0.36894 0,-0.36895 0,-0.73789 0,-1.10684" />
    <path
       style="fill:#000000;stroke:none;stroke-width:0.264583px;stroke-linecap:butt;stroke-linejoin:miter;stroke-opacity:1"
       d="m 87.808696,143.8882 c 0.55768,0.0797 1.296707,1.04104 1.482433,2.95288 -10e-7,0 0,0 0,0 0.114477,0.73131 0.232669,1.82991 0.08707,3.15063 l 0,0 c 1.045205,-0.71998 0.826811,-0.29379 -0.970872,1.31676 0,0 -3.1e-5,3e-5 -3.1e-5,3e-5 l 0,0 c 0.05022,-0.11408 0.119412,-0.2805 0.182801,-0.4159 0.0295,-0.063 0.06027,-0.12654 0.08212,-0.18175 0,0 3e-6,-1e-5 3e-6,-1e-5 0.01856,-0.0469 0.03582,-0.0684 0.05735,-0.0945 0,0 3e-6,0 3e-6,0 0.239916,-0.29105 0.462396,-0.39765 0.601177,-0.30518 0,0 2e-6,0 2e-6,0 l 0,0 c 0.01514,0.88397 0.04483,2.16387 0.01928,3.36501 -0.0023,1.39978 0.117288,2.82389 0.316823,4.60088 0.158925,1.81102 0.147376,3.49743 0.374793,4.83407 6.6e-5,3.2e-4 6e-5,2.9e-4 6e-5,2.9e-4 -0.08795,-0.52181 -0.125029,-0.73028 -0.118281,-0.62132 0,0 0,0 0,0 0.03423,0.074 0.06965,0.15105 0.106047,0.23114 0.09727,0.23883 0.195607,0.48137 0.294302,0.7266 0.09791,0.24314 0.196616,0.48986 0.29554,0.73948 0.03059,0.005 0.102474,0.18729 0.201877,0.5551 0.182447,0.50808 0.414602,1.17391 0.635034,2.00648 l 0,0 c -1.441039,0.5022 -2.853803,1.23225 -4.243109,2.19242 0,0 -1.05e-4,7e-5 -1.05e-4,7e-5 0,0 -1.7e-5,0 -1.7e-5,0 -0.28262,-0.0748 -0.55949,-0.13104 -0.831718,-0.19313 -1.70902,-0.38982 -3.086213,-0.2411 -4.152451,0.46578 0,0 -5.4e-5,4e-5 -5.4e-5,4e-5 l 0,0 c 1.403258,-0.73429 2.806138,-1.51641 4.210754,-2.34741 l 0,0 c 0,0 3.9e-5,-10e-6 3.9e-5,-10e-6 0.420415,-0.11013 0.835917,-0.23011 1.249439,-0.36032 0.178602,-0.0562 0.351006,-0.12284 0.541401,-0.17193 0.264089,-0.0681 0.515737,-0.11213 0.767852,-0.1704 0.734714,-0.16979 1.449373,-0.36703 2.14808,-0.5945 0.179939,0.37087 0.309978,0.66535 0.4022,0.87793 0.447744,1.12843 0.462837,1.41703 0.24168,0.7227 0.689025,0.88157 0.387512,0.74292 -0.473145,-0.40082 -1.324256,-1.54377 -3.805072,-1.06386 -7.493575,1.42394 0,0 -2.81e-4,1.9e-4 -2.81e-4,1.9e-4 0.596606,0.66485 1.518279,0.41287 2.790749,-0.7524 0,0 8.3e-5,-8e-5 8.3e-5,-8e-5 1.036938,0.30994 1.9464,0.52232 2.733131,0.70274 2.041488,0.46816 3.121369,0.43004 3.282758,-0.20578 0.604876,1.02524 0.961912,1.82699 1.186319,2.34486 0.671986,1.89553 0.706777,2.54188 0.499457,1.74155 -0.357596,-0.78326 0.104155,-0.20114 0.917171,2.01375 0.0797,0.29881 0.169311,0.67233 0.255681,1.12233 0.02597,0.13533 0.05162,0.27738 0.07659,0.4262 0.149392,-0.15901 0.157372,0.68076 -0.06859,2.49422 -1.928119,2.94424 -4.524198,3.93167 -7.727129,2.94987 l 0,0 c -0.936336,-0.75637 -1.352529,-1.15834 -1.269649,-1.18352 h 0 l 4.4e-5,-4e-5 0,0 c 1.147762,-1.0178 2.644637,-1.67016 4.472136,-1.94355 0,0 7e-5,-1e-5 7e-5,-1e-5 l 1e-6,0 c 0.01743,-0.0513 0.03008,-0.10963 0.04726,-0.1402 0.02529,-0.045 0.07873,-0.0757 0.12473,-0.11189 1.209648,-0.95183 2.710586,-1.36076 4.271622,-1.19724 0.02534,0.26943 0.624625,1.13057 1.304935,2.70418 0.726538,1.78375 1.120317,3.35108 1.441092,4.38283 -0.144354,-0.1388 0.02489,0.0722 0.335219,0.66334 0.142261,0.2371 0.540702,0.80893 1.048818,1.7407 0.737626,1.73496 0.790456,2.3193 0.392138,1.31683 -0.209193,-0.22628 -0.02812,-0.0144 0.376968,0.67875 0.40815,0.65692 0.47259,0.9198 0.3748,0.80084 -0.37078,-0.3047 0.17352,0.14306 1.18617,1.4416 0.75531,1.29013 1.22542,2.6915 0.47012,1.40136 0,0 -1e-5,-1e-5 -1e-5,-1e-5 -1.36472,-0.8997 -1.55117,-1.2222 -0.12463,-0.25538 0.0552,0.0205 0.67934,0.60117 1.62187,1.76145 0.90369,4.21626 0.76054,4.4492 -0.041,0.39631 -0.65247,-0.62156 -0.40042,-0.47407 0.43912,0.56589 0.86794,1.34198 1.05349,2.22149 1.11247,2.42368 0.20586,0.57305 0.65313,1.1487 1.1135,1.66305 0.76544,0.0929 -0.0272,0.56452 -0.80075,0.64932 0,0 -2e-5,3e-5 -2e-5,3e-5 -1.25114,1.92227 -1.57352,2.64104 -1.01367,2.39886 -0.35098,0.21668 -0.16872,-0.62305 0.54285,-2.28061 -0.66763,-0.63804 0.66612,-0.66187 3.15801,-0.004 0.5957,1.25224 0.66394,1.73428 0.42801,1.60176 -0.51434,-0.0218 -1.03871,-0.26848 -1.55568,-0.70972 l 0,0 c 0,0 0,0 0,0 -0.0633,0.0459 -0.10637,0.0727 -0.15451,0.0811 -0.61956,0.10781 -0.9228,-0.19465 -0.99171,-0.55029 -0.11785,0.55756 -0.12523,0.61959 -0.007,0.37153 0.0826,-0.11639 0.17542,-0.26832 0.25441,-0.39149 0.3576,-0.51537 0.63472,-0.81429 1.03534,-0.81429 0.32787,0 0.75013,0.24721 1.07742,0.76844 0.0886,0.131 0.1795,0.29291 0.25966,0.49317 0.11271,-0.0877 0.14092,0.13963 -0.0542,0.8557 -0.25465,0.0159 -0.68976,0.18138 -1.65534,0.64585 -0.0749,0.036 -0.1597,0.0579 -0.23,0.0654 0,0 0,0 0,0 l 0,0 c -0.53046,-0.51663 -1.04636,-0.84191 -1.5577,-0.94215 -0.23305,-0.31702 -0.11353,-0.0413 0.35213,1.0641 2.35262,0.47599 3.331,0.7501 2.49925,0.3236 0.61707,-1.56516 0.86426,-2.23442 0.5601,-1.88768 0.59623,-0.12404 0.33493,0.76297 -1.03092,2.74383 0,0 -2e-5,3e-5 -2e-5,3e-5 -1.7727,0.53154 -3.40458,0.42486 -3.75229,-0.0886 -1.00931,-0.36617 -2.17226,-0.98562 -3.31384,-2.02639 -0.992091,-1.02474 -1.561322,-1.9223 -1.839072,-2.00364 0.331162,0.40621 0.09582,0.39867 -1.03666,-0.90989 -0.937239,-4.22444 -0.809856,-4.38283 -0.04096,-0.34157 0.649791,0.68162 0.505836,0.67337 0.146091,0.28567 0.630329,0.4965 0.423138,0.56734 -1.600405,-0.99328 0,0 -1.5e-5,-1e-5 -1.5e-5,-1e-5 -1.153868,-1.66405 -1.380532,-2.39248 -1.005659,-1.55018 0.303672,0.33813 0.139649,0.47293 -1.027486,-0.77206 -0.662781,-0.79703 -1.006271,-1.31503 -1.100976,-1.41284 -0.08362,-0.0404 -0.484528,-0.50139 -1.098814,-1.53491 -0.71411,-1.61877 -0.731993,-2.01652 -0.345748,-0.89683 -0.0033,0.0112 -0.283522,-0.25024 -0.751975,-0.90335 -0.391374,-0.43326 -0.96025,-1.26391 -1.553428,-2.59573 -0.650471,-1.55023 -1.057232,-2.86686 -1.510462,-3.73394 -0.20034,-0.40784 -0.887864,-1.37744 -1.646619,-3.19891 1.164501,-0.8986 2.141585,-2.34611 3.147977,-4.42849 0.03827,-0.0792 0.06878,-0.16568 0.126985,-0.23944 0.03954,-0.0501 0.08341,-0.0733 0.122345,-0.10416 l 0,0 c 0,0 7.4e-5,-1e-5 7.4e-5,-1e-5 1.936058,-0.17002 3.517813,-0.69678 4.759909,-1.59778 l 0,0 4.8e-5,-4e-5 0,0 c 0.184716,0.10082 -0.131605,-0.16859 -0.93317,-0.83457 l 0,0 c -3.118449,-0.92514 -5.600792,0.0223 -7.503698,2.8679 -0.147507,1.50694 -0.219182,2.01977 -0.119951,1.54723 -0.0029,-0.0262 -0.0084,-0.0587 -0.01619,-0.0977 -0.0259,-0.12953 -0.07678,-0.32925 -0.139444,-0.5999 0.531579,1.11239 0.195264,0.89962 -0.558605,-0.93781 -0.558159,-1.7323 -0.507357,-2.2092 -0.238435,-1.21001 -0.335326,-0.74164 -0.483155,-1.20129 -0.571104,-1.33875 0.08032,-0.77194 1.097833,-0.98913 2.989747,-0.57208 0.728806,0.16065 1.607076,0.45854 2.629556,0.82754 0,0 8.1e-5,-8e-5 8.1e-5,-8e-5 1.252655,-1.08237 2.168521,-1.24625 2.725836,-0.50589 0,0 -2.84e-4,1.9e-4 -2.84e-4,1.9e-4 -3.721941,2.55205 -6.291933,3.01415 -7.670599,1.42271 -1.550402,-1.76534 -2.03327,-2.6921 -1.766634,-2.62409 -0.553497,-1.35097 -0.674239,-1.94612 -0.496206,-1.49096 -0.08279,-0.22485 -0.126478,-0.36655 -0.14349,-0.41934 0.656434,-0.31849 1.328705,-0.60683 2.012339,-0.86279 0.234643,-0.0879 0.473282,-0.18282 0.703333,-0.24677 0.165774,-0.0461 0.351563,-0.071 0.53295,-0.10266 0.420059,-0.0733 0.848366,-0.13726 1.281933,-0.19168 0,0 4.1e-5,0 4.1e-5,0 l 0,0 c 1.440518,-0.67888 2.887332,-1.31112 4.338008,-1.89696 l 0,0 c 0,0 -5.3e-5,4e-5 -5.3e-5,4e-5 -1.034537,0.80611 -2.39141,1.06179 -4.043103,0.75871 -0.263033,-0.0483 -0.537203,-0.13016 -0.821604,-0.22137 0,0 -1.7e-5,0 -1.7e-5,0 0,0 -1.05e-4,6e-5 -1.05e-4,6e-5 -1.397133,0.89048 -2.826516,1.55219 -4.282887,1.98605 l 0,0 c -0.04852,-0.36489 -0.179515,-0.88295 -0.325776,-1.52561 0.02864,0.12018 0.0097,0.0601 -0.0408,-0.17767 -0.06914,-0.25399 -0.137873,-0.50723 -0.206403,-0.76152 -0.06862,-0.2548 -0.13669,-0.50914 -0.204245,-0.76418 -0.01913,-0.0862 -0.03918,-0.17541 -0.05987,-0.26716 0,0 -10e-7,1e-5 -10e-7,1e-5 -0.01565,0.0414 -0.07991,-0.23435 -0.184845,-0.82514 0,0 -7e-6,-4e-5 -7e-6,-4e-5 -0.04843,-2.45529 0.225117,-4.67184 0.374727,-6.23458 0.197078,-2.04593 0.530312,-3.94414 1.054709,-5.72956 0.396063,-1.20914 0.748463,-2.27494 1.194696,-3.36884 l 0,0 c 0,0 2e-6,0 2e-6,0 0.190608,-0.16871 0.443273,-0.54665 0.792713,-1.0718 0,0 4e-6,-1e-5 4e-6,-1e-5 0.03144,-0.0472 0.06799,-0.10165 0.104262,-0.13349 0,0 5e-6,0 5e-6,0 0.04274,-0.0375 0.07796,-0.0706 0.115587,-0.1076 0.08107,-0.0797 0.161162,-0.14398 0.266733,-0.27767 l 0,0 c 0,0 -2.8e-5,2e-5 -2.8e-5,2e-5 -1.623476,1.54253 -1.876268,1.7501 -0.768672,0.85925 l 0,0 c 0.48064,-0.70962 0.875854,-1.59846 1.305164,-2.3468 0,0 1e-6,0 1e-6,0 0.93078,-1.37791 1.430865,-2.3251 2.220324,-2.21232 z"
       id="path26"
       inkscape:path-effect="#path-effect27"
       inkscape:original-d="m 87.808696,143.8882 c -0.122984,0.86087 -0.198401,1.72988 -0.368946,2.5826 -1.326652,6.63328 -0.187055,-1.09132 -1.475777,6.641 -0.460467,2.76281 -0.368943,2.64541 -0.368943,5.16522 0,1.84472 -0.131431,3.69413 0,5.53416 7.94e-4,0.0111 0.720815,2.15391 0.737889,2.21366 1.202677,4.20938 -0.273807,-0.31557 0.737888,2.21367 0.144434,0.36108 0.195022,0.75899 0.368943,1.10683 1.480884,2.96177 -0.04855,-1.3083 1.84472,2.95155 0.205939,0.46336 0.190902,1.001 0.368946,1.47578 0.193114,0.51497 0.604496,0.94221 0.737888,1.47578 1.013455,4.05382 -1.163957,-1.13619 0.368943,2.95155 0.386228,1.02994 1.029034,1.94638 1.475777,2.95155 1.055992,2.37598 0.494123,1.44064 1.475777,4.05838 0.351444,0.93719 1.551845,2.42438 1.84472,2.95156 0.188868,0.33996 0.195022,0.75899 0.368943,1.10683 0.198303,0.3966 0.491927,0.73789 0.737889,1.10683 0.245962,0.36895 0.454019,0.76619 0.737888,1.10684 0.334026,0.40083 0.803561,0.68225 1.106832,1.10683 0.319675,0.44754 0.394313,1.0463 0.737888,1.47577 0.171789,0.21474 0.491927,0.24597 0.737889,0.36895 0.24596,0.24596 0.54494,0.44846 0.73789,0.73789 0.0682,0.10232 -0.0682,0.26661 0,0.36894 0.19295,0.28942 0.52059,0.46627 0.73789,0.73789 0.55399,0.6925 0.90804,1.53238 1.47577,2.21366 0.74545,0.89453 1.24628,1.26429 2.21367,1.84472 0.35606,0.21364 1.00118,0.60624 1.47577,0.36895 0.11,-0.055 -0.087,-0.28198 0,-0.36895 0.76336,-0.76336 -0.0298,1.16652 0.73789,-0.36894 0.0561,-0.11217 0,-1.22101 0,-1.47578" />
    <path
       style="fill:#000000;stroke:none;stroke-width:0.264583px;stroke-linecap:butt;stroke-linejoin:miter;stroke-opacity:1"
       d="m 125.44099,145.73292 c 0.44701,-0.0745 1.45585,0.43723 2.08226,2.09127 0,0 0,0 0,0 0.41685,1.06796 0.53518,1.87397 0.84155,3.07395 0.5247,2.31688 0.98717,5.32531 1.36432,8.85465 0.17033,1.78142 0.12482,3.32922 0.40861,4.31537 -0.0258,-0.23709 0.007,-0.21154 0.0699,0.10087 0,0 0,1e-5 0,1e-5 0.11097,0.38871 0.17853,0.62208 0.2895,1.0108 0,10e-6 0,10e-6 0,10e-6 0.2785,0.97551 0.56655,1.99247 0.85488,3.02226 0.27861,0.99512 0.57162,2.05522 0.85754,3.05267 0.10439,0.36362 0.2021,0.70102 0.29899,1.00317 0.14338,0.36567 0.0977,0.30874 -0.0802,-0.18918 0.87997,1.72441 1.76539,3.53675 2.64863,5.11014 0.40913,0.62899 0.51362,0.94027 0.45065,0.78449 -0.001,-0.003 -0.002,-0.006 -0.004,-0.009 -0.11657,-0.0963 0.24799,0.18281 0.97499,0.93453 0,0 0,0 0,0 1.1186,1.27065 1.85698,2.42814 2.36817,3.32588 0.86837,1.45395 1.40127,2.65353 1.85343,3.509 0.66479,1.23909 1.33966,2.46975 1.99398,3.65656 0.75674,1.37875 1.55683,2.76885 2.31457,4.17765 0.66944,1.21972 1.09596,2.20806 1.49421,2.94213 -0.89488,-0.94006 -0.45831,-0.62391 0.80869,1.03274 0.92009,2.17015 0.53212,2.05076 -0.0694,0.72567 0,0 0,0 0,0 -0.017,-0.0178 -0.0314,-0.0366 -0.0467,-0.0548 -0.0395,-0.0469 -0.0767,-0.0915 -0.11162,-0.13388 0.07,0.0887 0.14209,0.17922 0.21542,0.27111 0,0 0,0 0,0 0.2241,0.28116 0.44401,0.55867 0.6609,0.83474 0.22505,0.2866 0.44523,0.56942 0.66136,0.8502 0.13781,0.17927 0.0882,0.11462 0.22597,0.29389 -0.0431,-0.0567 0.0429,0.0396 0.24609,0.28727 1.04815,1.40566 1.23214,2.26434 1.42979,2.57111 0.2832,0.30357 0.43681,0.53126 0.51479,0.65566 0.26835,-0.0627 -0.30458,-0.13261 -1.6241,-0.28788 0.28073,-0.0131 0.68809,0.0219 1.20432,0.11243 0.74582,0.27916 1.15881,0.55748 1.35508,0.75933 2.05129,1.62481 0.91337,1.20176 0.61606,0.98154 -1.72281,-0.15091 -1.30441,-0.28039 0.63687,0.20205 0.79203,0.60375 0.97547,0.9339 0.87538,1.02324 0.82633,0.413 0.0524,0.30404 -1.01031,-0.11613 -1.52697,1.07996 -1.93125,1.58418 -1.43067,1.73341 0.0423,0.11383 0.0336,-0.0958 0.0294,-0.52595 0.44463,-0.96057 0.91488,-1.47578 1.40131,-1.47578 0.48643,0 0.95668,0.51521 1.40131,1.47578 -0.004,-0.27321 0.0457,-0.34323 0.12159,-0.0648 0.52096,0.25683 0.12104,0.92884 -1.52292,2.01013 -1.36354,-0.4281 -2.30063,-0.9106 -1.68365,-0.77716 -0.34401,-0.19487 -0.34898,-0.20512 0.073,0.20848 1.85773,0.3188 1.01882,0.52085 -0.83891,0.20205 -1.43818,-0.91509 -1.72193,-1.35806 -0.8597,-0.49424 -0.33929,-0.0638 -0.49,-0.0877 -0.37544,0.0428 0.34427,0.0505 0.57701,0.0887 0.67895,0.0976 -1.49979,-0.13249 -2.24277,-0.32336 -2.12835,-0.49045 -0.48252,-0.24744 -0.87302,-0.47834 -1.15241,-0.624 -1.42909,-0.99463 -2.43195,-2.15548 -2.99755,-2.59411 0.1376,0.17275 0.14887,0.20109 0.0351,0.0735 -0.0915,-0.0692 -0.18574,-0.14068 -0.28198,-0.21447 -0.277,-0.21208 -0.56006,-0.43081 -0.84714,-0.65515 -0.27544,-0.21514 -0.55624,-0.43662 -0.84064,-0.66364 0,0 0,0 0,0 -0.0922,-0.0735 -0.18697,-0.14967 -0.28385,-0.22852 -0.0831,-0.0908 -0.17167,-0.18732 -0.25481,-0.27809 -0.0337,-0.0368 -0.0692,-0.0738 -0.10248,-0.11228 -1e-4,-1.4e-4 -1e-4,-1.5e-4 -1e-4,-1.5e-4 -1.11622,-2.15488 -1.23911,-2.78376 -0.8073,-1.48799 1.10675,1.29238 0.43966,0.84934 -0.66709,-0.44304 -0.88355,-1.0971 -1.58132,-2.14873 -2.19523,-2.96099 -0.86579,-1.16711 -1.87886,-2.52227 -2.85065,-3.93911 -0.81238,-1.18198 -1.62932,-2.42469 -2.43336,-3.72232 -0.79406,-1.29712 -1.33917,-2.40162 -1.83601,-3.132 -0.58829,-0.86137 -0.98387,-1.52811 -1.30384,-1.82045 0,1e-5 0,0 0,0 0.15627,0.13184 -0.16476,-0.0984 -0.86698,-0.81009 -0.0202,-0.0231 -0.0402,-0.0462 -0.0601,-0.0691 -1.04537,-1.20911 -1.62568,-2.18757 -1.89852,-2.80458 -1.07267,-2.00201 -1.94854,-3.97526 -2.7139,-5.74884 -0.35933,-0.88423 -0.4928,-1.35275 -0.46175,-1.39596 -0.11218,-0.46148 -0.20482,-0.89215 -0.28547,-1.28775 -0.23233,-1.13181 -0.43301,-2.23787 -0.61247,-3.29407 -0.18528,-1.08818 -0.35338,-2.15368 -0.50396,-3.19853 0,0 0,0 0,0 -0.0532,-0.36935 -0.10565,-0.74192 -0.15597,-1.12267 0,0 0,0 0,0 -0.004,-0.0179 -0.0544,-0.31662 -0.11705,-0.88549 -0.0856,-2.28418 0.24974,-4.12333 0.40861,-5.27719 0.37715,-3.52934 0.83962,-6.53777 1.36432,-8.85465 0.23013,-1.15489 0.65309,-2.29254 0.84155,-2.82917 0,0 0,-1e-5 0,-1e-5 0.57576,-1.27769 0.52568,-2.19959 1.34436,-2.33604 z"
       id="path27"
       inkscape:path-effect="#path-effect28"
       inkscape:original-d="m 125.44099,145.73292 c 0.12298,0.73788 0.31565,1.4675 0.36895,2.21366 0.0701,0.98135 0,1.9677 0,2.95156 0,2.95155 0,5.9031 0,8.85465 0,1.59876 -0.17656,3.2073 0,4.79628 0.0428,0.38514 1.87436,8.87153 2.21366,9.59254 5.0926,10.82179 3.05107,4.9555 6.64099,10.69938 0.67107,1.07371 1.21033,2.22472 1.84472,3.3205 0.71859,1.24119 1.45877,2.46999 2.21367,3.68944 0.844,1.36338 1.72636,2.70266 2.58261,4.05838 0.61954,0.98094 1.17939,2.00108 1.84472,2.95156 0.19948,0.28496 0.55892,0.43961 0.73789,0.73789 0.20008,0.33347 0.15322,0.78324 0.36894,1.10683 0.0114,0.017 2.17444,2.16883 2.21366,2.21366 0.5124,0.5856 1.4405,1.96407 2.21367,2.58261 1.76224,1.40979 0.39514,0.19757 2.21367,1.10683 0.31112,0.15556 0.42676,0.58233 0.73788,0.73789 0.22,0.11 0.51789,-0.11 0.73789,0 0.205,0.1025 0.61893,0.73789 0.73789,0.73789 0.12298,0 0,-0.24596 0,-0.36895 0,-0.49192 0,-0.98385 0,-1.47577" />
  </g>
</svg>
