<?xml version="1.0" encoding="UTF-8" standalone="no"?>
<!-- Created with Inkscape (http://www.inkscape.org/) -->

<svg
   width="210mm"
   height="297mm"
   viewBox="0 0 210 297"
   version="1.1"
   id="svg1"
   xml:space="preserve"
   inkscape:export-filename="woodpicker1.png"
   inkscape:export-xdpi="96"
   inkscape:export-ydpi="96"
   inkscape:version="1.3.2 (091e20e, 2023-11-25, custom)"
   sodipodi:docname="woodpicker1.svg"
   xmlns:inkscape="http://www.inkscape.org/namespaces/inkscape"
   xmlns:sodipodi="http://sodipodi.sourceforge.net/DTD/sodipodi-0.dtd"
   xmlns="http://www.w3.org/2000/svg"
   xmlns:svg="http://www.w3.org/2000/svg"><sodipodi:namedview
     id="namedview1"
     pagecolor="#ffffff"
     bordercolor="#cccccc"
     borderopacity="1"
     inkscape:showpageshadow="0"
     inkscape:pageopacity="1"
     inkscape:pagecheckerboard="0"
     inkscape:deskcolor="#d1d1d1"
     inkscape:document-units="mm"
     showguides="false"
     inkscape:zoom="1.0141844"
     inkscape:cx="391.44756"
     inkscape:cy="424.47903"
     inkscape:window-width="1920"
     inkscape:window-height="1001"
     inkscape:window-x="-9"
     inkscape:window-y="-9"
     inkscape:window-maximized="1"
     inkscape:current-layer="layer1" /><defs
     id="defs1"><pattern
       id="EMFhbasepattern"
       patternUnits="userSpaceOnUse"
       width="6"
       height="6"
       x="0"
       y="0" /></defs><g
     inkscape:label="Слой 1"
     inkscape:groupmode="layer"
     id="layer1"><ellipse
       style="fill:#f2e0d2;fill-opacity:1;stroke:#00131a;stroke-width:0.264583;stroke-linejoin:round;stroke-opacity:0"
       id="path1"
       cx="114.1882"
       cy="132.63541"
       rx="14.204348"
       ry="29.699999" /><ellipse
       style="fill:#343434;fill-opacity:1;stroke:#00131a;stroke-width:0.264583;stroke-linejoin:round;stroke-opacity:0"
       id="path2"
       cx="119.72236"
       cy="134.29565"
       rx="10.514906"
       ry="27.301865" /><path
       style="fill:none;stroke:#000000;stroke-width:0.264583px;stroke-linecap:butt;stroke-linejoin:miter;stroke-opacity:1"
       d="m 125.07205,158.64596 c -0.68736,0.68736 -1.79225,1.5993 -2.21367,2.58261 -0.19974,0.46607 -0.20859,0.99473 -0.36894,1.47578 -0.63678,1.91032 -0.22653,-0.85449 -0.73789,2.21366 -0.0573,0.34388 0,1.477 0,1.84472 0,1.72174 0,3.44348 0,5.16522 0,0.6149 0,1.22981 0,1.84472 0,0.36894 0.0607,0.74291 0,1.10683 -0.12787,0.76722 -0.64141,1.44187 -0.73789,2.21367 -0.0763,0.61015 0,1.22981 0,1.84472 0,0.73788 0,1.47577 0,2.21366 0,0.86087 0,1.72174 0,2.58261 0,0.36894 0,0.73789 0,1.10683 0,0.12298 0.055,0.25895 0,0.36894 -0.0778,0.15557 -0.30435,0.20747 -0.36894,0.36895 -0.18832,0.4708 -0.2086,0.99473 -0.36895,1.47578 -0.087,0.26088 -0.31501,0.46823 -0.36894,0.73789 -0.0724,0.36177 0,0.73788 0,1.10683 0,0.86087 0,1.72174 0,2.58261 0,0.49192 0,0.98385 0,1.47577 0,0.12298 0.087,0.28198 0,0.36895 -0.087,0.087 -0.28198,0.087 -0.36894,0 -0.19445,-0.19445 -0.21641,-0.50908 -0.36895,-0.73789 -0.19295,-0.28943 -0.58233,-0.42677 -0.73789,-0.73789 -0.10999,-0.22 0.11,-0.51789 0,-0.73789 -0.0778,-0.15556 -0.29116,-0.21338 -0.36894,-0.36894 -0.055,-0.11 0,-0.24597 0,-0.36895 0,-0.6149 0,-1.22981 0,-1.84472 0,-1.9677 0,-3.9354 0,-5.9031 0,-0.98385 0,-1.96771 0,-2.95156 0,-0.98385 -0.0701,-1.9702 0,-2.95155 0.0533,-0.74616 0.27616,-1.47137 0.36894,-2.21366 0.0305,-0.24407 0,-0.49193 0,-0.73789 0,-0.98385 0,-1.9677 0,-2.95155 0,-0.73789 0.132,-1.48768 0,-2.21367 -0.11847,-0.65159 -0.608,-1.19531 -0.73788,-1.84472 -0.1206,-0.60296 0,-1.22981 0,-1.84472 0,-1.35279 0,-2.70559 0,-4.05839 0,-0.73788 0,-1.47577 0,-2.21366 0,-0.12298 0,-0.24596 0,-0.36894 0,-0.12299 0.055,-0.25895 0,-0.36895 -0.45591,-0.91181 -0.36895,0.12735 -0.36895,-0.73789"
       id="path3" /><path
       style="fill:#343434;fill-opacity:1;stroke:#00131a;stroke-width:1.39443;stroke-linejoin:round;stroke-opacity:0"
       d=""
       id="path4"
       transform="scale(0.26458333)" /><path
       style="fill:#343434;fill-opacity:1;stroke:#00131a;stroke-width:0.348609;stroke-linejoin:round;stroke-opacity:0"
       d="m 451.57574,728.72626 c -0.40915,-0.88481 -1.31117,-2.06136 -2.00449,-2.61456 -1.11953,-0.89328 -1.26057,-1.18504 -1.26058,-2.60768 -1e-5,-1.15912 -0.19272,-1.77625 -0.69723,-2.23283 -0.68569,-0.62054 -0.69722,-1.0737 -0.69722,-27.40744 0,-25.20174 0.0404,-26.98465 0.68619,-30.31628 0.5913,-3.0503 0.69189,-5.14758 0.7274,-15.1665 l 0.0412,-11.62669 -1.49128,-3.23497 -1.49127,-3.23496 0.0923,-10.09725 c 0.0508,-5.55348 0.16327,-10.21209 0.25002,-10.35245 0.0868,-0.14036 0.82037,-0.0158 1.63027,0.27683 0.8099,0.29262 2.64909,0.6174 4.0871,0.72174 4.3395,0.31487 8.50931,-1.10827 12.63707,-4.313 1.10247,-0.85594 2.0045,-1.48318 2.0045,-1.39386 0,0.0893 -0.54606,0.97384 -1.21346,1.9656 -0.6674,0.99175 -1.37531,2.4586 -1.57313,3.25966 -1.19883,4.8546 -1.55689,5.93614 -2.14739,6.48628 -1.4406,1.34212 -1.6886,5.09794 -1.68911,25.58033 l -4.8e-4,19.10605 -1.30728,3.0306 -1.30728,3.03059 -0.10066,16.0279 c -0.0951,15.14258 -0.13696,16.06686 -0.75779,16.73321 -0.36142,0.38792 -0.99376,2.03874 -1.4052,3.66848 -0.41143,1.62975 -1.01167,3.35536 -1.33386,3.8347 -0.50699,0.75428 -0.60924,2.32532 -0.7601,11.67839 l -0.1743,10.80686 z"
       id="path5"
       transform="scale(0.26458333)" /><ellipse
       style="fill:#162531;fill-opacity:1;stroke:#00131a;stroke-width:0.264583;stroke-linejoin:round;stroke-opacity:0"
       id="path6"
       cx="112.83185"
       cy="102.26608"
       rx="10.043991"
       ry="7.3047204" /><path
       style="fill:#d0c8c5;stroke:#000000;stroke-width:0.264583px;stroke-linecap:butt;stroke-linejoin:miter;stroke-opacity:1;fill-opacity:1"
       d="m 102.26608,103.04874 c -0.52176,0.087 -1.05212,0.13259 -1.56529,0.26088 -0.18865,0.0472 -0.34122,0.18866 -0.52177,0.26088 -0.255323,0.10213 -0.515861,0.19419 -0.782646,0.26088 -0.430175,0.10755 -0.871559,0.1647 -1.304414,0.26089 -0.350012,0.0778 -0.691946,0.19056 -1.043533,0.26088 -0.518689,0.10374 -1.052126,0.13259 -1.565296,0.26088 -0.188645,0.0472 -0.337293,0.19939 -0.521766,0.26088 -0.164997,0.055 -0.350211,-0.0286 -0.521766,0 -0.437383,0.0729 -0.87806,0.13907 -1.304415,0.26089 -0.186968,0.0534 -0.333121,0.21372 -0.521763,0.26088 -0.16873,0.0422 -0.347845,0 -0.521767,0 -0.173923,0 -0.347845,0 -0.521766,0 -0.08696,0 -0.183102,-0.0389 -0.260882,0 -0.11,0.055 -0.260884,0.1379 -0.260884,0.26088 0,0.087 0.173921,0 0.260884,0 0.173921,0 0.347843,0 0.521764,0 0.869611,0 1.73922,0 2.608829,0 0.869611,0 1.73922,0 2.608828,0 0.173924,0 0.347845,0 0.521767,0 0.08696,0 0.178384,-0.0275 0.260884,0 0.18447,0.0615 0.331089,0.22275 0.521764,0.26089 0.255817,0.0512 0.521766,0 0.78265,0 0.521764,0 1.043528,0 1.565298,0 0.087,0 0.17392,0 0.26088,0 0.087,0 0.18853,0.0482 0.26088,0 0.46331,-0.30887 0.84112,-0.73467 1.30442,-1.04354 0.0724,-0.0482 0.19939,0.0615 0.26088,0 0.0615,-0.0615 -0.0778,-0.22199 0,-0.26088 0.15556,-0.0778 0.35677,0.055 0.52177,0 0.36894,-0.12298 0.67458,-0.39878 1.04353,-0.52176 0.14025,-0.0468 0.82265,0 1.04353,0"
       id="path7" /><path
       style="fill:#d0c8c5;fill-opacity:1;stroke:#00131a;stroke-width:0.246504;stroke-linejoin:round;stroke-opacity:0"
       d="m 370.86452,399.1957 c -0.69626,-0.44598 -1.30179,-0.47434 -10.35315,-0.48485 -8.87256,-0.0103 -9.55863,-0.041 -8.90013,-0.39759 0.93532,-0.50656 4.86958,-1.31177 6.4351,-1.31705 0.79607,-0.003 1.52132,-0.18024 2.04809,-0.5014 0.46784,-0.28524 1.83414,-0.6572 3.20455,-0.87241 2.19332,-0.34444 7.14529,-1.38614 12.37245,-2.60267 1.15246,-0.26822 2.76089,-0.8162 3.5743,-1.21775 0.98431,-0.48591 2.46824,-0.90226 4.43697,-1.2449 1.62693,-0.28314 3.01351,-0.58686 3.0813,-0.67492 0.0678,-0.0881 2.11993,0.52525 4.56031,1.36292 3.2645,1.12055 4.20907,1.52861 3.5743,1.54411 -0.50792,0.0124 -1.60409,0.42518 -2.66526,1.00362 -1.42487,0.77671 -2.06233,0.98255 -3.04274,0.98255 -1.03294,0 -1.2618,0.0824 -1.36917,0.49301 -0.0709,0.27115 -0.26188,0.49301 -0.42438,0.49301 -0.16249,0 -1.34202,0.88535 -2.62116,1.96744 l -2.32571,1.96745 -5.42308,-0.0134 c -4.91485,-0.0122 -5.49238,-0.0578 -6.16259,-0.48713 z"
       id="path8"
       transform="scale(0.26458333)" /><path
       style="fill:#eee1d6;stroke:#000000;stroke-width:0.264583px;stroke-linecap:butt;stroke-linejoin:miter;stroke-opacity:1;fill-opacity:1"
       d="m 105.70248,100.53727 c 0.30746,0.0615 0.61124,0.14558 0.92236,0.18447 0.18305,0.0229 0.36895,0 0.55342,0 0.36894,0 0.73789,0 1.10683,0 0.3515,0 0.58732,-0.0389 0.92236,0.18447 0.0512,0.0341 -0.0435,0.14099 0,0.18447 0.0972,0.0972 0.27172,0.0872 0.36895,0.18447 0.0435,0.0435 -0.0435,0.141 0,0.18448 0.0435,0.0435 0.12947,-0.0275 0.18447,0 0.0792,0.0396 0.73482,0.73329 0.73789,0.73789 0.0341,0.0512 -0.0435,0.14099 0,0.18447 0.0435,0.0435 0.12298,0 0.18447,0 0.43043,0 0.86087,0 1.2913,0 0.31444,0 0.33006,0.0194 0.73789,-0.18447 0.0778,-0.0389 0.10669,-0.14559 0.18447,-0.18448 0.055,-0.0275 0.12299,0 0.18447,0 0.0615,0 0.12299,0 0.18448,0 0.18447,0 0.36894,0 0.55341,0 0.0615,0 0.13331,0.0341 0.18448,0 0.14471,-0.0965 0.21338,-0.29116 0.36894,-0.36894 0.11,-0.055 0.24596,0 0.36894,0 0.30746,0 0.61491,0 0.92236,0 0.92236,0 1.84472,0 2.76708,0 0.0615,0 0.12299,0 0.18448,0 0.0615,0 0.12947,-0.0275 0.18447,0 0.0778,0.0389 0.10669,0.14558 0.18447,0.18447 0.055,0.0275 0.14099,-0.0435 0.18447,0 0.0435,0.0435 -0.0194,0.12614 0,0.18447 0.0435,0.13044 0.1082,0.25454 0.18448,0.36895 0.0482,0.0724 0.14558,0.10669 0.18447,0.18447 0.0275,0.055 -0.0149,0.12482 0,0.18447 0.0472,0.18865 0.13731,0.36477 0.18447,0.55342 0.0149,0.0597 0,0.12298 0,0.18447 0,0.12298 0,0.24596 0,0.36894 0,0.0615 0,0.12298 0,0.18448 0,0.0615 0.0435,0.14099 0,0.18447 -0.0435,0.0435 -0.12298,0 -0.18447,0 -0.12299,0.12298 -0.2603,0.23313 -0.36895,0.36894 -0.1385,0.17313 -0.26979,0.35512 -0.36894,0.55342 -0.0275,0.055 0.0435,0.14099 0,0.18447 -0.0435,0.0435 -0.12947,-0.0275 -0.18447,0 -0.0778,0.0389 -0.1067,0.14558 -0.18448,0.18447 -0.055,0.0275 -0.12298,0 -0.18447,0 -0.0615,0 -0.12298,0 -0.18447,0 -0.24596,0 -0.49192,0 -0.73789,0 -1.04534,0 -2.09068,0 -3.13602,0 -0.92236,0 -1.84472,0 -2.76708,0 -0.37779,0 -1.22837,-0.0412 -1.47578,0 -0.0858,0.0143 -0.10669,0.14558 -0.18447,0.18447 -0.0561,0.0281 -0.47034,0 -0.55342,0 -0.36894,0 -0.73789,0 -1.10683,0 -0.12298,0 -0.24835,0.0241 -0.36894,0 -0.19068,-0.0381 -0.36478,-0.13731 -0.55342,-0.18447 -0.0597,-0.0149 -0.14099,0.0435 -0.18447,0 -0.0435,-0.0435 0.0435,-0.14099 0,-0.18447 -0.0435,-0.0435 -0.12947,0.0275 -0.18447,0 -0.28254,-0.14127 -0.14427,-0.32873 -0.36895,-0.55342 -0.38168,-0.38168 0.0149,0.58326 -0.36894,-0.18447 -0.0275,-0.055 0.0435,-0.14099 0,-0.18447 -0.38168,-0.38168 0.0149,0.58326 -0.36895,-0.18447 -0.0547,-0.10947 0.0547,-0.44396 0,-0.55342 -0.38386,-0.76773 0.0127,0.19721 -0.36894,-0.18447 -0.0435,-0.0435 0.0149,-0.12482 0,-0.18447 -0.0472,-0.18865 -0.13731,-0.36477 -0.18447,-0.55342 -0.0149,-0.0596 0.0149,-0.12482 0,-0.18447 -0.0472,-0.18865 -0.14634,-0.36274 -0.18448,-0.55342 -0.0241,-0.12059 0,-0.24596 0,-0.36894 0,-0.30745 0,-0.61491 0,-0.92236 0,-0.0615 0,-0.12298 0,-0.18447 0,-0.0615 -0.0615,-0.18448 0,-0.18448 0.25354,0 0.49193,0.12299 0.73789,0.18448 z"
       id="path10" /><ellipse
       style="fill:#150d0b;fill-opacity:1;stroke:#00131a;stroke-width:0.264583;stroke-linejoin:round;stroke-opacity:0"
       id="path11"
       cx="107.63944"
       cy="102.56646"
       rx="1.1068324"
       ry="1.0145962" /><ellipse
       style="fill:#f99e80;fill-opacity:1;stroke:#00131a;stroke-width:0.339511;stroke-linejoin:round;stroke-opacity:0"
       id="path12"
       cx="57.946262"
       cy="181.91917"
       rx="5.0926566"
       ry="14.259553"
       transform="matrix(0.89832865,-0.43932406,0.3055459,0.95217735,0,0)" /><ellipse
       style="fill:#d5d8d9;fill-opacity:1;stroke:#00131a;stroke-width:0.264583;stroke-linejoin:round;stroke-opacity:0"
       id="path13"
       cx="117.5087"
       cy="123.13509"
       rx="2.2136648"
       ry="14.112112" /><path
       style="fill:#d6d1d1;stroke:#000000;stroke-width:0.264583px;stroke-linecap:butt;stroke-linejoin:miter;stroke-opacity:1;fill-opacity:1"
       d="m 112.15901,140.5677 c 0.91181,0.45591 0.477,0.28198 1.2913,0.55341 0.18447,0.0615 0.3636,0.1423 0.55342,0.18448 1.27565,0.28348 2.85126,0.32732 4.05838,0.36894 0.79891,0.0275 1.59876,0 2.39814,0 0.30745,0 0.6149,0 0.92236,0 0.12298,0 0.24835,-0.0241 0.36894,0 0.78939,0.15788 0.30113,0.26504 1.10683,0.18447 0.43265,-0.0433 0.86686,-0.0902 1.29131,-0.18447 0.95387,-0.21197 -0.006,-0.18447 0.55341,-0.18447 0.10501,0 0.71901,-0.0126 0.73789,0 0.28943,0.19295 0.49193,0.49193 0.73789,0.73789 0.12298,0.12298 0.26459,0.22981 0.36895,0.36894 0.0825,0.11 0.1082,0.25454 0.18447,0.36895 0.22795,0.34193 0.18447,0.0169 0.18447,0.36894 0,0.0615 0.0435,0.14099 0,0.18447 -0.0435,0.0435 -0.12298,0 -0.18447,0 -0.0615,0 -0.12299,0 -0.18447,0 -0.49193,0 -0.98386,0 -1.47578,0 -0.49193,0 -0.98385,0 -1.47578,0 -0.12298,0 -0.24835,0.0241 -0.36894,0 -0.37045,0.0423 -0.60111,-0.28863 -0.92236,-0.36894 -0.11931,-0.0298 -0.24596,0 -0.36895,0 -0.18447,0 -0.36894,0 -0.55341,0 -0.12299,0 -0.24764,0.0202 -0.36895,0 -0.25008,-0.0417 -0.48631,-0.15303 -0.73789,-0.18447 -0.30507,-0.0381 -0.6149,0 -0.92235,0 -0.12299,0 -0.24597,0 -0.36895,0 -0.0615,0 -0.12614,0.0194 -0.18447,0 -0.13044,-0.0435 -0.23283,-0.16503 -0.36895,-0.18448 -0.30436,-0.0435 -0.6149,0 -0.92236,0 -0.49192,0 -0.98385,0 -1.47577,0 -0.12611,0 -0.44341,0.0275 -0.55342,0 -0.18864,-0.0472 -0.36274,-0.14633 -0.55342,-0.18447 -0.12059,-0.0241 -0.25227,0.0389 -0.36894,0 -0.0825,-0.0275 -0.12298,-0.12298 -0.18447,-0.18447 -0.12298,-0.0615 -0.23412,-0.15751 -0.36894,-0.18447 -0.18089,-0.0362 -0.37842,0.0583 -0.55342,0 -0.75836,-0.25279 -1.48786,-0.58738 -2.21367,-0.92236 -0.25771,-0.11895 -0.18447,-0.33491 -0.18447,-0.55342 0,-0.12298 0,-0.24596 0,-0.36894 0,-0.12298 -0.055,-0.25895 0,-0.36895 0.0275,-0.055 0.14099,0.0435 0.18447,0 0.0435,-0.0435 -0.0435,-0.14099 0,-0.18447 0.0435,-0.0435 0.12299,0 0.18448,0 0.24596,0 0.49192,0 0.73789,0 0.0447,0 0.54748,-0.006 0.55341,0 0.16143,0.16143 -0.2813,0.46578 -0.55341,0.73789 z"
       id="path14" /><path
       style="fill:#d2d3d8;stroke:#000000;stroke-width:0.264583px;stroke-linecap:butt;stroke-linejoin:miter;stroke-opacity:1;fill-opacity:1"
       d="m 116.21739,146.4708 c 0.43043,-0.18447 0.84704,-0.40532 1.2913,-0.55341 0.11667,-0.0389 0.24597,0 0.36895,0 0.24596,0 0.49192,0 0.73789,0 0.55341,0 1.10683,0 1.66024,0 0.43044,0 0.86087,0 1.29131,0 0.12298,0 0.24596,0 0.36894,0 0.0615,0 0.12614,-0.0195 0.18447,0 0.13045,0.0435 0.23556,0.15112 0.36895,0.18447 0.11931,0.0298 0.24596,0 0.36894,0 0.18448,0 0.36895,0 0.55342,0 0.0615,0 0.12614,-0.0194 0.18447,0 1.04516,0.52258 -0.27499,-0.0687 0.73789,0.18447 0.13339,0.0334 0.2385,0.141 0.36894,0.18447 0.0583,0.0195 0.12299,0 0.18448,0 0.12298,0 0.24963,-0.0298 0.36894,0 0.33388,-0.11118 0.34309,0.29884 0.55342,0.36895 0.11667,0.0389 0.25227,-0.0389 0.36894,0 0.31491,0.10497 0.12298,0.18447 0.18447,0.36894 0.0435,0.13045 0.14099,0.23851 0.18448,0.36895 0.0194,0.0583 0,0.12298 0,0.18447 0,0.12298 0,0.24596 0,0.36894 0,0.24597 0,0.49193 0,0.73789 0,0.0615 0,0.12298 0,0.18447 0,0.0615 0.055,0.15698 0,0.18448 -0.11,0.055 -0.24597,0 -0.36895,0 -0.18447,0 -0.36894,0 -0.55342,0 -0.55341,0 -1.10683,0 -1.66024,0 -0.79938,0 -1.59876,0 -2.39814,0 -0.30746,0 -0.61491,0 -0.92236,0 -0.18447,0 -0.37445,0.0447 -0.55342,0 -0.73707,-0.18427 -0.003,-0.18589 -0.73788,-0.55342 -0.11,-0.055 -0.25895,0.055 -0.36895,0 -0.055,-0.0275 0.0603,-0.17241 0,-0.18447 -0.30148,-0.0603 -0.61491,0 -0.92236,0 -0.12298,0 -0.25227,0.0389 -0.36894,0 -0.0825,-0.0275 -0.10669,-0.14558 -0.18448,-0.18447 -0.10999,-0.055 -0.25894,0.055 -0.36894,0 -0.0778,-0.0389 -0.10669,-0.14559 -0.18447,-0.18448 -0.055,-0.0275 -0.12947,0.0275 -0.18447,0 -0.0778,-0.0389 -0.12299,-0.12298 -0.18448,-0.18447 -0.0615,-0.0615 -0.10669,-0.14558 -0.18447,-0.18447 -0.055,-0.0275 -0.12298,0 -0.18447,0 -0.30745,0 -0.61491,0 -0.92236,0 -0.22518,0 -0.42539,0.0716 -0.55342,-0.18447 -0.005,-0.01 -0.005,-0.54377 0,-0.55342 0.0389,-0.0778 0.10198,-0.15697 0.18447,-0.18447 0.11668,-0.0389 0.2507,0.0338 0.36895,0 0.3184,-0.091 0.61491,-0.24596 0.92236,-0.36895 z"
       id="path15" /><path
       style="fill:#cfd3d7;stroke:#000000;stroke-width:0.264583px;stroke-linecap:butt;stroke-linejoin:miter;stroke-opacity:1;fill-opacity:1"
       d="m 116.58633,151.82049 c 1.10193,-0.14725 2.21612,0.0736 3.3205,0 0.55559,-0.037 1.10571,-0.13405 1.66025,-0.18447 0.23696,-0.0215 0.49757,0 0.73789,0 0.43043,0 0.86087,0 1.2913,0 0.30746,0 0.61491,0 0.92236,0 0.0615,0 0.12614,-0.0194 0.18447,0 0.13045,0.0435 0.27172,0.0873 0.36895,0.18447 0.0435,0.0435 -0.0435,0.141 0,0.18448 0.087,0.087 0.28198,-0.087 0.36894,0 0.0435,0.0435 -0.0435,0.14099 0,0.18447 0.0972,0.0972 0.27172,0.0873 0.36895,0.18447 0.21197,0.21197 0.18447,0.32624 0.18447,0.55342 0,0.49192 0,0.98385 0,1.47577 0,0.12298 0.10232,0.30073 0,0.36895 -0.15349,0.10232 -0.36895,0 -0.55342,0 -0.24596,0 -0.49192,0 -0.73789,0 -0.24596,0 -0.4967,-0.0482 -0.73788,0 -0.0853,0.0171 -0.1067,0.14558 -0.18448,0.18447 -0.055,0.0275 -0.12298,0 -0.18447,0 -0.0615,0 -0.12298,0 -0.18447,0 -0.18447,0 -0.36894,0 -0.55342,0 -0.49192,0 -0.98385,0 -1.47577,0 -0.10352,0 -0.8374,0.0212 -0.92236,0 -0.1334,-0.0334 -0.23556,-0.15112 -0.36895,-0.18447 -0.11931,-0.0298 -0.24596,0 -0.36894,0 -0.18447,0 -0.36894,0 -0.55342,0 -0.0615,0 -0.12481,0.0149 -0.18447,0 -0.18865,-0.0472 -0.37287,-0.11226 -0.55342,-0.18447 -0.12766,-0.0511 -0.23555,-0.15113 -0.36894,-0.18448 -0.11931,-0.0298 -0.24596,0 -0.36894,0 -0.18448,0 -0.37446,0.0447 -0.55342,0 -0.0844,-0.0211 -0.10011,-0.16338 -0.18447,-0.18447 -0.23862,-0.0596 -0.49193,0 -0.73789,0 -0.0615,0 -0.12947,0.0275 -0.18447,0 -0.0778,-0.0389 -0.10669,-0.14558 -0.18447,-0.18447 -0.055,-0.0275 -0.12948,0.0275 -0.18448,0 -0.0778,-0.0389 -0.15697,-0.10197 -0.18447,-0.18447 -0.0232,-0.0694 0,-0.77192 0,-0.92236 0,-0.12299 0,-0.24597 0,-0.36895 0,-0.0615 -0.0435,-0.14099 0,-0.18447 0.0435,-0.0435 0.12947,0.0275 0.18447,0 0.0778,-0.0389 0.12298,-0.12298 0.18448,-0.18447 0.24596,-0.12298 0.49192,-0.24596 0.73788,-0.36895 z"
       id="path16" /><path
       style="fill:#ddd0c8;stroke:#000000;stroke-width:0.264583px;stroke-linecap:butt;stroke-linejoin:miter;stroke-opacity:1;fill-opacity:1"
       d="m 104.41118,153.66521 c -0.30746,0.36895 -0.61491,0.73789 -0.92236,1.10684 -0.0615,0 -0.13331,-0.0341 -0.18447,0 -0.14471,0.0965 -0.22424,0.27247 -0.36895,0.36894 -0.0512,0.0341 -0.14099,-0.0435 -0.18447,0 -0.0435,0.0435 0.0435,0.14099 0,0.18447 -0.0435,0.0435 -0.12947,-0.0275 -0.18447,0 -0.0778,0.0389 -0.10669,0.14559 -0.18447,0.18448 -0.17393,0.087 -0.39163,0.0766 -0.55342,0.18447 -0.0512,0.0341 0.0435,0.14099 0,0.18447 -0.0435,0.0435 -0.12947,-0.0275 -0.18447,0 -0.0778,0.0389 -0.10669,0.14558 -0.18447,0.18447 -0.11,0.055 -0.28199,-0.087 -0.36895,0 -0.0435,0.0435 0.0435,0.14099 0,0.18448 -0.0435,0.0435 -0.14099,-0.0435 -0.18447,0 -0.0435,0.0435 0.0435,0.14099 0,0.18447 -0.0308,0.0308 -0.65881,-0.0395 -0.73789,0 -0.055,0.0275 0.0435,0.14099 0,0.18447 -0.0435,0.0435 -0.14099,-0.0435 -0.18447,0 -0.04348,0.0435 0.055,0.15697 0,0.18447 -0.109998,0.055 -0.249635,-0.0298 -0.368943,0 -0.133393,0.0333 -0.238504,0.14099 -0.368946,0.18447 -0.05833,0.0194 -0.122981,0 -0.184473,0 -0.18447,0.12298 -0.355113,0.2698 -0.553415,0.36895 -0.055,0.0275 -0.122981,0 -0.184471,0 -0.233441,0 -0.577572,0.056 -0.737888,-0.18448 -0.06822,-0.10232 0.03889,-0.25227 0,-0.36894 -0.0275,-0.0825 -0.145582,-0.10669 -0.184473,-0.18447 -0.0275,-0.055 0.0275,-0.12948 0,-0.18447 -0.03889,-0.0778 -0.156972,-0.10198 -0.184473,-0.18447 -0.09915,-0.29746 -0.06802,-0.63125 -0.18447,-0.92237 -0.02283,-0.0571 -0.140994,0.0435 -0.184473,0 -0.01884,-0.0188 -0.341386,-0.70114 -0.368945,-0.73788 -0.122981,-0.12299 -0.245962,-0.24597 -0.368943,-0.36895 0,-0.0615 0.0275,-0.12947 0,-0.18447 -0.03889,-0.0778 -0.122981,-0.12298 -0.184473,-0.18447 -0.122981,-0.12298 -0.245962,-0.24596 -0.368943,-0.36895 -0.184473,-0.18447 -0.368945,-0.36894 -0.553415,-0.55341 -0.122984,-0.12299 -0.224235,-0.27247 -0.368946,-0.36895 -0.05116,-0.0341 -0.140991,0.0435 -0.184473,0 -0.381677,-0.38168 0.583258,0.0149 -0.18447,-0.36894 -0.121814,-0.0609 -0.431602,0.0609 -0.553416,0 -0.155561,-0.0778 -0.224234,-0.27247 -0.368945,-0.36895 -0.05116,-0.0341 -0.122981,0 -0.184473,0 -0.06149,0 -0.122981,0 -0.18447,0 -0.150448,0 -0.852938,-0.0232 -0.922362,0 -0.0825,0.0275 -0.112117,0.13624 -0.184472,0.18448 -0.483561,0.32237 -0.322374,0.069 -0.922359,0.36894 -0.142391,0.0712 -0.399889,0.45106 -0.553416,0.55342 -0.03436,0.0229 -0.726069,0.35712 -0.737888,0.36894 -0.38168,0.38168 0.583255,-0.0149 -0.184473,0.36894 -0.055,0.0275 -0.126137,-0.0194 -0.184473,0 -0.635913,0.21198 -0.136649,0.18448 -0.553416,0.18448 -0.290369,0 -0.227628,0.055 -0.368942,-0.36895 -0.01945,-0.0583 0,-0.12298 0,-0.18447 0,-0.12298 0,-0.24596 0,-0.36894 0,-0.18447 0.03618,-0.37253 0,-0.55342 -0.04103,-0.20512 -0.30415,-0.43374 -0.184473,-0.55342 0.04348,-0.0435 0.122981,0 0.184473,0 0.43262,0 -0.08696,-0.0435 0.368942,0.18448 0.055,0.0275 0.122981,0 0.184473,0 0.491924,0 0.983851,0 1.475777,0 0.08308,0 0.497274,0.0281 0.553416,0 0.155559,-0.0778 0.224232,-0.27247 0.368943,-0.36895 0.114406,-0.0763 0.25454,-0.1082 0.368946,-0.18447 0.07236,-0.0482 0.10669,-0.14558 0.18447,-0.18447 0.055,-0.0275 0.129474,0.0275 0.184472,0 0.227952,-0.11398 0.184473,-0.17811 0.184473,-0.36894 0,-0.22519 0.07158,-0.42539 -0.184473,-0.55342 -0.055,-0.0275 -0.140991,0.0435 -0.184472,0 -0.04348,-0.0435 0.04348,-0.14099 0,-0.18447 -0.04348,-0.0435 -0.129472,0.0275 -0.18447,0 -0.155562,-0.0778 -0.213384,-0.29117 -0.368946,-0.36895 -0.055,-0.0275 -0.140991,0.0435 -0.184473,0 -0.04348,-0.0435 0.03411,-0.13331 0,-0.18447 -0.09647,-0.14471 -0.264588,-0.2298 -0.368943,-0.36894 -0.0825,-0.11 -0.140991,-0.23851 -0.184473,-0.36895 -0.01945,-0.0583 0.04348,-0.14099 0,-0.18447 -0.09722,-0.0972 -0.271719,-0.0873 -0.368942,-0.18447 -0.04348,-0.0435 0.0275,-0.12947 0,-0.18447 -0.03889,-0.0778 -0.132297,-0.11491 -0.184473,-0.18448 -0.308772,-0.41169 -0.533628,-0.8147 -0.737889,-1.2913 -0.0927,-0.21631 -0.100311,-0.60357 -0.368943,-0.73789 -0.055,-0.0275 -0.122981,0 -0.184473,0 -0.06149,0 -0.12298,0 -0.184472,0 -0.676397,0 -1.352794,0 -2.029193,0 -0.06149,0 -0.122981,0 -0.18447,0 -0.06149,0 -0.140991,0.0435 -0.184473,0 -0.04348,-0.0435 -0.04348,-0.14099 0,-0.18447 0.04348,-0.0435 0.140991,0.0435 0.184473,0 0.04348,-0.0435 -0.0275,-0.12947 0,-0.18447 0.03889,-0.0778 0.122981,-0.12298 0.18447,-0.18447 0.06149,-0.0615 0.101976,-0.15698 0.184473,-0.18448 0.11667,-0.0389 0.245964,0 0.368945,0 0.06149,0 0.140991,0.0435 0.18447,0 0.04348,-0.0435 -0.055,-0.15697 0,-0.18447 0.109998,-0.055 0.252275,0.0389 0.368946,0 0.0825,-0.0275 0.106691,-0.14558 0.184473,-0.18447 0.0485,-0.0243 0.641421,0 0.737886,0 0.245964,0 0.491926,0 0.737888,0 0.06149,0 0.122981,0 0.184473,0 0.06149,0 0.129474,-0.0275 0.184473,0 0.07778,0.0389 0.10669,0.14558 0.18447,0.18447 0.055,0.0275 0.122984,0 0.184473,0 0.06149,0.0615 0.106693,0.14558 0.184473,0.18447 0.055,0.0275 0.140991,-0.0435 0.184472,0 0.04348,0.0435 -0.0275,0.12948 0,0.18448 0.07778,0.15556 0.291164,0.21338 0.368943,0.36894 0.0275,0.055 -0.0275,0.12947 0,0.18447 0.07778,0.15556 0.291164,0.21339 0.368943,0.36894 0.0275,0.055 -0.0275,0.12948 0,0.18448 0.03889,0.0778 0.145584,0.10669 0.184473,0.18447 0.0275,0.055 0,0.12298 0,0.18447 0,0.18447 -0.04474,0.37445 0,0.55342 0.04218,0.16873 0.291163,0.21338 0.368946,0.36894 0.04104,0.0821 -0.02813,0.65351 0,0.73789 0.0275,0.0825 0.145581,0.10669 0.18447,0.18447 0.055,0.11 -0.055,0.25895 0,0.36895 0.03889,0.0778 0.145581,0.10669 0.184472,0.18447 0.0275,0.055 -0.0275,0.12947 0,0.18447 0.07778,0.15556 0.272471,0.22423 0.368946,0.36894 0.07627,0.11441 0.108201,0.25454 0.18447,0.36895 0.04824,0.0724 0.122981,0.12298 0.184473,0.18447 0.06149,0.12298 0.108201,0.25454 0.184473,0.36895 0.04824,0.0724 0.122981,0.12298 0.18447,0.18447 0.06149,0.0615 0.106693,0.14558 0.184473,0.18447 0.055,0.0275 0.129474,-0.0275 0.184472,0 0.07778,0.0389 0.106691,0.14558 0.184473,0.18447 0.055,0.0275 0.129471,-0.0275 0.18447,0 0.871112,0.43556 -1.125945,-0.097 0.737889,0.36894 0.05966,0.0149 0.122981,0 0.184473,0 0.184473,0 0.376041,-0.0507 0.553415,0 0.63154,-0.28335 0.601666,0.39307 0.922362,0.55342 0.109998,0.055 0.281982,-0.087 0.368943,0 0.245962,0.24596 -0.391324,0.17701 0.184472,0.36895 0.116671,0.0389 0.245962,0 0.368943,0 0.06149,0 0.129474,-0.0275 0.184473,0 0.767728,0.38386 -0.197207,-0.0127 0.184473,0.36894 0.04348,0.0435 0.122981,0 0.18447,0 0.184473,0 0.368946,0 0.553418,0 0.430435,0 0.86087,0 1.291305,0 0.06149,0 0.122981,0 0.18447,0 0.06149,0 0.126137,0.0195 0.184473,0 0.58529,-0.1951 0.26546,-0.16199 0.55342,-0.73789 0.0389,-0.0778 0.14558,-0.10669 0.18447,-0.18447 0.0275,-0.055 -0.0275,-0.12947 0,-0.18447 0.0778,-0.15556 0.27247,-0.22423 0.36894,-0.36895 0.0763,-0.1144 0.14099,-0.2385 0.18447,-0.36894 0.0195,-0.0583 -0.055,-0.15697 0,-0.18447 0.11,-0.055 0.25228,0.0389 0.36895,0 0.35743,-0.11915 0.0845,-0.40346 0.18447,-0.55342 0.0965,-0.14471 0.27247,-0.22423 0.36895,-0.36894 0.0341,-0.0512 0,-0.12298 0,-0.18448 0.0615,-0.18447 0.0766,-0.39162 0.18447,-0.55341 0.19295,-0.28943 0.49192,-0.49193 0.73788,-0.73789"
       id="path17" /><ellipse
       style="fill:#343434;fill-opacity:1;stroke:#00131a;stroke-width:0.264583;stroke-linejoin:round;stroke-opacity:0"
       id="path18"
       cx="55.778839"
       cy="159.94167"
       rx="1.5652972"
       ry="0.4728502"
       transform="rotate(-11.449314)" /><ellipse
       style="fill:#343434;fill-opacity:1;stroke:#00131a;stroke-width:0.279892;stroke-linejoin:round;stroke-opacity:0"
       id="path19"
       cx="32.552696"
       cy="172.81247"
       rx="2.3865378"
       ry="1.0342102"
       transform="matrix(0.95164027,-0.30721457,0.33203226,0.94326803,0,0)" /><path
       style="fill:#ddd0c8;stroke:#000000;stroke-width:0.264583px;stroke-linecap:butt;stroke-linejoin:miter;stroke-opacity:1;fill-opacity:1"
       d="m 92.254706,151.83383 c 0,0.0978 0,0.19566 0,0.29349 0,0.0652 0.0059,0.13071 0,0.19567 -0.01003,0.1104 -0.05298,0.21592 -0.06522,0.3261 -0.0048,0.0432 0,0.087 0,0.13044 0,0.0761 0,0.15218 0,0.22827 0,0.0435 0.0048,0.0872 0,0.13045 -0.0061,0.0551 -0.01669,0.10996 -0.03261,0.16305 -0.06556,0.21852 -0.07291,0.10186 -0.09783,0.3261 -0.0048,0.0432 0,0.087 0,0.13044 0,0.0326 0.009,0.0665 0,0.0978 -0.01336,0.0468 -0.05343,0.0833 -0.06522,0.13044 -0.01056,0.0422 0.0061,0.0874 0,0.13045 -0.0049,0.034 -0.02175,0.0652 -0.03261,0.0978 -0.02175,0.0652 -0.05031,0.12855 -0.06522,0.19566 -0.0071,0.0318 0.0046,0.0655 0,0.0978 -0.0064,0.0444 -0.02627,0.0861 -0.03261,0.13044 -0.0046,0.0323 0,0.0652 0,0.0978 0,0.0326 0,0.0652 0,0.0978 0,0.0435 0.0054,0.0873 0,0.13045 -0.0056,0.0445 -0.02289,0.0867 -0.03261,0.13044 -0.01201,0.0541 -0.01916,0.10928 -0.03261,0.16305 -0.0083,0.0333 -0.02696,0.0639 -0.03261,0.0978 -0.0054,0.0322 0.009,0.0665 0,0.0978 -0.01336,0.0467 -0.05569,0.0828 -0.06522,0.13044 -0.01281,0.064 0.0065,0.13077 0,0.19566 0.0072,0.0832 -0.05541,0.14975 -0.06522,0.22828 -0.0067,0.0539 0.0067,0.10912 0,0.16305 0.06343,0.0906 -0.05343,0.0833 -0.06522,0.13044 -0.0079,0.0316 0.0054,0.0657 0,0.0978 -0.0057,0.0339 -0.02696,0.0639 -0.03261,0.0978 -0.0054,0.0322 0.0064,0.0659 0,0.0978 -0.0048,0.0238 -0.02671,0.0416 -0.03261,0.0652 -0.0053,0.0211 0,0.0435 0,0.0652 0,0.0435 0,0.087 0,0.13044 0,0.16525 0.0097,-0.0389 -0.03261,0.13044 -0.0053,0.0211 0,0.0435 0,0.0652 0,0.0543 0,0.1087 0,0.16305 0,0.0217 0,0.0435 0,0.0652 0,0.0217 0.0043,0.0439 0,0.0652 -0.0067,0.0337 -0.02588,0.0641 -0.03261,0.0978 -0.0069,0.0346 0.01,0.13302 0,0.16306 -0.0049,0.0146 -0.02888,0.0177 -0.03261,0.0326 -0.0079,0.0316 0,0.0652 0,0.0978 0,0.0652 0,0.13044 0,0.19566 0,0.14131 0,0.28262 0,0.42393 0,0.0652 0,0.13044 0,0.19567 0,0.0109 -0.0077,0.0249 0,0.0326 0.0077,0.008 0.02175,0 0.03261,0 0.01087,0 0.02175,0 0.03261,0 0.02175,0 0.04348,0 0.06522,0 0.01087,0 0.02289,0.005 0.03261,0 0.236937,-0.11847 -0.01894,-0.009 0.163052,-0.13045 0.009,-0.006 0.02775,0.01 0.03261,0 0.0097,-0.0194 -0.0097,-0.0458 0,-0.0652 0.03374,0 0.04507,0.008 0.06522,-0.0326 0.0049,-0.01 -0.004,-0.0225 0,-0.0326 0.08696,-0.2174 0.04535,-0.0446 0.09783,-0.22827 0.0123,-0.0431 0.02381,-0.0865 0.03261,-0.13044 0.0021,-0.0107 -0.0049,-0.0229 0,-0.0326 0.0069,-0.0138 0.02574,-0.0189 0.03261,-0.0326 0.0049,-0.01 0,-0.0217 0,-0.0326 0,-0.0109 0,-0.0217 0,-0.0326 0,-0.0435 0,-0.087 0,-0.13044 0,-0.0435 -0.0043,-0.0872 0,-0.13044 0.02851,-0.28515 0.02077,-0.11717 0.130442,-0.39133 0.01664,-0.0416 0.02029,-0.0873 0.03261,-0.13044 0.0094,-0.0331 0.01984,-0.0659 0.03261,-0.0978 0.009,-0.0226 0.02672,-0.0416 0.03261,-0.0652 0.01056,-0.0422 -0.01056,-0.0883 0,-0.13044 0.0059,-0.0236 0.02492,-0.0422 0.03261,-0.0652 0.04095,-0.1638 0.01844,-0.0879 0.06522,-0.22828 0.01087,-0.0326 0.01725,-0.0671 0.03261,-0.0978 0.0069,-0.0138 0.02775,-0.018 0.03261,-0.0326 0.0069,-0.0206 -0.0086,-0.0452 0,-0.0652 0.02498,-0.0583 0.07209,-0.10513 0.09783,-0.16305 0.06149,-0.13836 0.105929,-0.28372 0.163053,-0.42394 0.07939,-0.19486 0.27873,-0.63791 0.358714,-0.84787 0.03671,-0.0964 0.06081,-0.19724 0.09783,-0.29349 0.01746,-0.0454 0.04717,-0.0853 0.06522,-0.13044 0.004,-0.0101 0,-0.0218 0,-0.0326 0,-0.0109 0,-0.0217 0,-0.0326 0,-0.0217 0,-0.0435 0,-0.0652 0,-0.0326 -0.0079,-0.0662 0,-0.0978 0.01421,-0.0568 0.04914,-0.10677 0.06522,-0.16306 0.006,-0.0209 0,-0.0435 0,-0.0652 0,-0.0326 0,-0.0652 0,-0.0978 0,-0.087 0,-0.17392 0,-0.26088 0,-0.50003 0,-1.00005 0,-1.50008 0,-0.0307 -0.0051,-0.0675 0,-0.0978 0.0091,-0.0547 0.02058,-0.10894 0.03261,-0.16305 0.0097,-0.0438 0.02627,-0.0861 0.03261,-0.13044 0.0046,-0.0323 0,-0.0652 0,-0.0978 0,-0.0109 0.01087,-0.0326 0,-0.0326 -0.01087,0 0,0.0217 0,0.0326 0,0.0217 0.0053,0.0441 0,0.0652 -0.0223,0.0892 -0.04586,0.0525 -0.09783,0.13044 -0.006,0.009 0,0.0217 0,0.0326"
       id="path20" /><ellipse
       style="fill:#343434;fill-opacity:1;stroke:#00131a;stroke-width:0.264583;stroke-linejoin:round;stroke-opacity:0"
       id="path21"
       cx="117.90191"
       cy="139.30659"
       rx="0.7011227"
       ry="2.1359785"
       transform="rotate(10.014785)" /></g></svg>
