<?xml version="1.0" encoding="UTF-8" standalone="no"?>
<!-- Created with Inkscape (http://www.inkscape.org/) -->

<svg
   width="210mm"
   height="297mm"
   viewBox="0 0 210 297"
   version="1.1"
   id="svg1"
   xml:space="preserve"
   inkscape:export-filename="woodpicker2.png"
   inkscape:export-xdpi="96"
   inkscape:export-ydpi="96"
   inkscape:version="1.3.2 (091e20e, 2023-11-25, custom)"
   sodipodi:docname="woodpicker3.svg"
   xmlns:inkscape="http://www.inkscape.org/namespaces/inkscape"
   xmlns:sodipodi="http://sodipodi.sourceforge.net/DTD/sodipodi-0.dtd"
   xmlns="http://www.w3.org/2000/svg"
   xmlns:svg="http://www.w3.org/2000/svg"><sodipodi:namedview
     id="namedview1"
     pagecolor="#ffffff"
     bordercolor="#cccccc"
     borderopacity="1"
     inkscape:showpageshadow="0"
     inkscape:pageopacity="1"
     inkscape:pagecheckerboard="0"
     inkscape:deskcolor="#d1d1d1"
     inkscape:document-units="mm"
     showguides="false"
     inkscape:zoom="1.0141844"
     inkscape:cx="391.44755"
     inkscape:cy="424.47902"
     inkscape:window-width="1920"
     inkscape:window-height="1001"
     inkscape:window-x="-9"
     inkscape:window-y="-9"
     inkscape:window-maximized="1"
     inkscape:current-layer="layer1" /><defs
     id="defs1"><pattern
       id="EMFhbasepattern"
       patternUnits="userSpaceOnUse"
       width="6"
       height="6"
       x="0"
       y="0" /></defs><g
     inkscape:label="Слой 1"
     inkscape:groupmode="layer"
     id="layer1"><ellipse
       style="fill:#f2e0d2;fill-opacity:1;stroke:#00131a;stroke-width:0.264583;stroke-linejoin:round;stroke-opacity:0"
       id="path1"
       cx="16.42227"
       cy="162.20778"
       rx="14.204348"
       ry="29.699999"
       transform="rotate(-30)" /><ellipse
       style="fill:#343434;fill-opacity:1;stroke:#00131a;stroke-width:0.264583;stroke-linejoin:round;stroke-opacity:0"
       id="path2"
       cx="21.956408"
       cy="163.86804"
       rx="10.514906"
       ry="27.301865"
       transform="rotate(-30)" /><path
       style="fill:none;stroke:#000000;stroke-width:0.264583px;stroke-linecap:butt;stroke-linejoin:miter;stroke-opacity:1"
       d="m 117.75697,149.34883 c -0.25159,0.93896 -0.75246,2.28116 -0.62582,3.34341 0.0601,0.50354 0.31675,0.96577 0.41839,1.46257 0.40362,1.97282 -0.62368,-0.6265 0.46776,2.28604 0.12235,0.32639 0.73852,1.27908 0.92237,1.59758 0.86086,1.49103 1.7217,2.98216 2.58263,4.4732 0.3074,0.53252 0.61487,1.06508 0.92233,1.59756 0.1845,0.31956 0.42404,0.61305 0.55343,0.95857 0.27291,0.72836 0.16541,1.56944 0.46777,2.28605 0.23897,0.56651 0.61494,1.06502 0.9224,1.59755 0.36893,0.63904 0.73788,1.27804 1.10684,1.91705 0.43039,0.74561 0.86085,1.49109 1.2913,2.23666 0.18447,0.31946 0.36894,0.63901 0.55337,0.95852 0.0616,0.1065 0.17711,0.19676 0.18449,0.31955 0.0104,0.17356 -0.15986,0.33184 -0.13507,0.50402 0.0723,0.50188 0.31673,0.96571 0.41838,1.46253 0.0551,0.26941 -0.0387,0.56299 0.0494,0.82349 0.11818,0.34948 0.36893,0.63901 0.55337,0.95855 0.43044,0.74554 0.86085,1.49106 1.29134,2.23658 0.24592,0.42602 0.49189,0.85207 0.73791,1.27805 0.0615,0.10649 0.21632,0.20068 0.18447,0.31949 -0.0318,0.11884 -0.20076,0.21638 -0.31953,0.18449 -0.26563,-0.0712 -0.44192,-0.33267 -0.68849,-0.45455 -0.31179,-0.1542 -0.71769,-0.0784 -1.00792,-0.27009 -0.20532,-0.13556 -0.16369,-0.50351 -0.36899,-0.63904 -0.14516,-0.0958 -0.35884,-0.0392 -0.50396,-0.13505 -0.10263,-0.0677 -0.12302,-0.213 -0.18448,-0.3195 -0.30747,-0.53254 -0.61493,-1.06508 -0.92236,-1.59761 -0.98386,-1.70407 -1.96774,-3.40812 -2.95154,-5.11219 -0.49195,-0.85205 -0.98388,-1.70411 -1.47581,-2.55612 -0.49193,-0.85206 -1.04583,-1.67125 -1.47573,-2.55615 -0.32693,-0.67285 -0.49653,-1.41231 -0.78735,-2.10157 -0.0956,-0.22659 -0.24596,-0.426 -0.36893,-0.63903 -0.49195,-0.85202 -0.98387,-1.70408 -1.47578,-2.55611 -0.36896,-0.63899 -0.62954,-1.35437 -1.10683,-1.91711 -0.42843,-0.505 -1.12423,-0.73115 -1.56141,-1.22862 -0.40589,-0.46188 -0.61489,-1.06505 -0.92233,-1.59758 -0.67642,-1.17155 -1.35281,-2.34308 -2.02919,-3.51466 -0.36899,-0.63905 -0.73791,-1.27806 -1.10686,-1.9171 -0.0614,-0.10647 -0.12301,-0.21298 -0.18447,-0.31949 -0.0616,-0.10654 -0.0819,-0.25178 -0.18449,-0.31951 -0.85076,-0.56173 -0.2559,0.29473 -0.68851,-0.45457"
       id="path3" /><path
       style="fill:#343434;fill-opacity:1;stroke:#00131a;stroke-width:1.39443;stroke-linejoin:round;stroke-opacity:0"
       d=""
       id="path4"
       transform="scale(0.26458333)" /><path
       style="fill:#343434;fill-opacity:1;stroke:#00131a;stroke-width:0.0922361;stroke-linejoin:round;stroke-opacity:0"
       d="m 129.99504,181.73102 c -0.2108,-0.1486 -0.57317,-0.29881 -0.80517,-0.3339 -0.37476,-0.0566 -0.4456,-0.10474 -0.63383,-0.43074 -0.15336,-0.26555 -0.27915,-0.3815 -0.45513,-0.41937 -0.2392,-0.0515 -0.3018,-0.1538 -3.78555,-6.18777 -3.33397,-5.77465 -3.56059,-6.18853 -3.85337,-7.03737 -0.26807,-0.77714 -0.52249,-1.27101 -1.83973,-3.57142 l -1.52868,-2.66955 -0.76963,-0.54392 -0.76965,-0.54399 -1.31465,-2.32585 c -0.72307,-1.2792 -1.31356,-2.36155 -1.31229,-2.40515 0.001,-0.0437 0.1859,-0.11193 0.4101,-0.15223 0.22428,-0.0401 0.68866,-0.20896 1.03201,-0.3753 1.03596,-0.50192 1.80315,-1.3796 2.32503,-2.66005 0.13937,-0.34196 0.26306,-0.605 0.27491,-0.58455 0.0117,0.0205 0.004,0.29542 -0.018,0.61095 -0.0217,0.31553 0.0101,0.74531 0.0708,0.95502 0.36746,1.27095 0.42893,1.56602 0.36601,1.77032 -0.15254,0.4981 0.28755,1.3915 2.99704,6.08481 l 2.52747,4.37797 0.10136,0.86735 0.10137,0.86736 2.09732,3.68585 c 1.98141,3.48232 2.09416,3.69961 2.04003,3.93444 -0.0315,0.13666 0.042,0.59859 0.16332,1.0265 0.12089,0.42799 0.21205,0.90264 0.20166,1.05511 -0.0164,0.23988 0.16846,0.61328 1.37078,2.77649 l 1.38974,2.4993 z"
       id="path5" /><ellipse
       style="fill:#162531;fill-opacity:1;stroke:#00131a;stroke-width:0.264583;stroke-linejoin:round;stroke-opacity:0"
       id="path6"
       cx="15.065886"
       cy="131.83847"
       rx="10.043991"
       ry="7.3047204"
       transform="rotate(-30)" /><path
       style="fill:#d0c8c5;fill-opacity:1;stroke:#000000;stroke-width:0.264583px;stroke-linecap:butt;stroke-linejoin:miter;stroke-opacity:1"
       d="m 70.20783,112.60324 c -0.40836,0.33622 -0.844886,0.64085 -1.225162,1.0085 -0.139631,0.13535 -0.20099,0.33415 -0.321462,0.48679 -0.170021,0.2162 -0.349617,0.42618 -0.547313,0.61731 -0.318427,0.30859 -0.672424,0.57845 -0.999165,0.87821 -0.264224,0.24238 -0.503975,0.51096 -0.773303,0.74769 -0.397309,0.34922 -0.844862,0.64088 -1.225142,1.00858 -0.139616,0.13535 -0.192442,0.34126 -0.321376,0.48682 -0.115358,0.13009 -0.317565,0.15031 -0.451882,0.26084 -0.342337,0.28183 -0.690847,0.55953 -0.999187,0.8782 -0.135378,0.13959 -0.181737,0.35159 -0.321367,0.48687 -0.125025,0.12078 -0.301264,0.1739 -0.45187,0.26085 -0.150598,0.0869 -0.301276,0.1739 -0.451853,0.26089 -0.07536,0.0436 -0.177942,0.058 -0.225922,0.13042 -0.0674,0.10274 -0.156969,0.24989 -0.09549,0.35632 0.04357,0.0754 0.150591,-0.0869 0.225909,-0.13041 0.150612,-0.0869 0.301228,-0.17389 0.451861,-0.26089 0.753088,-0.43481 1.506194,-0.86963 2.259286,-1.30445 0.753131,-0.43477 1.506231,-0.86958 2.259332,-1.30437 0.150618,-0.0869 0.301286,-0.1739 0.45185,-0.26093 0.07538,-0.0436 0.140691,-0.11296 0.225927,-0.13041 0.19043,-0.0389 0.3981,0.0274 0.582292,-0.0349 0.247166,-0.0837 0.451874,-0.26087 0.677812,-0.39135 0.451822,-0.26092 0.903709,-0.52174 1.355565,-0.78263 0.07531,-0.0435 0.150677,-0.087 0.225924,-0.13042 0.07531,-0.0435 0.187399,-0.0523 0.225918,-0.13042 0.246856,-0.49908 0.361129,-1.05677 0.607883,-1.55594 0.03814,-0.0781 0.203482,-0.0463 0.225923,-0.13042 0.0225,-0.084 -0.178372,-0.15335 -0.130458,-0.22592 0.09581,-0.14516 0.336453,-0.13074 0.451852,-0.26087 0.258041,-0.29096 0.384895,-0.68261 0.642867,-0.97362 0.09799,-0.11074 0.712417,-0.41136 0.903714,-0.52178"
       id="path7" /><path
       style="fill:#d0c8c5;fill-opacity:1;stroke:#00131a;stroke-width:0.0652208;stroke-linejoin:round;stroke-opacity:0"
       d="m 67.907033,116.90118 c -0.218521,-0.0101 -0.361026,0.0635 -2.436402,1.25853 -2.034524,1.17117 -2.195679,1.25509 -2.091938,1.08632 0.147597,-0.2396 0.942112,-0.94491 1.30028,-1.15311 0.181983,-0.10601 0.324711,-0.24254 0.402956,-0.38582 0.06901,-0.12747 0.333289,-0.39327 0.618516,-0.62419 0.456997,-0.36903 1.453876,-1.26288 2.490662,-2.23312 0.228552,-0.21394 0.524627,-0.55228 0.657899,-0.75188 0.161233,-0.24162 0.446182,-0.5333 0.851995,-0.87221 0.335342,-0.2801 0.612873,-0.53311 0.616729,-0.5623 0.0037,-0.0292 0.555256,-0.16007 1.225234,-0.29103 0.896236,-0.17513 1.166649,-0.20657 1.023263,-0.11903 -0.11488,0.0698 -0.311179,0.30973 -0.477926,0.58254 -0.223788,0.36643 -0.342569,0.49803 -0.567242,0.6277 -0.23671,0.13662 -0.27815,0.18587 -0.24854,0.29402 0.01959,0.0715 0.0052,0.14761 -0.03197,0.16914 -0.03729,0.0214 -0.190391,0.38045 -0.340341,0.79757 l -0.272589,0.75855 -1.244617,0.71396 c -1.12765,0.64759 -1.266137,0.71334 -1.476541,0.70359 z"
       id="path8" /><path
       style="fill:#eee1d6;fill-opacity:1;stroke:#000000;stroke-width:0.264583px;stroke-linecap:butt;stroke-linejoin:miter;stroke-opacity:1"
       d="m 71.928103,108.71004 c 0.297054,-0.10051 0.60213,-0.17957 0.891033,-0.30139 0.16991,-0.0716 0.319522,-0.18449 0.479262,-0.27668 0.319522,-0.18449 0.639038,-0.36896 0.958557,-0.55341 0.304368,-0.17577 0.489191,-0.32736 0.891012,-0.30138 0.06138,0.004 0.03286,0.1439 0.0922,0.15981 0.132816,0.0355 0.278926,-0.0603 0.411764,-0.0247 0.0594,0.016 0.03286,0.14389 0.09228,0.15973 0.05943,0.0161 0.09843,-0.0886 0.159779,-0.0922 0.08834,-0.005 1.002975,0.26768 1.007956,0.27006 0.05516,0.0273 0.03287,0.14391 0.09219,0.15976 0.05934,0.0159 0.106535,-0.0614 0.159783,-0.0922 0.372726,-0.21522 0.74553,-0.43044 1.118293,-0.64563 0.27233,-0.15725 0.295572,-0.14825 0.546786,-0.52874 0.04775,-0.0725 0.01957,-0.17943 0.06753,-0.25197 0.03404,-0.0511 0.106562,-0.0615 0.159757,-0.0923 0.05317,-0.0307 0.10647,-0.0614 0.159789,-0.0922 0.159757,-0.0923 0.319516,-0.18449 0.479293,-0.27668 0.05327,-0.0307 0.132427,-0.0375 0.159789,-0.0922 0.07705,-0.15591 0.03921,-0.35885 0.135055,-0.50398 0.06741,-0.10274 0.213017,-0.12292 0.319516,-0.18448 0.266286,-0.15365 0.532517,-0.30745 0.798785,-0.4612 0.798783,-0.46117 1.597558,-0.92239 2.396347,-1.38355 0.05333,-0.0306 0.106505,-0.0616 0.159715,-0.0923 0.05316,-0.0307 0.09841,-0.0886 0.1598,-0.0922 0.08691,-0.005 0.165214,0.0727 0.251972,0.0675 0.06137,-0.004 0.100051,-0.10859 0.159707,-0.0923 0.0595,0.0159 0.04627,0.11894 0.09221,0.1598 0.102749,0.0914 0.220928,0.16634 0.344219,0.22725 0.0782,0.0383 0.179386,0.0196 0.251985,0.0676 0.05111,0.0341 0.04948,0.1155 0.09219,0.15982 0.135315,0.13957 0.301282,0.24723 0.436407,0.38703 0.04275,0.0442 0.06146,0.10656 0.09231,0.15976 0.06146,0.10656 0.123009,0.21296 0.184455,0.31952 0.03077,0.0534 0.06157,0.1065 0.09219,0.15977 0.03071,0.0532 0.108559,0.10003 0.09229,0.15975 -0.01601,0.0595 -0.106527,0.0616 -0.159789,0.0922 -0.04504,0.16806 -0.108892,0.33206 -0.135061,0.50401 -0.03336,0.21919 -0.0561,0.44243 -0.04278,0.66376 0.0037,0.0614 0.108556,0.10002 0.09221,0.1598 -0.01597,0.0592 -0.125973,0.041 -0.159817,0.0922 -0.04765,0.0727 -0.0196,0.17936 -0.06753,0.25197 -0.03412,0.0511 -0.106521,0.0614 -0.159726,0.0923 -0.05316,0.0307 -0.106451,0.0614 -0.159789,0.0922 -0.212996,0.12302 -0.426023,0.24599 -0.639036,0.36896 -0.905299,0.52268 -1.810567,1.04535 -2.715868,1.56802 -0.7988,0.46117 -1.597568,0.92237 -2.396349,1.38354 -0.327195,0.18892 -1.084402,0.57851 -1.278089,0.73789 -0.06689,0.0556 -0.01963,0.1794 -0.06754,0.25196 -0.03476,0.0523 -0.407317,0.23519 -0.479271,0.27671 -0.319527,0.18449 -0.639037,0.36894 -0.958533,0.55343 -0.106458,0.0615 -0.203098,0.14511 -0.319517,0.18448 -0.18418,0.0626 -0.384565,0.0635 -0.57151,0.11701 -0.05919,0.0168 -0.100043,0.10859 -0.15977,0.0922 -0.05937,-0.016 -0.03286,-0.1439 -0.09219,-0.1598 -0.05936,-0.016 -0.09843,0.0886 -0.159777,0.0922 -0.315294,0.019 -0.289325,-0.21254 -0.596213,-0.2948 -0.521385,-0.13972 0.304528,0.49766 -0.411744,0.0247 -0.05103,-0.0341 -0.03286,-0.14389 -0.09221,-0.15982 -0.521385,-0.13971 0.304529,0.49766 -0.411752,0.0247 -0.102324,-0.0671 -0.174604,-0.41181 -0.276714,-0.47929 -0.716295,-0.4729 0.10958,0.16446 -0.411744,0.0247 -0.05936,-0.016 -0.0495,-0.11558 -0.09221,-0.15984 -0.135347,-0.13957 -0.301276,-0.24725 -0.436488,-0.38698 -0.04273,-0.0442 -0.04948,-0.11552 -0.09228,-0.15974 -0.135334,-0.13957 -0.308115,-0.24095 -0.436488,-0.387 -0.08113,-0.0924 -0.122947,-0.21304 -0.184462,-0.31951 -0.153718,-0.26629 -0.307452,-0.53253 -0.461187,-0.79879 -0.03076,-0.0532 -0.06155,-0.10648 -0.09225,-0.15968 -0.03075,-0.0534 -0.145468,-0.12908 -0.09221,-0.15984 0.21956,-0.12675 0.48739,-0.13992 0.731266,-0.2092 z"
       id="path10" /><ellipse
       style="fill:#150d0b;fill-opacity:1;stroke:#00131a;stroke-width:0.264583;stroke-linejoin:round;stroke-opacity:0"
       id="path11"
       cx="9.8734884"
       cy="132.13885"
       rx="1.1068324"
       ry="1.0145962"
       transform="rotate(-30)" /><ellipse
       style="fill:#f99e80;fill-opacity:1;stroke:#00131a;stroke-width:0.339511;stroke-linejoin:round;stroke-opacity:0"
       id="path12"
       cx="-45.253052"
       cy="165.36179"
       rx="5.0926566"
       ry="14.259553"
       transform="matrix(0.5583134,-0.82963012,0.74069919,0.67183682,0,0)" /><ellipse
       style="fill:#d5d8d9;fill-opacity:1;stroke:#00131a;stroke-width:0.264583;stroke-linejoin:round;stroke-opacity:0"
       id="path13"
       cx="19.742758"
       cy="152.70747"
       rx="2.2136648"
       ry="14.112112"
       transform="rotate(-30)" /><path
       style="fill:#d6d1d1;fill-opacity:1;stroke:#000000;stroke-width:0.264583px;stroke-linecap:butt;stroke-linejoin:miter;stroke-opacity:1"
       d="m 97.534806,140.14913 c 1.017624,-0.0611 0.554101,0.006 1.395044,-0.16642 0.190404,-0.0389 0.38599,-0.0586 0.571521,-0.1169 1.246409,-0.39237 2.632909,-1.14221 3.699079,-1.70967 0.70566,-0.37566 1.38457,-0.79942 2.07681,-1.19909 0.26631,-0.15376 0.53259,-0.30746 0.79886,-0.46119 0.10664,-0.0614 0.20311,-0.14512 0.31947,-0.18447 0.76259,-0.25797 0.39335,0.079 1.05083,-0.39363 0.35306,-0.25384 0.70559,-0.51153 1.02604,-0.80543 0.72008,-0.6605 -0.0974,-0.15667 0.387,-0.43649 0.0909,-0.0524 0.61636,-0.37041 0.63906,-0.36896 0.34709,0.0224 0.67198,0.18007 1.00793,0.2701 0.16811,0.045 0.34411,0.0667 0.504,0.13508 0.12645,0.054 0.22096,0.16637 0.34427,0.22723 0.36837,0.18221 0.16817,-0.0776 0.34419,0.22726 0.0307,0.0533 0.1086,0.10005 0.0922,0.15984 -0.0161,0.0595 -0.10664,0.0614 -0.15979,0.0922 -0.0532,0.0307 -0.10659,0.0615 -0.15974,0.0923 -0.42601,0.24598 -0.85204,0.49199 -1.27807,0.73795 -0.42602,0.24594 -0.85203,0.4919 -1.27803,0.73789 -0.10658,0.0615 -0.20314,0.14502 -0.31953,0.18448 -0.29966,0.22185 -0.66491,0.0506 -0.98326,0.14166 -0.11829,0.0338 -0.21298,0.12301 -0.31953,0.18448 -0.15975,0.0923 -0.3195,0.18448 -0.47924,0.2767 -0.10655,0.0615 -0.20437,0.14131 -0.31953,0.18448 -0.23734,0.0889 -0.4977,0.11059 -0.73126,0.2092 -0.28331,0.1196 -0.53253,0.30747 -0.79878,0.46121 -0.10667,0.0614 -0.21299,0.12302 -0.31954,0.18449 -0.0533,0.0306 -0.0995,0.0799 -0.15975,0.0923 -0.13473,0.0278 -0.28413,-0.0266 -0.41174,0.0247 -0.28534,0.11466 -0.53252,0.30748 -0.79875,0.46124 -0.42605,0.24592 -0.85206,0.49192 -1.27807,0.73787 -0.10921,0.063 -0.37026,0.24551 -0.47931,0.27672 -0.18694,0.0532 -0.38728,0.0546 -0.57152,0.11691 -0.11638,0.0395 -0.19899,0.1598 -0.3195,0.18448 -0.085,0.0176 -0.16794,-0.0451 -0.25196,-0.0675 -0.13723,0.008 -0.2815,-0.0193 -0.41176,0.0247 -0.174805,0.0592 -0.298586,0.2397 -0.479279,0.2767 -0.783164,0.16026 -1.582218,0.23524 -2.378281,0.30806 -0.282634,0.0258 -0.327055,-0.19809 -0.436441,-0.38708 -0.06145,-0.10649 -0.123012,-0.21297 -0.184481,-0.31951 -0.06147,-0.10655 -0.177112,-0.19677 -0.184487,-0.31953 -0.0038,-0.0614 0.144053,-0.0324 0.159781,-0.0922 0.01586,-0.0595 -0.108562,-0.10004 -0.09219,-0.15977 0.01586,-0.0595 0.106559,-0.0615 0.159758,-0.0923 0.212988,-0.12301 0.42601,-0.24598 0.63901,-0.36896 0.03855,-0.0224 0.471136,-0.27893 0.479277,-0.27669 0.220521,0.0591 -0.01072,0.54402 -0.110342,0.91573 z"
       id="path14" /><path
       style="fill:#d2d3d8;fill-opacity:1;stroke:#000000;stroke-width:0.264583px;stroke-linecap:butt;stroke-linejoin:miter;stroke-opacity:1"
       d="m 104.00099,143.23221 c 0.28062,-0.37494 0.53093,-0.77457 0.84159,-1.12496 0.0819,-0.0917 0.213,-0.12303 0.31956,-0.1845 0.21299,-0.12302 0.42602,-0.24593 0.63904,-0.36895 0.47924,-0.27666 0.95855,-0.5534 1.43784,-0.83011 0.37274,-0.21524 0.74554,-0.43041 1.11826,-0.64563 0.10654,-0.0615 0.21297,-0.12301 0.31952,-0.18449 0.0532,-0.0307 0.0995,-0.08 0.15981,-0.0922 0.13474,-0.0278 0.27952,0.0131 0.41173,-0.0247 0.11831,-0.0338 0.213,-0.12302 0.31955,-0.18449 0.15974,-0.0923 0.31947,-0.18448 0.47927,-0.27672 0.0533,-0.0306 0.0996,-0.0799 0.15977,-0.0922 1.16641,-0.07 -0.27242,0.0782 0.73127,-0.2092 0.13214,-0.0375 0.27703,0.003 0.41174,-0.0247 0.0603,-0.012 0.10657,-0.0615 0.15975,-0.0923 0.10656,-0.0615 0.20129,-0.15064 0.31954,-0.18449 0.23353,-0.26323 0.44656,0.0873 0.66376,0.0428 0.12034,-0.025 0.199,-0.1598 0.31948,-0.18447 0.3252,-0.0665 0.19882,0.0982 0.34427,0.22727 0.10276,0.0914 0.24141,0.13594 0.34421,0.2273 0.0462,0.0405 0.0616,0.10656 0.0923,0.15975 0.0616,0.10652 0.12301,0.21296 0.18448,0.3195 0.12303,0.21301 0.24599,0.42606 0.36896,0.63905 0.0307,0.0533 0.0615,0.10651 0.0922,0.15975 0.0306,0.0533 0.12588,0.10854 0.0922,0.15983 -0.0674,0.10296 -0.21297,0.12301 -0.31952,0.18448 -0.15978,0.0922 -0.31954,0.18449 -0.47926,0.2767 -0.47931,0.27672 -0.95856,0.55343 -1.43782,0.83012 -0.6923,0.39972 -1.3846,0.79938 -2.07687,1.19909 -0.26627,0.15376 -0.53252,0.30747 -0.79876,0.46114 -0.15976,0.0923 -0.30196,0.22595 -0.47928,0.27675 -0.73045,0.20897 -0.0955,-0.15946 -0.91574,-0.11036 -0.12271,0.007 -0.19676,0.1771 -0.31956,0.18449 -0.0613,0.004 -0.034,-0.1795 -0.0922,-0.15982 -0.29129,0.0986 -0.5325,0.30748 -0.79879,0.46117 -0.1065,0.0616 -0.19902,0.15982 -0.31953,0.18448 -0.0851,0.0176 -0.1652,-0.0727 -0.25199,-0.0676 -0.12272,0.007 -0.19684,0.17703 -0.31954,0.18449 -0.0868,0.005 -0.16519,-0.0727 -0.25197,-0.0675 -0.0614,0.004 -0.0984,0.0886 -0.15976,0.0922 -0.0868,0.005 -0.16806,-0.045 -0.25198,-0.0675 -0.084,-0.0225 -0.16521,-0.0728 -0.252,-0.0676 -0.0613,0.004 -0.10653,0.0616 -0.15976,0.0923 -0.26626,0.15375 -0.53253,0.30745 -0.79878,0.46117 -0.19501,0.11261 -0.33261,0.27471 -0.57153,0.11691 -0.009,-0.007 -0.27623,-0.46846 -0.27672,-0.47933 -0.005,-0.0868 0.01,-0.18693 0.0675,-0.25197 0.0819,-0.0917 0.23396,-0.096 0.31951,-0.18448 0.23062,-0.23766 0.40959,-0.52047 0.61433,-0.78068 z"
       id="path15" /><path
       style="fill:#cfd3d7;fill-opacity:1;stroke:#000000;stroke-width:0.264583px;stroke-linecap:butt;stroke-linejoin:miter;stroke-opacity:1"
       d="m 106.99539,147.68063 c 0.88067,-0.67849 1.95603,-1.04432 2.8756,-1.66025 0.46268,-0.30985 0.89055,-0.66891 1.34562,-0.98985 0.1945,-0.13711 0.43092,-0.24881 0.63904,-0.36894 0.37274,-0.21522 0.7455,-0.43043 1.11829,-0.64568 0.26618,-0.15373 0.53249,-0.30746 0.79876,-0.46115 0.0533,-0.0306 0.0996,-0.0799 0.15973,-0.0923 0.13476,-0.0278 0.27901,-0.0603 0.41181,-0.0247 0.0595,0.0158 0.0324,0.14404 0.0922,0.15974 0.11884,0.0318 0.2007,-0.21633 0.31951,-0.18448 0.0595,0.0161 0.0324,0.14408 0.0922,0.15982 0.13276,0.0356 0.27897,-0.0602 0.41174,-0.0247 0.28954,0.0776 0.32301,0.18996 0.43641,0.38706 0.24597,0.42604 0.49192,0.85207 0.73788,1.27802 0.0616,0.10652 0.23897,0.20933 0.1845,0.31957 -0.0817,0.16539 -0.31951,0.18448 -0.47928,0.27673 -0.21298,0.12301 -0.42601,0.24592 -0.63903,0.3689 -0.21297,0.12301 -0.45425,0.20661 -0.63902,0.36895 -0.0657,0.057 -0.0196,0.17943 -0.0675,0.25201 -0.034,0.0511 -0.10654,0.0615 -0.15976,0.0922 -0.0534,0.0308 -0.10655,0.0615 -0.1598,0.0922 -0.15975,0.0923 -0.31951,0.18448 -0.47927,0.27668 -0.42603,0.246 -0.85201,0.49196 -1.27803,0.73793 -0.0898,0.0517 -0.71462,0.43706 -0.79878,0.46117 -0.13237,0.0375 -0.27957,-0.0131 -0.41179,0.0247 -0.11824,0.0338 -0.213,0.12302 -0.31952,0.18449 -0.15977,0.0922 -0.3195,0.18447 -0.47929,0.27667 -0.0533,0.0307 -0.10064,0.0753 -0.15974,0.0923 -0.18698,0.0532 -0.37906,0.0892 -0.57152,0.1169 -0.13613,0.0196 -0.27955,-0.0131 -0.41175,0.0247 -0.11828,0.0338 -0.21301,0.12302 -0.31949,0.18447 -0.1598,0.0923 -0.30194,0.22594 -0.47931,0.27672 -0.0838,0.0234 -0.16838,-0.0914 -0.25198,-0.0676 -0.23653,0.0675 -0.42606,0.24594 -0.63901,0.36894 -0.0533,0.0307 -0.0984,0.0886 -0.15978,0.0922 -0.0868,0.005 -0.16524,-0.0727 -0.25199,-0.0675 -0.0613,0.004 -0.0984,0.0886 -0.15975,0.0923 -0.0869,0.005 -0.1869,-0.01 -0.25197,-0.0675 -0.0545,-0.0488 -0.38597,-0.66849 -0.46116,-0.79879 -0.0615,-0.10656 -0.12302,-0.21299 -0.18447,-0.31949 -0.0307,-0.0532 -0.10861,-0.10007 -0.0923,-0.15977 0.0159,-0.0593 0.12584,-0.041 0.15976,-0.0922 0.0478,-0.0725 0.045,-0.16805 0.0675,-0.25196 0.15157,-0.22946 0.30302,-0.45899 0.45455,-0.68846 z"
       id="path16" /><path
       style="fill:#ddd0c8;fill-opacity:1;stroke:#000000;stroke-width:0.264583px;stroke-linecap:butt;stroke-linejoin:miter;stroke-opacity:1"
       d="m 97.373756,155.36579 c -0.08178,0.47325 -0.163545,0.94651 -0.245368,1.41973 -0.05322,0.0307 -0.132424,0.0376 -0.159745,0.0923 -0.07705,0.15592 -0.05797,0.34806 -0.135059,0.50398 -0.02722,0.0552 -0.144057,0.0324 -0.159784,0.0922 -0.01596,0.0595 0.108187,0.10042 0.09224,0.15979 -0.01597,0.0595 -0.125944,0.041 -0.159778,0.0922 -0.04771,0.0727 -0.01962,0.17938 -0.06754,0.25197 -0.107114,0.1623 -0.300861,0.26215 -0.387009,0.43647 -0.02726,0.0551 0.10816,0.1004 0.0922,0.15972 -0.01585,0.0595 -0.125954,0.041 -0.159741,0.0923 -0.04784,0.0727 -0.01962,0.17938 -0.06754,0.25197 -0.0674,0.10275 -0.287824,0.0655 -0.319524,0.18449 -0.01596,0.0594 0.108151,0.1004 0.09224,0.15977 -0.01597,0.0595 -0.144038,0.0324 -0.159743,0.0923 -0.01596,0.0595 0.108163,0.10041 0.09224,0.1598 -0.01126,0.0421 -0.590284,0.29518 -0.639032,0.36894 -0.03408,0.0511 0.108133,0.10034 0.09222,0.15971 -0.01599,0.0595 -0.144058,0.0324 -0.159737,0.0923 -0.01586,0.0595 0.126115,0.10844 0.09222,0.15971 -0.0674,0.10275 -0.231057,0.099 -0.319524,0.18449 -0.0987,0.0955 -0.135953,0.24138 -0.227276,0.34421 -0.04054,0.0462 -0.106475,0.0616 -0.159787,0.0922 -0.09831,0.1987 -0.172641,0.41116 -0.294803,0.5962 -0.03411,0.0511 -0.106551,0.0615 -0.159779,0.0922 -0.202154,0.11669 -0.472189,0.33728 -0.731279,0.20919 -0.110229,-0.0545 -0.09245,-0.23788 -0.184466,-0.31949 -0.06507,-0.0577 -0.179424,-0.0196 -0.25199,-0.0675 -0.05137,-0.034 -0.04087,-0.12587 -0.09224,-0.15977 -0.07256,-0.048 -0.18694,-0.01 -0.252003,-0.0675 -0.234576,-0.20808 -0.374505,-0.51268 -0.620941,-0.70655 -0.04827,-0.0382 -0.100048,0.10859 -0.159779,0.0922 -0.02568,-0.007 -0.646231,-0.43653 -0.688461,-0.45455 -0.16801,-0.045 -0.335996,-0.09 -0.503983,-0.13504 -0.03075,-0.0533 -0.04088,-0.12591 -0.09224,-0.15978 -0.07257,-0.0479 -0.16801,-0.0451 -0.251995,-0.0675 -0.168004,-0.0451 -0.33598,-0.09 -0.503978,-0.13501 -0.252013,-0.0676 -0.503997,-0.13506 -0.755983,-0.20257 -0.168005,-0.0451 -0.330437,-0.12387 -0.503987,-0.13505 -0.06137,-0.004 -0.100052,0.10859 -0.159788,0.0922 -0.521376,-0.1397 0.512573,-0.27873 -0.344244,-0.22733 -0.135948,0.008 -0.343333,0.26854 -0.47925,0.27677 -0.173597,0.0104 -0.330433,-0.1239 -0.503979,-0.13504 -0.06138,-0.004 -0.106554,0.0615 -0.159784,0.0922 -0.05322,0.0307 -0.106549,0.0615 -0.159773,0.0922 -0.130328,0.0752 -0.750272,0.40639 -0.798798,0.46116 -0.05776,0.0649 -0.029,0.17407 -0.06753,0.25203 -0.257598,0.52095 -0.244679,0.22093 -0.614307,0.78068 -0.08811,0.13263 -0.120756,0.59057 -0.202568,0.75596 -0.01802,0.0373 -0.450253,0.67231 -0.454512,0.68853 -0.139715,0.52136 0.497674,-0.30455 0.0247,0.4117 -0.03409,0.0512 -0.118929,0.0463 -0.159775,0.0922 -0.444708,0.50159 -0.02614,0.22807 -0.387015,0.43651 -0.251446,0.14523 -0.169778,0.1613 -0.503989,-0.13506 -0.046,-0.0409 -0.06152,-0.10651 -0.09221,-0.1597 -0.06153,-0.10653 -0.123007,-0.21306 -0.184497,-0.31956 -0.09223,-0.15972 -0.154895,-0.34069 -0.276696,-0.47924 -0.138065,-0.15714 -0.48027,-0.22355 -0.436485,-0.38707 0.01597,-0.0595 0.106552,-0.0615 0.159785,-0.0922 0.374657,-0.2163 -0.09709,0.006 0.411748,-0.0247 0.06137,-0.004 0.106549,-0.0615 0.159778,-0.0922 0.42602,-0.24596 0.852043,-0.49192 1.278064,-0.73789 0.07196,-0.0415 0.4447,-0.22431 0.479276,-0.27672 0.09582,-0.14515 0.05796,-0.34807 0.135031,-0.504 0.06082,-0.12333 0.166373,-0.22093 0.227278,-0.34422 0.03814,-0.0781 0.01963,-0.17937 0.06753,-0.25198 0.0341,-0.0514 0.125787,-0.041 0.159786,-0.0922 0.140435,-0.21266 0.07122,-0.24631 -0.02472,-0.41173 -0.112593,-0.19503 -0.15069,-0.40421 -0.43647,-0.38706 -0.06137,0.004 -0.100048,0.1086 -0.159749,0.0923 -0.05938,-0.016 -0.03286,-0.14388 -0.09223,-0.15975 -0.05936,-0.016 -0.09843,0.0886 -0.159775,0.0922 -0.173596,0.0104 -0.330365,-0.14546 -0.50399,-0.13506 -0.06137,0.004 -0.10005,0.10859 -0.159745,0.0923 -0.0594,-0.0161 -0.03716,-0.1325 -0.09225,-0.15981 -0.155909,-0.0771 -0.344022,-0.0667 -0.503984,-0.13503 -0.126447,-0.054 -0.241388,-0.13601 -0.344216,-0.22726 -0.04599,-0.0408 -0.03286,-0.14387 -0.09224,-0.15978 -0.132826,-0.0355 -0.278964,0.0602 -0.411749,0.0247 -0.05936,-0.016 -0.04087,-0.12589 -0.09223,-0.15973 -0.07256,-0.0479 -0.172045,-0.0334 -0.252003,-0.0675 -0.473263,-0.20215 -0.869492,-0.43876 -1.284698,-0.74936 -0.188441,-0.14099 -0.388662,-0.47256 -0.688472,-0.45459 -0.06137,0.004 -0.106477,0.0616 -0.159781,0.0922 -0.05322,0.0307 -0.106551,0.0615 -0.15974,0.0923 -0.585768,0.3382 -1.171557,0.67639 -1.757336,1.01459 -0.05322,0.0307 -0.106476,0.0616 -0.159742,0.0923 -0.05322,0.0307 -0.100048,0.10859 -0.159781,0.0922 -0.05937,-0.016 -0.108147,-0.10035 -0.09224,-0.15974 0.01597,-0.0595 0.144049,-0.0324 0.15974,-0.0923 0.01599,-0.0595 -0.08858,-0.0983 -0.09224,-0.15974 -0.0052,-0.0868 0.04492,-0.16805 0.06754,-0.25196 0.02251,-0.084 0.0098,-0.18695 0.06754,-0.25199 0.08187,-0.0917 0.212982,-0.12302 0.31952,-0.18448 0.05322,-0.0307 0.144051,-0.0324 0.159781,-0.0922 0.01597,-0.0595 -0.12612,-0.10846 -0.09224,-0.15979 0.06739,-0.10274 0.237901,-0.0924 0.319525,-0.18449 0.05777,-0.0649 0.01963,-0.17941 0.06754,-0.25197 0.02965,-0.0454 0.555507,-0.32072 0.639033,-0.36896 0.212984,-0.12301 0.426034,-0.24592 0.639034,-0.36893 0.05322,-0.0307 0.106531,-0.0615 0.159781,-0.0922 0.05322,-0.0307 0.09847,-0.0885 0.159741,-0.0923 0.08688,-0.005 0.165196,0.0728 0.251989,0.0675 0.06136,-0.004 0.10656,-0.0615 0.159781,-0.0922 0.08399,0.0225 0.165207,0.0727 0.251999,0.0675 0.06136,-0.004 0.100068,-0.10849 0.159742,-0.0923 0.05938,0.016 0.04088,0.12589 0.09224,0.15977 0.145146,0.0958 0.358854,0.0392 0.503979,0.13504 0.0513,0.0339 0.04087,0.12589 0.09223,0.15974 0.145163,0.0958 0.358863,0.0392 0.503982,0.13501 0.0513,0.0339 0.04089,0.12595 0.09226,0.15982 0.07256,0.048 0.179413,0.0196 0.251988,0.0675 0.0513,0.0339 0.06154,0.10652 0.09222,0.15972 0.09224,0.15978 0.148516,0.34664 0.276719,0.47931 0.120892,0.125 0.358846,0.0392 0.503979,0.13504 0.07658,0.0506 0.302401,0.57997 0.368933,0.63899 0.06507,0.0577 0.179438,0.0196 0.251991,0.0675 0.102593,0.0678 0.08184,0.25179 0.184477,0.31954 0.07257,0.048 0.179439,0.0196 0.252004,0.0675 0.05137,0.034 0.04086,0.12586 0.09222,0.15974 0.145164,0.0958 0.348089,0.058 0.503984,0.13507 0.123263,0.061 0.220976,0.16634 0.344236,0.22729 0.07788,0.0387 0.167999,0.0451 0.251995,0.0675 0.114755,0.0757 0.220973,0.16632 0.344247,0.22729 0.07788,0.0387 0.168,0.0451 0.251989,0.0675 0.08399,0.0225 0.165173,0.0727 0.251983,0.0675 0.06137,-0.004 0.09843,-0.0886 0.15978,-0.0922 0.08688,-0.005 0.165191,0.0728 0.251994,0.0675 0.06137,-0.004 0.09843,-0.0886 0.159746,-0.0923 0.972191,-0.0583 -1.023604,0.47898 0.823516,-0.0494 0.05918,-0.0169 0.106476,-0.0616 0.15978,-0.0922 0.159778,-0.0922 0.3003,-0.23191 0.479274,-0.2767 0.405274,-0.56113 0.717588,0.0396 1.075503,0.0181 0.122694,-0.007 0.2007,-0.21633 0.319521,-0.18448 0.335985,0.09 -0.250395,0.34898 0.34423,0.22728 0.120328,-0.025 0.212986,-0.12302 0.319514,-0.18448 0.05322,-0.0307 0.09843,-0.0886 0.159787,-0.0922 0.856806,-0.0514 -0.177171,0.0876 0.344236,0.22728 0.05938,0.016 0.106472,-0.0616 0.159774,-0.0922 0.15974,-0.0923 0.319526,-0.18449 0.479251,-0.27676 0.372784,-0.21518 0.745547,-0.43042 1.118327,-0.64561 0.05322,-0.0307 0.106477,-0.0615 0.159739,-0.0923 0.05322,-0.0307 0.118973,-0.0462 0.159789,-0.0922 0.409308,-0.46163 0.148515,-0.27323 0.110345,-0.91572 -0.0052,-0.0868 0.07271,-0.16521 0.06753,-0.25199 -0.0038,-0.0613 -0.0886,-0.0984 -0.09224,-0.15978 -0.01037,-0.1736 0.123899,-0.3304 0.13505,-0.50395 0.0088,-0.13729 0.0028,-0.27708 -0.02472,-0.41178 -0.01232,-0.0603 -0.126097,-0.10842 -0.09222,-0.15973 0.0674,-0.10274 0.237907,-0.0924 0.319521,-0.18449 0.249961,-0.28187 -0.12856,-0.39166 -0.116932,-0.57146 0.01118,-0.17362 0.123803,-0.33049 0.135037,-0.504 0.004,-0.0614 -0.06152,-0.10648 -0.09225,-0.15979 -0.03899,-0.19049 -0.129473,-0.37746 -0.116926,-0.57145 0.0224,-0.34717 0.180024,-0.67204 0.270051,-1.00804"
       id="path17" /><ellipse
       style="fill:#343434;fill-opacity:1;stroke:#00131a;stroke-width:0.264583;stroke-linejoin:round;stroke-opacity:0"
       id="path18"
       cx="-45.911781"
       cy="169.51898"
       rx="1.5652972"
       ry="0.4728502"
       transform="rotate(-41.44931)" /><ellipse
       style="fill:#343434;fill-opacity:1;stroke:#00131a;stroke-width:0.279892;stroke-linejoin:round;stroke-opacity:0"
       id="path19"
       cx="-69.520782"
       cy="170.91902"
       rx="2.3865378"
       ry="1.0342102"
       transform="matrix(0.67053738,-0.74187575,0.75918239,0.65087795,0,0)" /><path
       style="fill:#ddd0c8;fill-opacity:1;stroke:#000000;stroke-width:0.264583px;stroke-linecap:butt;stroke-linejoin:miter;stroke-opacity:1"
       d="m 85.930253,159.85802 c 0.04886,0.0847 0.09782,0.16942 0.146745,0.25417 0.03258,0.0565 0.07057,0.11023 0.09783,0.16943 0.04654,0.10063 0.06207,0.21351 0.106592,0.31505 0.01731,0.0399 0.04356,0.0753 0.06519,0.11296 0.03805,0.0659 0.07608,0.13174 0.114119,0.19766 0.02177,0.0377 0.04792,0.073 0.0652,0.11296 0.02227,0.0507 0.04055,0.10362 0.05335,0.15752 0.05246,0.22207 -0.01221,0.12466 0.07836,0.33133 0.01731,0.0399 0.04356,0.0753 0.06519,0.11296 0.01627,0.0283 0.04104,0.0531 0.04886,0.0847 0.01176,0.0473 -0.0046,0.0989 0.0088,0.14557 0.01192,0.0418 0.04891,0.0727 0.06518,0.11293 0.01281,0.032 0.01392,0.0674 0.02065,0.10101 0.01382,0.0674 0.02082,0.13653 0.0413,0.20203 0.0099,0.031 0.03709,0.0542 0.04892,0.0848 0.017,0.0414 0.0203,0.0877 0.03701,0.12925 0.01179,0.0305 0.03258,0.0565 0.04887,0.0847 0.01627,0.0283 0.03258,0.0565 0.04893,0.0845 0.02176,0.0376 0.04797,0.0731 0.06518,0.11294 0.01702,0.0415 0.02348,0.0866 0.03702,0.12929 0.01663,0.0528 0.03786,0.10419 0.05335,0.15753 0.0096,0.0328 0.0086,0.0688 0.02065,0.10101 0.01177,0.0304 0.04104,0.0531 0.04886,0.0847 0.01171,0.0472 -0.0068,0.0996 0.0088,0.14557 0.02091,0.0618 0.07058,0.11024 0.09782,0.16946 0.0476,0.0684 0.02688,0.15735 0.05767,0.23031 0.0209,0.0502 0.06062,0.091 0.08152,0.1412 0.100197,0.0468 -0.0046,0.0989 0.0088,0.14555 0.0089,0.0314 0.03719,0.0544 0.04887,0.0847 0.01178,0.0324 0.0086,0.0688 0.02065,0.10101 0.01177,0.0304 0.03814,0.0541 0.04885,0.0847 0.0075,0.0231 -0.0023,0.0495 0.0044,0.0727 0.0062,0.0208 0.02177,0.0376 0.03258,0.0565 0.02176,0.0377 0.04356,0.0753 0.06518,0.11294 0.08262,0.14311 -0.01073,-0.0388 0.03702,0.12927 0.0062,0.0208 0.02176,0.0377 0.03258,0.0565 0.02719,0.0469 0.05439,0.0942 0.08154,0.14123 0.01082,0.0187 0.02177,0.0376 0.03258,0.0565 0.01082,0.0187 0.02543,0.036 0.03259,0.0565 0.01071,0.0326 0.0098,0.0685 0.02065,0.10101 0.01123,0.0334 0.07516,0.11019 0.08151,0.14119 0.0031,0.0152 -0.01606,0.0302 -0.01184,0.0445 0.0089,0.0315 0.03258,0.0565 0.04886,0.0847 0.03258,0.0565 0.06519,0.11294 0.09784,0.16944 0.07064,0.12239 0.14133,0.24478 0.211955,0.36712 0.03258,0.0565 0.06528,0.11299 0.09786,0.16948 0.0051,0.009 0.0055,0.0256 0.01627,0.0283 0.01025,0.003 0.01855,-0.0112 0.0284,-0.0159 0.0096,-0.006 0.01855,-0.0112 0.02845,-0.0159 0.01855,-0.0112 0.03765,-0.0218 0.05647,-0.0326 0.0096,-0.006 0.02219,-0.007 0.02842,-0.0159 0.145975,-0.22107 -0.02058,0.001 0.076,-0.19451 0.0041,-0.0104 0.02967,-0.006 0.02841,-0.0159 -0.0013,-0.0219 -0.0317,-0.0348 -0.03258,-0.0565 0.02889,-0.0171 0.04314,-0.0157 0.03981,-0.0611 -9.73e-4,-0.0117 -0.01473,-0.0175 -0.01627,-0.0283 -0.03331,-0.23174 0.01695,-0.0613 -0.02937,-0.24654 -0.01094,-0.0436 -0.02264,-0.0868 -0.03702,-0.12928 -0.0037,-0.0105 -0.01578,-0.0173 -0.01627,-0.0282 -3.79e-4,-0.0153 0.01232,-0.0294 0.01185,-0.0445 -6.25e-4,-0.0112 -0.01082,-0.0187 -0.01627,-0.0283 -0.0051,-0.009 -0.01082,-0.0187 -0.01627,-0.0282 -0.02183,-0.0377 -0.04356,-0.0753 -0.06519,-0.11294 -0.02177,-0.0377 -0.04706,-0.0735 -0.06527,-0.11298 -0.117888,-0.26119 -0.04061,-0.11188 -0.0827,-0.40415 -0.0064,-0.0444 -0.02609,-0.0858 -0.03701,-0.12925 -0.0088,-0.0333 -0.01578,-0.067 -0.02065,-0.10101 -0.0038,-0.0241 0.0023,-0.0494 -0.0043,-0.0727 -0.01192,-0.0418 -0.05334,-0.071 -0.0652,-0.11296 -0.0067,-0.0237 4.76e-4,-0.049 -0.0045,-0.0728 -0.0465,-0.16232 -0.02805,-0.0854 -0.05767,-0.2303 -0.0068,-0.0337 -0.0186,-0.0668 -0.02065,-0.10101 -3.8e-4,-0.0153 0.01474,-0.0296 0.01186,-0.0446 -0.0046,-0.0213 -0.03038,-0.0346 -0.03259,-0.0565 -0.0075,-0.063 0.0099,-0.1271 0.0032,-0.19012 -0.01595,-0.15058 -0.05013,-0.29867 -0.07076,-0.44866 -0.02862,-0.20843 -0.07755,-0.69181 -0.113285,-0.91364 -0.01642,-0.10183 -0.04595,-0.20124 -0.06205,-0.30308 -0.0075,-0.0481 -0.0018,-0.0974 -0.0088,-0.14558 -0.0018,-0.0109 -0.0109,-0.019 -0.01627,-0.0282 -0.0051,-0.009 -0.01082,-0.0187 -0.01627,-0.0283 -0.01094,-0.0188 -0.02176,-0.0376 -0.03258,-0.0565 -0.01627,-0.0283 -0.04003,-0.0534 -0.04886,-0.0848 -0.01611,-0.0562 -0.01084,-0.11697 -0.02506,-0.17379 -0.0052,-0.0211 -0.02176,-0.0377 -0.03258,-0.0565 -0.01627,-0.0282 -0.03258,-0.0565 -0.04886,-0.0847 -0.04355,-0.0753 -0.08695,-0.15062 -0.130444,-0.22595 -0.250006,-0.43304 -0.5,-0.86604 -0.750053,-1.29911 -0.01532,-0.0267 -0.03808,-0.056 -0.04888,-0.0846 -0.01962,-0.052 -0.03663,-0.10465 -0.05325,-0.15749 -0.01326,-0.0429 -0.0203,-0.0877 -0.03702,-0.12929 -0.01179,-0.0305 -0.03258,-0.0565 -0.04886,-0.0847 -0.0051,-0.009 -0.0068,-0.0337 -0.01627,-0.0283 -0.0096,0.006 0.01082,0.0187 0.01627,0.0283 0.01082,0.0187 0.02638,0.0357 0.03258,0.0565 0.02521,0.0883 -0.01318,0.0685 -0.01946,0.16189 -7.41e-4,0.0108 0.01084,0.0188 0.01627,0.0283"
       id="path20" /><ellipse
       style="fill:#343434;fill-opacity:1;stroke:#00131a;stroke-width:0.264583;stroke-linejoin:round;stroke-opacity:0"
       id="path21"
       cx="26.768353"
       cy="185.4301"
       rx="0.7011227"
       ry="2.1359785"
       transform="rotate(-19.985215)" /></g></svg>
