<?xml version="1.0" encoding="UTF-8" standalone="no"?>
<!-- Created with Inkscape (http://www.inkscape.org/) -->

<svg
   width="210mm"
   height="297mm"
   viewBox="0 0 210 297"
   version="1.1"
   id="svg1"
   xml:space="preserve"
   inkscape:export-filename="woodpicker3.png"
   inkscape:export-xdpi="96"
   inkscape:export-ydpi="96"
   inkscape:version="1.3.2 (091e20e, 2023-11-25, custom)"
   sodipodi:docname="woodpicker5.svg"
   xmlns:inkscape="http://www.inkscape.org/namespaces/inkscape"
   xmlns:sodipodi="http://sodipodi.sourceforge.net/DTD/sodipodi-0.dtd"
   xmlns="http://www.w3.org/2000/svg"
   xmlns:svg="http://www.w3.org/2000/svg"><sodipodi:namedview
     id="namedview1"
     pagecolor="#ffffff"
     bordercolor="#cccccc"
     borderopacity="1"
     inkscape:showpageshadow="0"
     inkscape:pageopacity="1"
     inkscape:pagecheckerboard="0"
     inkscape:deskcolor="#d1d1d1"
     inkscape:document-units="mm"
     showguides="false"
     inkscape:zoom="1.0141844"
     inkscape:cx="391.44755"
     inkscape:cy="424.47902"
     inkscape:window-width="1920"
     inkscape:window-height="1001"
     inkscape:window-x="-9"
     inkscape:window-y="-9"
     inkscape:window-maximized="1"
     inkscape:current-layer="layer1" /><defs
     id="defs1"><pattern
       id="EMFhbasepattern"
       patternUnits="userSpaceOnUse"
       width="6"
       height="6"
       x="0"
       y="0" /></defs><g
     inkscape:label="Слой 1"
     inkscape:groupmode="layer"
     id="layer1"><ellipse
       style="fill:#f2e0d2;fill-opacity:1;stroke:#00131a;stroke-width:0.264583;stroke-linejoin:round;stroke-opacity:0"
       id="path1"
       cx="-70.319389"
       cy="147.04279"
       rx="14.204348"
       ry="29.699999"
       transform="rotate(-60)" /><ellipse
       style="fill:#343434;fill-opacity:1;stroke:#00131a;stroke-width:0.264583;stroke-linejoin:round;stroke-opacity:0"
       id="path2"
       cx="-64.785248"
       cy="148.70305"
       rx="10.514906"
       ry="27.301865"
       transform="rotate(-60)" /><path
       style="fill:none;stroke:#000000;stroke-width:0.264583px;stroke-linecap:butt;stroke-linejoin:miter;stroke-opacity:1"
       d="m 120.15084,137.99938 c 0.25161,0.93896 0.48894,2.35177 1.12974,3.20839 0.30382,0.40602 0.75719,0.67801 1.09361,1.05742 1.33596,1.50671 -0.85337,-0.23072 1.54811,1.74589 0.26916,0.22149 1.27913,0.73846 1.5976,0.92236 1.49103,0.86085 2.98211,1.72178 4.47322,2.5826 0.53248,0.30747 1.06503,0.61494 1.59754,0.92235 0.31956,0.1845 0.67375,0.3189 0.95857,0.55343 0.60052,0.49433 0.92797,1.27647 1.54812,1.7459 0.49021,0.37113 1.06507,0.61486 1.5976,0.92232 0.63902,0.36896 1.27805,0.73787 1.91708,1.1068 0.74554,0.43052 1.49106,0.86089 2.23662,1.29135 0.31949,0.18442 0.63902,0.36893 0.9585,0.55342 0.10662,0.0614 0.25176,0.0818 0.31955,0.18449 0.0958,0.14509 0.0275,0.3673 0.13503,0.50402 0.31355,0.3985 0.75715,0.67797 1.0936,1.0574 0.18242,0.20577 0.24798,0.50692 0.45452,0.68847 0.27708,0.24356 0.63901,0.36893 0.95851,0.55345 0.74555,0.43043 1.49105,0.86086 2.23662,1.29126 0.42598,0.24598 0.85203,0.49197 1.27808,0.73787 0.10652,0.0614 0.28767,0.0656 0.3195,0.18445 0.0319,0.11882 -0.0657,0.28777 -0.18448,0.31953 -0.26564,0.0712 -0.54905,-0.0671 -0.82352,-0.0494 -0.34711,0.0224 -0.66074,0.29096 -1.00793,0.27007 -0.24559,-0.0147 -0.39351,-0.35421 -0.63908,-0.36894 -0.17361,-0.0104 -0.33036,0.14546 -0.50397,0.13503 -0.12271,-0.007 -0.21303,-0.12295 -0.31951,-0.18446 -0.53255,-0.30745 -1.06508,-0.61492 -1.59759,-0.92239 -1.70408,-0.98384 -3.40817,-1.96765 -5.11221,-2.95152 -0.85206,-0.49192 -1.70411,-0.98385 -2.55614,-1.47575 -0.85206,-0.49195 -1.74134,-0.92443 -2.5561,-1.47584 -0.61956,-0.41923 -1.13616,-0.97482 -1.73265,-1.42633 -0.19609,-0.14843 -0.426,-0.24595 -0.63902,-0.36896 -0.85205,-0.49189 -1.70409,-0.98384 -2.55611,-1.47576 -0.63902,-0.3689 -1.22239,-0.85814 -1.9171,-1.10685 -0.62353,-0.22312 -1.33919,-0.0711 -1.96653,-0.28331 -0.58245,-0.19706 -1.06503,-0.61491 -1.59756,-0.92238 -1.17157,-0.67638 -2.34311,-1.35276 -3.51466,-2.02918 -0.63907,-0.36895 -1.27808,-0.73789 -1.91711,-1.10683 -0.10646,-0.0615 -0.21302,-0.12295 -0.31951,-0.18445 -0.10665,-0.0615 -0.19681,-0.17711 -0.31953,-0.18447 -1.01763,-0.0611 -0.0742,0.38319 -0.82355,-0.0494"
       id="path3" /><path
       style="fill:#343434;fill-opacity:1;stroke:#00131a;stroke-width:1.39443;stroke-linejoin:round;stroke-opacity:0"
       d=""
       id="path4"
       transform="scale(0.26458333)" /><path
       style="fill:#343434;fill-opacity:1;stroke:#00131a;stroke-width:0.0922361;stroke-linejoin:round;stroke-opacity:0"
       d="m 146.94042,159.92414 c -0.25687,-0.0233 -0.64579,0.0278 -0.86424,0.11342 -0.35286,0.13834 -0.43827,0.13213 -0.76429,-0.0561 -0.26558,-0.1533 -0.4325,-0.19082 -0.60384,-0.13563 -0.23289,0.075 -0.33826,0.0178 -6.37227,-3.46599 -5.77462,-3.33401 -6.17782,-3.57912 -6.8558,-4.16785 -0.62073,-0.53899 -1.08799,-0.83948 -3.37896,-2.17308 l -2.65865,-1.54756 -0.93848,-0.0862 -0.93853,-0.0863 -2.30145,-1.35692 c -1.26579,-0.74629 -2.31834,-1.38838 -2.33905,-1.42678 -0.021,-0.0384 0.10503,-0.18989 0.27904,-0.33688 0.17418,-0.14689 0.49192,-0.5253 0.7061,-0.84103 0.64621,-0.95266 0.87178,-2.09635 0.68351,-3.46619 -0.0503,-0.36582 -0.0747,-0.65547 -0.0542,-0.64368 0.0204,0.0119 0.15115,0.25385 0.28988,0.53809 0.13897,0.28411 0.3814,0.64041 0.53882,0.79167 0.95371,0.91695 1.15448,1.14176 1.20214,1.35014 0.11697,0.50764 0.94477,1.0613 5.63792,3.77108 l 4.37784,2.5277 0.52145,0.70046 0.52147,0.70048 3.65926,2.14337 c 3.45711,2.02508 3.6634,2.15688 3.73394,2.38731 0.0411,0.13409 0.33566,0.49741 0.65469,0.80732 0.31868,0.31021 0.63495,0.67569 0.70219,0.81293 0.1057,0.21595 0.45253,0.44688 2.57538,1.71912 l 2.4532,1.46959 z"
       id="path5" /><ellipse
       style="fill:#162531;fill-opacity:1;stroke:#00131a;stroke-width:0.264583;stroke-linejoin:round;stroke-opacity:0"
       id="path6"
       cx="-71.675774"
       cy="116.67348"
       rx="10.043991"
       ry="7.3047204"
       transform="rotate(-60)" /><path
       style="fill:#d0c8c5;fill-opacity:1;stroke:#000000;stroke-width:0.264583px;stroke-linecap:butt;stroke-linejoin:miter;stroke-opacity:1"
       d="m 60.599288,129.95133 c -0.18554,0.49536 -0.411267,0.97744 -0.55677,1.48598 -0.05325,0.18702 -0.007,0.38987 -0.035,0.5823 -0.03914,0.27224 -0.08969,0.54389 -0.165332,0.80826 -0.121471,0.42646 -0.293111,0.83717 -0.426197,1.26013 -0.107634,0.34203 -0.180975,0.6945 -0.295855,1.03418 -0.16947,0.50108 -0.411232,0.97745 -0.556714,1.48602 -0.05324,0.18702 0.004,0.39176 -0.03491,0.58229 -0.03486,0.17034 -0.199864,0.28895 -0.260921,0.45183 -0.155558,0.41524 -0.318526,0.82999 -0.426223,1.26013 -0.04745,0.18859 0.0184,0.39536 -0.03488,0.58233 -0.04788,0.16711 -0.173952,0.30124 -0.260907,0.45184 -0.08697,0.15056 -0.173962,0.30124 -0.260871,0.45186 -0.04347,0.0754 -0.125102,0.1392 -0.130443,0.22591 -0.007,0.12268 -0.011,0.2949 0.09546,0.35634 0.07544,0.0436 0.08696,-0.15056 0.130436,-0.2259 0.08698,-0.15056 0.173926,-0.30121 0.260878,-0.45187 0.434788,-0.7531 0.869588,-1.50622 1.304375,-2.25933 0.434845,-0.75309 0.869644,-1.50619 1.304454,-2.25928 0.08699,-0.15057 0.173969,-0.30125 0.260848,-0.4519 0.04349,-0.0754 0.06536,-0.16817 0.130453,-0.2259 0.145457,-0.12894 0.358457,-0.17535 0.48683,-0.32137 0.172201,-0.19607 0.2609,-0.45186 0.391328,-0.67782 0.26083,-0.45188 0.521765,-0.9037 0.782639,-1.35557 0.04347,-0.0753 0.08699,-0.15068 0.130446,-0.2259 0.04347,-0.0753 0.136147,-0.13898 0.13044,-0.22591 -0.03576,-0.55565 -0.21564,-1.09576 -0.251526,-1.65142 -0.006,-0.0867 0.153067,-0.14185 0.130444,-0.22591 -0.02252,-0.084 -0.23115,-0.0436 -0.225941,-0.13043 0.01039,-0.17361 0.226006,-0.28145 0.26088,-0.45185 0.07799,-0.38099 -0.008,-0.7836 0.06993,-1.16461 0.02949,-0.1449 0.411291,-0.71245 0.521749,-0.90373"
       id="path7" /><path
       style="fill:#d0c8c5;fill-opacity:1;stroke:#00131a;stroke-width:0.0652208;stroke-linejoin:round;stroke-opacity:0"
       d="m 60.755711,134.82386 c -0.194295,0.10051 -0.280909,0.2355 -1.480722,2.30812 -1.176364,2.03153 -1.273968,2.18478 -1.26851,1.98675 0.008,-0.2813 0.343437,-1.28937 0.549519,-1.64877 0.104596,-0.1828 0.159937,-0.3724 0.156061,-0.5356 -0.004,-0.1449 0.092,-0.50723 0.223554,-0.84983 0.211258,-0.54808 0.627654,-1.82062 1.040417,-3.17927 0.09096,-0.29955 0.178201,-0.74059 0.193817,-0.9801 0.01882,-0.28985 0.119756,-0.68493 0.301744,-1.18135 0.150364,-0.41024 0.264209,-0.76812 0.252954,-0.79533 -0.01142,-0.0272 0.40083,-0.41625 0.915568,-0.86465 0.688599,-0.59978 0.907063,-0.76222 0.826658,-0.61472 -0.0646,0.11784 -0.114625,0.42382 -0.122626,0.74347 -0.01059,0.42922 -0.04766,0.60258 -0.177397,0.82722 -0.136686,0.23667 -0.147949,0.30004 -0.06823,0.3789 0.05272,0.0521 0.07831,0.12523 0.05689,0.16246 -0.0216,0.0371 0.02534,0.42467 0.10404,0.86088 l 0.143209,0.79322 -0.720888,1.24062 c -0.652779,1.12465 -0.739837,1.25084 -0.926928,1.3476 z"
       id="path8" /><path
       style="fill:#eee1d6;fill-opacity:1;stroke:#000000;stroke-width:0.264583px;stroke-linecap:butt;stroke-linejoin:miter;stroke-opacity:1"
       d="m 60.142488,125.71959 c 0.207001,-0.23558 0.431676,-0.45658 0.620964,-0.70653 0.111345,-0.14696 0.184467,-0.31954 0.276711,-0.47924 0.18447,-0.31954 0.368945,-0.63905 0.553432,-0.95854 0.175705,-0.30441 0.259971,-0.5281 0.620947,-0.70652 0.05516,-0.0272 0.100405,0.1082 0.159754,0.0923 0.132772,-0.0357 0.211406,-0.19169 0.344246,-0.22729 0.05945,-0.0158 0.100403,0.10819 0.159784,0.0922 0.05952,-0.0158 0.04094,-0.12595 0.09227,-0.15973 0.07401,-0.0485 1.002449,-0.26964 1.007946,-0.2701 0.06142,-0.004 0.100422,0.10818 0.159717,0.0922 0.05934,-0.0159 0.06155,-0.10646 0.09228,-0.15973 0.215179,-0.37276 0.430428,-0.74554 0.645654,-1.11828 0.157222,-0.27235 0.181847,-0.27618 0.209161,-0.7313 0.0051,-0.0867 -0.07277,-0.16517 -0.0675,-0.25197 0.0039,-0.0613 0.06153,-0.10656 0.0922,-0.15982 0.0307,-0.0532 0.0615,-0.10645 0.09228,-0.15974 0.0922,-0.15981 0.184464,-0.31953 0.276741,-0.47926 0.03079,-0.0532 0.09593,-0.0987 0.09228,-0.15974 -0.01123,-0.17355 -0.145465,-0.33038 -0.135029,-0.50399 0.007,-0.12268 0.12302,-0.21295 0.184469,-0.31952 0.153784,-0.26621 0.307448,-0.53252 0.461167,-0.79881 0.461183,-0.79877 0.922331,-1.59759 1.383524,-2.39635 0.03087,-0.0532 0.06142,-0.10663 0.09217,-0.1598 0.03069,-0.0532 0.04092,-0.12593 0.09229,-0.15974 0.07277,-0.0478 0.179438,-0.0196 0.251962,-0.0675 0.05113,-0.0342 0.03236,-0.14406 0.09216,-0.15978 0.05948,-0.016 0.09954,0.0799 0.159757,0.0923 0.134686,0.0278 0.274499,0.0336 0.411728,0.0247 0.08689,-0.006 0.165153,-0.0727 0.252023,-0.0675 0.06131,0.004 0.100615,0.0753 0.159752,0.0923 0.186972,0.0532 0.384532,0.0635 0.571453,0.11698 0.05911,0.0169 0.106505,0.0615 0.159825,0.0922 0.106504,0.0615 0.213007,0.12292 0.319501,0.18449 0.05334,0.0308 0.106566,0.0614 0.159724,0.0923 0.05318,0.0307 0.144023,0.0323 0.159799,0.0922 0.01588,0.0595 -0.06144,0.10664 -0.09228,0.15975 0.04502,0.16806 0.07173,0.34202 0.135037,0.50401 0.08071,0.20651 0.172629,0.4112 0.294833,0.59623 0.03392,0.0514 0.144019,0.0323 0.159754,0.0923 0.01577,0.0592 -0.0886,0.0985 -0.0923,0.15976 -0.0049,0.0867 0.07271,0.16513 0.0675,0.25198 -0.004,0.0613 -0.06154,0.10645 -0.09218,0.15979 -0.03069,0.0532 -0.06148,0.10644 -0.09228,0.15975 -0.122952,0.21303 -0.245952,0.42604 -0.368942,0.63904 -0.522672,0.9053 -1.045322,1.81058 -1.568,2.71588 -0.461196,0.79878 -0.92235,1.59758 -1.383529,2.39636 -0.188898,0.32721 -0.649865,1.0432 -0.737912,1.27807 -0.03013,0.0816 0.0727,0.16518 0.06749,0.25198 -0.004,0.0627 -0.235153,0.40733 -0.276707,0.47927 -0.184474,0.31953 -0.368953,0.63902 -0.553399,0.95855 -0.06143,0.10653 -0.103333,0.22722 -0.18447,0.31952 -0.128204,0.14631 -0.301293,0.24728 -0.436437,0.38709 -0.04284,0.0442 -0.03235,0.14406 -0.09226,0.15973 -0.05942,0.0158 -0.100403,-0.10819 -0.159738,-0.0923 -0.05941,0.0158 -0.04094,0.12594 -0.09227,0.15974 -0.263542,0.17414 -0.356834,-0.0394 -0.663735,0.0428 -0.521394,0.13969 0.512558,0.27872 -0.344232,0.22726 -0.06124,-0.004 -0.100401,-0.10818 -0.159767,-0.0923 -0.521386,0.13971 0.512561,0.27873 -0.344237,0.22727 -0.122157,-0.007 -0.357117,-0.26934 -0.479286,-0.27672 -0.856781,-0.0514 0.177128,0.0876 -0.34423,0.22727 -0.05941,0.0158 -0.100652,-0.0753 -0.159777,-0.0923 -0.187002,-0.0532 -0.384537,-0.0635 -0.571499,-0.11689 -0.05909,-0.0169 -0.100614,-0.0753 -0.159788,-0.0922 -0.186991,-0.0532 -0.38731,-0.0546 -0.571509,-0.1169 -0.116473,-0.0395 -0.212995,-0.12303 -0.319504,-0.18447 -0.266268,-0.15376 -0.532527,-0.30746 -0.798795,-0.46119 -0.05323,-0.0307 -0.106536,-0.0614 -0.15973,-0.0922 -0.05332,-0.0309 -0.190511,-0.039 -0.159777,-0.0923 0.126768,-0.21955 0.352132,-0.36487 0.528694,-0.54681 z"
       id="path10" /><ellipse
       style="fill:#150d0b;fill-opacity:1;stroke:#00131a;stroke-width:0.264583;stroke-linejoin:round;stroke-opacity:0"
       id="path11"
       cx="-76.868164"
       cy="116.97386"
       rx="1.1068324"
       ry="1.0145962"
       transform="rotate(-60)" /><ellipse
       style="fill:#f99e80;fill-opacity:1;stroke:#00131a;stroke-width:0.339511;stroke-linejoin:round;stroke-opacity:0"
       id="path12"
       cx="-124.03204"
       cy="113.08739"
       rx="5.0926566"
       ry="14.259553"
       transform="matrix(0.06869853,-0.99763747,0.97738272,0.21147816,0,0)" /><ellipse
       style="fill:#d5d8d9;fill-opacity:1;stroke:#00131a;stroke-width:0.264583;stroke-linejoin:round;stroke-opacity:0"
       id="path13"
       cx="-66.998901"
       cy="137.54248"
       rx="2.2136648"
       ry="14.112112"
       transform="rotate(-60)" /><path
       style="fill:#d6d1d1;fill-opacity:1;stroke:#000000;stroke-width:0.264583px;stroke-linecap:butt;stroke-linejoin:miter;stroke-opacity:1"
       d="m 98.03809,140.14329 c 0.850737,-0.56173 0.482864,-0.27186 1.124934,-0.84165 0.145433,-0.12893 0.304976,-0.24374 0.436501,-0.387 0.883235,-0.96301 1.709055,-2.30564 2.348655,-3.33016 0.42329,-0.67816 0.79937,-1.3846 1.19903,-2.07684 0.15375,-0.26631 0.30751,-0.53257 0.46124,-0.79883 0.0616,-0.10648 0.10334,-0.22724 0.18444,-0.31949 0.53142,-0.60471 0.38014,-0.12826 0.71322,-0.86631 0.17884,-0.39636 0.3553,-0.7958 0.48587,-1.21055 0.29335,-0.93204 -0.16269,-0.087 0.1169,-0.57151 0.0525,-0.0908 0.34858,-0.62896 0.36896,-0.63906 0.31179,-0.15415 0.67199,-0.18004 1.00794,-0.27004 0.16809,-0.0451 0.33137,-0.11426 0.50402,-0.13502 0.13651,-0.0165 0.27454,0.0336 0.41176,0.0246 0.41014,-0.0264 0.10685,-0.15128 0.41171,0.0247 0.0533,0.0308 0.14407,0.0323 0.15977,0.0923 0.0158,0.0595 -0.0616,0.10648 -0.0923,0.15974 -0.0307,0.0532 -0.0615,0.10655 -0.0922,0.15981 -0.24595,0.42603 -0.49189,0.85209 -0.73786,1.27811 -0.24598,0.42601 -0.49194,0.85202 -0.73787,1.27805 -0.0615,0.10655 -0.10341,0.22717 -0.18448,0.31953 -0.14859,0.34196 -0.55053,0.37627 -0.7807,0.61431 -0.0855,0.0885 -0.12294,0.21303 -0.18448,0.31953 -0.0922,0.15981 -0.18445,0.31952 -0.27668,0.47925 -0.0615,0.10656 -0.10634,0.22457 -0.18449,0.31953 -0.16108,0.19566 -0.37572,0.34463 -0.52869,0.54681 -0.18555,0.24523 -0.30744,0.53253 -0.46115,0.7988 -0.0616,0.10648 -0.12295,0.21303 -0.18448,0.31955 -0.0309,0.0532 -0.0462,0.11893 -0.0922,0.15981 -0.10279,0.0914 -0.25938,0.11898 -0.34424,0.22725 -0.18978,0.24198 -0.30743,0.53255 -0.46111,0.79883 -0.24601,0.426 -0.49194,0.85204 -0.73791,1.27805 -0.0631,0.10915 -0.1979,0.39774 -0.27673,0.4793 -0.13529,0.13957 -0.3081,0.24093 -0.43649,0.387 -0.081,0.0924 -0.0924,0.23788 -0.18446,0.31951 -0.0648,0.0577 -0.16799,0.0449 -0.25195,0.0675 -0.11486,0.0755 -0.25345,0.12403 -0.34425,0.22728 -0.12179,0.13866 -0.13873,0.35687 -0.27672,0.47926 -0.598108,0.53037 -1.252618,0.99484 -1.905619,1.45593 -0.231861,0.16368 -0.382283,-0.008 -0.571509,-0.117 -0.106475,-0.0615 -0.213018,-0.12294 -0.319522,-0.18447 -0.106504,-0.0615 -0.251767,-0.0819 -0.319534,-0.18447 -0.03398,-0.0512 0.108548,-0.10011 0.09228,-0.15974 -0.01602,-0.0595 -0.144029,-0.0323 -0.159725,-0.0923 -0.01602,-0.0595 0.06153,-0.10656 0.09221,-0.15981 0.122948,-0.21302 0.245944,-0.42604 0.368917,-0.63904 0.02219,-0.0387 0.268552,-0.47713 0.276723,-0.47925 0.220527,-0.0591 0.262725,0.47649 0.362305,0.84821 z"
       id="path14" /><path
       style="fill:#d2d3d8;fill-opacity:1;stroke:#000000;stroke-width:0.264583px;stroke-linecap:butt;stroke-linejoin:miter;stroke-opacity:1"
       d="m 105.17951,139.58022 c 0.0556,-0.46502 0.0725,-0.93626 0.16635,-1.39503 0.0251,-0.12038 0.12295,-0.21306 0.1845,-0.31956 0.12294,-0.21304 0.24598,-0.426 0.36896,-0.63905 0.2767,-0.47922 0.55342,-0.95853 0.83014,-1.43781 0.21519,-0.37278 0.43045,-0.74552 0.64563,-1.11827 0.0615,-0.10655 0.12294,-0.21301 0.18447,-0.31953 0.0307,-0.0531 0.0462,-0.11903 0.0923,-0.15975 0.1028,-0.0914 0.24862,-0.12842 0.34421,-0.22726 0.0855,-0.0885 0.12296,-0.21304 0.1845,-0.31954 0.0922,-0.15981 0.18443,-0.3195 0.2767,-0.47929 0.0309,-0.0532 0.0463,-0.11899 0.0923,-0.15973 0.97513,-0.64382 -0.19683,0.20393 0.52869,-0.54681 0.0957,-0.0985 0.24142,-0.13592 0.34423,-0.22726 0.0462,-0.0405 0.0615,-0.10655 0.0922,-0.15981 0.0615,-0.10655 0.099,-0.2311 0.18448,-0.31954 0.0706,-0.34473 0.4304,-0.14763 0.59624,-0.29481 0.0917,-0.0818 0.0924,-0.23789 0.18444,-0.3195 0.24838,-0.2202 0.22128,-0.0144 0.41178,0.0247 0.1347,0.0278 0.27703,-0.003 0.41174,0.0247 0.0603,0.012 0.10665,0.0615 0.15981,0.0922 0.10665,0.0615 0.21301,0.12293 0.31952,0.18446 0.21305,0.12296 0.42606,0.24598 0.63906,0.36895 0.0533,0.0308 0.10655,0.0615 0.15971,0.0923 0.0532,0.0309 0.16329,0.0311 0.15977,0.0923 -0.007,0.12288 -0.12294,0.21302 -0.18448,0.31954 -0.0923,0.15973 -0.18448,0.31953 -0.27669,0.47925 -0.27674,0.4793 -0.55342,0.95857 -0.83014,1.43782 -0.39968,0.69231 -0.79941,1.38458 -1.19907,2.07687 -0.15372,0.2663 -0.30744,0.53254 -0.46118,0.79875 -0.0922,0.15981 -0.14853,0.34665 -0.2767,0.4793 -0.52809,0.54621 -0.16242,-0.0904 -0.84823,0.3623 -0.10277,0.0674 -0.0819,0.25175 -0.1845,0.31956 -0.0511,0.0341 -0.1192,-0.13846 -0.15976,-0.0923 -0.20296,0.23104 -0.30741,0.53254 -0.46118,0.79878 -0.0614,0.10663 -0.0924,0.23793 -0.18448,0.31954 -0.0649,0.0577 -0.17943,0.0196 -0.25204,0.0674 -0.10278,0.0674 -0.0819,0.25172 -0.18448,0.31954 -0.0726,0.0477 -0.17942,0.0196 -0.25197,0.0675 -0.0512,0.0342 -0.0409,0.12592 -0.0923,0.15973 -0.0726,0.0477 -0.16804,0.0451 -0.25196,0.0675 -0.084,0.0225 -0.1795,0.0195 -0.25205,0.0674 -0.0511,0.0341 -0.0615,0.10665 -0.0922,0.15982 -0.15371,0.26628 -0.30746,0.53252 -0.46118,0.79877 -0.11258,0.19503 -0.1507,0.40422 -0.43651,0.38702 -0.0112,-0.001 -0.47344,-0.26758 -0.47931,-0.27676 -0.0477,-0.0726 -0.0848,-0.16688 -0.0675,-0.25196 0.0251,-0.12037 0.15461,-0.20011 0.18446,-0.31952 0.0809,-0.32113 0.0945,-0.65554 0.14168,-0.98325 z"
       id="path15" /><path
       style="fill:#cfd3d7;fill-opacity:1;stroke:#000000;stroke-width:0.264583px;stroke-linecap:butt;stroke-linejoin:miter;stroke-opacity:1"
       d="m 109.99694,141.93547 c 0.42344,-1.02792 1.17181,-1.88242 1.66023,-2.87563 0.24576,-0.49967 0.43678,-1.02457 0.67041,-1.53004 0.0999,-0.21599 0.24878,-0.43093 0.36895,-0.63903 0.2152,-0.37276 0.43041,-0.74551 0.64563,-1.11832 0.15365,-0.26622 0.30742,-0.53251 0.46117,-0.79875 0.0309,-0.0532 0.0463,-0.11899 0.0922,-0.1598 0.10281,-0.0914 0.21148,-0.19173 0.34429,-0.22729 0.0595,-0.0161 0.1001,0.10854 0.15972,0.0922 0.11882,-0.0319 0.0657,-0.28769 0.18446,-0.31952 0.0595,-0.0158 0.10011,0.10858 0.15976,0.0923 0.13277,-0.0356 0.2115,-0.19163 0.34423,-0.22727 0.28955,-0.0776 0.37471,0.003 0.57147,0.117 0.42604,0.24598 0.85205,0.49196 1.27803,0.73786 0.10662,0.0614 0.31162,0.0618 0.31957,0.18451 0.0119,0.18408 -0.18447,0.31951 -0.27671,0.47929 -0.12293,0.21302 -0.24597,0.42598 -0.36896,0.639 -0.12293,0.21301 -0.29009,0.40604 -0.36893,0.63902 -0.0284,0.0822 0.0727,0.16519 0.0675,0.252 -0.004,0.0613 -0.0615,0.10656 -0.0922,0.15973 -0.0308,0.0534 -0.0615,0.10656 -0.0923,0.15974 -0.0922,0.15981 -0.18447,0.31952 -0.27672,0.47925 -0.24595,0.42606 -0.49189,0.85205 -0.73784,1.27808 -0.052,0.0897 -0.40035,0.73582 -0.46118,0.79878 -0.0959,0.0987 -0.24867,0.12844 -0.34427,0.22729 -0.0855,0.0883 -0.12296,0.21303 -0.18447,0.31953 -0.0923,0.15973 -0.18446,0.31951 -0.27674,0.47924 -0.0308,0.0533 -0.0495,0.11555 -0.0922,0.15981 -0.13532,0.13958 -0.28368,0.26678 -0.4365,0.387 -0.10808,0.0851 -0.24865,0.12843 -0.34424,0.22726 -0.0855,0.0884 -0.12296,0.21304 -0.18445,0.31951 -0.0922,0.15983 -0.14851,0.34664 -0.27674,0.47929 -0.0609,0.0622 -0.19151,0.005 -0.25202,0.0675 -0.17109,0.17672 -0.246,0.42603 -0.36892,0.63902 -0.0308,0.0533 -0.0409,0.12592 -0.0923,0.15973 -0.0726,0.0477 -0.17943,0.0197 -0.25198,0.0675 -0.0511,0.0341 -0.0409,0.12593 -0.0922,0.15981 -0.0727,0.0478 -0.16686,0.0848 -0.25196,0.0675 -0.0716,-0.015 -0.6685,-0.38594 -0.79877,-0.46119 -0.10655,-0.0615 -0.21304,-0.12294 -0.31951,-0.18445 -0.0532,-0.0307 -0.14409,-0.0324 -0.15981,-0.0922 -0.0159,-0.0593 0.0885,-0.0985 0.0923,-0.15973 0.005,-0.0867 -0.0451,-0.16804 -0.0675,-0.25195 0.0165,-0.27451 0.0329,-0.54901 0.0494,-0.8235 z"
       id="path16" /><path
       style="fill:#ddd0c8;fill-opacity:1;stroke:#000000;stroke-width:0.264583px;stroke-linecap:butt;stroke-linejoin:miter;stroke-opacity:1"
       d="m 105.50695,153.40183 c 0.16581,0.45073 0.33162,0.90147 0.49737,1.35221 -0.0308,0.0532 -0.0959,0.0988 -0.0922,0.1598 0.0112,0.17357 0.12384,0.33041 0.13503,0.50399 0.004,0.0614 -0.10855,0.1001 -0.0923,0.15974 0.0159,0.0595 0.14391,0.0329 0.15978,0.0923 0.0159,0.0595 -0.0886,0.0985 -0.0923,0.15974 -0.005,0.0868 0.0727,0.16514 0.0675,0.25198 -0.0117,0.19412 -0.12948,0.37746 -0.11692,0.57149 0.004,0.0614 0.14387,0.0329 0.15971,0.0922 0.016,0.0595 -0.0886,0.0985 -0.0922,0.1598 -0.005,0.0869 0.0727,0.16515 0.0675,0.25198 -0.007,0.12269 -0.2165,0.20065 -0.18446,0.31954 0.0159,0.0594 0.14386,0.0329 0.15976,0.0923 0.0159,0.0595 -0.10853,0.1001 -0.0922,0.1598 0.0159,0.0595 0.14388,0.0329 0.15978,0.0923 0.0113,0.0421 -0.3636,0.55078 -0.36895,0.63903 -0.004,0.0613 0.14381,0.0328 0.15972,0.0922 0.0159,0.0595 -0.10855,0.10011 -0.0922,0.15981 0.016,0.0595 0.16343,0.0308 0.15972,0.0922 -0.007,0.12268 -0.1506,0.20127 -0.18447,0.31953 -0.0377,0.13205 0.003,0.27702 -0.0247,0.41174 -0.012,0.0603 -0.0614,0.10662 -0.0923,0.15974 0.0142,0.22123 0.0561,0.44239 0.0428,0.66373 -0.004,0.0613 -0.0615,0.10655 -0.0923,0.15973 -0.11673,0.20213 -0.24029,0.52819 -0.52871,0.5468 -0.12271,0.008 -0.19901,-0.15978 -0.3195,-0.18445 -0.0852,-0.0174 -0.16519,0.0727 -0.25198,0.0675 -0.0615,-0.004 -0.0983,-0.0886 -0.15977,-0.0922 -0.0868,-0.005 -0.1669,0.0848 -0.25199,0.0675 -0.30719,-0.0629 -0.58067,-0.25674 -0.89102,-0.30142 -0.0609,-0.009 -0.0323,0.14406 -0.0923,0.15974 -0.0257,0.007 -0.77791,-0.0549 -0.8235,-0.0494 -0.168,0.045 -0.33598,0.0901 -0.50398,0.13505 -0.0533,-0.0308 -0.0983,-0.0886 -0.15977,-0.0923 -0.0868,-0.005 -0.16805,0.045 -0.25199,0.0675 -0.16804,0.045 -0.33596,0.09 -0.50396,0.13507 -0.25205,0.0675 -0.504,0.13503 -0.75598,0.20256 -0.16805,0.045 -0.348099,0.058 -0.503995,0.13504 -0.05515,0.0272 -0.03235,0.14407 -0.09228,0.15974 -0.521375,0.13971 0.304536,-0.49767 -0.411789,-0.0247 -0.113739,0.0749 -0.163066,0.40423 -0.276658,0.47932 -0.145133,0.0958 -0.348124,0.0579 -0.503978,0.13504 -0.05516,0.0272 -0.06153,0.10655 -0.09228,0.15973 -0.03075,0.0532 -0.06152,0.10656 -0.09227,0.15974 -0.07527,0.13029 -0.446559,0.72708 -0.4612,0.79877 -0.01758,0.085 0.06192,0.16526 0.06753,0.25203 0.03739,0.57995 -0.101433,0.31367 -0.141663,0.98325 -0.01,0.15891 0.190707,0.57182 0.202551,0.75596 0.003,0.0413 -0.05378,0.80736 -0.04935,0.82354 0.139684,0.52137 0.278723,-0.51259 0.22724,0.34419 -0.0039,0.0614 -0.07985,0.0996 -0.09227,0.15974 -0.134332,0.65674 0.0914,0.21059 -0.116908,0.57154 -0.145144,0.25149 -0.06638,0.22457 -0.503998,0.13502 -0.06029,-0.0124 -0.106543,-0.0615 -0.159706,-0.0922 -0.106562,-0.0615 -0.213058,-0.12302 -0.319559,-0.1845 -0.159734,-0.0922 -0.304487,-0.2176 -0.479247,-0.27669 -0.198137,-0.067 -0.527693,0.0466 -0.571542,-0.11697 -0.01592,-0.0595 0.06152,-0.10655 0.09228,-0.15974 0.216311,-0.37465 -0.08109,0.0537 0.344233,-0.22726 0.05113,-0.0342 0.06152,-0.10656 0.09227,-0.15974 0.245964,-0.42602 0.491929,-0.85204 0.737889,-1.27807 0.04157,-0.0719 0.272968,-0.4166 0.276707,-0.47928 0.01041,-0.17362 -0.123838,-0.33041 -0.135061,-0.50399 -0.009,-0.13722 0.03362,-0.27452 0.02472,-0.41174 -0.006,-0.0867 -0.07268,-0.16516 -0.06751,-0.25199 0.0038,-0.0616 0.08842,-0.0984 0.09228,-0.15974 0.01529,-0.25439 -0.06152,-0.24891 -0.227272,-0.34421 -0.195025,-0.11261 -0.332608,-0.27471 -0.571525,-0.11697 -0.05116,0.0341 -0.03234,0.14408 -0.0922,0.15981 -0.05943,0.0158 -0.100397,-0.10818 -0.159747,-0.0922 -0.05941,0.0158 -0.04094,0.12595 -0.09227,0.15973 -0.145132,0.0958 -0.358835,0.0392 -0.503999,0.13503 -0.05116,0.0341 -0.03235,0.14407 -0.09219,0.1598 -0.05949,0.0158 -0.09843,-0.0962 -0.159794,-0.0923 -0.173566,0.0112 -0.331285,0.11423 -0.503978,0.13505 -0.136498,0.0165 -0.277054,0.003 -0.411731,-0.0247 -0.06022,-0.0123 -0.100395,-0.10816 -0.159772,-0.0923 -0.13278,0.0357 -0.21149,0.19162 -0.344234,0.22727 -0.05941,0.0158 -0.09834,-0.0886 -0.159739,-0.0922 -0.0868,-0.005 -0.165688,0.0571 -0.251993,0.0675 -0.510939,0.0615 -0.972382,0.0548 -1.48726,-0.007 -0.233686,-0.0279 -0.57287,-0.21492 -0.823529,-0.0494 -0.05113,0.0342 -0.0614,0.10662 -0.09228,0.15973 -0.03075,0.0532 -0.06152,0.10656 -0.09219,0.15981 -0.338189,0.58578 -0.676402,1.17155 -1.014603,1.75733 -0.03075,0.0532 -0.06141,0.10662 -0.09219,0.1598 -0.03075,0.0532 -0.03234,0.14407 -0.09228,0.15974 -0.05942,0.0158 -0.143823,-0.0328 -0.159751,-0.0922 -0.01592,-0.0595 0.108544,-0.1001 0.09219,-0.1598 -0.0159,-0.0595 -0.125857,-0.0408 -0.159752,-0.0922 -0.04791,-0.0726 -0.04512,-0.16799 -0.06749,-0.25198 -0.02251,-0.084 -0.08499,-0.16679 -0.0675,-0.25199 0.02505,-0.12036 0.122939,-0.21303 0.184474,-0.31953 0.03075,-0.0532 0.108546,-0.1001 0.09227,-0.15974 -0.01592,-0.0595 -0.163448,-0.0309 -0.159776,-0.0923 0.007,-0.12267 0.159828,-0.19897 0.184472,-0.31953 0.01759,-0.0851 -0.0727,-0.1652 -0.0675,-0.25199 0.003,-0.0541 0.320725,-0.5555 0.368939,-0.63904 0.122946,-0.21302 0.245998,-0.42599 0.368956,-0.63902 0.03075,-0.0532 0.0615,-0.10655 0.09228,-0.15974 0.03075,-0.0532 0.04103,-0.12587 0.09219,-0.1598 0.07274,-0.0478 0.179474,-0.0195 0.251979,-0.0675 0.05112,-0.0342 0.06153,-0.10656 0.09228,-0.15974 0.08398,-0.0225 0.179433,-0.0196 0.251986,-0.0676 0.05115,-0.0341 0.03242,-0.14398 0.09219,-0.1598 0.05943,-0.0158 0.09835,0.0886 0.159769,0.0923 0.173609,0.0104 0.330381,-0.14547 0.503979,-0.13504 0.06139,0.004 0.09834,0.0886 0.159742,0.0922 0.173623,0.0104 0.330389,-0.14547 0.503966,-0.13507 0.06139,0.004 0.09838,0.0886 0.159811,0.0923 0.08684,0.005 0.165176,-0.0727 0.251978,-0.0675 0.06139,0.004 0.106562,0.0615 0.159724,0.0922 0.159772,0.0923 0.30194,0.22594 0.4793,0.27672 0.167208,0.0479 0.330372,-0.14546 0.503978,-0.13504 0.09163,0.006 0.551872,0.35107 0.639001,0.36892 0.08521,0.0174 0.1652,-0.0727 0.25198,-0.0675 0.122739,0.007 0.196771,0.17714 0.319533,0.18449 0.08685,0.005 0.165201,-0.0727 0.251993,-0.0675 0.06148,0.004 0.09831,0.0886 0.159735,0.0922 0.173625,0.0104 0.330445,-0.12384 0.503997,-0.13502 0.137243,-0.009 0.27454,0.0336 0.411761,0.0247 0.08679,-0.005 0.168041,-0.045 0.251985,-0.0675 0.137225,0.008 0.274527,0.0336 0.411772,0.0247 0.08679,-0.005 0.168042,-0.045 0.251979,-0.0675 0.08398,-0.0225 0.179401,-0.0196 0.251973,-0.0675 0.05113,-0.0342 0.04095,-0.12595 0.09227,-0.15973 0.07275,-0.0478 0.17947,-0.0195 0.251984,-0.0675 0.05116,-0.0341 0.04095,-0.12595 0.09219,-0.15981 0.812791,-0.53659 -0.646976,0.92661 0.688486,-0.45454 0.04281,-0.0442 0.0614,-0.10662 0.09227,-0.15974 0.09227,-0.15974 0.144113,-0.35099 0.276712,-0.47927 0.07041,-0.68858 0.641256,-0.32449 0.940466,-0.52207 0.10276,-0.0674 0.0656,-0.2877 0.18447,-0.31953 0.33597,-0.09 -0.0424,0.42743 0.41175,0.0247 0.0917,-0.0818 0.12294,-0.21303 0.18447,-0.31953 0.0307,-0.0532 0.0409,-0.12593 0.0923,-0.15973 0.71632,-0.47292 -0.10963,0.16445 0.41176,0.0247 0.0594,-0.0158 0.0614,-0.10662 0.0923,-0.15973 0.0922,-0.15981 0.18447,-0.31954 0.27666,-0.47931 0.21525,-0.37274 0.43045,-0.74553 0.64569,-1.11828 0.0307,-0.0532 0.0614,-0.10654 0.0922,-0.1598 0.0307,-0.0532 0.0799,-0.0995 0.0923,-0.15975 0.12366,-0.60444 -0.008,-0.31088 -0.3623,-0.84821 -0.0479,-0.0726 -0.0196,-0.17943 -0.0675,-0.25199 -0.0339,-0.0512 -0.12592,-0.0409 -0.15977,-0.0923 -0.0958,-0.14516 -0.0579,-0.34809 -0.13502,-0.50396 -0.061,-0.1233 -0.13612,-0.24136 -0.2273,-0.34425 -0.0408,-0.0461 -0.16341,-0.0309 -0.15973,-0.0922 0.007,-0.12268 0.15984,-0.19898 0.18447,-0.31953 0.0755,-0.36909 -0.30716,-0.27491 -0.38699,-0.43644 -0.0771,-0.15595 -0.058,-0.34812 -0.13506,-0.50399 -0.0272,-0.0551 -0.10651,-0.0614 -0.15978,-0.0923 -0.12901,-0.14548 -0.30086,-0.26216 -0.38699,-0.43643 -0.15419,-0.31186 -0.18011,-0.67201 -0.27015,-1.00802"
       id="path17" /><ellipse
       style="fill:#343434;fill-opacity:1;stroke:#00131a;stroke-width:0.264583;stroke-linejoin:round;stroke-opacity:0"
       id="path18"
       cx="-127.91707"
       cy="137.43747"
       rx="1.5652972"
       ry="0.4728502"
       transform="rotate(-71.44931)" /><ellipse
       style="fill:#343434;fill-opacity:1;stroke:#00131a;stroke-width:0.279892;stroke-linejoin:round;stroke-opacity:0"
       id="path19"
       cx="-146.3325"
       cy="129.82501"
       rx="2.3865378"
       ry="1.0342102"
       transform="matrix(0.20976453,-0.97775193,0.98291021,0.18408565,0,0)" /><path
       style="fill:#ddd0c8;fill-opacity:1;stroke:#000000;stroke-width:0.264583px;stroke-linecap:butt;stroke-linejoin:miter;stroke-opacity:1"
       d="m 97.842695,163.01396 c 0.08467,0.0489 0.169425,0.0978 0.25417,0.14674 0.05648,0.0327 0.116224,0.0602 0.169439,0.0978 0.09063,0.0639 0.16051,0.15387 0.249838,0.21955 0.03495,0.0259 0.07539,0.0435 0.112921,0.0652 0.0659,0.038 0.131758,0.076 0.197658,0.11411 0.03771,0.0218 0.078,0.0393 0.112931,0.0652 0.04463,0.0328 0.08693,0.0695 0.12496,0.10974 0.156468,0.16609 0.05176,0.11407 0.233527,0.24776 0.03495,0.0259 0.07539,0.0435 0.112921,0.0652 0.02823,0.0163 0.0621,0.0255 0.08467,0.049 0.03385,0.0351 0.04546,0.0879 0.08041,0.12166 0.03122,0.0302 0.07872,0.0385 0.112912,0.0652 0.0271,0.0213 0.04575,0.0514 0.06838,0.0771 0.04566,0.0514 0.0863,0.10783 0.13678,0.15431 0.02408,0.0219 0.05923,0.0284 0.08475,0.0489 0.03543,0.0274 0.06145,0.0658 0.09668,0.0934 0.0255,0.0205 0.0564,0.0326 0.0847,0.049 0.0282,0.0163 0.0564,0.0326 0.0846,0.0488 0.0376,0.0217 0.0781,0.0393 0.11291,0.0652 0.0355,0.0275 0.0636,0.0633 0.0967,0.0935 0.0408,0.0374 0.0849,0.0713 0.12496,0.10975 0.0247,0.0236 0.0418,0.0553 0.0684,0.0771 0.0254,0.0204 0.0621,0.0255 0.0847,0.049 0.0337,0.0351 0.0439,0.0897 0.0804,0.12167 0.049,0.0431 0.11624,0.0602 0.16944,0.0978 0.0754,0.0354 0.10196,0.12284 0.1651,0.17062 0.0432,0.0331 0.098,0.0485 0.1412,0.0815 0.11018,-0.01 0.0455,0.0879 0.0804,0.12164 0.0234,0.0227 0.0594,0.0285 0.0847,0.0489 0.0264,0.0222 0.0418,0.0553 0.0684,0.0771 0.0254,0.0204 0.0601,0.0278 0.0847,0.049 0.0181,0.0163 0.0228,0.044 0.0402,0.0608 0.0158,0.0149 0.0377,0.0217 0.0565,0.0326 0.0377,0.0218 0.0754,0.0435 0.11291,0.0652 0.14311,0.0826 -0.0287,-0.0282 0.0967,0.0934 0.0158,0.0149 0.0377,0.0218 0.0564,0.0326 0.047,0.0271 0.0942,0.0544 0.14123,0.0815 0.0187,0.0108 0.0377,0.0217 0.0565,0.0326 0.0187,0.0108 0.04,0.0185 0.0565,0.0326 0.0256,0.0229 0.0427,0.0544 0.0684,0.0771 0.0264,0.0233 0.12019,0.0579 0.14118,0.0815 0.0103,0.0116 0.001,0.0341 0.012,0.0445 0.0234,0.0228 0.0564,0.0326 0.0847,0.049 0.0564,0.0326 0.11292,0.0652 0.16945,0.0978 0.12236,0.0706 0.24478,0.14132 0.36712,0.21196 0.0564,0.0326 0.11304,0.0653 0.16949,0.0978 0.009,0.005 0.0176,0.0194 0.0282,0.0163 0.0104,-0.003 0.0105,-0.0189 0.0166,-0.028 0.005,-0.01 0.0105,-0.0189 0.0167,-0.028 0.0105,-0.019 0.0217,-0.0377 0.0326,-0.0565 0.005,-0.01 0.0157,-0.0171 0.0167,-0.028 0.0159,-0.26444 -0.0174,0.0109 -0.0314,-0.20646 -0.002,-0.0111 0.0227,-0.0201 0.0167,-0.028 -0.0121,-0.0183 -0.0449,-0.0143 -0.0564,-0.0326 0.0165,-0.0293 0.0295,-0.0351 0.004,-0.0728 -0.007,-0.01 -0.0215,-0.008 -0.0282,-0.0164 -0.14472,-0.18403 -0.016,-0.0616 -0.14871,-0.19882 -0.0313,-0.0323 -0.063,-0.0639 -0.0967,-0.0934 -0.008,-0.007 -0.0223,-0.007 -0.0282,-0.0163 -0.008,-0.0131 -0.004,-0.0316 -0.012,-0.0445 -0.006,-0.009 -0.0187,-0.0108 -0.0282,-0.0163 -0.009,-0.005 -0.0187,-0.0108 -0.0282,-0.0163 -0.0378,-0.0218 -0.0754,-0.0435 -0.11293,-0.0652 -0.0377,-0.0218 -0.0775,-0.0401 -0.113,-0.0652 -0.23269,-0.16726 -0.0911,-0.0766 -0.2737,-0.30865 -0.0277,-0.0352 -0.0655,-0.0612 -0.0967,-0.0934 -0.0243,-0.0245 -0.0472,-0.0501 -0.0684,-0.0771 -0.0153,-0.019 -0.0227,-0.0439 -0.0401,-0.0608 -0.0312,-0.0302 -0.0817,-0.0348 -0.11293,-0.0652 -0.0177,-0.0172 -0.0241,-0.0426 -0.0403,-0.0608 -0.12143,-0.11733 -0.067,-0.0599 -0.16509,-0.17061 -0.0227,-0.0258 -0.0495,-0.0486 -0.0684,-0.0771 -0.008,-0.0131 -0.002,-0.033 -0.012,-0.0445 -0.0147,-0.0162 -0.0436,-0.0148 -0.0565,-0.0326 -0.038,-0.0508 -0.055,-0.11502 -0.0923,-0.16624 -0.0891,-0.12243 -0.19274,-0.2336 -0.28561,-0.35318 -0.129,-0.16619 -0.41306,-0.56035 -0.55492,-0.73459 -0.0651,-0.08 -0.14042,-0.15131 -0.20528,-0.23145 -0.0305,-0.0379 -0.0503,-0.0834 -0.0804,-0.12167 -0.007,-0.009 -0.0189,-0.011 -0.0282,-0.0163 -0.009,-0.005 -0.0187,-0.0108 -0.0282,-0.0164 -0.0189,-0.0108 -0.0376,-0.0217 -0.0564,-0.0326 -0.0282,-0.0163 -0.0614,-0.0262 -0.0847,-0.049 -0.0421,-0.0406 -0.0679,-0.0959 -0.1086,-0.13799 -0.015,-0.0156 -0.0377,-0.0218 -0.0564,-0.0326 -0.0282,-0.0163 -0.0564,-0.0326 -0.0847,-0.0489 -0.0754,-0.0435 -0.150615,-0.087 -0.225948,-0.13046 -0.433029,-0.25001 -0.866032,-0.50001 -1.299118,-0.75003 -0.02661,-0.0154 -0.06097,-0.0294 -0.08464,-0.0489 -0.04298,-0.0352 -0.08405,-0.0723 -0.124863,-0.10976 -0.03293,-0.0305 -0.06144,-0.0658 -0.0967,-0.0935 -0.02546,-0.0205 -0.05645,-0.0326 -0.08468,-0.049 -0.0089,-0.005 -0.02274,-0.0258 -0.02823,-0.0163 -0.0054,0.01 0.01873,0.0108 0.02823,0.0163 0.01873,0.0108 0.04071,0.0178 0.05645,0.0326 0.066,0.0639 0.02284,0.0659 0.06409,0.14993 0.0048,0.01 0.0188,0.0109 0.02823,0.0163"
       id="path20" /><ellipse
       style="fill:#343434;fill-opacity:1;stroke:#00131a;stroke-width:0.264583;stroke-linejoin:round;stroke-opacity:0"
       id="path21"
       cx="-61.288841"
       cy="185.58075"
       rx="0.7011227"
       ry="2.1359785"
       transform="rotate(-49.985215)" /></g></svg>
