<?xml version="1.0" encoding="UTF-8" standalone="no"?>
<!-- Created with Inkscape (http://www.inkscape.org/) -->

<svg
   width="210mm"
   height="297mm"
   viewBox="0 0 210 297"
   version="1.1"
   id="svg1"
   inkscape:version="1.3.2 (091e20e, 2023-11-25, custom)"
   sodipodi:docname="anim_tree.svg"
   xmlns:inkscape="http://www.inkscape.org/namespaces/inkscape"
   xmlns:sodipodi="http://sodipodi.sourceforge.net/DTD/sodipodi-0.dtd"
   xmlns="http://www.w3.org/2000/svg"
   xmlns:svg="http://www.w3.org/2000/svg">
  <sodipodi:namedview
     id="namedview1"
     pagecolor="#ffffff"
     bordercolor="#cccccc"
     borderopacity="1"
     inkscape:showpageshadow="0"
     inkscape:pageopacity="1"
     inkscape:pagecheckerboard="0"
     inkscape:deskcolor="#d1d1d1"
     inkscape:document-units="mm"
     inkscape:zoom="0.71713664"
     inkscape:cx="181.27647"
     inkscape:cy="512.45464"
     inkscape:window-width="1920"
     inkscape:window-height="1001"
     inkscape:window-x="-9"
     inkscape:window-y="-9"
     inkscape:window-maximized="1"
     inkscape:current-layer="layer1" />
  <defs
     id="defs1" />
  <g
     inkscape:label="Слой 1"
     inkscape:groupmode="layer"
     id="layer1">
    <path
       style="fill:none;stroke:#000000;stroke-width:0.264583px;stroke-linecap:butt;stroke-linejoin:miter;stroke-opacity:1"
       d="m 99.430434,140.38323 c 0,-0.43044 0.183277,-0.90184 0,-1.29131 -0.335301,-0.71251 -1.032978,-1.19354 -1.475777,-1.84472 -0.553416,-0.92236 -1.106832,-1.84472 -1.660247,-2.76708 -0.122984,-0.0615 -0.271719,-0.0873 -0.368946,-0.18447 -0.04348,-0.0435 0.01767,-0.12557 0,-0.18447 -0.167624,-0.55875 -0.308956,-1.13059 -0.553416,-1.66025 -0.495659,-1.07393 -1.158229,-2.06505 -1.660247,-3.13603 -0.42164,-0.89949 -0.719759,-1.85217 -1.106834,-2.76707 -0.289499,-0.68428 -0.672462,-1.32949 -0.922358,-2.0292 -0.06204,-0.17372 0.05833,-0.37841 0,-0.55341 -0.01945,-0.0583 -0.122984,0 -0.184473,0 -0.122981,-0.49193 -0.293727,-0.97433 -0.368946,-1.47578 -0.109836,-0.73226 -0.12768,-1.4754 -0.18447,-2.21367 -0.0047,-0.0613 0.01011,-0.12381 0,-0.18447 -0.276855,-1.66113 -0.659712,-2.26047 -0.922361,-4.42733 -0.10359,-0.85461 0,-1.72174 0,-2.58261 0,-1.46697 0.006,-2.72541 0.184473,-4.24285 0.02273,-0.19312 0.146335,-0.36274 0.184472,-0.55342 0.0241,-0.12059 -0.01357,-0.24671 0,-0.36894 0.04801,-0.43215 0.0992,-0.86495 0.18447,-1.29131 0.05373,-0.26863 0.976279,-4.26365 1.106835,-4.6118 0.107952,-0.28787 0.443044,-0.45093 0.553415,-0.73789 0.20351,-0.52913 0.267531,-1.10247 0.368943,-1.660243 0.02199,-0.121 0,-0.245965 0,-0.368946 0,-0.307454 0,-0.614907 0,-0.922359 0,-0.06149 -0.02986,-0.13072 0,-0.184472 1.354868,-2.43876 0.317458,-0.686404 1.84472,-2.213666 0.04348,-0.04348 -0.01945,-0.126137 0,-0.184473 0.04348,-0.130439 0.103161,-0.258064 0.184473,-0.368943 0.596403,-0.813276 1.184209,-1.636006 1.84472,-2.398135 0.145203,-0.167542 0.420391,-0.19158 0.553418,-0.368946 0.07379,-0.09839 -0.02983,-0.249634 0,-0.368943 0.09432,-0.37729 0.175993,-0.769173 0.368943,-1.106834 0.06822,-0.11938 0.292674,-0.07007 0.368943,-0.18447 0.06822,-0.102328 -0.08342,-0.278577 0,-0.368946 0.678958,-0.735533 1.481884,-1.346194 2.213666,-2.029192 0.19072,-0.178004 0.34663,-0.394351 0.55342,-0.553416 0.59493,-0.457642 1.25362,-0.828709 1.84472,-1.291304 0.82463,-0.645367 1.59875,-1.352794 2.39813,-2.029193 0.79938,-0.676397 1.58046,-1.375042 2.39814,-2.029193 0.10737,-0.08589 0.27172,-0.08725 0.36894,-0.18447 0.0435,-0.04348 -0.0512,-0.150365 0,-0.184473 1.03042,-0.686948 0.0739,0.490114 1.29131,-0.553415 0.23343,-0.200089 0.37258,-0.489241 0.55341,-0.737889 1.12347,-1.544764 0.65458,-1.009639 1.84472,-2.398136 0.36895,-0.430434 0.82999,-0.777319 1.29131,-1.106834 0.10007,-0.07148 0.25476,0.04568 0.36894,0 0.5623,-0.224919 1.11146,-0.481782 1.66025,-0.737888 0.37379,-0.174437 0.71551,-0.422974 1.10683,-0.553416 0.0583,-0.01945 -0.0237,0.127712 0,0.184473 0.28577,0.685842 0.6366,1.34335 0.92236,2.029193 0.0237,0.05676 -0.0435,0.140991 0,0.184472 0.0435,0.04348 0.12948,-0.0275 0.18448,0 0.0778,0.03889 0.12298,0.122981 0.18447,0.184471 0.0615,0.06149 0.16742,0.0992 0.18447,0.184472 0.49083,2.454146 -0.65876,-1.093486 0.36894,1.475777 0.0228,0.05709 -0.0275,0.129472 0,0.184471 0.0389,0.07778 0.12299,0.122983 0.18448,0.184472 0.53944,0.539446 1.27501,1.041675 1.47577,1.84472 0.24278,0.971111 0.39177,1.963698 0.55342,2.951554 0.39183,2.394503 0.87123,4.779524 1.10683,7.19441 0.25702,2.634451 0.26315,5.287454 0.36895,7.9323 0.19983,4.99593 0.18447,4.28399 0.18447,7.37888 0,1.2913 0,2.58261 0,3.87391 0,0.24597 0,0.49193 0,0.73789 0,0.0615 0.0275,0.12947 0,0.18447 -0.0389,0.0778 -0.13461,0.11323 -0.18447,0.18447 -0.38143,0.5449 -0.7717,1.08573 -1.10684,1.66025 -1.06843,1.83161 0.35,-0.37564 -0.18447,0.92236 -0.38755,0.94119 -0.87011,1.84047 -1.2913,2.76708 -0.50121,1.10266 -0.95503,2.22693 -1.47578,3.3205 -0.0953,0.20017 -0.2911,0.34583 -0.36894,0.55342 -1.39297,3.71456 -0.20532,1.17683 -1.10684,5.53416 -1.04979,5.074 -0.23752,0.81112 -1.10683,2.76708 -0.15795,0.35538 -0.2621,0.73289 -0.36894,1.10683 -0.1115,0.39025 0.27682,-0.0232 -0.18447,0.55342 -0.40834,0.51042 -0.89912,0.95285 -1.29131,1.47578 -2.06226,2.74967 4.85015,-3.53722 -3.13602,2.95155 -0.0675,0.0548 -0.14559,0.10669 -0.18448,0.18447 -0.0275,0.055 0.0583,0.16503 0,0.18447 -1.71433,0.57145 -0.55103,-0.33478 -2.21366,0.73789 -1.56212,1.00782 -3.08334,2.07786 -4.6118,3.13602 -0.0715,0.0495 -0.14558,0.1067 -0.18447,0.18447 -0.0275,0.055 0.055,0.15698 0,0.18448 -0.11,0.055 -0.24597,0 -0.36895,0 -0.49192,0 -0.98385,0 -1.47577,0 -0.36895,0 -0.737893,0 -1.106836,0 -0.184473,0 -0.37841,0.0583 -0.553416,0 -0.05834,-0.0195 -0.03164,-0.13175 0,-0.18448 0.158184,-0.26363 0.368943,-0.49192 0.553416,-0.73788 z"
       id="path1" />
    <path
       style="fill:none;stroke:#000000;stroke-width:0.264583px;stroke-linecap:butt;stroke-linejoin:miter;stroke-opacity:1"
       d="m 80.798756,192.77329 c 0,-0.30745 0.07457,-0.62409 0,-0.92236 -0.494331,-1.97733 -0.12192,-0.17268 -0.553415,-0.55342 -1.011227,-0.89226 -1.940325,-1.87482 -2.951552,-2.76708 -0.04611,-0.0407 -0.144648,0.0469 -0.184473,0 -1.02,-1.2 -1.956712,-2.4685 -2.951554,-3.68944 -0.358105,-0.43949 -0.733515,-0.86465 -1.106831,-1.2913 -0.05726,-0.0654 -0.101973,-0.15697 -0.184473,-0.18448 -0.116671,-0.0389 -0.252272,0.0389 -0.368943,0 -1.271831,-0.42394 -0.273301,-0.36894 -1.106834,-0.36894 -0.799378,0 -1.598755,0 -2.398136,0 -0.06149,0 -0.150362,-0.0512 -0.184472,0 -0.10786,0.16179 -0.02721,0.43905 -0.184471,0.55342 -0.555995,0.40436 -1.247814,0.58127 -1.844722,0.92236 -0.266944,0.15254 -0.474247,0.39523 -0.737886,0.55341 -0.05273,0.0316 -0.122984,0 -0.184473,0 -0.307454,0 -0.671182,0.17731 -0.922361,0 -0.85253,-0.60178 -1.503593,-1.44897 -2.213663,-2.21366 -2.825562,-3.04291 -2.582608,-1.69682 -2.582608,-4.05839 0,-0.36894 -0.265759,-0.85091 0,-1.10683 1.48827,-1.43315 3.341055,-2.43234 4.980744,-3.68944 0.207039,-0.15873 0.368943,-0.36894 0.553415,-0.55342 0.06149,-0.0615 0.156972,-0.10197 0.184473,-0.18447 0.03889,-0.11667 0.06822,-0.26661 0,-0.36894 -0.07627,-0.11441 -0.243771,-0.12758 -0.368945,-0.18447 -0.551329,-0.25061 -1.07759,-0.57273 -1.660248,-0.73789 -7.232996,-2.0503 -14.426638,-4.28177 -21.767701,-5.90311 -2.71262,-0.5991 -5.546585,-0.37858 -8.301241,-0.73788 -0.136343,-0.0178 -0.108204,-0.25454 -0.184473,-0.36895 -0.04824,-0.0724 -0.145582,-0.10669 -0.184473,-0.18447 -0.0275,-0.055 -0.01492,-0.12482 0,-0.18447 0.255061,-1.02025 0.417803,-3.4955 1.66025,-4.42733 1.216895,-0.91267 5.199631,-1.88503 5.718632,-2.02919 0.790459,-0.21958 1.609315,-0.32804 2.398136,-0.55342 0.16723,-0.0478 0.196366,-0.34737 0.368946,-0.36895 0.427111,-0.0534 0.860869,0 1.291304,0 1.678085,0 3.384373,0.009 4.980744,-0.73788 1.540351,-0.72102 2.557608,-2.24352 3.873913,-3.3205 0.04759,-0.0389 0.176845,0.061 0.184473,0 0.06102,-0.48813 0.170852,-1.01447 0,-1.47578 -0.458545,-1.23807 -1.189689,-2.35866 -1.84472,-3.50497 -0.08629,-0.151 -0.245962,-0.24596 -0.368946,-0.36894 -0.06149,-0.0615 -0.152175,-0.10373 -0.18447,-0.18447 -0.09416,-0.2354 -0.01752,-0.54709 -0.184473,-0.73789 -0.291991,-0.33371 -0.754602,-0.46853 -1.106831,-0.73789 -0.694227,-0.53088 -1.390291,-1.06394 -2.029193,-1.66025 -0.28784,-0.26865 -0.485828,-0.61988 -0.737889,-0.92236 -0.304098,-0.36492 -1.111305,-0.73341 -0.368945,-1.47577 0.347845,-0.34785 0.985872,0.0445 1.475777,0 0.193654,-0.0176 0.366448,-0.13106 0.553416,-0.18448 0.243779,-0.0696 0.491095,-0.1264 0.737888,-0.18447 0.798581,-0.1879 1.615829,-0.30637 2.398138,-0.55342 0.393346,-0.12421 0.737889,-0.36894 1.106832,-0.55341 1.263356,-0.63168 1.231474,-0.56712 2.767081,-2.58261 0.661368,-0.86805 0.553416,-1.47451 0.553416,-2.39813 0,-0.12299 0,-0.24597 0,-0.36895 0,-0.18447 0.07095,-0.38313 0,-0.55342 -0.966145,-2.31874 -0.939575,-1.13879 -2.213666,-3.50496 -0.08746,-0.16243 0,-0.36895 0,-0.55342 0,-0.30745 -0.08834,-0.62787 0,-0.92236 0.134252,-0.44751 1.01218,-1.53458 1.291304,-1.84472 0.29087,-0.32319 0.592233,-0.63939 0.922362,-0.92236 0.104396,-0.0895 0.231481,-0.18135 0.368943,-0.18447 2.581941,-0.0587 5.165219,0 7.747828,0 0.18447,0 0.378409,-0.0583 0.553415,0 0.05834,0.0194 -0.02101,0.12668 0,0.18447 0.226328,0.6224 0.59422,1.19821 0.737889,1.84472 0.106712,0.48021 0,0.98385 0,1.47578 0,0.79937 0.05695,1.60079 0,2.39813 -0.0062,0.0867 -0.132297,0.1149 -0.184473,0.18447 -0.133024,0.17737 -0.245962,0.36895 -0.368945,0.55342 -0.505378,0.75807 -0.368943,0.33171 -0.368943,1.2913 0,0.0615 -0.05004,0.14874 0,0.18448 1.183126,0.84509 3.459522,1.69108 4.611801,1.84472 1.645684,0.21942 3.320497,0 4.980744,0 0.922361,0 1.846141,-0.0512 2.767081,0 0.194152,0.0108 0.41592,0.047 0.553416,0.18447 0.08696,0.087 0,0.24596 0,0.36894 0,0.24597 0,0.49193 0,0.73789 0,0.49193 0.151024,1.00761 0,1.47578 -0.473453,1.4677 -1.202163,2.84091 -1.84472,4.24286 -0.03623,0.079 -0.145582,0.10669 -0.184473,0.18447 -0.0275,0.055 0.05273,0.15283 0,0.18447 -0.589513,0.35371 -1.307883,0.49289 -1.84472,0.92236 -0.413049,0.33044 -0.642008,0.84274 -0.922358,1.2913 -0.03259,0.0522 -0.0571,0.16164 0,0.18447 0.291115,0.11645 0.616283,0.11646 0.922358,0.18448 0.247497,0.055 0.491927,0.12298 0.737889,0.18447 0.676397,0.0615 1.360961,0.063 2.029193,0.18447 1.364916,0.24817 2.716016,0.57218 4.058385,0.92236 0.873818,0.22795 -0.359185,0.18447 0.368943,0.18447 0.122981,0 0.281985,-0.087 0.368946,0 0.08696,0.087 0,0.24597 0,0.36895 0,0.49192 0,0.98385 0,1.47577 0,0.24597 0,0.49193 0,0.73789 0,0.55342 0.08415,1.11327 0,1.66025 -0.04181,0.2718 -0.219295,0.50718 -0.368946,0.73789 -1.327166,2.04605 -2.75609,4.02561 -4.058383,6.08758 -0.391782,0.62032 -0.368945,0.65791 -0.368945,1.10683 0,0.0615 0,0.12298 0,0.18447 0,0.0615 -0.05877,0.16639 0,0.18447 2.697342,0.82995 2.925577,0.55342 6.087578,0.55342 1.026893,0 0.12913,-0.11068 1.291304,0.55342 0.168831,0.0965 0.375724,0.10549 0.553416,0.18447 0.376941,0.16753 0.737888,0.36894 1.106831,0.55341 0.122981,0.0615 0.307454,0.0615 0.368946,0.18448 0.0825,0.16499 0,0.36894 0,0.55341 0,0.12298 0,0.24596 0,0.36895 0,0.24596 0,0.49192 0,0.73788 0,0.12298 0.04929,0.25628 0,0.36895 -0.385781,0.88178 -0.86087,1.72174 -1.291304,2.58261 -0.122981,0.24596 -0.245965,0.49192 -0.368946,0.73789 -0.122981,0.24596 -0.289925,0.47449 -0.368943,0.73788 -0.107479,0.35826 -0.09376,0.74397 -0.184473,1.10684 -0.04125,0.165 -0.361765,0.51224 -0.184473,0.73788 1.202614,1.5306 1.886543,2.32681 3.50497,3.13603 1.206222,0.60311 2.471846,1.08044 3.68944,1.66025 0.07852,0.0374 0.156975,0.10197 0.184473,0.18447 0.03889,0.11667 -0.04318,0.25379 0,0.36894 0.501592,1.33758 1.078426,1.34127 0.922361,3.13603 -0.189161,2.17536 -0.739346,4.3041 -1.106834,6.45652 -0.06295,0.3687 -0.03256,0.76504 -0.18447,1.10683 -0.275497,0.61987 -1.220687,0.79286 -1.66025,1.10684 -0.111884,0.0799 -0.108201,0.25453 -0.18447,0.36894 -0.170545,0.25582 -0.374713,0.4877 -0.553418,0.73789 -0.128863,0.18041 -0.220628,0.38862 -0.368943,0.55341 -0.407218,0.45247 -0.884087,0.83884 -1.291304,1.29131 -0.148315,0.16479 -0.245962,0.36894 -0.368946,0.55341 -0.614905,0.55342 -1.232588,1.10377 -1.84472,1.66025 -0.06434,0.0585 -0.100108,0.16338 -0.18447,0.18447 -0.178964,0.0447 -0.368946,0 -0.553419,0 -0.799377,0 -1.604232,0.0934 -2.398135,0 -0.273111,-0.0321 -0.474491,-0.28992 -0.737889,-0.36894 -0.358259,-0.10748 -0.743966,-0.0938 -1.106831,-0.18447 -0.119309,-0.0298 0.253793,0.0432 0.368943,0 0.386228,-0.14484 0.732306,-0.38056 1.106834,-0.55342 0.572503,-0.26423 1.506315,-0.73789 2.213663,-0.73789 0.06149,0 0.04348,0.14099 0,0.18448 -0.217403,0.2174 -0.501695,0.35658 -0.737889,0.55341 -0.133609,0.11134 -0.224231,0.27247 -0.368943,0.36895 -0.05116,0.0341 -0.124817,-0.0149 -0.184472,0 -0.188646,0.0472 -0.366448,0.13105 -0.553416,0.18447 -0.243777,0.0696 -0.491927,0.12298 -0.737889,0.18447 z"
       id="path2" />
    <path
       style="fill:none;stroke:#000000;stroke-width:0.264583px;stroke-linecap:butt;stroke-linejoin:miter;stroke-opacity:1"
       d="m 110.68548,175.3556 c 0.24509,-0.35385 0.66417,-0.63702 0.73526,-1.06155 0.13005,-0.77664 -0.1696,-1.56933 -0.16284,-2.35677 0.0702,-1.07335 0.14046,-2.14671 0.21069,-3.22006 -0.0661,-0.12058 -0.17366,-0.22648 -0.19827,-0.36172 -0.011,-0.0605 0.0861,-0.0932 0.10504,-0.15164 0.18034,-0.55478 0.38976,-1.10534 0.49037,-1.67995 0.20402,-1.16507 0.22366,-2.3571 0.42077,-3.52336 0.16554,-0.97952 0.4629,-1.93244 0.66563,-2.90494 0.15163,-0.72737 0.20417,-1.47583 0.39715,-2.19333 0.048,-0.17811 0.26339,-0.27788 0.3151,-0.45494 0.0172,-0.059 -0.1011,-0.07 -0.15165,-0.10504 0.179,-0.47443 0.31331,-0.96821 0.53699,-1.42327 0.32664,-0.66451 0.73511,-1.28558 1.10878,-1.92482 0.0308,-0.0532 0.0788,-0.096 0.10504,-0.15165 0.71822,-1.52321 0.74474,-2.2339 1.7626,-4.16476 0.40145,-0.76153 0.98034,-1.41539 1.4705,-2.12309 0.83527,-1.20595 1.55674,-2.23707 2.56746,-3.38289 0.12862,-0.14583 0.32684,-0.21488 0.46676,-0.34992 0.0885,-0.0854 0.12929,-0.21055 0.21007,-0.30329 0.28552,-0.32793 0.57404,-0.65457 0.8869,-0.95652 0.1971,-0.19025 3.23023,-2.94914 3.53579,-3.16101 0.25265,-0.17518 0.62096,-0.11843 0.87508,-0.29149 0.46858,-0.31911 0.84766,-0.75398 1.24862,-1.15476 0.087,-0.087 0.14005,-0.2022 0.21007,-0.3033 0.17506,-0.25275 0.35012,-0.5055 0.52518,-0.75824 0.035,-0.0506 0.0499,-0.12449 0.10503,-0.15165 2.50239,-1.2334 0.6518,-0.38353 2.77692,-0.76944 0.0605,-0.011 0.0558,-0.1148 0.10504,-0.15165 0.11003,-0.0825 0.23174,-0.15341 0.36172,-0.19827 0.95335,-0.32898 1.90502,-0.67064 2.88195,-0.92108 0.21476,-0.055 0.45467,0.0819 0.66502,0.0118 0.1167,-0.0389 0.11764,-0.22218 0.21007,-0.3033 0.29235,-0.25646 0.58263,-0.5321 0.93351,-0.69983 0.12404,-0.0593 0.28051,0.10902 0.40833,0.0584 0.11433,-0.0453 0.0901,-0.2765 0.21007,-0.3033 0.97696,-0.21807 1.98473,-0.26291 2.97519,-0.40771 0.25814,-0.0377 0.50949,-0.12682 0.77006,-0.13984 0.74964,-0.0375 1.50242,0.0325 2.25173,-0.0112 1.04537,-0.061 2.08455,-0.20179 3.12683,-0.30269 1.04228,-0.10088 2.08218,-0.23049 3.12683,-0.30267 0.13718,-0.009 0.27303,0.083 0.40833,0.0584 0.0605,-0.011 0.0435,-0.15276 0.10504,-0.15165 1.23822,0.022 -0.21831,0.44498 1.37666,0.2803 0.30582,-0.0316 0.58485,-0.19005 0.87508,-0.29149 1.80314,-0.63022 1.11299,-0.45729 2.88195,-0.92108 0.54839,-0.14378 1.12491,-0.16643 1.69177,-0.17465 0.12297,-0.002 0.18341,0.18262 0.30329,0.21007 0.59032,0.13526 1.18802,0.23679 1.78498,0.33873 0.40661,0.0694 0.82904,0.0597 1.22501,0.17526 0.059,0.0172 -0.0922,0.0915 -0.10504,0.15165 -0.15559,0.72653 -0.24155,1.4668 -0.39715,2.19332 -0.0129,0.0602 -0.11604,0.0911 -0.10503,0.15165 0.011,0.0605 0.1221,0.0511 0.15165,0.10504 0.0418,0.0763 0.0311,0.17112 0.0466,0.25668 0.0155,0.0856 0.0812,0.17688 0.0466,0.25668 -0.99386,2.29696 0.0811,-1.274 -0.53699,1.42327 -0.0138,0.0599 -0.0963,0.0908 -0.10504,0.15165 -0.0123,0.0861 0.0311,0.17112 0.0466,0.25668 0.1363,0.75062 0.45503,1.58231 0.16283,2.35678 -0.35335,0.93655 -0.79604,1.83736 -1.22562,2.74149 -1.04128,2.19156 -2.00518,4.42518 -3.1865,6.54454 -1.28872,2.31205 -2.79426,4.49649 -4.21322,6.73099 -2.68033,4.22078 -2.28759,3.62678 -4.04977,6.17099 -0.73525,1.06155 -1.4705,2.12309 -2.20575,3.18464 -0.14005,0.2022 -0.28009,0.40439 -0.42014,0.60659 -0.035,0.0505 -0.0511,0.12209 -0.10503,0.15164 -0.0763,0.0418 -0.17513,0.0164 -0.25669,0.0466 -0.62381,0.23075 -1.25258,0.45314 -1.85522,0.73461 -1.92121,0.89737 0.50161,-0.10951 -0.67682,0.65322 -0.8545,0.55306 -1.76323,1.01757 -2.63707,1.53949 -1.03987,0.62108 -2.05309,1.28691 -3.10384,1.8894 -0.19232,0.11029 -0.43622,0.11855 -0.61841,0.24488 -3.26013,2.2605 -0.83885,0.85053 -4.06097,3.91926 -3.75205,3.57345 -0.65709,0.53155 -2.48542,1.64452 -0.33219,0.20221 -0.63276,0.45325 -0.93351,0.69983 -0.31386,0.25733 0.24078,0.13854 -0.46675,0.34991 -0.62631,0.1871 -1.28168,0.27137 -1.90184,0.47795 -3.26094,1.0862 6.00121,-0.14625 -4.2586,0.64078 -0.0867,0.007 -0.18043,0.005 -0.25669,0.0466 -0.0539,0.0296 -0.046,0.16886 -0.10503,0.15164 -1.73468,-0.50634 -0.26237,-0.58896 -2.23993,-0.65382 -1.85801,-0.061 -3.71783,-0.0475 -5.57683,-0.0479 -0.087,-2e-5 -0.18043,0.005 -0.25668,0.0466 -0.0539,0.0296 -0.0442,0.16036 -0.10504,0.15165 -0.12175,-0.0174 -0.20221,-0.14005 -0.3033,-0.21007 -0.4044,-0.28009 -0.8088,-0.56019 -1.21319,-0.84028 -0.30331,-0.21008 -0.60661,-0.42015 -0.9099,-0.63022 -0.15165,-0.10504 -0.34428,-0.16754 -0.45495,-0.3151 -0.0368,-0.0492 0.049,-0.1263 0.10504,-0.15166 0.28015,-0.12666 0.58339,-0.19432 0.87508,-0.29149 z"
       id="path1-0" />
    <path
       style="fill:none;stroke:#000000;stroke-width:0.264583px;stroke-linecap:butt;stroke-linejoin:miter;stroke-opacity:1"
       d="m 90.643329,206.68972 c 0.173778,0.25363 0.291208,0.557 0.521337,0.76089 1.52542,1.35177 0.198179,0.0735 0.769343,0.14373 1.338519,0.1645 2.660334,0.44991 3.998861,0.6144 0.06104,0.008 0.09282,-0.12045 0.152177,-0.10426 1.519703,0.4134 3.009415,0.93039 4.520203,1.37529 0.54382,0.16014 1.09382,0.29868 1.64294,0.43963 0.0842,0.0216 0.17284,0.0719 0.25645,0.0479 0.11823,-0.0339 0.18612,-0.17468 0.30435,-0.20853 1.28881,-0.36914 0.43399,0.14988 1.12161,-0.32126 0.65943,-0.45182 1.31887,-0.90364 1.97831,-1.35547 0.0507,-0.0348 0.15298,-0.0428 0.15218,-0.10427 -0.002,-0.19443 -0.22572,-0.37756 -0.16063,-0.5608 0.23012,-0.64783 0.70083,-1.18481 1.00046,-1.80357 0.13399,-0.27672 0.16783,-0.59409 0.29591,-0.8736 0.0256,-0.0559 0.10146,-0.0695 0.15218,-0.10427 0.25363,-0.17377 0.45347,-0.52563 0.76089,-0.52133 1.04343,0.0146 2.05936,0.34545 3.07735,0.57493 4.05083,0.91315 3.08957,-0.06 4.42438,1.88818 0.20853,0.30435 0.70019,0.55174 0.6256,0.91307 -0.41769,2.02346 -1.38136,3.89497 -2.02347,5.85879 -0.0811,0.24796 -0.0958,0.51288 -0.14373,0.76933 -0.016,0.0855 -0.0718,0.17285 -0.0479,0.25645 0.0339,0.11823 0.0944,0.25848 0.20854,0.30435 0.1276,0.0513 0.2732,-0.0325 0.40861,-0.0564 0.59647,-0.10488 1.21267,-0.1366 1.78668,-0.32969 7.12566,-2.39686 14.32126,-4.62203 21.2936,-7.43384 2.57638,-1.039 4.78958,-2.82273 7.26509,-4.08332 0.12254,-0.0624 0.23314,0.14882 0.36072,0.20009 0.0807,0.0325 0.1804,0.006 0.25645,0.0479 0.0538,0.0298 0.0829,0.0945 0.10426,0.15218 0.36626,0.98581 1.63107,3.11973 1.13281,4.59069 -0.488,1.44071 -3.22392,4.49397 -3.57059,4.90625 -0.52796,0.62792 -1.14217,1.18023 -1.66551,1.81201 -0.11093,0.13395 0.0344,0.39755 -0.0958,0.5129 -0.32216,0.28546 -0.71017,0.48658 -1.06525,0.72987 -1.38432,0.94849 -2.79698,1.90549 -3.69175,3.42392 -0.86316,1.46544 -0.84178,3.29638 -1.31893,4.92883 -0.0173,0.059 -0.18036,0.0496 -0.15217,0.10427 0.22557,0.43715 0.43245,0.93344 0.83414,1.21743 1.07805,0.76215 2.31458,1.27331 3.50286,1.84871 0.15654,0.0758 0.34192,0.0639 0.51289,0.0958 0.0855,0.016 0.18417,-4.4e-4 0.25644,0.0479 0.21076,0.14095 0.32366,0.44143 0.56925,0.50445 0.4295,0.11025 0.88733,-0.04 1.33014,-0.0169 0.87276,0.0456 1.74827,0.0919 2.61237,0.22267 0.3893,0.0589 0.75115,0.23676 1.13005,0.34382 0.45713,0.12915 1.3313,-0.0231 1.13849,1.00889 -0.0903,0.48356 -0.83844,0.52052 -1.21742,0.83413 -0.14981,0.12398 -0.22822,0.31524 -0.35227,0.46499 -0.16176,0.19521 -0.33367,0.38185 -0.50445,0.56925 -0.55257,0.60638 -1.15978,1.16603 -1.66551,1.81201 -0.25428,0.32479 -0.40018,0.72142 -0.60027,1.08214 -0.68515,1.23517 -0.69534,1.16389 -0.82293,3.69451 -0.055,1.0899 0.37689,1.52918 0.89894,2.29111 0.0695,0.10146 0.13903,0.20291 0.20854,0.30436 0.10426,0.15218 0.15806,0.35613 0.3128,0.45654 2.10761,1.36674 1.41876,0.40837 3.80721,1.64017 0.16399,0.0845 0.20854,0.30436 0.31281,0.45654 0.17377,0.25363 0.42772,0.46805 0.52133,0.76089 0.1422,0.44505 0.0324,1.83804 -0.0226,2.25165 -0.0573,0.43102 -0.12716,0.8622 -0.23955,1.28223 -0.0355,0.13284 -0.0885,0.28044 -0.2001,0.36072 -2.09677,1.50779 -4.26099,2.91949 -6.39148,4.37922 -0.15218,0.10427 -0.27922,0.26198 -0.45654,0.31281 -0.0591,0.0169 -0.0543,-0.11637 -0.10427,-0.15218 -0.5385,-0.38551 -1.16745,-0.65258 -1.65139,-1.10471 -0.35945,-0.33583 -0.55609,-0.81162 -0.83414,-1.21743 -0.45182,-0.65943 -0.95182,-1.28834 -1.35547,-1.97831 -0.0441,-0.0749 0.0442,-0.16957 0.0479,-0.25645 0.009,-0.22151 -0.006,-0.44339 -0.008,-0.66507 -0.0116,-0.91102 0.11686,-0.48218 -0.42552,-1.27378 -0.0348,-0.0507 -0.0428,-0.15096 -0.10427,-0.15219 -1.45367,-0.0284 -3.80973,0.56036 -4.84713,1.08491 -1.48161,0.74916 -2.73921,1.8768 -4.10881,2.81521 -0.76089,0.52134 -1.49402,1.08571 -2.28268,1.56401 -0.16627,0.10084 -0.36967,0.19632 -0.5608,0.16063 -0.12095,-0.0226 -0.13902,-0.2029 -0.20853,-0.30435 -0.13903,-0.20291 -0.27805,-0.40582 -0.41707,-0.60872 -0.27805,-0.40581 -0.69411,-0.74586 -0.83415,-1.21743 -0.439,-1.47837 -0.61403,-3.02306 -0.87636,-4.54278 -0.0148,-0.0856 0.0598,-0.17029 0.0479,-0.25644 -0.008,-0.0609 -0.12986,-0.0963 -0.10427,-0.15218 0.28639,-0.62499 0.80034,-1.14585 1.00045,-1.80356 0.15397,-0.50606 0.0533,-1.05809 0.031,-1.58658 -0.003,-0.0615 -0.0443,-0.16562 -0.10427,-0.15218 -0.30597,0.0685 -0.57422,0.25226 -0.86516,0.36915 -0.23525,0.0945 -0.47532,0.17659 -0.71298,0.2649 -0.59274,0.33157 -1.15832,0.71727 -1.77823,0.99476 -1.26624,0.56675 -2.56395,1.06313 -3.86925,1.53299 -0.8497,0.30585 0.19203,-0.3552 -0.40863,0.0564 -0.10145,0.0695 -0.18344,0.23115 -0.30436,0.20853 -0.12094,-0.0226 -0.13902,-0.20291 -0.20853,-0.30436 -0.27805,-0.40581 -0.5561,-0.81162 -0.83414,-1.21742 -0.13903,-0.20291 -0.27805,-0.40582 -0.41707,-0.60872 -0.3128,-0.45654 -0.69862,-0.87084 -0.93841,-1.3696 -0.11914,-0.24785 -0.10576,-0.54234 -0.11271,-0.81725 -0.0616,-2.43801 -0.002,-4.87869 -0.0929,-7.31577 -0.0274,-0.73317 -0.0675,-0.75127 -0.32125,-1.1216 -0.0348,-0.0507 -0.0695,-0.10146 -0.10427,-0.15218 -0.0348,-0.0507 -0.0455,-0.1705 -0.10426,-0.15218 -2.69425,0.83993 -2.72623,1.19706 -5.33469,2.98429 -0.84713,0.58042 -0.044,0.16429 -1.37805,0.27333 -0.19382,0.0158 -0.36958,0.12534 -0.56081,0.16063 -0.40564,0.0748 -0.81724,0.11271 -1.22587,0.16907 -0.13621,0.0188 -0.28838,0.12304 -0.40862,0.0563 -0.16131,-0.0895 -0.20853,-0.30436 -0.3128,-0.45653 -0.0695,-0.10145 -0.13902,-0.2029 -0.20854,-0.30436 -0.13902,-0.20291 -0.27804,-0.40581 -0.41706,-0.60871 -0.0695,-0.10145 -0.18553,-0.18355 -0.20854,-0.30436 -0.18015,-0.94547 -0.263,-1.90692 -0.3945,-2.86037 -0.0376,-0.27241 -0.0751,-0.54483 -0.11271,-0.81725 -0.0376,-0.27242 -0.029,-0.5553 -0.11271,-0.81724 -0.11383,-0.35629 -0.34313,-0.66675 -0.47343,-1.01734 -0.0593,-0.15941 0.009,-0.62705 -0.26488,-0.71298 -1.857217,-0.58291 -2.871452,-0.85316 -4.663939,-0.60596 -1.335958,0.18426 -2.649815,0.50584 -3.981974,0.71574 -0.0859,0.0135 -0.187134,0.005 -0.256451,-0.0479 -0.09803,-0.0743 -0.10781,-0.23378 -0.208532,-0.30436 -1.16981,-0.81991 -1.647745,-0.49692 -2.53344,-2.0657 -1.073512,-1.90145 -1.822846,-3.96852 -2.736281,-5.95185 -0.156425,-0.33976 -0.405523,-0.64953 -0.473426,-1.01733 -0.123101,-0.66707 0.558847,-1.34402 0.743998,-1.85148 0.04713,-0.12915 -0.05461,-0.27113 -0.05636,-0.40862 -0.0039,-0.30743 0.03346,-0.61412 0.03946,-0.92152 0.0043,-0.22166 -0.03765,-0.44529 -0.0084,-0.66506 0.08019,-0.60343 0.255184,-1.1917 0.335371,-1.79513 0.02921,-0.21977 -0.0056,-0.44337 -0.0084,-0.66507 0.194452,-0.80409 0.39294,-1.60722 0.583376,-2.41228 0.01998,-0.0846 -0.0098,-0.19135 0.04791,-0.25644 0.122366,-0.13802 0.304353,-0.20853 0.456538,-0.3128 0.659432,-0.45182 1.270602,-0.9838 1.978313,-1.35547 0.243443,-0.12789 0.555295,-0.029 0.817247,-0.11272 0.356293,-0.11383 0.666749,-0.34313 1.017335,-0.47343 0.115267,-0.0428 -0.233779,0.10781 -0.304353,0.20853 -0.23675,0.33779 -0.389012,0.72786 -0.600273,1.08215 -0.322929,0.54156 -0.825544,1.46011 -1.409066,1.85992 -0.05073,0.0348 -0.115575,-0.0917 -0.104271,-0.15218 0.05646,-0.30222 0.212326,-0.57773 0.295916,-0.8736 0.04729,-0.16737 0.03097,-0.35151 0.09582,-0.5129 0.02296,-0.0571 0.111391,-0.0583 0.152177,-0.10426 0.128946,-0.14557 0.228227,-0.31524 0.352272,-0.46498 0.161764,-0.19521 0.336302,-0.3795 0.504448,-0.56925 z"
       id="path2-1" />
    <path
       style="fill:#008000;stroke:#654321;stroke-width:1.39443;stroke-linejoin:round"
       d="m 314.45269,725.79455 c 3.31024,-3.65777 1.89892,-4.86918 -3.48579,-2.99206 -3.49247,1.21748 -4.46733,1.11504 -5.1009,-0.536 -0.43078,-1.12261 -1.50048,-2.05811 -2.3771,-2.07886 -2.19886,-0.0521 -10.14621,-7.66136 -17.50495,-16.76038 -3.38252,-4.18246 -7.37389,-8.70261 -8.86969,-10.04475 -4.21719,-3.78396 -14.20087,-3.17992 -22.92343,1.38692 l -7.30982,3.82718 -9.09688,-9.01602 c -7.42445,-7.35846 -9.09689,-9.83605 -9.09689,-13.47635 0,-3.9195 1.19189,-5.32723 9.83002,-11.61006 10.17577,-7.40124 12.48487,-10.36106 10.0122,-12.83373 -1.49436,-1.49436 -41.40338,-13.29734 -70.73908,-20.92088 -9.20326,-2.39168 -24.26315,-5.05144 -33.46642,-5.91058 -18.72736,-1.74821 -18.16035,-1.22989 -14.4052,-13.16872 1.66775,-5.30231 6.81027,-8.10461 22.07459,-12.02903 4.9851,-1.28166 10.15342,-2.90959 11.48516,-3.61763 1.33174,-0.70803 6.21498,-1.28733 10.85166,-1.28733 10.43871,0 16.12067,-2.29975 24.29253,-9.8323 4.51091,-4.15802 6.35916,-6.94842 6.35916,-9.6008 0,-4.31911 -8.39231,-19.11889 -12.94417,-22.82697 -5.67315,-4.62151 -13.55009,-12.47144 -13.55009,-13.50363 0,-0.5608 2.98061,-1.39954 6.62357,-1.86385 12.35141,-1.57423 17.58941,-3.82201 23.70538,-10.17268 5.46544,-5.67517 5.92635,-6.73342 5.92635,-13.60693 0,-6.18189 -0.71354,-8.35103 -4.18331,-12.71716 -5.27241,-6.63447 -5.24866,-9.14784 0.14446,-15.29026 l 4.32775,-4.92904 h 15.14527 c 17.88163,0 18.76435,0.69206 17.50391,13.72345 -1.86312,19.26255 -2.46385,17.22446 6.10608,20.71597 6.41044,2.61171 10.35896,3.13166 24.05399,3.16747 l 16.38461,0.0428 -0.1068,4.53191 c -0.16991,7.20932 -6.88254,19.99532 -12.44311,23.70125 -2.72618,1.8169 -4.88052,4.4231 -4.88052,5.90417 0,2.25242 1.99368,3.00999 13.24712,5.03369 18.46541,3.32064 18.12765,3.1118 18.12765,11.2089 0,6.116 -0.97602,8.3136 -9.06382,20.40807 -12.806,19.15002 -12.26287,21.18526 5.66443,21.22564 10.93186,0.0246 20.1326,4.13321 20.1326,8.9902 0,1.83059 -1.88198,7.30653 -4.1822,12.16875 -2.30022,4.86224 -4.1827,10.49303 -4.1833,12.51286 -10e-4,4.92361 8.29963,12.30813 18.66556,16.60457 6.4356,2.66741 8.43802,4.28172 10.02628,8.08293 2.54214,6.08421 2.49753,9.45107 -0.31712,23.93136 -1.89385,9.74306 -3.07296,12.61348 -6.62465,16.12708 -2.37641,2.35091 -7.71064,7.8415 -11.85384,12.2013 -5.2471,5.52141 -8.59214,7.92691 -11.02299,7.92691 -3.40511,0 -3.4284,-0.0679 -0.95826,-2.79742 z"
       id="path3"
       transform="scale(0.26458333)" />
    <path
       style="fill:#008000;stroke:#654321;stroke-width:1.39443;stroke-linejoin:round"
       d="m 376.96028,530.35685 c 0.8544,-3.26726 -0.75755,-7.23447 -4.72437,-11.62726 -3.4438,-3.81359 -15.33777,-26.93609 -21.21228,-41.23777 -6.26767,-15.25884 -8.68999,-29.80651 -8.68999,-52.18933 0,-18.22108 2.61635,-33.6941 7.17423,-42.42827 1.02983,-1.97344 1.87628,-5.54224 1.88101,-7.93068 0.006,-3.1562 2.20033,-7.15633 8.03094,-14.64156 4.41229,-5.66442 8.95504,-12.10724 10.09501,-14.31739 1.13996,-2.21014 4.90297,-6.44434 8.36225,-9.40934 13.79296,-11.82216 30.5688,-24.91916 31.91875,-24.91916 0.78559,0 3.27431,-2.66686 5.53049,-5.92635 5.3845,-7.77893 9.62054,-11.46234 15.41338,-13.40257 2.607,-0.87318 4.99482,-1.5876 5.30627,-1.5876 0.31146,0 2.12475,3.29435 4.02954,7.32078 1.90479,4.02643 4.8038,9.02962 6.44225,11.11821 5.37958,6.85753 9.23472,36.44113 10.33974,79.34496 0.94156,36.5579 0.91016,37.19072 -2.05228,41.35108 -1.65466,2.32376 -3.00848,4.86824 -3.00848,5.65439 0,0.78617 -2.8653,7.59175 -6.36734,15.12352 -4.42326,9.51306 -7.02113,17.52588 -8.50866,26.24405 -1.17773,6.90245 -3.01864,13.54056 -4.09092,14.75136 -1.07227,1.2108 -1.94959,3.00271 -1.94959,3.982 0,0.97931 -1.50872,3.57358 -3.35271,5.76504 -1.84399,2.19145 -3.56961,4.48902 -3.8347,5.10568 -0.96412,2.24281 -13.37522,11.53174 -15.40773,11.53174 -1.14874,0 -6.89861,3.45122 -12.7775,7.66939 -7.4546,5.34875 -11.99707,7.66938 -15.01224,7.66938 -3.7446,0 -4.21781,-0.4035 -3.53507,-3.0143 z"
       id="path4"
       transform="scale(0.26458333)" />
    <path
       style="fill:#008000;stroke:#654321;stroke-width:1.39443;stroke-linejoin:round"
       d=""
       id="path5"
       transform="scale(0.26458333)" />
    <path
       style="fill:#008000;stroke:#654321;stroke-width:1.39443;stroke-linejoin:round"
       d="m 528.40323,949.91409 c -4.02363,-3.13663 -9.67364,-12.76972 -9.67364,-16.49322 0,-5.71687 -2.64847,-7.0381 -10.95173,-5.46342 -8.80004,1.6689 -13.54655,4.03392 -25.63082,12.77091 -5.16508,3.73439 -9.89288,6.78981 -10.50621,6.78981 -2.13699,0 -5.97568,-8.26522 -7.38866,-15.90874 -1.15694,-6.25839 -1.02042,-8.47568 0.7302,-11.86103 2.73211,-5.28332 2.81991,-11.27439 0.16523,-11.27439 -1.09336,0 -7.17825,2.50998 -13.52198,5.57773 -6.34372,3.06776 -12.66142,5.57774 -14.03932,5.57774 -1.3779,0 -4.3917,-2.60413 -6.69733,-5.78696 -4.08229,-5.63544 -4.19261,-6.21045 -4.2134,-21.96234 -0.0117,-8.89646 -0.56085,-17.02683 -1.22024,-18.06748 -1.84031,-2.90439 -8.59533,-0.79933 -17.53884,5.46562 -5.70886,3.99907 -9.24472,5.4903 -13.01805,5.4903 -6.48674,0 -8.22032,-2.53333 -9.91306,-14.48628 -1.4462,-10.21201 -3.25426,-14.31299 -6.74357,-15.29552 -7.42298,-2.09017 -12.07331,-2.27295 -20.49893,-0.8057 -8.25263,1.43714 -9.88418,1.33969 -13.91503,-0.83106 -5.48075,-2.95158 -6.3403,-4.25351 -13.40064,-20.29763 -3.95483,-8.98707 -5.14739,-13.17735 -4.24199,-14.90501 0.69272,-1.32181 1.93227,-8.02612 2.75455,-14.89846 1.26182,-10.5459 2.06336,-13.04752 5.13803,-16.03599 l 3.64298,-3.54084 -0.94184,4.53191 c -1.12364,5.40669 0.76699,5.92933 4.46098,1.23318 2.30604,-2.93166 3.47848,-3.23388 10.5364,-2.71602 4.3679,0.32049 11.24636,1.49922 15.28547,2.6194 19.62751,5.44337 21.8451,5.64505 27.34133,2.48656 3.56453,-2.04841 6.25084,-5.29521 8.913,-10.77271 4.53997,-9.34113 3.56591,-9.18602 27.04439,-4.30653 1.63151,0.33907 4.0306,2.24071 5.33132,4.22586 2.27305,3.46911 2.19842,4.09415 -1.92054,16.08429 -2.35703,6.8612 -4.2855,13.08805 -4.2855,13.83744 0,2.8405 8.07183,1.09578 33.26216,-7.18955 39.64495,-13.0396 61.08989,-21.50257 73.94593,-29.18181 6.42913,-3.84029 11.83991,-6.80424 12.02396,-6.58657 0.18405,0.21767 1.35568,2.40397 2.60362,4.85843 3.53163,6.94601 2.83039,12.86193 -2.29784,19.38593 -11.60181,14.75949 -16.91025,20.8945 -19.65027,22.71005 -5.14165,3.40686 -12.20346,10.47347 -14.08967,14.09926 -0.99744,1.91734 -2.56697,7.14161 -3.48786,11.60947 -1.51004,7.3264 -1.42306,8.40733 0.88668,11.01751 3.67241,4.15009 19.05197,10.83944 24.92107,10.83944 6.39375,0 17.38132,2.74912 17.38132,4.34884 0,0.6759 -0.6022,1.2289 -1.33823,1.2289 -2.13329,0 -11.61601,10.7141 -15.04638,17.0002 -3.9954,7.32152 -4.13275,16.61831 -0.33628,22.76113 2.60757,4.21912 5.71607,6.1268 13.62056,8.35893 5.08519,1.43598 7.51698,6.40399 6.43788,13.15229 -0.87651,5.48135 -1.70701,6.36722 -13.23834,14.12088 -6.76675,4.54995 -12.79787,8.25268 -13.4025,8.22829 -0.60462,-0.0244 -2.07989,-0.80877 -3.27837,-1.74304 z"
       id="path6"
       transform="scale(0.26458333)" />
    <path
       style="fill:#008000;stroke:#654321;stroke-width:1.39443;stroke-linejoin:round"
       d="m 439.46981,670.37868 c -16.99914,-0.53443 -22.33847,-2.70874 -19.15561,-7.80067 1.14702,-1.83501 1.91651,-7.36645 1.97066,-14.16602 0.0916,-11.50644 2.58831,-29.47117 6.29829,-45.31912 3.01179,-12.86549 15.00947,-37.61517 24.07062,-49.65462 7.44295,-9.88936 23.79952,-25.64483 26.62324,-25.64483 0.75566,0 3.94376,-2.82373 7.08465,-6.27496 3.14089,-3.45122 6.70842,-6.27495 7.92784,-6.27495 3.17048,0 18.83488,-5.23158 23.53192,-7.85916 3.78568,-2.11776 13.25445,-3.25664 45.53007,-5.47626 7.28592,-0.50106 16.06558,-1.82831 19.51033,-2.94944 4.34337,-1.4136 8.75931,-1.74872 14.40645,-1.0933 7.96498,0.92443 8.12221,1.02578 7.18255,4.62973 -0.5284,2.02653 -1.20753,8.30645 -1.50917,13.95536 -0.49901,9.3448 -1.41729,12.04769 -10.18552,29.98034 -5.8168,11.89642 -17.14759,31.04146 -28.58317,48.29549 -15.91062,24.00595 -19.78415,28.97158 -24.17674,30.99313 -13.00354,5.98444 -33.68938,20.02144 -41.82996,28.38495 -4.79085,4.92206 -9.5771,8.9492 -10.63612,8.9492 -1.05902,0 -2.68238,0.91201 -3.60747,2.02666 -2.48434,2.99346 -15.53356,6.38284 -23.27672,6.04586 -3.71665,-0.16174 -13.24592,-0.49806 -21.17614,-0.74739 z"
       id="path7"
       transform="scale(0.26458333)" />
    <path
       style="fill:none;stroke:#000000;stroke-width:0.264583px;stroke-linecap:butt;stroke-linejoin:miter;stroke-opacity:1"
       d="m 83.381365,191.85093 c -0.977609,-6.53382 -3.570341,-12.0677 -5.165217,-18.44721 -0.178964,-0.71585 0.178964,-1.4978 0,-2.21366 -0.08437,-0.33746 -0.59395,-0.42122 -0.737889,-0.73789 -2.259401,-6.7782 0.06247,-0.61296 -2.213663,-5.16521 -0.055,-0.11 0,-0.24597 0,-0.36895 0,-0.36894 0,-0.73789 0,-1.10683 0,-0.12298 0.0241,-0.24835 0,-0.36894 -1.175144,-5.87573 -0.437189,-2.47545 -5.165219,-9.9615 -0.06567,-0.10398 0.09192,-0.28724 0,-0.36894 -1.04802,-0.93157 -2.250072,-1.67687 -3.320497,-2.58261 -2.128457,-1.801 -4.094845,-3.7924 -6.272049,-5.53416 -1.177594,-0.94208 -1.067345,0.32267 -1.475777,-1.10683 -0.754697,-2.64145 -0.308959,-2.92214 0.737889,-6.27205 0.16405,-0.52496 0.533628,-0.96513 0.737888,-1.47578 0.04131,-0.10326 0,-1.66555 0,-1.84472 0,-0.12298 -0.055,-0.25895 0,-0.36894 0.07778,-0.15556 0.291164,-0.21339 0.368943,-0.36895 0.055,-0.11 0,-0.24596 0,-0.36894 0,-0.24597 0,-0.49193 0,-0.73789 0,-0.24596 -0.05336,-0.49778 0,-0.73789 0.194223,-0.874 0.520743,-1.71402 0.737889,-2.58261 0.02983,-0.11931 0,-0.24596 0,-0.36894 0,-0.61491 0,-1.22981 0,-1.84472"
       id="path8" />
    <path
       style="fill:none;stroke:#000000;stroke-width:0.264583px;stroke-linecap:butt;stroke-linejoin:miter;stroke-opacity:1"
       d="m 111.79006,177.46211 c 2.20837,-1.84031 3.09051,-2.46223 5.16522,-4.79627 0.0817,-0.0919 -0.055,-0.25895 0,-0.36895 0.0778,-0.15556 0.27247,-0.22423 0.36894,-0.36894 0.39778,-0.59666 0.67657,-1.27104 1.10683,-1.84472 0.31306,-0.41742 0.83839,-0.65942 1.10684,-1.10683 0.12654,-0.21091 -0.12204,-0.52434 0,-0.73789 0.74078,-1.29638 2.49922,-2.92431 3.68944,-3.68944 0.92528,-0.59483 2.01877,-0.89279 2.95155,-1.47578 0.20858,-0.13036 -0.17392,-0.56397 0,-0.73789 0.087,-0.087 0.2507,0.0338 0.36895,0 1.5,-0.42857 3.42804,-1.1606 4.79627,-1.84472 0.15556,-0.0778 0.24596,-0.24596 0.36894,-0.36894 0.24596,-0.24597 0.45962,-0.52918 0.73789,-0.73789 0.22,-0.165 0.50908,-0.21641 0.73789,-0.36895 0.14471,-0.0965 0.21871,-0.28131 0.36894,-0.36894 3.4799,-2.02994 4.64341,-2.20926 7.74783,-4.79627 0.34064,-0.28387 0.42434,-0.79329 0.73789,-1.10683 0.19445,-0.19445 0.5126,-0.21125 0.73788,-0.36895 1.00751,-0.70525 2.02603,-1.40383 2.95156,-2.21366 0.1851,-0.16197 -0.13036,-0.52931 0,-0.73789 0.5607,-0.89712 1.3716,-1.63637 1.84472,-2.58261 0.165,-0.32999 -0.22137,-0.81168 0,-1.10683 0.57631,-0.76841 1.58857,-1.11544 2.21366,-1.84472 0.32014,-0.3735 -0.28592,-1.07548 0,-1.47578 0.61491,-0.61491 1.22982,-1.22981 1.84472,-1.84472 0,-0.36894 -0.18982,-0.79046 0,-1.10683 0.22814,-0.38023 0.74601,-0.48016 1.10684,-0.73789 0.94138,-0.67242 2.27523,-1.63576 2.95155,-2.58261 0.22604,-0.31646 0.19502,-0.75899 0.36894,-1.10683 0.44342,-0.88683 0.89948,-1.77579 1.47578,-2.58261 0.0715,-0.10008 0.24596,0 0.36894,0 0.36895,0 0.73789,0 1.10683,0 0.12299,0 0.24597,0 0.36895,0 0.12298,0 0.33912,-0.11931 0.36894,0 0.11931,0.47724 0,0.98385 0,1.47578 0,1.22981 0,2.45962 0,3.68944"
       id="path9" />
    <path
       style="fill:none;stroke:#000000;stroke-width:0.264583px;stroke-linecap:butt;stroke-linejoin:miter;stroke-opacity:1"
       d="m 123.59627,165.28696 c 0,1.41545 -0.25309,2.18722 1.10683,3.32049 0.28344,0.23619 0.74506,-0.0724 1.10684,0 0.26965,0.0539 0.52315,0.19716 0.73789,0.36895 0.43882,0.35106 1.71415,1.71415 2.21366,2.21366 0.36894,0.36894 0.81741,0.6727 1.10683,1.10683 0.2811,0.42165 -0.48449,0.45341 0.36895,0.73789 0.23334,0.0778 0.49192,0 0.73788,0 0.49193,0.24596 0.98385,0.49193 1.47578,0.73789"
       id="path10" />
    <path
       style="fill:none;stroke:#000000;stroke-width:0.264583px;stroke-linecap:butt;stroke-linejoin:miter;stroke-opacity:1"
       d="m 131.71304,160.12174 c 2.17257,0.92951 1.7993,4.01296 3.3205,5.53416 0.087,0.087 0.24596,0 0.36894,0 0.49193,0 0.99341,-0.0965 1.47578,0 0.17054,0.0341 0.24596,0.24596 0.36894,0.36894 0.12299,0.12298 0.24597,0.24597 0.36895,0.36895"
       id="path11" />
    <path
       style="fill:none;stroke:#000000;stroke-width:0.264583px;stroke-linecap:butt;stroke-linejoin:miter;stroke-opacity:1"
       d="m 142.04348,153.1118 c 0.73788,1.84472 0.98254,3.97474 2.21366,5.53416 0.75053,0.95067 2.23714,0.9341 3.3205,1.47578 0.83436,0.41718 0.95692,0.58797 1.47577,1.10683"
       id="path12" />
    <path
       style="fill:none;stroke:#000000;stroke-width:0.264583px;stroke-linecap:butt;stroke-linejoin:miter;stroke-opacity:1"
       d="m 146.10186,148.68447 c 0.73789,0 1.50178,-0.19415 2.21367,0 0.69183,0.18868 1.21786,0.75858 1.84472,1.10683 0.48077,0.2671 0.98385,0.49193 1.47577,0.73789 0.24597,0.12298 0.47701,0.28198 0.73789,0.36895 0.33205,0.11068 0.81168,-0.22137 1.10683,0 0.35474,0.26604 0.42435,0.79329 0.73789,1.10683 0.087,0.087 0.24764,-0.0202 0.36895,0 1.93465,0.32244 2.31049,0.83472 1.47577,0"
       id="path13" />
    <path
       style="fill:none;stroke:#000000;stroke-width:0.264583px;stroke-linecap:butt;stroke-linejoin:miter;stroke-opacity:1"
       d="m 149.42236,144.25714 c -5.70101,-7.98141 1.26165,2.05018 -2.95156,-4.79627 -3.14799,-5.1155 -0.75612,-0.0426 -2.95155,-5.16522"
       id="path14" />
    <path
       style="fill:none;stroke:#000000;stroke-width:0.264583px;stroke-linecap:butt;stroke-linejoin:miter;stroke-opacity:1"
       d="m 143.15031,151.26708 c 0.71986,-4.31915 0.65486,-0.93969 -2.58261,-7.00994 -0.11575,-0.21703 0.0914,-0.50952 0,-0.73789 -0.31028,-0.77569 -0.91115,-1.28009 -1.47578,-1.84472 -0.73788,-0.73789 -1.51558,-1.43801 -2.21366,-2.21366 -0.41135,-0.45706 -0.7227,-0.99562 -1.10683,-1.47578 -0.10865,-0.13581 -0.29117,-0.21338 -0.36895,-0.36894 -0.95788,-1.91577 0.33443,-0.40346 -1.10683,-1.84472"
       id="path15" />
    <path
       style="fill:none;stroke:#000000;stroke-width:0.264583px;stroke-linecap:butt;stroke-linejoin:miter;stroke-opacity:1"
       d="m 137.61615,157.17018 c -1.96096,-3.64177 -3.46222,-7.08545 -6.641,-9.96149 -1.01959,-0.92249 -2.48235,-1.18631 -3.68944,-1.84472 -0.63557,-0.34667 -1.07228,-2.07548 -1.10683,-2.21366 -0.38634,-1.54535 -0.36894,-1.87691 -0.36894,-2.95155"
       id="path16" />
    <path
       style="fill:none;stroke:#000000;stroke-width:0.264583px;stroke-linecap:butt;stroke-linejoin:miter;stroke-opacity:1"
       d="m 129.86832,160.49068 c -1.35279,-0.61491 -2.70559,-1.22981 -4.05838,-1.84472 -0.12298,-0.12298 -0.21872,-0.28131 -0.36895,-0.36894 -1.33104,-0.77645 -2.77623,-1.3589 -4.05838,-2.21367 -0.22881,-0.15254 -0.1745,-0.54344 -0.36895,-0.73789 -0.087,-0.087 -0.24596,0 -0.36894,0 -0.24596,0 -0.49193,0 -0.73789,0 -0.24596,0 -0.54582,0.15366 -0.73789,0 -0.48016,-0.38413 -0.7227,-0.99561 -1.10683,-1.47577 -0.10865,-0.13581 -0.24596,-0.24596 -0.36894,-0.36895"
       id="path17" />
    <path
       style="fill:none;stroke:#000000;stroke-width:0.264583px;stroke-linecap:butt;stroke-linejoin:miter;stroke-opacity:1"
       d="m 118.06211,169.71428 c -3.9354,-5.9031 1.22981,1.22982 -3.68944,-3.68944 -0.50707,-0.50706 -0.73789,-1.22981 -1.10683,-1.84472"
       id="path18" />
    <path
       style="fill:none;stroke:#000000;stroke-width:0.264583px;stroke-linecap:butt;stroke-linejoin:miter;stroke-opacity:1"
       d="m 101.45963,139.09192 c 1.47577,-3.81242 2.92142,-7.63664 4.42733,-11.43726 1.07681,-2.71768 2.59004,-5.28627 3.32049,-8.11677 4.39339,-25.105097 0.62731,-7.87117 3.68944,-18.07826 0.0353,-0.1178 0,-0.24597 0,-0.36895 0,-0.73789 0,-1.475773 0,-2.213662 0,-1.352796 0,-2.705592 0,-4.058385 0,-4.919255 0,-9.83851 0,-14.757765"
       id="path19" />
    <path
       style="fill:none;stroke:#000000;stroke-width:0.264583px;stroke-linecap:butt;stroke-linejoin:miter;stroke-opacity:1"
       d="m 114.37267,97.401241 c 0.86087,-0.491926 1.72174,-0.98385 2.58261,-1.475777 0,-0.122981 -0.087,-0.281982 0,-0.368943 0.087,-0.08696 0.24596,0 0.36894,0 0.24597,0 0.50759,0.08636 0.73789,0 4.75637,-1.783638 -0.10171,-0.643757 4.05838,-1.475777"
       id="path20" />
    <path
       style="fill:none;stroke:#000000;stroke-width:0.264583px;stroke-linecap:butt;stroke-linejoin:miter;stroke-opacity:1"
       d="m 108.83851,109.20745 c 1.10683,0 2.21692,-0.0849 3.32049,0 0.50558,0.0389 0.97381,0.29723 1.47578,0.36895 0.36524,0.0522 0.73789,0 1.10683,0 2.27865,0 -0.11629,0.0606 3.3205,-0.36895 0.38492,-0.0481 2.49388,0 2.58261,0"
       id="path21" />
    <path
       style="fill:none;stroke:#000000;stroke-width:0.264583px;stroke-linecap:butt;stroke-linejoin:miter;stroke-opacity:1"
       d="m 111.42112,119.16894 c 6.4616,2.15387 0.0726,0.4131 7.00993,1.10683 0.12237,0.0123 0,0.24597 0,0.36895"
       id="path22" />
    <path
       style="fill:none;stroke:#000000;stroke-width:0.264583px;stroke-linecap:butt;stroke-linejoin:miter;stroke-opacity:1"
       d="m 106.2559,129.49938 c 5.94139,0 -0.17702,-0.27029 8.11677,1.47577 2.55695,0.53831 1.25766,-0.58706 2.21366,0.36895"
       id="path23" />
    <path
       style="fill:none;stroke:#000000;stroke-width:0.264583px;stroke-linecap:butt;stroke-linejoin:miter;stroke-opacity:1"
       d="m 105.88696,131.71304 c -0.61491,-0.12298 -1.24177,-0.19667 -1.84472,-0.36894 -0.26442,-0.0755 -0.48907,-0.25185 -0.73789,-0.36895 -1.84195,-0.86679 -3.669139,-1.76666 -5.534166,-2.5826 -0.11267,-0.0493 -0.260662,0.0583 -0.368943,0 -4.911354,-2.64458 -2.691622,-2.58261 -4.796274,-2.58261"
       id="path24" />
    <path
       style="fill:none;stroke:#000000;stroke-width:0.264583px;stroke-linecap:butt;stroke-linejoin:miter;stroke-opacity:1"
       d="m 103.67329,125.80994 c -0.61491,-0.61491 -1.16567,-1.30148 -1.84472,-1.84472 -1.17222,-0.93778 -2.392754,-1.82621 -3.68944,-2.58261 -2.213666,-1.29131 0.184472,0.64565 -1.106834,0 -0.396603,-0.1983 -0.737886,-0.49193 -1.106832,-0.73789 -1.475777,-0.73789 -2.929226,-1.52223 -4.427328,-2.21367 -0.111662,-0.0515 -0.266618,0.0682 -0.368946,0 -0.824849,-0.54989 -0.737886,-0.48725 -0.737886,-1.10683"
       id="path25" />
    <path
       style="fill:none;stroke:#000000;stroke-width:0.264583px;stroke-linecap:butt;stroke-linejoin:miter;stroke-opacity:1"
       d="m 111.05217,112.159 c -3.46011,-0.9886 -10.51386,-2.83368 -14.019874,-4.42732 -0.716881,-0.32586 -1.203934,-1.01808 -1.84472,-1.47578 -0.223772,-0.15984 -0.509077,-0.2164 -0.737889,-0.36894 -0.683855,-0.45591 -0.03383,-0.36895 -0.737886,-0.36895"
       id="path26" />
    <path
       style="fill:none;stroke:#000000;stroke-width:0.264583px;stroke-linecap:butt;stroke-linejoin:miter;stroke-opacity:1"
       d="m 112.89689,99.245961 c -1.22981,0 -2.45963,0 -3.68944,0 -1.47577,0 -2.98021,0.289425 -4.42733,0 -0.51163,-0.102327 -0.78088,-0.699402 -1.10683,-1.106831 -0.66088,-0.826101 -1.28402,-1.685491 -1.84472,-2.582609 -0.0652,-0.104288 0.087,-0.281985 0,-0.368945 -0.93192,-0.931916 -0.42531,-0.141772 -1.10683,-0.368943 -2.672418,-0.890805 0.58168,0.106368 -1.106833,-0.737889 -0.109998,-0.055 -0.245965,0 -0.368946,0 -0.245962,-0.122981 -0.509079,-0.216405 -0.737888,-0.368943 -0.144712,-0.09647 -0.245962,-0.245964 -0.368943,-0.368945 -0.122981,-0.122981 -0.272471,-0.224232 -0.368946,-0.368943 -0.152537,-0.228809 -0.148947,-0.572892 -0.368943,-0.737889 -0.595632,-0.446725 -1.18882,-0.368945 -1.84472,-0.368945"
       id="path27" />
    <path
       style="fill:none;stroke:#000000;stroke-width:0.264583px;stroke-linecap:butt;stroke-linejoin:miter;stroke-opacity:1"
       d="m 86.332919,212.14286 c 2.951551,0 6.107496,-1.07925 8.854657,0 7.838144,3.07926 15.013924,7.68236 22.136644,12.17515 0.9813,0.61897 1.02433,2.13117 1.84472,2.95155 1.1828,1.1828 2.818,1.8293 4.05839,2.95156 1.35571,1.22659 2.29642,2.87432 3.68944,4.05838 1.09277,0.92885 2.45963,1.47578 3.68944,2.21366 1.22981,0.73789 2.46799,1.46201 3.68944,2.21367 1.97619,1.21612 3.95496,2.42888 5.90311,3.68944 0.14601,0.0945 0.20021,0.32676 0.36894,0.36894 0.35793,0.0895 0.74891,-0.0895 1.10683,0 1.02364,0.25591 -0.0325,0.33645 0.36895,0.73789 0.087,0.087 0.25476,-0.0457 0.36894,0 0.51065,0.20426 1.08688,0.34899 1.47578,0.73789 0.3889,0.3889 0.43281,1.01816 0.73788,1.47578 0.19295,0.28942 0.52919,0.45961 0.73789,0.73788 0.48356,0.64475 0.36586,1.10066 0.73789,1.84473 0.13193,0.26384 0.78652,0.5291 0.36894,0.73788 -0.21999,0.11 -0.49192,0 -0.73788,0"
       id="path28" />
    <path
       style="fill:none;stroke:#000000;stroke-width:0.264583px;stroke-linecap:butt;stroke-linejoin:miter;stroke-opacity:1"
       d="m 60.137889,145.73292 c -2.336647,0 -4.673293,0 -7.00994,0 -0.614905,0 -1.233575,-0.0679 -1.84472,0 -0.74349,0.0826 -1.475777,0.24596 -2.213665,0.36894"
       id="path29" />
    <path
       style="fill:none;stroke:#000000;stroke-width:0.264583px;stroke-linecap:butt;stroke-linejoin:miter;stroke-opacity:1"
       d="m 67.516768,152.00497 c 3.424592,-0.85615 -0.227499,0.27465 5.16522,-3.3205 0.204653,-0.13643 0.504547,0.0778 0.737886,0 0.803748,0.1379 0.122983,-0.61491 0.368945,-0.73789 0.219996,-0.11 0.504548,0.0778 0.737889,0 0.164997,-0.055 0.213384,-0.29116 0.368943,-0.36894 0.109998,-0.055 0.258948,0.055 0.368945,0 0.91181,-0.45591 -0.127351,-0.36895 0.737886,-0.36895"
       id="path30" />
    <path
       style="fill:none;stroke:#000000;stroke-width:0.264583px;stroke-linecap:butt;stroke-linejoin:miter;stroke-opacity:1"
       d="m 74.895651,163.07329 c 3.227419,0 -0.11275,-0.27287 2.582608,0.73789 5.496928,2.06135 3.557911,0.23741 5.165217,1.84472"
       id="path31" />
    <path
       style="fill:none;stroke:#000000;stroke-width:0.264583px;stroke-linecap:butt;stroke-linejoin:miter;stroke-opacity:1"
       d="m 80.429813,181.52049 c 3.812421,0 7.624845,0 11.437266,0"
       id="path32" />
    <path
       style="fill:none;stroke:#000000;stroke-width:0.264583px;stroke-linecap:butt;stroke-linejoin:miter;stroke-opacity:1"
       d="m 74.157762,156.80124 c -1.352793,0.61491 -2.602404,1.54758 -4.058385,1.84472 -32.738017,4.30763 -7.683482,-0.54226 -15.495651,2.58261 -0.114186,0.0457 -0.245962,0 -0.368943,0 -0.368945,0 -0.737888,0 -1.106834,0 -1.229812,0 -2.459627,0 -3.68944,0 -1.750772,0 -1.035785,-0.22 -2.213665,0.36894"
       id="path33" />
    <path
       style="fill:none;stroke:#000000;stroke-width:0.264583px;stroke-linecap:butt;stroke-linejoin:miter;stroke-opacity:1"
       d="m 79.691925,175.24845 c -6.10426,0 -1.74085,-0.18038 -12.913045,2.21366"
       id="path34" />
    <path
       style="fill:none;stroke:#000000;stroke-width:0.264583px;stroke-linecap:butt;stroke-linejoin:miter;stroke-opacity:1"
       d="m 105.88696,217.67702 c 2.33202,-4.29081 3.32049,-4.67194 3.32049,-8.85466"
       id="path35" />
    <path
       style="fill:none;stroke:#000000;stroke-width:0.264583px;stroke-linecap:butt;stroke-linejoin:miter;stroke-opacity:1"
       d="m 113.63478,223.58012 c 6.23985,-3.32792 5.9634,-2.6429 11.43727,-8.11677 0.62708,-0.62708 0.96031,-1.49202 1.47578,-2.21366 0.10108,-0.14153 0.21338,-0.29117 0.36894,-0.36895 0.11,-0.055 0.25227,0.0389 0.36894,0 0.26089,-0.087 0.54344,-0.56339 0.73789,-0.36894 0.26088,0.26088 -0.13702,0.76427 0,1.10683 0.12919,0.32297 0.49193,0.49193 0.73789,0.73789"
       id="path36" />
    <path
       style="fill:none;stroke:#000000;stroke-width:0.264583px;stroke-linecap:butt;stroke-linejoin:miter;stroke-opacity:1"
       d="m 121.75155,228.74534 c 4.02195,-2.41317 4.48168,-2.79403 11.06832,-5.16522 0.23143,-0.0833 0,0.49193 0,0.73789"
       id="path37" />
    <path
       style="fill:none;stroke:#000000;stroke-width:0.264583px;stroke-linecap:butt;stroke-linejoin:miter;stroke-opacity:1"
       d="m 128.0236,235.75528 c 1.59876,-1.84473 2.80986,-4.1153 4.79627,-5.53416 0.8006,-0.57186 1.97444,0.11495 2.95156,0 1.12606,-0.13248 2.20209,-0.55149 3.32049,-0.73789 1.09849,-0.18308 2.22201,-0.18587 3.3205,-0.36895 0.36393,-0.0607 -0.76138,-0.12954 -1.10683,0 -0.67144,0.25179 -1.22981,0.73789 -1.84472,1.10684"
       id="path38" />
    <path
       style="fill:none;stroke:#000000;stroke-width:0.264583px;stroke-linecap:butt;stroke-linejoin:miter;stroke-opacity:1"
       d="m 129.86832,236.49316 c -3.23452,18.32896 0.6137,0.004 -2.21366,8.48572 -0.0389,0.11667 0.24596,0 0.36894,0 0.24596,0 0.49193,0 0.73789,0"
       id="path39" />
    <path
       style="fill:none;stroke:#000000;stroke-width:0.264583px;stroke-linecap:butt;stroke-linejoin:miter;stroke-opacity:1"
       d="m 124.7031,229.48323 c 0.12299,3.81242 0.24597,7.62484 0.36895,11.43726"
       id="path40" />
    <path
       style="fill:none;stroke:#000000;stroke-width:0.264583px;stroke-linecap:butt;stroke-linejoin:miter;stroke-opacity:1"
       d="m 112.52795,221.36646 c 0,0.49192 0,0.98385 0,1.47577 0,1.84472 0,3.68945 0,5.53417 0,0.49192 0,0.98385 0,1.47577 0,0.24596 -0.11,0.51789 0,0.73789 0.0666,0.13313 0.52792,-0.10499 0.73789,0 0.15556,0.0778 0.2298,0.26459 0.36894,0.36894 0.35473,0.26605 0.73789,0.49193 1.10683,0.73789"
       id="path41" />
  </g>
</svg>
