<?xml version="1.0" encoding="UTF-8" standalone="no"?>
<!-- Created with Inkscape (http://www.inkscape.org/) -->

<svg
   width="145.63168mm"
   height="205.85274mm"
   viewBox="0 0 145.63168 205.85274"
   version="1.1"
   id="svg1"
   xmlns:inkscape="http://www.inkscape.org/namespaces/inkscape"
   xmlns:sodipodi="http://sodipodi.sourceforge.net/DTD/sodipodi-0.dtd"
   xmlns="http://www.w3.org/2000/svg"
   xmlns:svg="http://www.w3.org/2000/svg">
  <sodipodi:namedview
     id="namedview1"
     pagecolor="#ffffff"
     bordercolor="#cccccc"
     borderopacity="1"
     inkscape:showpageshadow="0"
     inkscape:pageopacity="1"
     inkscape:pagecheckerboard="0"
     inkscape:deskcolor="#d1d1d1"
     inkscape:document-units="mm" />
  <defs
     id="defs1" />
  <g
     inkscape:label="Слой 1"
     inkscape:groupmode="layer"
     id="layer1"
     transform="translate(-2.1799701,-33.746978)">
    <path
       style="fill:#a02c2c;stroke:#000000;stroke-width:0.264583px;stroke-linecap:butt;stroke-linejoin:miter;stroke-opacity:1"
       d="m 54.972669,104.78012 c 0,2.33665 0.289827,4.69134 0,7.00994 -0.329287,2.6343 -1.268812,5.15624 -1.84472,7.74783 -2.275731,10.24079 -1.223917,6.18255 -2.951551,14.38882 -0.104463,0.49618 -0.245965,0.98385 -0.368946,1.47577 -0.122981,0.49193 -0.229642,0.98822 -0.368943,1.47578 -0.106839,0.37394 -0.313947,0.72184 -0.368945,1.10683 -0.06957,0.48698 0.0748,0.98957 0,1.47578 -0.309251,2.01014 -0.941354,3.54842 -1.106832,5.53416 -0.44219,5.30628 0.569598,-0.89107 -0.368943,4.42733 -0.245964,1.35279 -0.491926,2.70559 -0.737888,4.05838 -0.122981,1.22982 -0.173678,2.46902 -0.368946,3.68944 -0.935503,5.8469 -1.11389,4.83158 -2.213663,10.33044 -0.170545,0.85272 -0.282416,1.71731 -0.368945,2.58261 -0.03587,0.35869 0.04783,2.3913 0,2.58261 -0.660959,2.64383 -0.884489,0.28345 -1.106832,2.95155 -0.175688,2.10825 0.26353,5.44632 0,7.37888 -0.173479,1.27219 -0.842322,2.43302 -1.106831,3.68944 -0.229423,1.08976 -0.139523,2.23074 -0.368946,3.3205 -0.264509,1.25642 -0.795425,2.44381 -1.106831,3.68944 -1.070354,4.28141 0.03912,0.42494 -0.368946,3.68944 -0.265927,2.12743 -0.524962,0.99303 -1.106831,3.3205 -0.21091,0.84364 -0.261083,1.71971 -0.368943,2.58261 -0.132554,1.06041 -0.471033,4.65777 -0.737889,5.9031 -0.187595,0.87544 -0.480621,1.72505 -0.737888,2.58261 -0.11175,0.3725 -0.292674,0.72548 -0.368946,1.10683 -0.04824,0.24119 0,0.49193 0,0.73789 0,0.86087 0.06603,1.72428 0,2.58261 -0.152088,1.97717 -0.558353,3.92823 -0.737886,5.9031 -0.04454,0.48991 0,0.98386 0,1.47578 0,1.10683 0,2.21367 0,3.3205 0,1.22981 0.08762,2.46275 0,3.68944 -0.03613,0.50578 -0.269502,0.97856 -0.368945,1.47578 -0.02413,0.12059 -0.09839,0.29515 0,0.36894 0.439991,0.32999 0.98385,0.49192 1.475777,0.73789 0.98385,0.49192 1.9178,1.09986 2.951551,1.47577 0.346731,0.12609 0.740146,-0.0407 1.106834,0 0.74349,0.0826 1.49438,0.16344 2.213663,0.36895 7.699544,2.19987 -3.484213,-0.0311 8.485714,3.3205 1.190175,0.33324 2.456233,0.28672 3.689443,0.36894 0.613544,0.0409 1.229812,0 1.84472,0 0.368945,0 0.799851,-0.20465 1.106831,0 0.204655,0.13643 0,0.49193 0,0.73789 0,0.12298 -0.06162,-0.26251 0,-0.36895 1.299837,-2.24517 2.922164,-4.30875 4.058385,-6.64099 2.826055,-5.80085 3.866269,-11.00799 5.165217,-17.34037 0.325041,-1.58458 0.45678,-3.20332 0.737889,-4.79628 0.08812,-0.49934 0.285583,-0.97561 0.368945,-1.47577 0.04044,-0.24262 -0.04044,-0.49527 0,-0.73789 0.681808,-4.09085 0.139806,2.41797 1.475775,-4.79627 0.405566,-2.19006 0.433559,-4.4346 0.737888,-6.641 0.335217,-2.43032 0.835208,-4.66118 1.475777,-7.00993 0.102328,-0.3752 0.305009,-0.72323 0.368946,-1.10684 0.06065,-0.36392 0,-0.73788 0,-1.10683 0,-1.22981 0,-2.45963 0,-3.68944 0,-6.02609 0,-12.05218 0,-18.07826 0,-9.01182 -0.343707,-3.49716 0.368943,-8.48572 0.03478,-0.24349 0,-0.49192 0,-0.73788 0,-0.61491 0,-1.22982 0,-1.84472 0,-2.33665 0,-4.6733 0,-7.00994 0,-1.10684 -0.065,-2.21558 0,-3.3205 0.07258,-1.23381 0.154154,-2.4723 0.368943,-3.68944 0.647287,-3.66796 0.540528,-1.42422 1.106834,-3.68944 0.02983,-0.11931 -0.01527,-0.24691 0,-0.36895 0.10786,-0.86289 0.17622,-1.73462 0.368943,-2.5826 0.423116,-1.86171 1.041953,-3.67492 1.475777,-5.53416 0.814073,-3.48889 1.67183,-8.74355 2.213665,-12.17516 0.04257,-0.26961 -0.08514,-0.93655 0,-1.10683 0.055,-0.11 0.281983,0.087 0.368943,0 0.173922,-0.17392 -0.173921,-0.56397 0,-0.73789 0.08696,-0.087 0.368943,0.12298 0.368943,0 0,-0.17392 -0.195021,-0.36894 -0.368943,-0.36894 -0.122981,0 0.102328,0.43716 0,0.36894 -0.434136,-0.28942 -0.699402,-0.78089 -1.106831,-1.10683 -0.214736,-0.17179 -0.523155,-0.19716 -0.737889,-0.36895 -1.190897,-0.95271 -1.240779,-1.74709 -2.951554,-2.21366 -0.711888,-0.19415 -1.497806,0.17896 -2.213663,0 -0.800354,-0.20009 -1.441209,-0.81716 -2.213665,-1.10683 -0.05379,-0.0202 -1.37804,0.0195 -1.475777,0 -0.994437,-0.19889 -1.989463,-0.41719 -2.951552,-0.73789 -3.700036,-1.23335 -6.778119,-2.57826 -10.330436,-4.05839 z"
       id="path6" />
    <path
       style="fill:#2b0000;stroke:#000000;stroke-width:0.264583px;stroke-linecap:butt;stroke-linejoin:miter;stroke-opacity:1"
       d="m 65.856521,155.14099 c -0.245962,-0.0615 -0.484357,-0.18447 -0.737888,-0.18447 -1.221465,0 -2.693136,0.63034 -3.68944,1.10683 -0.64692,0.3094 -1.222105,0.75105 -1.844723,1.10683 -0.23876,0.13644 -0.473472,0.2934 -0.737886,0.36895 -0.177376,0.0507 -0.378412,-0.0583 -0.553418,0 -0.05833,0.0195 0,0.12298 0,0.18447 0,0.0615 0,0.12298 0,0.18447 0,0.0615 0,0.12298 0,0.18448 -0.06149,0 -0.171133,-0.06 -0.18447,0 -1.019427,4.5874 0.91585,-1.68522 -0.737889,3.68944 -0.191468,0.62227 -1.151368,3.19333 -1.291304,4.24285 -0.05689,0.42666 0.03574,0.86236 0,1.29131 -0.146534,1.75841 -0.179311,0.14316 -0.368946,1.66025 -0.03051,0.24406 0.02716,0.49342 0,0.73788 -0.09547,0.85925 -0.330869,0.96634 -0.18447,1.84472 0.01429,0.0858 0.153938,0.10305 0.18447,0.18448 0.157184,0.41915 0.215961,0.87059 0.368946,1.2913 0.431213,1.18584 0.246139,0.30781 0.737889,1.2913 0.08696,0.17393 0.122981,0.36895 0.18447,0.55342 0,0.24596 -0.09689,0.51181 0,0.73789 0.102767,0.23979 0.396888,0.34471 0.553418,0.55341 0.399074,0.5321 0.717407,1.12105 1.106832,1.66025 0.410487,0.56837 0.875411,1.09583 1.291304,1.66025 0.445249,0.60427 0.847434,1.23944 1.291304,1.84472 0.232839,0.31751 0.485825,0.61989 0.737889,0.92236 0.05567,0.0668 0.12298,0.12298 0.184472,0.18448 0.06149,0.0615 0.09751,0.18447 0.18447,0.18447 0.06149,0 -0.055,-0.15698 0,-0.18447 0.109998,-0.055 0.245965,0 0.368946,0 0.06149,0 0.122981,0 0.18447,0 0.430435,0 0.86087,0 1.291304,0 0.307454,0 0.614908,0 0.922362,0 0.802875,0 1.786575,0.0809 2.582608,-0.18448 0.210331,-0.0701 0.355116,-0.26979 0.553416,-0.36894 0.055,-0.0275 0.122981,0 0.184473,0 0.122981,0 0.245962,0 0.368943,0 0.06149,0 0.140993,0.0435 0.184472,0 0.04348,-0.0435 -0.0275,-0.12947 0,-0.18447 0.03889,-0.0778 0.156972,-0.10198 0.184473,-0.18448 0.146127,-0.43837 -0.218374,-0.33504 0.184473,-0.73788 0.04348,-0.0435 0.140991,0.0435 0.18447,0 0.642316,-0.64232 0.483984,-0.74515 0.922361,-1.47578 0.04474,-0.0746 0.156972,-0.10197 0.184473,-0.18447 0.03889,-0.11667 0,-0.24597 0,-0.36895 0,-0.30745 -0.114186,-0.63689 0,-0.92236 0.05107,-0.12766 0.245962,-0.12298 0.368943,-0.18447 0.06149,-0.12298 0.151125,-0.23555 0.184473,-0.36894 0.02983,-0.11931 0,-0.24597 0,-0.36895 0,-0.12298 0,-0.24596 0,-0.36894 0,-0.18447 -0.102328,-0.39993 0,-0.55342 0.06822,-0.10232 0.266618,0.0682 0.368943,0 0.239472,-0.15964 0.184473,-0.51703 0.184473,-0.73788 0,-0.0615 -0.0275,-0.12948 0,-0.18448 0.03889,-0.0778 0.145581,-0.10669 0.184472,-0.18447 0.105125,-0.21025 0.345303,-1.12581 0.368943,-1.2913 0.0874,-0.61177 0.137076,-1.22857 0.184473,-1.84472 0.01415,-0.18393 -0.05834,-0.37841 0,-0.55342 0.01945,-0.0583 0.122981,0 0.184473,0 0.06149,-0.12298 0.151122,-0.23555 0.18447,-0.36894 0.02983,-0.11931 0,-0.24597 0,-0.36895 0,-0.55341 0,-1.10683 0,-1.66025 0,-0.30745 0,-0.6149 0,-0.92236 0,-0.18447 0,-0.36894 0,-0.55341 0,-0.0615 0.0275,-0.12948 0,-0.18447 -0.03889,-0.0778 -0.156972,-0.10198 -0.18447,-0.18448 -0.05833,-0.175 0,-0.36894 0,-0.55341 0,-0.6764 0,-1.3528 0,-2.0292 0,-0.12298 0,-0.24596 0,-0.36894 0,-0.0615 0.04348,-0.14099 0,-0.18447 -0.04348,-0.0435 -0.122984,0 -0.184473,0 -0.122981,-0.18447 -0.286604,-0.34757 -0.368945,-0.55342 -0.04567,-0.11418 0,-0.24596 0,-0.36894 0,-0.24597 0,-0.49193 0,-0.73789 0,-0.30745 0.03814,-0.61728 0,-0.92236 -0.197721,-1.58177 -0.141441,0.54106 -0.553416,-1.10683 -0.07457,-0.29828 0.07457,-0.62409 0,-0.92236 -0.310938,-0.46641 -0.44431,-0.5613 -0.553416,-1.10683 -0.02413,-0.1206 0,-0.24597 0,-0.36895 0,-0.12298 0.08696,-0.28198 0,-0.36894 -0.08696,-0.087 -0.281982,0.087 -0.368943,0 -0.137498,-0.1375 -0.107876,-0.37469 -0.184473,-0.55342 -0.108325,-0.25276 -0.200115,-0.52082 -0.368945,-0.73789 -0.266944,-0.34321 -0.614905,-0.6149 -0.922359,-0.92236 -0.430435,-0.43043 -0.905835,-0.82018 -1.291304,-1.2913 -0.174138,-0.21284 -0.203949,-0.5179 -0.368946,-0.73789 -0.03689,-0.0492 -0.122981,0 -0.18447,0 -0.245964,0 -0.491926,0 -0.737888,0 -2.454746,0 -0.129162,-0.0609 -2.582609,0.18447 -0.749633,0.075 -0.514429,-0.23645 -1.106834,0.55342 -0.01421,0.0189 0,0.49936 0,0.55341 0,0.36895 -0.0334,0.73941 0,1.10684 0.03386,0.37249 0.131577,0.73655 0.184473,1.10683 0.0087,0.0609 0.04348,0.14099 0,0.18447 -0.144206,0.14421 -0.320916,-0.16046 -0.368943,-0.18447 -0.055,-0.0275 -0.129474,0.0275 -0.184473,0 -0.07778,-0.0389 -0.114903,-0.1323 -0.184473,-0.18447 -0.177366,-0.13303 -0.368942,-0.24597 -0.553415,-0.36895"
       id="path7" />
    <path
       style="fill:#008000;stroke:#000000;stroke-width:0.264583px;stroke-linecap:butt;stroke-linejoin:miter;stroke-opacity:1"
       d="m 2.6088287,96.265779 c 2.9847259,0.663274 1.7860253,0.494398 4.9567745,0.782648 0.035506,0.0032 0.5138078,-0.0034 0.5217657,0 0.536185,0.229794 0.999363,0.641165 1.5652975,0.782651 0.4200726,0.105016 1.4666286,0 2.0870626,0 2.174024,0 4.348048,0 6.522072,0 0.608727,0 1.229275,-0.119383 1.82618,0 0.728566,0.145711 1.373788,0.574609 2.087063,0.782648 1.376829,0.401574 2.770693,0.748072 4.174126,1.04353 0.660457,0.139044 1.436482,-0.17743 2.087064,0 0.638937,0.174257 1.180864,0.633734 1.82618,0.782654 0.508402,0.11732 1.04353,0 1.565296,0 0.260882,0 0.573942,-0.15653 0.782648,0 0.219996,0.16499 0.108345,0.55384 0.260885,0.78264 0.04824,0.0724 0.175993,-0.0189 0.260882,0 0.700021,0.15556 1.397555,0.32477 2.087062,0.52177 1.137288,0.32494 2.258563,0.70366 3.391477,1.04353 0.606388,0.18192 1.199459,0.43223 1.82618,0.52177 0.60261,0.0861 1.229276,-0.11938 1.826181,0 0.307454,0.0615 0.473371,0.47022 0.782648,0.52176 0.772001,0.12867 1.570085,-0.0864 2.347947,0 3.222858,0.3581 1.379331,0.34483 3.130595,0.78265 0.168727,0.0422 0.347842,0 0.521764,0 0.656635,0 1.137867,-0.0341 1.82618,0.26088 0.226076,0.0969 0.285269,0.4542 0.521766,0.52177 0.418076,0.11945 0.869609,0 1.304415,0 1.043532,0 2.087062,0 3.130595,0 0.347842,0 0.695687,0 1.043532,0 0.173921,0 0.377053,-0.0965 0.521764,0 0.161793,0.10786 0.123386,0.38427 0.260884,0.52177 0.299773,0.29977 0.461378,0.26088 0.782648,0.26088 1.178246,0 -0.19295,-0.14471 1.043533,0.78265 0.139136,0.10435 0.347842,0 0.521764,0 0.173923,0 0.347845,0 0.521766,0 0.173921,0 0.366204,-0.0778 0.521766,0 0.219996,0.11 0.347842,0.34784 0.521766,0.52176 0.08696,0.087 0.144211,0.222 0.260882,0.26089 0.164997,0.055 0.353036,-0.0422 0.521766,0 1.434418,0.3586 -0.659434,0.22155 1.304415,0.78264 0.33446,0.0956 0.695687,0 1.043532,0 0.173921,0 0.361905,-0.0685 0.521764,0 0.466066,0.19975 0.815218,0.64924 1.304414,0.78265 0.503381,0.13729 1.043533,0 1.565299,0 0.173921,0 0.347842,0 0.521766,0 0.08696,0 0.180142,-0.0323 0.260882,0 0.361085,0.14444 0.710052,0.32168 1.043533,0.52177 0.105455,0.0633 0.144211,0.22199 0.260881,0.26088 0.164997,0.055 0.353037,-0.0422 0.521767,0 0.807579,0.2019 0.301011,0.33714 1.04353,0.78265 0.235807,0.14148 0.553839,0.10834 0.78265,0.26088 0.205447,0.13697 1.288384,1.28839 1.565296,1.5653 0.08696,0.087 0.150884,0.20588 0.260882,0.26088 0.07778,0.0389 0.173924,0 0.260885,0 0.08696,0 0.173921,0 0.260882,0 0.521766,0 1.043532,0 1.565298,0 0.260882,0 0.540425,-0.0969 0.782648,0 1.014135,0.40566 0.02122,0.61227 1.04353,0.78265 0.343112,0.0572 0.695688,0 1.043533,0 0.173921,0 0.366204,-0.0778 0.521766,0 0.07778,0.0389 -0.04824,0.18853 0,0.26088 0.136435,0.20466 0.317111,0.38533 0.521766,0.52177 0.02146,0.0143 0.978803,0 1.04353,0 0.853752,0 2.160535,-0.0709 2.869713,0 0.761386,0.0761 1.327751,0.68773 2.087063,0.78265 0.431448,0.0539 0.869608,0 1.304414,0 0.695688,0 1.391375,0 2.087062,0 0.347846,0 0.695688,0 1.043533,0 0.173921,0 0.349591,0.0246 0.521766,0 0.438957,-0.0627 0.867032,-0.18799 1.304415,-0.26088 0.08577,-0.0143 0.191312,0.0522 0.260881,0 1.04429,-0.78322 0.541483,-0.92295 1.826181,-1.5653 0.155559,-0.0778 0.377052,0.0965 0.521766,0 0.161793,-0.10786 0.123383,-0.38427 0.260882,-0.52177 0.137496,-0.13749 0.347843,-0.17392 0.521766,-0.26088 0.173922,-0.087 0.340276,-0.19108 0.521767,-0.26088 0.950007,-0.36539 1.899105,-0.73703 2.86971,-1.04354 2.312676,-0.73031 1.722516,-0.1465 3.652366,-1.30441 0.37284,-0.2237 0.65462,-0.5882 1.04353,-0.78265 0.15556,-0.0778 0.34784,0 0.52176,0 0.60873,0 1.21746,0 1.82618,0 0.34784,0 0.72381,0.13702 1.04353,0 0.33912,-0.14533 0.4875,-0.56128 0.78265,-0.78265 0.0696,-0.0522 0.17392,0 0.26088,0 0.17393,0 0.34785,0 0.52177,0 1.47834,0 2.95667,0 4.43501,0 4.0002,0 8.00041,0 12.00061,0 1.04353,0 2.08706,0 3.1306,0 0.52176,0 1.0636,0.14335 1.56529,0 0.74788,-0.21367 1.34918,-0.79756 2.08707,-1.04353 0.32999,-0.11 0.69781,0.0384 1.04353,0 0.4407,-0.049 0.86961,-0.17392 1.30441,-0.26088 0.52177,-0.17392 1.02084,-0.44399 1.5653,-0.52177 0.68869,-0.0984 1.4026,0.12445 2.08706,0 1.24575,-0.2265 2.41985,-0.75352 3.65236,-1.04353 0.25395,-0.0598 0.53516,0.0825 0.78265,0 0.0825,-0.0275 -0.0615,-0.19939 0,-0.26088 0.22171,-0.22171 0.49153,-0.40532 0.78265,-0.52177 0.21777,-0.0871 1.11658,0.0939 1.30441,0 0.0778,-0.0389 -0.0211,-0.17651 0,-0.26088 0.0667,-0.26678 0.15256,-0.52989 0.26089,-0.78265 0.15319,-0.35745 0.34784,-0.69568 0.52176,-1.04353 0.087,-0.17392 0.19939,-0.33729 0.26088,-0.52177 0.0275,-0.0825 0,-0.17392 0,-0.26088 0,-0.4348 0,-0.86961 0,-1.30441 0,-0.17392 -0.0377,-0.35199 0,-0.52177 0.13734,-0.618006 0.34785,-1.217452 0.52177,-1.826178 0.087,-1.130491 0.0947,-2.269887 0.26088,-3.391477 0.18247,-1.231649 0.52615,-2.433976 0.78265,-3.652359 0.0914,-0.433906 0.20589,-0.864425 0.26088,-1.304417 0.0432,-0.345157 0,-0.695687 0,-1.04353 0,-2.085543 0.0738,-1.160332 -0.26088,-3.391476 -0.16967,-1.131139 -0.27364,-2.274922 -0.52176,-3.39148 -0.10159,-0.457147 -0.39312,-0.854133 -0.52177,-1.304414 -0.0401,-0.140475 0.0201,-0.58197 0,-0.782648 -0.0784,-0.783556 -0.13142,-1.571194 -0.26088,-2.347944 -0.13181,-0.790832 -0.46844,-1.547982 -0.52177,-2.347947 -0.0352,-0.527791 0.20247,-1.039569 0.26088,-1.565296 0.0288,-0.259289 0,-0.521767 0,-0.782651 0,-0.08696 0.0211,-0.176517 0,-0.260882 -0.0701,-0.280395 -0.84521,-3.027892 -1.04353,-3.391477 -0.26663,-0.488831 -0.81311,-0.797501 -1.04353,-1.304414 -0.21889,-0.48155 -0.11556,-1.056688 -0.26088,-1.565299 -0.0338,-0.118247 -0.19267,-0.158554 -0.26088,-0.260882 -0.10786,-0.161792 -0.15302,-0.359973 -0.26089,-0.521766 -0.23634,-0.354512 -1.07107,-1.35949 -1.30441,-1.82618 -0.20943,-0.41886 -0.28943,-0.897816 -0.52177,-1.304415 -0.12203,-0.213556 -0.34784,-0.347842 -0.52176,-0.521763 -0.17392,-0.173924 -0.34785,-0.347845 -0.52177,-0.521767 -0.26088,-0.260884 -0.5682,-0.482428 -0.78265,-0.782648 -0.22604,-0.316463 -0.283,-0.736552 -0.52176,-1.043532 -0.37752,-0.485378 -0.8995,-0.84165 -1.30442,-1.304415 -0.20647,-0.235966 -0.30005,-0.56094 -0.52176,-0.782648 -0.12298,-0.122981 -0.38596,0.108649 -0.52177,0 -0.38413,-0.307303 -0.67586,-0.716714 -1.04353,-1.043532 -3.31904,-2.95026 0.15545,0.228711 -2.08706,-1.565296 -0.19207,-0.153652 -0.37419,-0.324996 -0.52177,-0.521767 -0.11667,-0.155561 -0.0991,-0.413903 -0.26088,-0.521766 -0.14471,-0.09648 -0.37706,0.09647 -0.52177,0 -0.16179,-0.107863 -0.1115,-0.397282 -0.26088,-0.521766 -0.38954,-0.324615 -0.89876,-0.478409 -1.30441,-0.782648 -0.29516,-0.221367 -0.52177,-0.521766 -0.78265,-0.782648 -0.26089,-0.260885 -0.52177,-0.521767 -0.78265,-0.782648 -0.34784,-0.347845 -0.74838,-0.649992 -1.04353,-1.043533 -0.49224,-0.656309 -0.75938,-1.473896 -1.30442,-2.087062 -0.18269,-0.205534 -0.55384,-0.108345 -0.78265,-0.260885 -0.30697,-0.204652 -0.4971,-0.549018 -0.78265,-0.782648 -0.67303,-0.550669 -1.3635,-1.082924 -2.08706,-1.565296 -1.10446,-0.736309 -2.24952,-1.410351 -3.39147,-2.087062 -1.20631,-0.714849 -2.49512,-1.295263 -3.65237,-2.087065 -0.50748,-0.347226 -0.85113,-0.888905 -1.30441,-1.304415 -5.24767,-4.810363 0.0859,0.0687 -2.60883,-2.087062 -0.19206,-0.153652 -0.3297,-0.368115 -0.52177,-0.521766 -0.24483,-0.195869 -0.53781,-0.325896 -0.78264,-0.521764 -0.19207,-0.153652 -0.30177,-0.411768 -0.52177,-0.521766 -0.15556,-0.07778 -0.34784,0 -0.52176,0 -0.41429,0 -0.5629,0.0275 -1.04354,-0.260885 -0.21091,-0.126545 -0.29339,-0.430416 -0.52176,-0.521763 -0.24223,-0.09689 -0.52177,0 -0.78265,0 -0.86961,0 -1.73922,0 -2.60883,0 -0.4348,0 -0.88493,0.114403 -1.30441,0 -0.5628,-0.153491 -1.0025,-0.629161 -1.5653,-0.782651 -0.41949,-0.114403 -0.87297,0.05393 -1.30441,0 -0.27288,-0.03411 -0.52177,-0.173921 -0.782654,-0.260882 -0.521764,-0.173921 -1.024178,-0.423381 -1.565296,-0.521766 -0.427792,-0.07778 -0.869609,0 -1.304415,0 -0.347845,0 -0.695687,0 -1.043532,0 -1.826178,0 -3.652359,0 -5.478539,0 -2.260987,0 -4.52197,0 -6.782956,0 -0.782648,0 -1.56703,-0.05206 -2.347945,0 -0.52779,0.03519 -1.037505,0.225697 -1.565298,0.260884 -0.780915,0.05206 -1.577205,-0.136014 -2.347945,0 -0.731689,0.12912 -1.360561,0.626967 -2.087062,0.782648 -1.719638,0.368493 -3.476657,0.533935 -5.217657,0.782648 -1.302735,0.186106 -2.627321,0.242218 -3.913243,0.521767 -0.726038,0.157834 -1.382197,0.547692 -2.087065,0.782648 -0.340149,0.113384 -0.707811,0.134987 -1.04353,0.260882 -0.364141,0.136554 -0.674587,0.398785 -1.043533,0.521766 -0.164997,0.055 -0.347842,0 -0.521766,0 -0.434803,0 -0.871768,-0.04326 -1.304414,0 -2.52222,0.252222 -0.291754,0.06452 -2.087063,0.782648 -0.161483,0.06459 -0.347842,0 -0.521766,0 -0.521764,0 -1.055955,-0.113186 -1.565296,0 -2.370762,0.526836 0.382357,0.445296 -1.304415,0.782651 -0.596905,0.11938 -1.229275,-0.119383 -1.82618,0 -0.972254,0.19445 -1.929085,0.469106 -2.869711,0.782648 -4.426503,1.475499 3.390747,-0.730182 -2.347947,1.565296 -0.403706,0.161483 -0.897294,-0.15267 -1.304414,0 -0.345453,0.129545 -0.452654,0.617651 -0.782648,0.782648 -0.566248,0.283125 -1.231212,0.305414 -1.826181,0.521766 -0.365487,0.132906 -0.674587,0.398785 -1.043532,0.521766 -1.912893,0.63763 -0.708605,-0.200956 -2.347944,0.782648 -0.283099,0.16986 -0.499552,0.612791 -0.782648,0.782649 -0.235808,0.141485 -0.536687,0.137903 -0.782651,0.260884 -0.806,0.403 -1.319123,1.085337 -2.087063,1.565296 -0.233195,0.145749 -0.521766,0.173924 -0.782648,0.260885 -0.434805,0.260881 -0.88901,0.491865 -1.304414,0.782648 -1.838164,1.286713 -0.919012,1.020995 -3.130595,2.347944 -0.235804,0.141486 -0.546843,0.119401 -0.782648,0.260884 -0.210913,0.126548 -0.347845,0.347843 -0.521766,0.521767 -0.260882,0.260881 -0.499219,0.546454 -0.782648,0.782648 -0.260882,0.173921 -0.521767,0.347842 -0.782648,0.521766 -0.173924,0 -0.377055,-0.09647 -0.521767,0 -0.161792,0.10786 -0.153021,0.359971 -0.260881,0.521764 -0.06822,0.102327 -0.173924,0.173923 -0.260885,0.260884 -0.260882,0.260882 -0.494551,0.55217 -0.782648,0.782648 -0.151841,0.121473 -0.366205,0.144214 -0.521766,0.260882 -0.19677,0.147579 -0.332812,0.364305 -0.521766,0.521766 -0.334026,0.278355 -0.709505,0.504293 -1.043531,0.782651 -0.377908,0.314923 -0.695688,0.695687 -1.043532,1.04353 -0.434804,0.434805 -0.904238,0.837544 -1.304414,1.304414 -0.282967,0.330129 -0.475195,0.736079 -0.782649,1.043533 -0.307453,0.307453 -0.736078,0.475194 -1.043531,0.782648 -0.978705,0.978704 -0.165057,0.480957 -0.782649,1.304414 -0.147577,0.196771 -0.324995,0.374187 -0.521765,0.521766 -0.155561,0.116671 -0.413904,0.09909 -0.521766,0.260882 -0.09648,0.144711 0.07778,0.366205 0,0.521766 -0.194451,0.388901 -0.541463,0.681752 -0.782649,1.043533 -0.107862,0.161793 -0.123385,0.384268 -0.260883,0.521764 -0.949514,0.949515 -0.183305,-0.277358 -0.782648,0.521766 -0.188126,0.250833 -0.325898,0.537813 -0.521766,0.782648 -0.230477,0.288097 -0.561282,0.487495 -0.782649,0.782651 -0.188125,0.250833 -0.325897,0.537813 -0.521765,0.782648 -0.153652,0.192063 -0.374188,0.324995 -0.521766,0.521766 -0.03897,0.05196 -0.49512,1.016884 -0.521766,1.04353 -0.137497,0.137498 -0.384268,0.123386 -0.521765,0.260884 -0.137498,0.137496 -0.173922,0.347843 -0.260883,0.521764 -0.260883,0.521766 -0.443583,1.090604 -0.782649,1.565299 -0.113022,0.158231 -0.359973,0.153021 -0.521766,0.260882 -0.599343,0.399563 0.111867,0.149015 -0.521765,0.782648 -0.498729,0.498729 -0.691684,-0.03833 -1.043532,0.78265 -1.5265637,3.56198 0.980601,-0.737743 -0.7826485,2.347945 -1.2820978,2.243671 0.1633196,-0.16332 -1.0435317,1.043532 -0.06149,0.06149 0.061491,0.199393 0,0.260882 -0.06149,0.06149 -0.2219926,-0.07778 -0.2608829,0 -0.07778,0.155562 0,0.347845 0,0.521766 0,0.434806 0.1526704,0.897295 0,1.304414 -0.1526701,0.40712 -0.5669248,0.666015 -0.7826486,1.043533 -0.1364356,0.23876 -0.1379014,0.536686 -0.2608829,0.782648 -0.1402201,0.28044 -0.3815453,0.502208 -0.5217657,0.782648 -0.03889,0.07778 0.0275,0.178385 0,0.260882 -0.06149,0.184473 -0.1886657,0.341225 -0.2608829,0.521766 -0.1651865,0.412967 -0.466793,1.441373 -0.5217657,1.826181 -0.036894,0.25826 0.09689,0.540424 0,0.782648 -0.091348,0.228372 -0.368114,0.329702 -0.5217657,0.521766 -0.1958682,0.244835 -0.3815454,0.502208 -0.5217658,0.782648 -0.3047616,0.609523 -0.2608829,0.943121 -0.2608829,1.565299 0,0.137345 0.034834,0.678148 0,0.782648 -0.3756146,1.126845 -0.3224688,-0.117181 -1.0435314,1.565296 -0.7377586,1.721438 -1.2165028,4.097623 -1.0435315,6.000308 0.032462,0.357077 0.173922,0.695688 0.2608829,1.04353 z"
       id="path8" />
    <path
       style="fill:none;stroke:#000000;stroke-width:0.264583px;stroke-linecap:butt;stroke-linejoin:miter;stroke-opacity:1"
       d="m 29.218882,73.047203 c -0.347845,0 -0.695688,0 -1.043533,0 -0.08696,0.08696 -0.144211,0.221993 -0.260882,0.260884 -0.164996,0.055 -0.347845,0 -0.521766,0 -0.695687,0.434803 -1.364734,0.915469 -2.087063,1.304415 -1.769093,0.952587 -0.981409,0.04554 -2.869711,1.304414 -0.521766,0.434803 -1.043532,0.869609 -1.565297,1.304414 0,0.08696 0.06149,0.199393 0,0.260882 -0.06149,0.06149 -0.173922,0 -0.260883,0 -0.173922,0.173921 -0.38533,0.317114 -0.521766,0.521766 -0.04824,0.07236 0,0.173922 0,0.260882 0,0.08696 0,0.173924 0,0.260885 0,0.434803 0.09432,0.879962 0,1.304414 -0.08436,0.37964 -0.398784,0.674587 -0.521766,1.04353 -0.055,0.164997 0,0.347845 0,0.521766 -0.08696,0.521766 -0.07515,1.070015 -0.260883,1.565299 -0.08636,0.230301 -0.424876,0.29569 -0.521765,0.521764 -0.17467,0.407564 -0.205884,0.864422 -0.260883,1.304414 -0.03236,0.258868 0.102767,0.542861 0,0.782651 -0.171278,0.399648 -0.521766,0.695687 -0.782649,1.04353"
       id="path9" />
    <path
       style="fill:none;stroke:#000000;stroke-width:0.264583px;stroke-linecap:butt;stroke-linejoin:miter;stroke-opacity:1"
       d="m 47.219801,75.134268 c -0.434806,0.173921 -0.869612,0.347842 -1.304415,0.521764 -0.08696,0.08696 -0.150886,0.205885 -0.260884,0.260884 -0.07778,0.03889 -0.173921,0 -0.260882,0 -0.608727,0.347842 -1.218896,0.693174 -1.826181,1.04353 -1.653706,0.954064 -3.417199,1.740691 -4.956775,2.869713 -1.090901,0.799994 -1.864185,1.96474 -2.869711,2.869711 -0.316277,0.284652 -2.511202,1.782974 -3.130595,2.608828 -0.05217,0.06957 0.01707,0.175612 0,0.260885 -0.07032,0.351586 -0.21641,0.68775 -0.260881,1.04353 -0.04315,0.345159 0,0.695687 0,1.043532 0,0.260882 0,0.521766 0,0.782648 0,0.956572 0,1.913141 0,2.869713 0,0.260882 -0.03236,0.52378 0,0.782648 0.055,0.439992 0.164692,0.871556 0.260881,1.304415 0.07778,0.350009 0.260885,0.684982 0.260885,1.04353 0,0.274994 -0.260885,0.507656 -0.260885,0.78265 0,0.122981 0.260885,0.137901 0.260885,0.260882 0,0.122981 -0.205886,0.150884 -0.260885,0.260882 -0.03889,0.07778 0,0.173924 0,0.260884"
       id="path10" />
    <path
       style="fill:none;stroke:#000000;stroke-width:0.264583px;stroke-linecap:butt;stroke-linejoin:miter;stroke-opacity:1"
       d="m 58.176882,52.959222 c -4.40386,1.100965 -1.967304,0.212828 -6.000308,2.347946 -0.51556,0.272945 -1.079919,0.459063 -1.565297,0.782649 -0.30698,0.204655 -0.487494,0.561281 -0.782648,0.78265 -0.06957,0.05218 -0.173924,0 -0.260884,0 -0.260882,0.173921 -0.54178,0.32104 -0.782648,0.521764 -2.564326,2.136939 0.747723,-0.486839 -1.304415,1.565299 -0.221707,0.221707 -0.56094,0.300056 -0.782648,0.521766 -0.0497,0.0497 -1.205661,1.579293 -1.304414,1.826178 -0.235122,0.587806 -0.250751,1.254038 -0.521766,1.82618 -0.608727,1.043533 -1.217454,2.087063 -1.826181,3.130595 0,0.260882 0.07167,0.531805 0,0.782648 -0.106839,0.373939 -0.385212,0.679392 -0.521766,1.043533 -0.281972,0.75193 -0.260882,0.776166 -0.260882,1.304414"
       id="path11" />
    <path
       style="fill:none;stroke:#000000;stroke-width:0.264583px;stroke-linecap:butt;stroke-linejoin:miter;stroke-opacity:1"
       d="m 69.655726,71.481907 c -0.08696,0.434805 -0.139067,0.878059 -0.260882,1.304414 -6.864778,24.02672 4.179676,-16.720095 -3.130595,14.348558 -3.047592,12.952271 -2.86971,5.564465 -2.86971,11.217963 0,0.521766 0,1.043532 0,1.565298 0,0.26088 -0.06328,0.52956 0,0.78265 0.02983,0.11931 0.173921,0.17392 0.260882,0.26088"
       id="path12" />
    <path
       style="fill:none;stroke:#000000;stroke-width:0.264583px;stroke-linecap:butt;stroke-linejoin:miter;stroke-opacity:1"
       d="m 92.613421,59.220411 c -1.571482,4.190619 -1.766041,4.498187 -3.130595,10.957081 -0.673772,3.18919 -0.949733,6.451733 -1.565299,9.652667 -0.254942,1.325705 -0.821592,2.581614 -1.04353,3.913243 -0.128667,0.771999 0.116097,1.573956 0,2.347944 -0.147082,0.980538 -0.610341,1.893292 -0.782651,2.869713 -0.09067,0.513827 0,1.04353 0,1.565297 0,6.457383 -0.142962,-0.268177 0.260885,4.174127 0.03936,0.433017 0,0.869609 0,1.304414 0,0.434803 0,0.869609 0,1.304415 0,0.260882 -0.102767,0.542859 0,0.782648 0.171278,0.399648 0.521766,0.695687 0.782648,1.043532"
       id="path13" />
    <path
       style="fill:none;stroke:#000000;stroke-width:0.264583px;stroke-linecap:butt;stroke-linejoin:miter;stroke-opacity:1"
       d="m 78.786627,46.698034 c -2.57015,3.304479 -1.621687,1.967169 -4.43501,6.261188 -0.793168,1.210627 -1.575085,2.428668 -2.347944,3.652361 -0.541539,0.857435 -1.027811,1.748848 -1.565299,2.608828 -0.166177,0.265883 -0.333639,0.531816 -0.521763,0.782649 -0.07379,0.09839 -0.205886,0.150886 -0.260885,0.260884 -0.03889,0.07778 0,0.173921 0,0.260882 0,0.08696 0,0.173921 0,0.260884 0,0.608724 0,1.217451 0,1.826178"
       id="path14" />
    <path
       style="fill:none;stroke:#000000;stroke-width:0.264583px;stroke-linecap:butt;stroke-linejoin:miter;stroke-opacity:1"
       d="m 113.22317,55.307168 c -0.34785,0.08696 -0.72284,0.100537 -1.04353,0.260885 -0.22,0.109998 -0.36981,0.328358 -0.52177,0.521764 -0.8059,1.025686 -1.58289,2.074095 -2.34795,3.130594 -1.06131,1.465623 -2.2518,2.853188 -3.13059,4.43501 -1.82045,3.276801 -0.1406,1.699683 -0.78265,4.695891 -0.12223,0.570402 -0.57782,1.019088 -0.78265,1.565299 -0.0611,0.162845 0,0.347842 0,0.521763 0,0.434806 0,0.869612 0,1.304415 0,1.565298 0,3.130595 0,4.695893"
       id="path15" />
    <path
       style="fill:none;stroke:#000000;stroke-width:0.264583px;stroke-linecap:butt;stroke-linejoin:miter;stroke-opacity:1"
       d="m 129.65879,77.22133 c -5.11979,0.511977 -2.74703,-0.08302 -9.91355,4.43501 -1.63336,1.029721 -3.26516,2.094875 -4.69589,3.391476 -2.03176,1.841283 -4.80544,5.467014 -6.26119,8.087368 -0.0422,0.07602 0,0.173924 0,0.260885 0,0.08696 0,0.173921 0,0.260882 0,0.484796 -0.0554,1.438494 0,1.82618 0.28838,2.018676 0.26088,0.142875 0.26088,1.043533"
       id="path16" />
    <path
       style="fill:none;stroke:#000000;stroke-width:0.264583px;stroke-linecap:butt;stroke-linejoin:miter;stroke-opacity:1"
       d="m 139.83322,85.569583 c -0.64742,0.766259 -1.89173,0.848198 -2.60883,1.565296 -0.59515,0.595148 -3.41872,4.084555 -3.65236,4.435009 -0.0965,0.144711 0,0.347843 0,0.521766 0,0.173922 0,0.347843 0,0.521767 0,0.260881 0.0429,0.525314 0,0.782648 -0.0452,0.271253 -0.10834,0.553839 -0.26088,0.782648 -0.0482,0.07235 -0.21265,-0.07236 -0.26088,0 -0.15255,0.228809 -0.19419,0.515863 -0.26089,0.782648 -0.0211,0.08437 -0.0389,0.183102 0,0.260884 0.055,0.109998 0.20589,0.150884 0.26089,0.260882 0.75223,1.504466 -0.33884,0.06999 0.78264,1.565296 0.0738,0.09839 0.17392,0.173924 0.26088,0.260885 0.17393,0.173921 0.34785,0.347842 0.52177,0.521766 0.087,0.08696 0.15089,0.205883 0.26089,0.260882 0.0778,0.03889 0.19939,-0.06149 0.26088,0 0.0615,0.06149 0,0.173921 0,0.260882 0,0.78265 0,1.565298 0,2.347948"
       id="path17" />
    <path
       style="fill:none;stroke:#000000;stroke-width:0.264583px;stroke-linecap:butt;stroke-linejoin:miter;stroke-opacity:1"
       d="m 61.568358,119.48436 c -0.172421,0.56149 -0.565996,1.02366 -0.782648,1.56529 -0.487807,1.21952 0.0091,0.44063 -0.78265,1.82618 -0.15556,0.27223 -0.33364,0.53182 -0.521764,0.78265 -0.07379,0.0984 -0.205886,0.15089 -0.260885,0.26088 -0.03889,0.0778 0,0.17393 0,0.26089 0,0.17392 0.055,0.35677 0,0.52176 -0.03889,0.11667 -0.187094,0.1625 -0.260881,0.26088 -0.188127,0.25084 -0.405321,0.49154 -0.521767,0.78265 -0.06459,0.16149 0.055,0.35677 0,0.52177 -0.03889,0.11667 -0.173921,0.17392 -0.260881,0.26088 -0.173924,0.17392 -0.430419,0.2934 -0.521767,0.52177 -0.09826,0.24566 0.09826,1.05875 0,1.30441 -0.595365,1.48841 -0.402796,0.16486 -0.782648,1.30442 -0.03624,0.10871 0.04206,0.4797 0,0.52176 -0.06149,0.0615 -0.212645,-0.0724 -0.260884,0 -0.329705,0.49456 -0.260882,1.02143 -0.260882,1.5653 0,0.17392 0.09647,0.37705 0,0.52177 -0.107863,0.16179 -0.405096,0.10532 -0.521766,0.26088 -0.346737,0.46231 -0.260882,1.04131 -0.260882,1.56529 0,0.17393 0.055,0.35677 0,0.52177 -0.03889,0.11667 -0.205886,0.15089 -0.260885,0.26089 -0.122981,0.24596 -0.158752,0.52732 -0.260881,0.78264 -0.07222,0.18054 -0.233384,0.32927 -0.260885,0.52177 -0.06149,0.43043 0,0.86961 0,1.30441 0,0.52177 0,1.04353 0,1.5653 0,1.73922 0,3.47844 0,5.21766"
       id="path18" />
    <path
       style="fill:none;stroke:#000000;stroke-width:0.264583px;stroke-linecap:butt;stroke-linejoin:miter;stroke-opacity:1"
       d="m 70.177492,117.39729 c -0.260881,0.34785 -0.629978,0.63641 -0.782648,1.04353 -0.122137,0.3257 0.08436,0.70608 0,1.04354 -0.615746,2.46298 -0.5008,-0.57942 -1.565298,2.34794 -0.178308,0.49035 0.05762,1.04672 0,1.5653 -0.03037,0.27331 -0.164325,0.52516 -0.260882,0.78265 -0.164431,0.43848 -0.280829,0.90285 -0.521767,1.30441 -0.04474,0.0746 -0.199392,-0.0615 -0.260881,0 -0.137499,0.1375 -0.139412,0.36993 -0.260885,0.52177 -0.230476,0.28809 -0.568203,0.48242 -0.782648,0.78265 -0.226044,0.31646 -0.332899,0.70357 -0.521766,1.04353 -0.24625,0.44325 -0.555882,0.85088 -0.782648,1.30441 -0.07778,0.15556 0.07778,0.36621 0,0.52177 -0.140221,0.28044 -0.381545,0.5022 -0.521766,0.78265 -0.122981,0.24596 -0.108342,0.55384 -0.260882,0.78264 -0.975844,1.46377 -0.703877,0.0246 -1.304415,1.82619 -0.03683,0.11049 0,1.08516 0,1.30441 0,0.087 0.0275,0.17838 0,0.26088 -0.06149,0.18447 -0.16084,0.35503 -0.260881,0.52177 -0.161317,0.26886 -0.422617,0.48519 -0.521767,0.78265 -0.04479,0.13437 0,1.01146 0,1.30441 0,1.04353 0,2.08706 0,3.13059"
       id="path19" />
    <path
       style="fill:none;stroke:#000000;stroke-width:0.264583px;stroke-linecap:butt;stroke-linejoin:miter;stroke-opacity:1"
       d="m 56.089817,151.83383 c -0.937432,0.79886 -2.333551,0.51457 -3.391477,1.04353 -1.085731,0.54287 0.278892,-0.018 -0.260882,0.52177 -0.06149,0.0615 -0.173924,0 -0.260884,0 -0.434804,0.34784 -0.947944,0.61577 -1.304415,1.04353 -0.111342,0.13361 0.07778,0.36621 0,0.52176 -0.109998,0.22 -0.385328,0.31712 -0.521766,0.52177 -0.04824,0.0724 0,0.17392 0,0.26089 0,0.17392 0,0.34784 0,0.52176 0,0.52176 0.05762,1.04672 0,1.5653 -0.155128,1.39616 -0.220972,0.70283 -0.782648,1.82618 -0.03889,0.0778 0,0.17392 0,0.26088 0,0.087 0,0.17392 0,0.26088 0,0.86961 0,1.73922 0,2.60883 0,0.17392 0.09647,0.37706 0,0.52177 -0.10786,0.16179 -0.405096,0.10532 -0.521766,0.26088 -0.583322,0.77776 -0.06664,2.02798 -0.260882,2.86971 -0.185505,0.80386 -0.565582,1.55203 -0.782648,2.34795 -0.04576,0.16779 0,0.34784 0,0.52176 0,0.34785 0,0.69569 0,1.04353 0,1.47834 0,2.95668 0,4.43501"
       id="path20" />
    <path
       style="fill:none;stroke:#000000;stroke-width:0.264583px;stroke-linecap:butt;stroke-linejoin:miter;stroke-opacity:1"
       d="m 48.26333,185.48772 c -0.08696,0.60873 -0.09195,1.23494 -0.260881,1.82618 -0.181256,0.63439 -1.218608,2.75588 -1.565299,3.39148 -0.242808,0.44515 -0.57671,0.84105 -0.782648,1.30441 -0.145619,0.32765 -0.12772,0.71063 -0.260882,1.04353 -0.09135,0.22837 -0.411768,0.30178 -0.521766,0.52177 -0.03889,0.0778 0,0.17392 0,0.26088 0,0.26089 0,0.52177 0,0.78265 0,0.69569 0,1.39138 0,2.08707 0,2.08706 0,4.17412 0,6.26118 0,0.78265 0,1.5653 0,2.34795 0,0.17392 0,0.34784 0,0.52177 0,0.26088 -0.06327,0.52955 0,0.78264 0.02983,0.11931 0.192664,0.15856 0.260882,0.26089 0.107862,0.16179 0.213722,0.33312 0.260884,0.52176 0.03742,0.1497 -0.05349,1.19744 0,1.30442 0.055,0.10999 0.173921,0.17392 0.260882,0.26088"
       id="path21" />
    <path
       style="fill:none;stroke:#000000;stroke-width:0.264583px;stroke-linecap:butt;stroke-linejoin:miter;stroke-opacity:1"
       d="m 59.220411,187.83567 c -0.521766,0.17392 -1.101291,0.22649 -1.565296,0.52176 -0.473061,0.30104 -2.359482,2.47076 -2.608828,2.86971 -0.09218,0.14749 0.07778,0.36621 0,0.52177 -0.109998,0.22 -0.411769,0.30177 -0.521767,0.52177 -0.160348,0.32069 -0.04575,0.75669 -0.260884,1.04353 -0.782648,1.04353 -0.260882,-0.52177 -0.782648,0 -0.05333,0.0533 0.05172,0.67921 0,0.78265 -0.055,0.11 -0.205883,0.15088 -0.260882,0.26088 -0.03889,0.0778 0,0.17392 0,0.26088 0,0.43481 0.04802,0.87227 0,1.30442 0.04367,0.66351 -0.432234,1.19945 -0.521766,1.82618 -0.04919,0.34434 0.05718,0.70042 0,1.04353 -0.03197,0.1918 -0.222748,0.33109 -0.260882,0.52176 -0.05116,0.25582 0.04289,0.52532 0,0.78265 -0.0806,0.48356 -0.308867,0.87862 -0.521766,1.30442"
       id="path22" />
    <path
       style="fill:none;stroke:#000000;stroke-width:0.264583px;stroke-linecap:butt;stroke-linejoin:miter;stroke-opacity:1"
       d="m 68.09043,197.48833 c -2.716464,-0.54329 -0.729951,-0.52224 -4.174127,2.60883 -0.914527,0.83139 -1.904598,1.57586 -2.869711,2.34795 -1.550376,1.2403 -0.560673,0.29979 -1.565296,1.30441 -0.08696,0.087 -0.205886,0.15089 -0.260885,0.26089 -0.03889,0.0778 0.04474,0.18631 0,0.26088 -0.223705,0.37284 -0.629978,0.63641 -0.782648,1.04353 -0.122137,0.3257 0.05719,0.70042 0,1.04353 -0.04881,0.29286 -0.721076,1.18127 -0.782648,1.30442 -0.03889,0.0778 0,0.17392 0,0.26088 0,0.17392 0,0.34784 0,0.52176 0,0.69569 0,1.39138 0,2.08707 0,0.60872 0,1.21745 0,1.82618 0,0.17392 0,0.34784 0,0.52176 0,0.087 -0.04474,0.18632 0,0.26089 0.223706,0.37284 0.511027,0.704 0.782648,1.04353 0.07683,0.096 0.205883,0.15088 0.260882,0.26088 0.07778,0.15556 -0.07778,0.3662 0,0.52177 0.391324,0.78264 0.260885,-0.52177 0.782651,0.78264 0.09689,0.24223 0,0.52177 0,0.78265"
       id="path23" />
    <path
       style="fill:none;stroke:#000000;stroke-width:0.264583px;stroke-linecap:butt;stroke-linejoin:miter;stroke-opacity:1"
       d="m 46.43715,216.2719 c -1.349748,1.09302 -2.907625,1.9386 -4.174125,3.1306 -1.68556,-0.0381 -0.900173,1.68282 -1.565296,2.34794 -0.122984,0.12298 -0.443987,-0.15556 -0.521766,0 -0.0204,0.0408 0,1.23148 0,1.30441 0,1.5653 0,3.1306 0,4.6959"
       id="path24" />
  </g>
</svg>
