<?xml version="1.0" encoding="UTF-8" standalone="no"?>
<!-- Created with Inkscape (http://www.inkscape.org/) -->

<svg
   width="210mm"
   height="297mm"
   viewBox="0 0 210 297"
   version="1.1"
   id="svg1"
   xml:space="preserve"
   inkscape:export-filename="woodpicker3.png"
   inkscape:export-xdpi="96"
   inkscape:export-ydpi="96"
   inkscape:version="1.3.2 (091e20e, 2023-11-25, custom)"
   sodipodi:docname="woodpicker4.svg"
   xmlns:inkscape="http://www.inkscape.org/namespaces/inkscape"
   xmlns:sodipodi="http://sodipodi.sourceforge.net/DTD/sodipodi-0.dtd"
   xmlns="http://www.w3.org/2000/svg"
   xmlns:svg="http://www.w3.org/2000/svg"><sodipodi:namedview
     id="namedview1"
     pagecolor="#ffffff"
     bordercolor="#cccccc"
     borderopacity="1"
     inkscape:showpageshadow="0"
     inkscape:pageopacity="1"
     inkscape:pagecheckerboard="0"
     inkscape:deskcolor="#d1d1d1"
     inkscape:document-units="mm"
     showguides="false"
     inkscape:zoom="1.0141844"
     inkscape:cx="391.44755"
     inkscape:cy="424.47902"
     inkscape:window-width="1920"
     inkscape:window-height="1001"
     inkscape:window-x="-9"
     inkscape:window-y="-9"
     inkscape:window-maximized="1"
     inkscape:current-layer="layer1" /><defs
     id="defs1"><pattern
       id="EMFhbasepattern"
       patternUnits="userSpaceOnUse"
       width="6"
       height="6"
       x="0"
       y="0" /></defs><g
     inkscape:label="Слой 1"
     inkscape:groupmode="layer"
     id="layer1"><ellipse
       style="fill:#f2e0d2;fill-opacity:1;stroke:#00131a;stroke-width:0.264583;stroke-linejoin:round;stroke-opacity:0"
       id="path1"
       cx="-27.93585"
       cy="159.82597"
       rx="14.204348"
       ry="29.699999"
       transform="rotate(-45)" /><ellipse
       style="fill:#343434;fill-opacity:1;stroke:#00131a;stroke-width:0.264583;stroke-linejoin:round;stroke-opacity:0"
       id="path2"
       cx="-22.401712"
       cy="161.48624"
       rx="10.514906"
       ry="27.301865"
       transform="rotate(-45)" /><path
       style="fill:none;stroke:#000000;stroke-width:0.264583px;stroke-linecap:butt;stroke-linejoin:miter;stroke-opacity:1"
       d="m 119.3487,143.46389 c 1e-5,0.97208 -0.13641,2.39818 0.26085,3.39146 0.18838,0.47082 0.55591,0.85088 0.78267,1.30444 0.90047,1.80114 -0.76458,-0.44373 1.04349,2.08708 0.20266,0.2836 1.04441,1.04436 1.30443,1.30442 1.21743,1.21742 2.43487,2.43494 3.65238,3.65235 0.43475,0.43481 0.86958,0.86964 1.30438,1.3044 0.26092,0.26092 0.56826,0.48241 0.78267,0.78267 0.45212,0.63291 0.56597,1.47315 1.0435,2.08709 0.37745,0.48536 0.86964,0.86957 1.30445,1.30438 0.52175,0.52178 1.04352,1.04351 1.56529,1.56526 0.60871,0.60881 1.21744,1.21747 1.82619,1.82623 0.26087,0.26083 0.52176,0.52175 0.7826,0.78264 0.0871,0.0869 0.222,0.14421 0.26091,0.26091 0.055,0.16495 -0.0685,0.36191 -2e-5,0.5218 0.19973,0.46607 0.55588,0.85083 0.78266,1.30441 0.12295,0.24597 0.10833,0.55383 0.26085,0.78265 0.2046,0.30698 0.52175,0.52175 0.7826,0.78267 0.60874,0.60873 1.21744,1.21744 1.82621,1.82614 0.3478,0.34786 0.69566,0.69573 1.04355,1.04352 0.087,0.0869 0.26089,0.13785 0.26088,0.26086 4e-5,0.12302 -0.13792,0.26097 -0.2609,0.2609 -0.275,-2e-5 -0.51296,-0.20696 -0.78267,-0.26087 -0.34108,-0.0682 -0.71353,0.11003 -1.04348,-1e-5 -0.23341,-0.0778 -0.28843,-0.44399 -0.52182,-0.52177 -0.165,-0.055 -0.35675,0.055 -0.52174,-1e-5 -0.11665,-0.0388 -0.17395,-0.1739 -0.26088,-0.26087 -0.43483,-0.43481 -0.86964,-0.86963 -1.30443,-1.30445 -1.39138,-1.39136 -2.78277,-2.7827 -4.1741,-4.17408 -0.69571,-0.69569 -1.39141,-1.39139 -2.08709,-2.08705 -0.6957,-0.69571 -1.44275,-1.34362 -2.08703,-2.08711 -0.48994,-0.5653 -0.84514,-1.23567 -1.30445,-1.82618 -0.15099,-0.19412 -0.34783,-0.34782 -0.52175,-0.52177 -0.69571,-0.69566 -1.39139,-1.39137 -2.08706,-2.08705 -0.52177,-0.52172 -0.95863,-1.14528 -1.5653,-1.56532 -0.54454,-0.3769 -1.27516,-0.41526 -1.8262,-0.78263 -0.5116,-0.34109 -0.86959,-0.86961 -1.30439,-1.30443 -0.95659,-0.95656 -1.91315,-1.9131 -2.86971,-2.8697 -0.52181,-0.52178 -1.04355,-1.04353 -1.56532,-1.5653 -0.0869,-0.087 -0.17394,-0.17389 -0.26088,-0.26086 -0.0871,-0.087 -0.14427,-0.22201 -0.2609,-0.26088 -0.96715,-0.32239 -0.17089,0.35092 -0.7827,-0.26088"
       id="path3" /><path
       style="fill:#343434;fill-opacity:1;stroke:#00131a;stroke-width:1.39443;stroke-linejoin:round;stroke-opacity:0"
       d=""
       id="path4"
       transform="scale(0.26458333)" /><path
       style="fill:#343434;fill-opacity:1;stroke:#00131a;stroke-width:0.0922361;stroke-linejoin:round;stroke-opacity:0"
       d="m 139.5509,171.57523 c -0.24208,-0.089 -0.63098,-0.14028 -0.86415,-0.11413 -0.37664,0.0423 -0.45753,0.0142 -0.72372,-0.25201 -0.21686,-0.21681 -0.36838,-0.29625 -0.54816,-0.28729 -0.24438,0.0122 -0.33133,-0.0704 -5.25808,-4.99715 -4.71495,-4.71499 -5.04097,-5.05611 -5.54347,-5.80025 -0.46008,-0.68128 -0.83365,-1.09247 -2.7014,-2.97357 l -2.16752,-2.18294 -0.88418,-0.32619 -0.88422,-0.32625 -1.87183,-1.90634 c -1.02951,-1.04847 -1.88001,-1.94111 -1.89007,-1.98356 -0.0104,-0.0425 0.15059,-0.15623 0.35672,-0.25318 0.20626,-0.0968 0.61112,-0.38008 0.89971,-0.62962 0.87076,-0.75294 1.38465,-1.79928 1.55734,-3.17117 0.0461,-0.36638 0.0975,-0.65247 0.11425,-0.63578 0.0166,0.0168 0.0803,0.28432 0.14074,0.59479 0.0607,0.31039 0.20265,0.7173 0.31556,0.90415 0.68389,1.13254 0.81963,1.40165 0.81173,1.61527 -0.0184,0.52061 0.6379,1.26966 4.46979,5.10178 l 3.57445,3.57464 0.32239,0.81156 0.32241,0.81157 2.97982,3.01743 c 2.81519,2.85084 2.98033,3.03154 2.98883,3.27238 0.005,0.14016 0.19549,0.56733 0.42343,0.94925 0.22754,0.38212 0.43844,0.81701 0.46787,0.96697 0.0462,0.23595 0.32145,0.54878 2.04268,2.3271 l 1.98925,2.05445 z"
       id="path5" /><ellipse
       style="fill:#162531;fill-opacity:1;stroke:#00131a;stroke-width:0.264583;stroke-linejoin:round;stroke-opacity:0"
       id="path6"
       cx="-29.292234"
       cy="129.45667"
       rx="10.043991"
       ry="7.3047204"
       transform="rotate(-45)" /><path
       style="fill:#d0c8c5;fill-opacity:1;stroke:#000000;stroke-width:0.264583px;stroke-linecap:butt;stroke-linejoin:miter;stroke-opacity:1"
       d="m 63.909304,120.27699 c -0.307426,0.43046 -0.650233,0.83769 -0.922397,1.29124 -0.09984,0.16687 -0.107657,0.37478 -0.184518,0.5534 -0.108271,0.25284 -0.2274,0.50215 -0.368892,0.73793 -0.227708,0.38049 -0.499798,0.73278 -0.737822,1.10689 -0.192488,0.30251 -0.354556,0.62399 -0.553437,0.92236 -0.293386,0.44015 -0.650202,0.83771 -0.922356,1.2913 -0.09983,0.16687 -0.09756,0.37944 -0.184427,0.55341 -0.07776,0.15552 -0.267841,0.22738 -0.368974,0.36891 -0.25773,0.36083 -0.52249,0.71927 -0.737846,1.10688 -0.09464,0.16988 -0.08455,0.38665 -0.184406,0.55346 -0.0895,0.14902 -0.24599,0.24595 -0.36896,0.36891 -0.122975,0.12292 -0.246001,0.24595 -0.368933,0.36895 -0.06151,0.0616 -0.156867,0.10208 -0.184468,0.18445 -0.03851,0.11669 -0.08695,0.282 -1.4e-5,0.3689 0.0616,0.0616 0.122968,-0.12292 0.184458,-0.18444 0.122989,-0.12292 0.245958,-0.24593 0.368941,-0.36895 0.61489,-0.61491 1.229795,-1.22983 1.844687,-1.84475 0.614942,-0.61488 1.229843,-1.22979 1.844751,-1.84468 0.122994,-0.12292 0.246011,-0.24596 0.36892,-0.36899 0.06153,-0.0616 0.106661,-0.14552 0.184476,-0.18444 0.173873,-0.0869 0.391627,-0.0766 0.553418,-0.18442 0.217081,-0.14482 0.368959,-0.36893 0.553427,-0.55344 0.368896,-0.36897 0.73788,-0.73786 1.106816,-1.10681 0.06148,-0.0615 0.123026,-0.12304 0.184471,-0.18445 0.06148,-0.0615 0.167477,-0.099 0.184465,-0.18445 0.109273,-0.54597 0.07531,-1.11423 0.184463,-1.66025 0.01663,-0.0853 0.184565,-0.0974 0.184469,-0.18445 -7e-6,-0.087 -0.211984,-0.10196 -0.184485,-0.18446 0.05497,-0.16501 0.291151,-0.21337 0.368937,-0.36893 0.173943,-0.34783 0.195108,-0.75897 0.368971,-1.10683 0.06599,-0.13233 0.581674,-0.58173 0.737874,-0.7379"
       id="path7" /><path
       style="fill:#d0c8c5;fill-opacity:1;stroke:#00131a;stroke-width:0.0652208;stroke-linejoin:round;stroke-opacity:0"
       d="m 62.799293,125.02398 c -0.213689,0.0468 -0.332289,0.15477 -2.027652,1.84623 -1.662078,1.65784 -1.796022,1.78061 -1.739496,1.59074 0.08055,-0.26964 0.665449,-1.15655 0.957527,-1.45036 0.148344,-0.1495 0.250873,-0.31832 0.289368,-0.47696 0.03367,-0.14099 0.220146,-0.46614 0.435888,-0.76301 0.345913,-0.47473 1.077479,-1.59614 1.827821,-2.80166 0.165392,-0.2658 0.36381,-0.66924 0.440881,-0.89654 0.0932,-0.27511 0.29295,-0.6306 0.597219,-1.063 0.25142,-0.35735 0.454011,-0.67357 0.450181,-0.70276 -0.004,-0.0292 0.494907,-0.29833 1.108161,-0.59823 0.82037,-0.40112 1.073432,-0.50148 0.957589,-0.37981 -0.0929,0.0971 -0.220412,0.37971 -0.310869,0.68639 -0.121324,0.41186 -0.201997,0.56972 -0.385453,0.75312 -0.193284,0.19323 -0.220566,0.25153 -0.163973,0.34833 0.03743,0.064 0.04323,0.14123 0.0129,0.17165 -0.03048,0.0303 -0.08544,0.41676 -0.122318,0.85848 l -0.06697,0.80325 -1.017421,1.01177 c -0.921618,0.91738 -1.038368,1.01673 -1.244127,1.06177 z"
       id="path8" /><path
       style="fill:#eee1d6;fill-opacity:1;stroke:#000000;stroke-width:0.264583px;stroke-linecap:butt;stroke-linejoin:miter;stroke-opacity:1"
       d="m 64.563326,116.07121 c 0.260918,-0.17397 0.535136,-0.32929 0.782666,-0.52173 0.145589,-0.11314 0.260885,-0.26091 0.391321,-0.3913 0.260885,-0.2609 0.52177,-0.52178 0.782662,-0.78264 0.248505,-0.24856 0.387796,-0.44282 0.782649,-0.52173 0.06032,-0.012 0.06898,0.1305 0.13042,0.13051 0.137479,-9e-5 0.253815,-0.13044 0.391341,-0.13044 0.06152,9e-5 0.06898,0.13049 0.130477,0.13041 0.06157,1.7e-4 0.07214,-0.11106 0.130471,-0.13041 0.08404,-0.0277 1.03808,-0.001 1.043508,-2e-5 0.06035,0.0121 0.069,0.13049 0.130397,0.13045 0.06143,0 0.08701,-0.0869 0.130476,-0.13041 0.304322,-0.30436 0.60872,-0.60873 0.913086,-0.91307 0.222352,-0.22237 0.247131,-0.2197 0.391307,-0.65224 0.02736,-0.0824 -0.02754,-0.17838 1.4e-5,-0.26086 0.01966,-0.0582 0.08701,-0.087 0.130425,-0.13051 0.04341,-0.0434 0.08695,-0.0869 0.130481,-0.13041 0.130424,-0.1305 0.260879,-0.2609 0.391352,-0.3913 0.04351,-0.0434 0.118208,-0.0705 0.130481,-0.13042 0.03407,-0.17054 -0.055,-0.35677 1.3e-5,-0.52176 0.03852,-0.11669 0.173945,-0.17386 0.260882,-0.26089 0.217445,-0.21734 0.434798,-0.4348 0.6522,-0.65223 0.652205,-0.65219 1.30439,-1.30444 1.956604,-1.95662 0.04359,-0.0434 0.08693,-0.0871 0.130384,-0.1305 0.0434,-0.0434 0.07212,-0.11105 0.130492,-0.13041 0.08265,-0.0273 0.1784,0.0275 0.260856,-2e-5 0.05824,-0.0198 0.06854,-0.13078 0.130376,-0.13049 0.06159,-4e-5 0.07548,0.10291 0.130428,0.13049 0.122904,0.0617 0.256452,0.10349 0.391306,0.13042 0.08545,0.0168 0.178347,-0.0275 0.260895,7e-5 0.05819,0.0197 0.07769,0.0988 0.130414,0.13052 0.166827,0.0998 0.355003,0.16083 0.521707,0.26089 0.05273,0.0316 0.08695,0.087 0.130514,0.13043 0.08695,0.087 0.173935,0.17386 0.260867,0.26089 0.04354,0.0436 0.08704,0.0869 0.130401,0.13046 0.04343,0.0434 0.130749,0.0685 0.130491,0.13042 -6.5e-5,0.0616 -0.08695,0.0871 -0.130481,0.13042 -8e-6,0.17399 -0.01924,0.34893 -1.2e-5,0.52179 0.02451,0.22036 0.06032,0.44187 0.130472,0.65222 0.01947,0.0584 0.130744,0.0685 0.130427,0.13048 -1.04e-4,0.0613 -0.111069,0.0722 -0.130508,0.13043 -0.02721,0.0825 0.02749,0.17832 -1.4e-5,0.26086 -0.01973,0.0582 -0.087,0.0869 -0.130395,0.13049 -0.0434,0.0434 -0.08693,0.0869 -0.130481,0.13042 -0.173899,0.17395 -0.34784,0.34787 -0.521768,0.52178 -0.739172,0.73918 -1.478317,1.47834 -2.217493,2.21751 -0.652222,0.6522 -1.304405,1.30442 -1.956609,1.95662 -0.26715,0.26717 -0.897723,0.83946 -1.043559,1.04354 -0.05022,0.071 0.02747,0.17837 -2.7e-5,0.26086 -0.02004,0.0595 -0.332566,0.33259 -0.391322,0.39132 -0.26089,0.2609 -0.521774,0.52176 -0.782634,0.78266 -0.08691,0.087 -0.15862,0.19273 -0.260883,0.26089 -0.161702,0.10814 -0.355026,0.16087 -0.521751,0.26094 -0.05282,0.0316 -0.06853,0.13078 -0.130463,0.13041 -0.06149,-9e-5 -0.06898,-0.13049 -0.130408,-0.13049 -0.06148,-9e-5 -0.07214,0.11105 -0.13047,0.13041 -0.299633,0.1 -0.334476,-0.13042 -0.652197,-0.13044 -0.539782,-2e-5 0.422955,0.40188 -0.391322,0.13042 -0.05812,-0.0197 -0.06898,-0.13048 -0.130432,-0.13051 -0.539779,0 0.422956,0.40189 -0.391329,0.13043 -0.116204,-0.0383 -0.275239,-0.35259 -0.391335,-0.39134 -0.814283,-0.2714 0.148412,0.13049 -0.391321,0.13043 -0.06148,-10e-5 -0.07773,-0.0988 -0.130438,-0.13053 -0.166858,-0.0998 -0.355003,-0.16085 -0.521773,-0.26082 -0.05271,-0.0316 -0.07769,-0.0988 -0.130479,-0.13042 -0.166846,-0.0998 -0.359979,-0.15299 -0.521778,-0.26084 -0.10228,-0.0683 -0.173896,-0.17396 -0.260872,-0.26088 -0.217401,-0.21743 -0.434805,-0.43481 -0.652214,-0.65221 -0.04348,-0.0434 -0.08701,-0.0869 -0.130435,-0.13036 -0.04352,-0.0436 -0.17392,-0.087 -0.130438,-0.13053 0.179273,-0.17926 0.434569,-0.2613 0.652204,-0.39134 z"
       id="path10" /><ellipse
       style="fill:#150d0b;fill-opacity:1;stroke:#00131a;stroke-width:0.264583;stroke-linejoin:round;stroke-opacity:0"
       id="path11"
       cx="-34.484631"
       cy="129.75705"
       rx="1.1068324"
       ry="1.0145962"
       transform="rotate(-45)" /><ellipse
       style="fill:#f99e80;fill-opacity:1;stroke:#00131a;stroke-width:0.339511;stroke-linejoin:round;stroke-opacity:0"
       id="path12"
       cx="-87.19825"
       cy="143.50731"
       rx="5.0926566"
       ry="14.259553"
       transform="matrix(0.32456526,-0.94586331,0.88934464,0.45723748,0,0)" /><ellipse
       style="fill:#d5d8d9;fill-opacity:1;stroke:#00131a;stroke-width:0.264583;stroke-linejoin:round;stroke-opacity:0"
       id="path13"
       cx="-24.615362"
       cy="150.32567"
       rx="2.2136648"
       ry="14.112112"
       transform="rotate(-45)" /><path
       style="fill:#d6d1d1;fill-opacity:1;stroke:#000000;stroke-width:0.264583px;stroke-linecap:butt;stroke-linejoin:miter;stroke-opacity:1"
       d="m 97.434537,139.81154 c 0.967135,-0.3224 0.536773,-0.13762 1.304436,-0.52181 0.173848,-0.0869 0.357671,-0.15651 0.521791,-0.26084 1.102386,-0.7016 2.247566,-1.78474 3.130536,-2.60881 0.58439,-0.5455 1.13049,-1.13053 1.6957,-1.69575 0.21744,-0.21744 0.43487,-0.43483 0.65228,-0.65223 0.0871,-0.0869 0.15863,-0.19275 0.26084,-0.26087 0.66983,-0.44656 0.40039,-0.0255 0.91314,-0.65219 0.27533,-0.33657 0.54916,-0.67673 0.78262,-1.04355 0.52459,-0.82436 -0.13463,-0.12612 0.26084,-0.52178 0.0742,-0.0741 0.49949,-0.51731 0.52179,-0.52179 0.34106,-0.0682 0.69569,2e-5 1.04349,3e-5 0.17403,-5e-5 0.34965,-0.0246 0.52179,3e-5 0.13612,0.0194 0.25649,0.10351 0.39135,0.13038 0.40298,0.0807 0.14236,-0.11848 0.39128,0.13044 0.0435,0.0435 0.1308,0.0685 0.13043,0.13053 -1.5e-4,0.0616 -0.0871,0.0869 -0.13048,0.13041 -0.0434,0.0434 -0.087,0.087 -0.13041,0.1305 -0.34783,0.34786 -0.69567,0.69575 -1.04352,1.04359 -0.34785,0.34783 -0.69569,0.69567 -1.04351,1.04353 -0.087,0.087 -0.15868,0.19266 -0.26089,0.26089 -0.23203,0.29185 -0.62916,0.22097 -0.91309,0.39132 -0.10551,0.0633 -0.17389,0.17395 -0.2609,0.2609 -0.13042,0.1305 -0.26086,0.26089 -0.39129,0.39131 -0.087,0.087 -0.16084,0.18939 -0.2609,0.26089 -0.20624,0.1473 -0.45212,0.23564 -0.6522,0.39134 -0.2427,0.18885 -0.4348,0.43482 -0.65219,0.65223 -0.0871,0.0869 -0.17389,0.17395 -0.2609,0.26091 -0.0436,0.0434 -0.0754,0.10293 -0.13042,0.1305 -0.12294,0.0617 -0.28133,0.0478 -0.39132,0.13042 -0.24594,0.18461 -0.43479,0.43483 -0.65215,0.65226 -0.34789,0.34781 -0.69571,0.69569 -1.04355,1.04352 -0.0892,0.0891 -0.2941,0.33297 -0.39136,0.39134 -0.1668,0.0998 -0.35995,0.15298 -0.52178,0.26085 -0.10219,0.0683 -0.15085,0.20585 -0.26087,0.26088 -0.0775,0.039 -0.17389,-9e-5 -0.26084,2e-5 -0.13049,0.0432 -0.27691,0.0542 -0.391341,0.13043 -0.153527,0.10242 -0.226373,0.30881 -0.391333,0.39131 -0.715,0.3575 -1.467421,0.63674 -2.217511,0.91311 -0.266326,0.0981 -0.367181,-0.10669 -0.521753,-0.26093 -0.08692,-0.087 -0.173942,-0.17388 -0.260891,-0.26088 -0.08695,-0.087 -0.222005,-0.14422 -0.260901,-0.26089 -0.01956,-0.0583 0.130759,-0.0686 0.130474,-0.13041 -8.1e-5,-0.0616 -0.130756,-0.0685 -0.130401,-0.13047 -8e-5,-0.0616 0.08701,-0.087 0.130426,-0.1305 0.173893,-0.17394 0.347829,-0.34786 0.521742,-0.52178 0.03144,-0.0316 0.38289,-0.39136 0.391333,-0.3913 0.228304,1e-5 0.130449,0.52825 0.130427,0.91308 z"
       id="path14" /><path
       style="fill:#d2d3d8;fill-opacity:1;stroke:#000000;stroke-width:0.264583px;stroke-linecap:butt;stroke-linejoin:miter;stroke-opacity:1"
       d="m 104.47835,141.11599 c 0.17402,-0.43479 0.31237,-0.88559 0.52175,-1.30444 0.0554,-0.10978 0.1739,-0.17397 0.26092,-0.26092 0.17389,-0.17396 0.34785,-0.34782 0.52178,-0.52178 0.3913,-0.39127 0.78265,-0.78263 1.17399,-1.17396 0.30434,-0.30438 0.60874,-0.60871 0.91306,-0.91306 0.087,-0.087 0.17388,-0.17394 0.26088,-0.2609 0.0434,-0.0434 0.0754,-0.10303 0.1305,-0.13042 0.12296,-0.0617 0.27339,-0.0597 0.39131,-0.13043 0.10553,-0.0633 0.1739,-0.17395 0.26091,-0.2609 0.13041,-0.1305 0.26084,-0.26088 0.39132,-0.39134 0.0436,-0.0434 0.0755,-0.10296 0.13047,-0.13041 1.10854,-0.3695 -0.2429,0.14604 0.6522,-0.39134 0.11794,-0.0704 0.26837,-0.0688 0.39132,-0.13042 0.0551,-0.0272 0.087,-0.087 0.13042,-0.1305 0.087,-0.087 0.15544,-0.19761 0.2609,-0.26091 0.15744,-0.3147 0.45394,-0.0312 0.65222,-0.13045 0.10977,-0.0553 0.15086,-0.20586 0.26085,-0.26087 0.29691,-0.14841 0.21746,0.0434 0.39136,0.13042 0.12292,0.0617 0.26837,0.0688 0.39131,0.13046 0.0551,0.0272 0.0871,0.087 0.1305,0.13042 0.0871,0.087 0.17394,0.17387 0.26089,0.26087 0.17397,0.17391 0.34788,0.34787 0.52179,0.52178 0.0435,0.0435 0.087,0.087 0.1304,0.13044 0.0434,0.0436 0.14968,0.0723 0.13043,0.13052 -0.0385,0.1169 -0.17388,0.17394 -0.26089,0.2609 -0.13047,0.13041 -0.2609,0.2609 -0.39131,0.39131 -0.39136,0.39134 -0.78266,0.78267 -1.17398,1.17397 -0.56525,0.56528 -1.13053,1.1305 -1.69575,1.69576 -0.21741,0.21744 -0.4348,0.43482 -0.6522,0.65217 -0.13042,0.1305 -0.23319,0.2964 -0.39132,0.39136 -0.65147,0.39091 -0.13351,-0.12931 -0.9131,0.13041 -0.11671,0.0385 -0.14422,0.22199 -0.26092,0.26092 -0.0582,0.0197 -0.0793,-0.16459 -0.13042,-0.13052 -0.25585,0.17064 -0.43477,0.43483 -0.65221,0.6522 -0.0869,0.0871 -0.15088,0.20589 -0.2609,0.2609 -0.0776,0.039 -0.17839,-0.0275 -0.2609,-8e-5 -0.11673,0.0385 -0.14431,0.22194 -0.2609,0.26091 -0.0825,0.0273 -0.17838,-0.0275 -0.26086,1e-5 -0.0583,0.0198 -0.0721,0.11105 -0.13045,0.13041 -0.0825,0.0273 -0.17398,3e-5 -0.26086,2e-5 -0.087,0 -0.17843,-0.0276 -0.26091,-8e-5 -0.0582,0.0197 -0.087,0.0871 -0.13043,0.13051 -0.21739,0.21742 -0.43481,0.4348 -0.6522,0.65219 -0.15922,0.15925 -0.25018,0.35144 -0.5218,0.26085 -0.0105,-0.004 -0.38806,-0.381 -0.39135,-0.39138 -0.0273,-0.0825 -0.0387,-0.18314 -1e-5,-0.26085 0.0554,-0.10977 0.20114,-0.15328 0.26087,-0.26089 0.16125,-0.28925 0.26093,-0.60875 0.39134,-0.91308 z"
       id="path15" /><path
       style="fill:#cfd3d7;fill-opacity:1;stroke:#000000;stroke-width:0.264583px;stroke-linecap:butt;stroke-linejoin:miter;stroke-opacity:1"
       d="m 108.52205,144.63783 c 0.67506,-0.8833 1.61909,-1.51499 2.34792,-2.34794 0.36672,-0.41904 0.68708,-0.87661 1.04357,-1.30439 0.15239,-0.18278 0.35184,-0.35186 0.52178,-0.52177 0.30434,-0.30436 0.60869,-0.60871 0.91307,-0.91311 0.21732,-0.21738 0.43477,-0.4348 0.65219,-0.65217 0.0436,-0.0434 0.0755,-0.10296 0.1304,-0.1305 0.12297,-0.0617 0.25389,-0.13046 0.39138,-0.13044 0.0616,-1.4e-4 0.0686,0.13075 0.13041,0.13043 0.12302,-4e-5 0.13787,-0.2609 0.26087,-0.26089 0.0616,1.6e-4 0.0686,0.13079 0.13042,0.13052 0.13745,2e-5 0.25389,-0.13036 0.39132,-0.13043 0.29976,2e-5 0.36117,0.0999 0.52172,0.26092 0.34786,0.34786 0.69569,0.69572 1.04351,1.0435 0.0871,0.0869 0.28501,0.14034 0.26093,0.26093 -0.0361,0.1809 -0.26088,0.26088 -0.39133,0.39134 -0.17388,0.17394 -0.34784,0.3478 -0.52178,0.52173 -0.17387,0.17394 -0.38529,0.31713 -0.52175,0.52176 -0.0487,0.0721 0.0275,0.17839 2e-5,0.2609 -0.0196,0.0582 -0.087,0.087 -0.13045,0.13041 -0.0436,0.0436 -0.087,0.087 -0.13049,0.13041 -0.13042,0.1305 -0.26088,0.26089 -0.39133,0.3913 -0.34784,0.34788 -0.69565,0.69571 -1.04349,1.04356 -0.0734,0.0732 -0.57715,0.60713 -0.6522,0.6522 -0.11816,0.0705 -0.27344,0.0597 -0.39137,0.13044 -0.10546,0.0632 -0.1739,0.17395 -0.26088,0.2609 -0.13047,0.13041 -0.26087,0.26088 -0.39135,0.39129 -0.0435,0.0435 -0.0777,0.0988 -0.13041,0.1305 -0.16684,0.0998 -0.34306,0.18427 -0.52179,0.26084 -0.12642,0.0542 -0.27342,0.0597 -0.39133,0.13042 -0.1055,0.0633 -0.17391,0.17396 -0.26086,0.26088 -0.13046,0.13051 -0.23317,0.29639 -0.39136,0.39134 -0.0749,0.0443 -0.18629,-0.0447 -0.26089,-8e-5 -0.211,0.12642 -0.34788,0.34784 -0.52174,0.52176 -0.0435,0.0435 -0.0721,0.11105 -0.13048,0.13041 -0.0825,0.0273 -0.17842,-0.0274 -0.26087,2e-5 -0.0582,0.0197 -0.0721,0.11105 -0.13042,0.1305 -0.0826,0.0273 -0.18312,0.0387 -0.26085,2e-5 -0.0653,-0.033 -0.54584,-0.54582 -0.65219,-0.65222 -0.087,-0.087 -0.17396,-0.17389 -0.26088,-0.26086 -0.0434,-0.0434 -0.1308,-0.0686 -0.1305,-0.13043 10e-6,-0.0614 0.11094,-0.0722 0.13045,-0.13041 0.0274,-0.0824 -3e-5,-0.17397 -1e-5,-0.26084 0.087,-0.26088 0.1739,-0.52178 0.26087,-0.78265 z"
       id="path16" /><path
       style="fill:#ddd0c8;fill-opacity:1;stroke:#000000;stroke-width:0.264583px;stroke-linecap:butt;stroke-linejoin:miter;stroke-opacity:1"
       d="m 101.21734,154.55139 c 0.0435,0.47829 0.087,0.95658 0.13044,1.43486 -0.0435,0.0434 -0.11818,0.0706 -0.13041,0.1305 -0.0341,0.17055 0.0341,0.3512 -2e-5,0.52176 -0.012,0.0604 -0.13076,0.0686 -0.13048,0.13041 -1e-5,0.0616 0.1305,0.069 0.13046,0.13048 -3e-5,0.0616 -0.11104,0.0722 -0.13047,0.13041 -0.0273,0.0826 0.0275,0.17834 -3e-5,0.26086 -0.0615,0.18449 -0.22276,0.33109 -0.26085,0.52176 -0.0121,0.0603 0.13046,0.069 0.1304,0.13042 9e-5,0.0616 -0.11105,0.0722 -0.13041,0.1305 -0.0274,0.0826 0.0275,0.17834 -3e-5,0.26086 -0.0385,0.1167 -0.26106,0.13777 -0.26088,0.26091 -5e-5,0.0615 0.13045,0.069 0.13044,0.13045 -2e-5,0.0616 -0.13074,0.0686 -0.13041,0.1305 -1e-5,0.0616 0.13047,0.069 0.13046,0.13048 2e-5,0.0436 -0.49377,0.4379 -0.52177,0.52176 -0.0197,0.0582 0.13042,0.0689 0.13041,0.1304 -4e-5,0.0616 -0.13076,0.0686 -0.1304,0.1305 8e-5,0.0616 0.14988,0.0721 0.13041,0.1304 -0.0385,0.11669 -0.19756,0.15543 -0.26088,0.2609 -0.07062,0.11779 -0.06885,0.26834 -0.130447,0.39131 -0.0272,0.0551 -0.0869,0.0871 -0.13048,0.13041 -0.04353,0.21737 -0.06034,0.44183 -0.13045,0.65219 -0.01972,0.0582 -0.087,0.087 -0.130471,0.13041 -0.165064,0.16503 -0.368805,0.448 -0.652219,0.39133 -0.120579,-0.0241 -0.150868,-0.20585 -0.260871,-0.26086 -0.07779,-0.0389 -0.178383,0.0275 -0.260874,2e-5 -0.05842,-0.0195 -0.07205,-0.111 -0.130448,-0.13045 -0.08251,-0.0276 -0.183158,0.0387 -0.260887,2e-5 -0.280438,-0.14028 -0.494435,-0.39828 -0.782651,-0.52176 -0.05651,-0.0244 -0.06853,0.13078 -0.130472,0.13041 -0.02662,-1.2e-4 -0.737193,-0.2544 -0.782648,-0.26088 -0.173932,2e-5 -0.347841,3e-5 -0.521761,1e-5 -0.0435,-0.0435 -0.07207,-0.11104 -0.130451,-0.13047 -0.08249,-0.0275 -0.173958,-8e-5 -0.260879,2e-5 -0.173952,-8e-5 -0.347826,3e-5 -0.521749,3e-5 -0.260922,-7e-5 -0.521779,-1e-5 -0.782652,0 -0.173953,-8e-5 -0.351238,-0.0341 -0.521768,-1e-5 -0.06031,0.012 -0.06854,0.13079 -0.13048,0.13042 -0.539767,0 0.422967,-0.4019 -0.391351,-0.13049 -0.129246,0.0429 -0.262131,0.34825 -0.391287,0.39138 -0.16499,0.055 -0.351241,-0.0342 -0.521757,0 -0.06032,0.012 -0.08701,0.087 -0.130477,0.13041 -0.04346,0.0434 -0.087,0.087 -0.130465,0.13041 -0.106424,0.10637 -0.619526,0.58673 -0.652223,0.65219 -0.03899,0.0776 0.01704,0.17565 10e-7,0.26092 -0.113989,0.56987 -0.179161,0.27673 -0.39132,0.91308 -0.05078,0.15091 0.03621,0.6017 -9e-6,0.78263 -0.0078,0.0407 -0.260904,0.76593 -0.26082,0.7827 -1.6e-5,0.53976 0.401893,-0.42298 0.130414,0.39128 -0.01968,0.0583 -0.102893,0.0755 -0.130468,0.13041 -0.299733,0.5996 0.03378,0.22707 -0.26085,0.52181 -0.20529,0.20536 -0.122246,0.19974 -0.521772,-2e-5 -0.05502,-0.0276 -0.08699,-0.087 -0.130402,-0.13039 -0.08701,-0.087 -0.173959,-0.17397 -0.260918,-0.26092 -0.130426,-0.13041 -0.237794,-0.28899 -0.391305,-0.3913 -0.174031,-0.11605 -0.521764,-0.0916 -0.521793,-0.26091 2.6e-5,-0.0616 0.087,-0.087 0.130478,-0.13041 0.305908,-0.3059 -0.09223,0.0309 0.391325,-0.13043 0.05824,-0.0198 0.087,-0.087 0.13047,-0.13041 0.347845,-0.34784 0.695692,-0.69569 1.043535,-1.04354 0.05877,-0.0587 0.371492,-0.33176 0.391325,-0.39133 0.05499,-0.16501 -0.0341,-0.35121 -1.5e-5,-0.52178 0.02683,-0.13487 0.103523,-0.25646 0.130443,-0.39131 0.01663,-0.0853 -0.02746,-0.17834 1.2e-5,-0.26088 0.01964,-0.0585 0.110889,-0.0722 0.130478,-0.13041 0.08061,-0.24176 0.005,-0.25635 -0.130441,-0.3913 -0.159234,-0.15925 -0.250173,-0.35144 -0.521776,-0.26091 -0.05824,0.0197 -0.06853,0.1308 -0.130417,0.1305 -0.0615,-8e-5 -0.06898,-0.13047 -0.130434,-0.13043 -0.06148,-9e-5 -0.07214,0.11106 -0.130467,0.13041 -0.164989,0.055 -0.356756,-0.055 -0.521773,-2e-5 -0.05824,0.0197 -0.06854,0.13079 -0.130413,0.1305 -0.06154,-1.7e-4 -0.07019,-0.11836 -0.130469,-0.13048 -0.170551,-0.0341 -0.349563,0.0246 -0.521759,1e-5 -0.136115,-0.0194 -0.268365,-0.0689 -0.391306,-0.13043 -0.05498,-0.0275 -0.06898,-0.13046 -0.130452,-0.13046 -0.137488,9e-5 -0.253877,0.13035 -0.391326,0.13043 -0.06148,-1e-4 -0.07206,-0.11103 -0.130428,-0.13042 -0.08249,-0.0275 -0.174828,0.0123 -0.260887,2e-5 -0.509457,-0.0728 -0.953424,-0.19877 -1.434871,-0.39132 -0.218511,-0.0874 -0.497727,-0.35586 -0.78267,-0.26091 -0.05824,0.0198 -0.0869,0.0871 -0.130473,0.13041 -0.04346,0.0434 -0.087,0.087 -0.130408,0.1305 -0.478276,0.47829 -0.956575,0.95657 -1.434861,1.43485 -0.04346,0.0434 -0.08691,0.0871 -0.13041,0.1305 -0.04346,0.0434 -0.06853,0.13079 -0.130474,0.13041 -0.06149,-8e-5 -0.130434,-0.0689 -0.13044,-0.13042 2.6e-5,-0.0616 0.130754,-0.0686 0.130408,-0.1305 4.5e-5,-0.0616 -0.111004,-0.072 -0.130441,-0.13042 -0.02749,-0.0825 -1.05e-4,-0.17395 2.6e-5,-0.26086 3e-6,-0.087 -0.03892,-0.18311 1.9e-5,-0.26088 0.05535,-0.10977 0.173885,-0.17395 0.260886,-0.26089 0.04346,-0.0434 0.130757,-0.0686 0.130473,-0.13042 2.6e-5,-0.0616 -0.149894,-0.0721 -0.130453,-0.13047 0.0385,-0.11668 0.205879,-0.15082 0.260888,-0.2609 0.039,-0.0776 -0.02747,-0.17838 2.4e-5,-0.26087 0.01689,-0.0515 0.45357,-0.45356 0.521764,-0.52178 0.17389,-0.17394 0.347869,-0.3478 0.521774,-0.52175 0.04346,-0.0434 0.08698,-0.087 0.130473,-0.13041 0.04346,-0.0434 0.07221,-0.11097 0.130409,-0.1305 0.08262,-0.0273 0.178409,0.0276 0.260873,-2e-5 0.05823,-0.0198 0.08701,-0.087 0.130473,-0.13041 0.08695,-1e-5 0.178394,0.0275 0.260883,-3e-5 0.05823,-0.0197 0.06858,-0.13069 0.13041,-0.1305 0.0615,9e-5 0.07207,0.11102 0.130448,0.13046 0.164996,0.055 0.356773,-0.055 0.521758,0 0.05833,0.0195 0.07206,0.11102 0.130431,0.13042 0.165011,0.055 0.356781,-0.055 0.521752,-3e-5 0.05833,0.0195 0.07209,0.11108 0.130481,0.1305 0.08251,0.0276 0.178372,-0.0275 0.260872,-2e-5 0.05833,0.0195 0.08701,0.087 0.130416,0.13041 0.130451,0.13046 0.233173,0.29639 0.391345,0.39135 0.149125,0.0895 0.356764,-0.055 0.521757,0 0.08707,0.0291 0.442204,0.48194 0.521745,0.52173 0.07779,0.0389 0.178396,-0.0275 0.260875,-2e-5 0.116645,0.0389 0.144219,0.22203 0.260894,0.26091 0.08252,0.0276 0.178397,-0.0275 0.260887,-2e-5 0.05842,0.0195 0.07204,0.11099 0.130422,0.13043 0.165012,0.055 0.351239,-0.0341 0.52177,2e-5 0.13485,0.027 0.256498,0.10348 0.391333,0.13045 0.08524,0.0172 0.173947,8e-5 0.260879,-2e-5 0.130437,0.0434 0.25649,0.10346 0.391344,0.13045 0.08524,0.0172 0.173948,8e-5 0.260873,-2e-5 0.08695,-10e-6 0.178361,0.0275 0.260867,-2e-5 0.05824,-0.0198 0.07215,-0.11106 0.130472,-0.13041 0.08263,-0.0273 0.178405,0.0276 0.260878,-2e-5 0.05824,-0.0197 0.07215,-0.11106 0.130414,-0.1305 0.923975,-0.30794 -0.864756,0.72759 0.78267,-0.26086 0.05279,-0.0316 0.0869,-0.0871 0.130472,-0.13041 0.130471,-0.13042 0.230045,-0.30173 0.391328,-0.39132 0.246234,-0.6469 0.703386,-0.14747 1.043541,-0.26088 0.116701,-0.0385 0.137871,-0.2609 0.260887,-0.26089 0.34783,-3e-5 -0.151541,0.4019 0.391325,0.13044 0.109757,-0.0553 0.173888,-0.17395 0.260879,-0.26089 0.04346,-0.0434 0.07214,-0.11105 0.13048,-0.13041 0.814308,-0.27141 -0.148462,0.13047 0.391331,0.13044 0.0615,9e-5 0.0869,-0.0871 0.130466,-0.13041 0.130408,-0.1305 0.260889,-0.2609 0.39129,-0.39137 0.304389,-0.30433 0.608743,-0.60872 0.913125,-0.91306 0.04346,-0.0434 0.08693,-0.087 0.130407,-0.13049 0.04346,-0.0434 0.102962,-0.0754 0.130481,-0.13042 0.275883,-0.55184 0.07274,-0.30236 -0.13042,-0.91308 -0.02749,-0.0825 0.02747,-0.1784 9e-6,-0.26088 -0.01954,-0.0582 -0.111049,-0.0721 -0.130451,-0.13046 -0.05495,-0.165 0.03416,-0.35121 1.6e-5,-0.52173 -0.02703,-0.13489 -0.06901,-0.26837 -0.130454,-0.39135 -0.02751,-0.0551 -0.149861,-0.0721 -0.130419,-0.13042 0.03851,-0.11669 0.205886,-0.15083 0.260884,-0.2609 0.168491,-0.33696 -0.225548,-0.34504 -0.260852,-0.52173 -0.03414,-0.1706 0.03405,-0.35127 -9e-6,-0.52177 -0.01203,-0.0603 -0.08698,-0.0869 -0.130464,-0.13047 -0.08696,-0.17391 -0.222755,-0.33109 -0.260843,-0.52172 -0.06822,-0.34114 -4.7e-5,-0.69573 -5.1e-5,-1.04359"
       id="path17" /><ellipse
       style="fill:#343434;fill-opacity:1;stroke:#00131a;stroke-width:0.264583;stroke-linejoin:round;stroke-opacity:0"
       id="path18"
       cx="-88.914413"
       cy="158.37946"
       rx="1.5652972"
       ry="0.4728502"
       transform="rotate(-56.44931)" /><ellipse
       style="fill:#343434;fill-opacity:1;stroke:#00131a;stroke-width:0.279892;stroke-linejoin:round;stroke-opacity:0"
       id="path19"
       cx="-110.58563"
       cy="155.01949"
       rx="2.3865378"
       ry="1.0342102"
       transform="matrix(0.4556778,-0.89014479,0.90177348,0.43220896,0,0)" /><path
       style="fill:#ddd0c8;fill-opacity:1;stroke:#000000;stroke-width:0.264583px;stroke-linecap:butt;stroke-linejoin:miter;stroke-opacity:1"
       d="m 91.326435,161.85234 c 0.06912,0.0692 0.138336,0.13833 0.207529,0.20753 0.04609,0.0462 0.09669,0.0882 0.138348,0.13834 0.071,0.0852 0.115216,0.19017 0.184501,0.27673 0.02705,0.0341 0.06157,0.0615 0.0922,0.0922 0.05381,0.0538 0.107585,0.10756 0.161389,0.16138 0.03079,0.0308 0.06518,0.0581 0.09221,0.0922 0.03463,0.0432 0.06599,0.0896 0.0923,0.13834 0.108148,0.20093 0.02047,0.12358 0.161444,0.29976 0.02705,0.0341 0.06157,0.0615 0.0922,0.0922 0.02304,0.0231 0.05339,0.0407 0.06912,0.0692 0.0236,0.0427 0.02115,0.0967 0.04618,0.13833 0.02233,0.0373 0.06606,0.0576 0.09219,0.0922 0.02066,0.0276 0.03089,0.0615 0.04609,0.0922 0.03079,0.0615 0.05545,0.12649 0.09218,0.18446 0.01759,0.0274 0.04985,0.0428 0.0692,0.0692 0.02714,0.0356 0.04231,0.0795 0.0692,0.11527 0.01928,0.0264 0.04609,0.0461 0.06913,0.0692 0.02304,0.0231 0.04609,0.0461 0.06913,0.069 0.03075,0.0307 0.06526,0.0582 0.09219,0.0922 0.02718,0.0357 0.04509,0.0776 0.06922,0.1153 0.02973,0.0467 0.06354,0.0908 0.0923,0.13835 0.01776,0.0292 0.02611,0.0642 0.04609,0.0922 0.01924,0.0263 0.05338,0.0407 0.06912,0.0692 0.02353,0.0426 0.01921,0.098 0.04618,0.13834 0.03619,0.0543 0.09671,0.0882 0.138346,0.13836 0.06368,0.0537 0.06669,0.14504 0.115314,0.20754 0.03318,0.0431 0.08211,0.0722 0.115288,0.11529 0.108895,0.0193 0.02115,0.0967 0.04617,0.13831 0.01672,0.028 0.05,0.0429 0.06913,0.0692 0.01976,0.0283 0.02611,0.0642 0.04609,0.0922 0.01924,0.0263 0.05084,0.0424 0.06911,0.0692 0.01322,0.0204 0.01059,0.0484 0.02307,0.0691 0.01137,0.0185 0.03076,0.0307 0.04609,0.0461 0.03078,0.0308 0.06157,0.0615 0.09219,0.0922 0.116845,0.11685 -0.02041,-0.0347 0.06922,0.11529 0.01137,0.0185 0.03078,0.0308 0.04609,0.0461 0.0384,0.0383 0.07692,0.0769 0.115315,0.11531 0.01529,0.0153 0.03076,0.0307 0.04609,0.0461 0.01529,0.0153 0.03388,0.0282 0.0461,0.0461 0.01878,0.0287 0.0272,0.0636 0.04609,0.0922 0.01949,0.0293 0.101118,0.087 0.115275,0.11528 0.0069,0.0139 -0.0077,0.0333 8.1e-5,0.0461 0.01675,0.0281 0.04609,0.0461 0.06912,0.0692 0.04609,0.0461 0.0922,0.0922 0.13836,0.13834 0.09991,0.0999 0.199868,0.19986 0.299751,0.29975 0.04609,0.0461 0.0923,0.0923 0.13839,0.13838 0.0073,0.007 0.01194,0.0233 0.02304,0.0231 0.01068,2.5e-4 0.01502,-0.0156 0.02332,-0.0227 0.0077,-0.008 0.01502,-0.0156 0.02337,-0.0227 0.01502,-0.0156 0.03072,-0.0308 0.04611,-0.0461 0.0077,-0.008 0.01962,-0.0125 0.02334,-0.0227 0.08378,-0.25132 -0.01962,0.006 0.02307,-0.20756 0.0013,-0.0111 0.02711,-0.0135 0.02333,-0.0227 -0.0069,-0.0208 -0.03963,-0.0254 -0.04609,-0.0461 0.02348,-0.024 0.03761,-0.0263 0.02264,-0.0693 -0.004,-0.011 -0.01876,-0.0131 -0.02304,-0.0231 -0.09215,-0.21522 5.07e-4,-0.0636 -0.09218,-0.23054 -0.02185,-0.0393 -0.04433,-0.078 -0.06922,-0.11529 -0.0063,-0.009 -0.01972,-0.0126 -0.02302,-0.023 -0.0043,-0.0147 0.0043,-0.0316 -7.1e-5,-0.0461 -0.0035,-0.0106 -0.01529,-0.0153 -0.02304,-0.0231 -0.0073,-0.007 -0.01529,-0.0153 -0.02301,-0.023 -0.03084,-0.0308 -0.06157,-0.0615 -0.0922,-0.0922 -0.03079,-0.0308 -0.06448,-0.0588 -0.09229,-0.0922 -0.181472,-0.22178 -0.06818,-0.0976 -0.184484,-0.36897 -0.01767,-0.0412 -0.04741,-0.0761 -0.0692,-0.11527 -0.01712,-0.0299 -0.03258,-0.0606 -0.04609,-0.0922 -0.0099,-0.0223 -0.01056,-0.0483 -0.02297,-0.0691 -0.02233,-0.0373 -0.0699,-0.0548 -0.09221,-0.0922 -0.01261,-0.0212 -0.01222,-0.0474 -0.02319,-0.0692 -0.08693,-0.14476 -0.0492,-0.0752 -0.115311,-0.20753 -0.01529,-0.0308 -0.03525,-0.0597 -0.04609,-0.0922 -0.0043,-0.0147 0.0066,-0.0324 -8.7e-5,-0.0461 -0.01,-0.0194 -0.0383,-0.0256 -0.0461,-0.0461 -0.02355,-0.0589 -0.02333,-0.12533 -0.04612,-0.18447 -0.05438,-0.14132 -0.125723,-0.27552 -0.18447,-0.41506 -0.08159,-0.19392 -0.253962,-0.64817 -0.345893,-0.85319 -0.04222,-0.0941 -0.09647,-0.18249 -0.138378,-0.27669 -0.01969,-0.0445 -0.02695,-0.0936 -0.04618,-0.13834 -0.0046,-0.0101 -0.01545,-0.0155 -0.02302,-0.023 -0.0073,-0.007 -0.01529,-0.0153 -0.02304,-0.0231 -0.01543,-0.0153 -0.03075,-0.0307 -0.04609,-0.0461 -0.02304,-0.0231 -0.05249,-0.0412 -0.06914,-0.0693 -0.03011,-0.0501 -0.04075,-0.11018 -0.06919,-0.16139 -0.01048,-0.019 -0.03078,-0.0308 -0.04609,-0.0461 -0.02302,-0.023 -0.04609,-0.0461 -0.06912,-0.0692 -0.06156,-0.0615 -0.122971,-0.12298 -0.18448,-0.18449 -0.353566,-0.35357 -0.70711,-0.70712 -1.06073,-1.06071 -0.02171,-0.0218 -0.05128,-0.0442 -0.06911,-0.0691 -0.03241,-0.0451 -0.06247,-0.0916 -0.0922,-0.13834 -0.02391,-0.038 -0.04231,-0.0795 -0.06922,-0.1153 -0.01928,-0.0264 -0.04609,-0.0461 -0.06912,-0.0692 -0.0073,-0.007 -0.01529,-0.0308 -0.02304,-0.0231 -0.0077,0.008 0.01529,0.0153 0.02304,0.0231 0.01529,0.0153 0.03472,0.0277 0.04609,0.0461 0.04721,0.0788 0.005,0.0696 0.0231,0.16141 0.0021,0.0106 0.01534,0.0154 0.02304,0.0231"
       id="path20" /><ellipse
       style="fill:#343434;fill-opacity:1;stroke:#00131a;stroke-width:0.264583;stroke-linejoin:round;stroke-opacity:0"
       id="path21"
       cx="-17.328079"
       cy="190.79857"
       rx="0.7011227"
       ry="2.1359785"
       transform="rotate(-34.985215)" /></g></svg>
