<?xml version="1.0" encoding="UTF-8" standalone="no"?>
<!-- Created with Inkscape (http://www.inkscape.org/) -->

<svg
   width="210mm"
   height="297mm"
   viewBox="0 0 210 297"
   version="1.1"
   id="svg1"
   xml:space="preserve"
   inkscape:export-filename="woodpicker1.png"
   inkscape:export-xdpi="96"
   inkscape:export-ydpi="96"
   inkscape:version="1.3.2 (091e20e, 2023-11-25, custom)"
   sodipodi:docname="woodpicker2.svg"
   xmlns:inkscape="http://www.inkscape.org/namespaces/inkscape"
   xmlns:sodipodi="http://sodipodi.sourceforge.net/DTD/sodipodi-0.dtd"
   xmlns="http://www.w3.org/2000/svg"
   xmlns:svg="http://www.w3.org/2000/svg"><sodipodi:namedview
     id="namedview1"
     pagecolor="#ffffff"
     bordercolor="#cccccc"
     borderopacity="1"
     inkscape:showpageshadow="0"
     inkscape:pageopacity="1"
     inkscape:pagecheckerboard="0"
     inkscape:deskcolor="#d1d1d1"
     inkscape:document-units="mm"
     showguides="false"
     inkscape:zoom="1.0141844"
     inkscape:cx="391.44755"
     inkscape:cy="424.47902"
     inkscape:window-width="1920"
     inkscape:window-height="1001"
     inkscape:window-x="-9"
     inkscape:window-y="-9"
     inkscape:window-maximized="1"
     inkscape:current-layer="layer1" /><defs
     id="defs1"><pattern
       id="EMFhbasepattern"
       patternUnits="userSpaceOnUse"
       width="6"
       height="6"
       x="0"
       y="0" /></defs><g
     inkscape:label="Слой 1"
     inkscape:groupmode="layer"
     id="layer1"><ellipse
       style="fill:#f2e0d2;fill-opacity:1;stroke:#00131a;stroke-width:0.264583;stroke-linejoin:round;stroke-opacity:0"
       id="path1"
       cx="60.394009"
       cy="153.83105"
       rx="14.204348"
       ry="29.699999"
       transform="rotate(-15)" /><ellipse
       style="fill:#343434;fill-opacity:1;stroke:#00131a;stroke-width:0.264583;stroke-linejoin:round;stroke-opacity:0"
       id="path2"
       cx="65.928146"
       cy="155.49132"
       rx="10.514906"
       ry="27.301865"
       transform="rotate(-15)" /><path
       style="fill:none;stroke:#000000;stroke-width:0.264583px;stroke-linecap:butt;stroke-linejoin:miter;stroke-opacity:1"
       d="m 115.39556,155.26562 c -0.48604,0.84184 -1.31723,2.00868 -1.46984,3.06751 -0.0723,0.50193 0.056,1.01484 0.0256,1.52102 -0.12074,2.01006 -0.44028,-0.76657 -0.13985,2.32921 0.0337,0.34693 0.3823,1.42664 0.47745,1.78187 0.44562,1.66303 0.8912,3.32615 1.33688,4.98921 0.1591,0.59394 0.31826,1.18793 0.47743,1.78184 0.0955,0.35643 0.25092,0.70191 0.28647,1.06915 0.0751,0.77418 -0.24642,1.55877 -0.13984,2.32922 0.0842,0.60906 0.31834,1.18789 0.47749,1.78185 0.19097,0.71275 0.38196,1.42547 0.57296,2.1382 0.22275,0.8316 0.4456,1.66309 0.66841,2.49466 0.0955,0.35632 0.19098,0.71273 0.28643,1.06908 0.0319,0.11881 0.12015,0.2359 0.0955,0.35641 -0.0349,0.17034 -0.2403,0.27916 -0.26092,0.45189 -0.0601,0.50348 0.056,1.01478 0.0256,1.52098 -0.0165,0.2745 -0.18308,0.5338 -0.16538,0.80823 0.0237,0.36816 0.19097,0.71272 0.28642,1.06911 0.22281,0.83154 0.4456,1.66306 0.66847,2.49459 0.12728,0.47516 0.2546,0.95035 0.38198,1.42549 0.0318,0.11877 0.15701,0.24983 0.0955,0.35635 -0.0615,0.10655 -0.24993,0.15704 -0.3564,0.0955 -0.23815,-0.13751 -0.34076,-0.43571 -0.54738,-0.61725 -0.26126,-0.22965 -0.67293,-0.26153 -0.90367,-0.52176 -0.16324,-0.18408 -0.0278,-0.52872 -0.19102,-0.71277 -0.11541,-0.13014 -0.33647,-0.13074 -0.45184,-0.26088 -0.0816,-0.092 -0.0637,-0.23758 -0.0955,-0.35636 -0.15916,-0.59397 -0.31831,-1.18794 -0.47744,-1.7819 -0.50929,-1.90064 -1.0186,-3.80128 -1.52783,-5.70191 -0.25467,-0.95034 -0.5093,-1.90069 -0.76395,-2.85099 -0.25464,-0.95035 -0.57765,-1.88498 -0.76387,-2.851 -0.14164,-0.73454 -0.11408,-1.4927 -0.2166,-2.23374 -0.0337,-0.24361 -0.12732,-0.47514 -0.19096,-0.71274 -0.25467,-0.95032 -0.5093,-1.90066 -0.76393,-2.85097 -0.191,-0.71271 -0.25755,-1.47116 -0.57293,-2.13826 -0.28312,-0.59868 -0.89668,-0.99721 -1.19021,-1.59088 -0.27252,-0.55119 -0.31829,-1.1879 -0.47742,-1.78186 -0.35015,-1.3067 -0.70028,-2.61337 -1.05039,-3.92009 -0.19102,-0.71278 -0.38198,-1.4255 -0.57296,-2.13825 -0.0318,-0.11875 -0.0637,-0.23756 -0.0955,-0.35635 -0.0319,-0.11885 -0.0139,-0.26439 -0.0955,-0.35637 -0.67639,-0.76279 -0.32346,0.21845 -0.5474,-0.61728"
       id="path3" /><path
       style="fill:#343434;fill-opacity:1;stroke:#00131a;stroke-width:1.39443;stroke-linejoin:round;stroke-opacity:0"
       d=""
       id="path4"
       transform="scale(0.26458333)" /><path
       style="fill:#343434;fill-opacity:1;stroke:#00131a;stroke-width:0.0922361;stroke-linejoin:round;stroke-opacity:0"
       d="m 118.8355,189.71185 c -0.16516,-0.19809 -0.4763,-0.43697 -0.69132,-0.53091 -0.34735,-0.15163 -0.40331,-0.2165 -0.50075,-0.58011 -0.0794,-0.2962 -0.1709,-0.44075 -0.33108,-0.52288 -0.21773,-0.11162 -0.25171,-0.22667 -2.05504,-6.9567 -1.72578,-6.44078 -1.83756,-6.89921 -1.90067,-7.7949 -0.0578,-0.82004 -0.17572,-1.36293 -0.85269,-3.92588 l -0.78566,-2.97424 -0.60263,-0.72458 -0.60263,-0.72466 -0.66788,-2.58685 c -0.36735,-1.42276 -0.65759,-2.62106 -0.64508,-2.66285 0.0125,-0.0419 0.20854,-0.06 0.43553,-0.0409 0.22702,0.0193 0.71928,-0.0236 1.09398,-0.0954 1.13057,-0.2167 2.09878,-0.86591 2.93428,-1.96765 0.22312,-0.29424 0.41068,-0.5163 0.41683,-0.49349 0.006,0.0228 -0.0729,0.28631 -0.17554,0.58547 -0.10262,0.29916 -0.18314,0.72253 -0.17879,0.9408 0.026,1.32275 0.009,1.62368 -0.10465,1.80473 -0.27626,0.44165 -0.0824,1.41851 1.32005,6.65317 l 1.30825,4.88295 -0.12658,0.86403 -0.12657,0.86404 1.07188,4.10309 c 1.01261,3.87649 1.06528,4.11555 0.95221,4.32837 -0.0658,0.12385 -0.11436,0.58907 -0.10792,1.0338 0.006,0.44469 -0.0288,0.92676 -0.0783,1.07135 -0.0779,0.22746 0.004,0.63598 0.60547,3.03666 l 0.69552,2.77383 z"
       id="path5" /><ellipse
       style="fill:#162531;fill-opacity:1;stroke:#00131a;stroke-width:0.264583;stroke-linejoin:round;stroke-opacity:0"
       id="path6"
       cx="59.037624"
       cy="123.46175"
       rx="10.043991"
       ry="7.3047204"
       transform="rotate(-15)" /><path
       style="fill:#d0c8c5;fill-opacity:1;stroke:#000000;stroke-width:0.264583px;stroke-linecap:butt;stroke-linejoin:miter;stroke-opacity:1"
       d="m 78.977073,107.46548 c -0.481465,0.21907 -0.981961,0.40034 -1.444434,0.65704 -0.169905,0.0946 -0.280625,0.27074 -0.436499,0.387 -0.220185,0.16483 -0.448007,0.32117 -0.688435,0.45462 -0.387446,0.21566 -0.799227,0.38471 -1.192416,0.58968 -0.317955,0.16574 -0.619051,0.36312 -0.94047,0.52207 -0.474156,0.23449 -0.981947,0.40038 -1.444438,0.65713 -0.169889,0.0946 -0.274208,0.27982 -0.436423,0.38705 -0.145097,0.0958 -0.345648,0.063 -0.503996,0.135 -0.403614,0.18362 -0.812124,0.36166 -1.192433,0.58966 -0.166895,0.0998 -0.266545,0.29258 -0.436429,0.38711 -0.152024,0.0843 -0.336007,0.09 -0.503986,0.13501 -0.167969,0.045 -0.33602,0.09 -0.50398,0.13505 -0.08407,0.0226 -0.186898,0.01 -0.251978,0.0675 -0.0917,0.0818 -0.216297,0.20075 -0.184456,0.31947 0.02257,0.0841 0.167961,-0.045 0.251965,-0.0675 0.167982,-0.045 0.335969,-0.09 0.503987,-0.13505 0.839964,-0.22508 1.67995,-0.45017 2.519921,-0.67526 0.839995,-0.22503 1.679969,-0.4501 2.519941,-0.67516 0.167989,-0.045 0.336029,-0.09 0.503987,-0.13509 0.08409,-0.0226 0.165133,-0.0727 0.251983,-0.0675 0.194013,0.0117 0.377452,0.12947 0.571494,0.11696 0.260413,-0.0169 0.503993,-0.13502 0.756003,-0.20258 0.503958,-0.13509 1.007954,-0.27007 1.511936,-0.40512 0.084,-0.0225 0.16805,-0.045 0.25198,-0.0675 0.084,-0.0225 0.194546,-0.002 0.251975,-0.0675 0.367617,-0.41819 0.622337,-0.9273 0.989879,-1.3456 0.05706,-0.0656 0.208516,0.008 0.251979,-0.0675 0.04347,-0.0753 -0.132604,-0.19429 -0.06754,-0.25199 0.130118,-0.11541 0.358826,-0.0392 0.503973,-0.13503 0.324555,-0.21426 0.548452,-0.55973 0.872954,-0.77406 0.123313,-0.0816 0.794608,-0.21295 1.007967,-0.2701"
       id="path7" /><path
       style="fill:#d0c8c5;fill-opacity:1;stroke:#00131a;stroke-width:0.0652208;stroke-linejoin:round;stroke-opacity:0"
       d="m 75.642285,111.02148 c -0.208464,-0.0663 -0.36516,-0.0321 -2.679115,0.58506 -2.26832,0.60469 -2.445704,0.64404 -2.301817,0.50787 0.204582,-0.19324 1.154572,-0.66888 1.55442,-0.77728 0.203221,-0.0553 0.376423,-0.15024 0.489083,-0.26838 0.09965,-0.10527 0.423719,-0.29361 0.758994,-0.44284 0.536938,-0.23818 1.731194,-0.84356 2.983769,-1.5124 0.276135,-0.14749 0.649692,-0.39768 0.830082,-0.55598 0.218276,-0.19166 0.569007,-0.39965 1.048709,-0.62198 0.39641,-0.18376 0.729968,-0.35632 0.741249,-0.38352 0.01109,-0.0272 0.577764,-0.0109 1.258809,0.036 0.911025,0.0628 1.180361,0.10242 1.019202,0.14987 -0.129034,0.0377 -0.38074,0.21864 -0.612412,0.43899 -0.311003,0.29603 -0.459797,0.3924 -0.710375,0.4595 -0.264004,0.0707 -0.31678,0.10755 -0.31617,0.21968 4.27e-4,0.0741 -0.0332,0.14392 -0.07466,0.1551 -0.04155,0.011 -0.282372,0.31821 -0.535169,0.6823 l -0.45963,0.66216 -1.386994,0.3675 c -1.256833,0.33366 -1.407619,0.36133 -1.608332,0.29746 z"
       id="path8" /><path
       style="fill:#eee1d6;fill-opacity:1;stroke:#000000;stroke-width:0.264583px;stroke-linecap:butt;stroke-linejoin:miter;stroke-opacity:1"
       d="m 81.646365,104.15017 c 0.312946,-0.0202 0.628087,-0.0176 0.938676,-0.0605 0.182656,-0.0252 0.356383,-0.0955 0.534542,-0.14321 0.356383,-0.0955 0.712756,-0.19099 1.069128,-0.28646 0.339488,-0.091 0.557248,-0.18959 0.938654,-0.0605 0.05827,0.0197 -0.0055,0.1475 0.0477,0.17823 0.119093,0.0687 0.285041,0.0139 0.40413,0.0827 0.05324,0.0308 -0.0055,0.1475 0.04779,0.17817 0.05325,0.0309 0.118004,-0.0601 0.178197,-0.0477 0.08671,0.0177 0.899518,0.51815 0.903713,0.52174 0.04623,0.0406 -0.0055,0.14751 0.0477,0.17817 0.05321,0.0307 0.118787,-0.0317 0.178201,-0.0477 0.415729,-0.11142 0.831534,-0.22282 1.247291,-0.3342 0.303747,-0.0814 0.32387,-0.0667 0.665001,-0.3692 0.0649,-0.0577 0.06534,-0.16825 0.130444,-0.22591 0.04609,-0.0405 0.118841,-0.0318 0.1782,-0.0478 0.05931,-0.0159 0.118747,-0.0318 0.178207,-0.0477 0.178201,-0.0478 0.356376,-0.0955 0.534571,-0.1432 0.05941,-0.0159 0.137634,-0.002 0.178207,-0.0477 0.114774,-0.13066 0.130749,-0.33648 0.260892,-0.45185 0.09171,-0.0818 0.237573,-0.0636 0.356376,-0.0955 0.296982,-0.0795 0.593947,-0.15915 0.890936,-0.23875 0.890924,-0.23871 1.781854,-0.47748 2.672781,-0.71618 0.05944,-0.0158 0.11881,-0.0319 0.178157,-0.0478 0.0593,-0.0159 0.117989,-0.0601 0.178219,-0.0477 0.08531,0.0174 0.140763,0.113 0.225914,0.13042 0.06024,0.0123 0.124749,-0.079 0.178149,-0.0478 0.05337,0.0307 0.01391,0.12686 0.04771,0.17822 0.0756,0.11485 0.170349,0.21785 0.273675,0.30859 0.06563,0.0572 0.16819,0.0654 0.22591,0.13049 0.04053,0.0462 0.0179,0.12437 0.04768,0.17823 0.09458,0.16984 0.227026,0.31679 0.321364,0.4868 0.02984,0.0538 0.03179,0.11883 0.04782,0.1782 0.03178,0.11884 0.0637,0.23754 0.09547,0.35638 0.01591,0.0595 0.03191,0.1188 0.0477,0.17818 0.0159,0.0593 0.07897,0.12472 0.0478,0.1782 -0.03086,0.0533 -0.118832,0.0319 -0.178207,0.0477 -0.087,0.15068 -0.191124,0.29256 -0.260906,0.45188 -0.08896,0.20309 -0.168701,0.41283 -0.213119,0.63007 -0.0123,0.0603 0.07897,0.12471 0.04771,0.17822 -0.03074,0.053 -0.132292,0.007 -0.178236,0.0477 -0.06484,0.0579 -0.06536,0.16818 -0.130445,0.22591 -0.04618,0.0405 -0.118773,0.0317 -0.178169,0.0478 -0.0593,0.0159 -0.118727,0.0318 -0.178207,0.0477 -0.237578,0.0637 -0.475172,0.12734 -0.712754,0.19099 -1.009731,0.27056 -2.01943,0.54112 -3.02916,0.81167 -0.890944,0.23872 -1.781859,0.47746 -2.672783,0.71618 -0.364943,0.0978 -1.19718,0.27813 -1.425518,0.38195 -0.079,0.0364 -0.06539,0.16821 -0.130448,0.2259 -0.04711,0.0415 -0.454309,0.12175 -0.534559,0.14324 -0.356388,0.0955 -0.71275,0.19097 -1.069109,0.28648 -0.118734,0.0318 -0.233735,0.0876 -0.356377,0.0955 -0.194107,0.0128 -0.387896,-0.0382 -0.582319,-0.0349 -0.06153,9.5e-4 -0.124741,0.079 -0.178188,0.0477 -0.05321,-0.0308 0.0055,-0.1475 -0.04769,-0.17821 -0.0532,-0.0308 -0.118002,0.0601 -0.178194,0.0477 -0.309455,-0.0633 -0.224457,-0.28018 -0.499597,-0.43907 -0.467458,-0.2699 0.165348,0.55952 -0.404109,-0.0827 -0.04048,-0.0461 0.0055,-0.1475 -0.0477,-0.17824 -0.467457,-0.2699 0.165349,0.55952 -0.404117,-0.0827 -0.08147,-0.0913 -0.06207,-0.44297 -0.143235,-0.53458 -0.569492,-0.64218 0.06328,0.18722 -0.40411,-0.0827 -0.0532,-0.0308 -0.0179,-0.12445 -0.0477,-0.17826 -0.09461,-0.16985 -0.227017,-0.3168 -0.321456,-0.48677 -0.02985,-0.0537 -0.0179,-0.12439 -0.04779,-0.17818 -0.0946,-0.16984 -0.235255,-0.31248 -0.321453,-0.48678 -0.05444,-0.11028 -0.06362,-0.2376 -0.09548,-0.35637 -0.07956,-0.297 -0.159147,-0.59396 -0.238732,-0.89093 -0.01593,-0.0594 -0.03189,-0.11878 -0.04778,-0.17812 -0.01589,-0.0595 -0.107104,-0.16233 -0.0477,-0.17826 0.244883,-0.0656 0.506995,-0.009 0.760492,-0.0128 z"
       id="path10" /><ellipse
       style="fill:#150d0b;fill-opacity:1;stroke:#00131a;stroke-width:0.264583;stroke-linejoin:round;stroke-opacity:0"
       id="path11"
       cx="53.845226"
       cy="123.76212"
       rx="1.1068324"
       ry="1.0145962"
       transform="rotate(-15)" /><ellipse
       style="fill:#f99e80;fill-opacity:1;stroke:#00131a;stroke-width:0.339511;stroke-linejoin:round;stroke-opacity:0"
       id="path12"
       cx="-0.35785499"
       cy="177.27849"
       rx="5.0926566"
       ry="14.259553"
       transform="matrix(0.75401341,-0.65685902,0.54157631,0.84065159,0,0)" /><ellipse
       style="fill:#d5d8d9;fill-opacity:1;stroke:#00131a;stroke-width:0.264583;stroke-linejoin:round;stroke-opacity:0"
       id="path13"
       cx="63.714497"
       cy="144.33075"
       rx="2.2136648"
       ry="14.112112"
       transform="rotate(-15)" /><path
       style="fill:#d6d1d1;fill-opacity:1;stroke:#000000;stroke-width:0.264583px;stroke-linecap:butt;stroke-linejoin:miter;stroke-opacity:1"
       d="m 98.243503,141.14551 c 0.998751,0.20441 0.533756,0.14888 1.390583,0.20031 0.193986,0.0117 0.388004,0.0433 0.582304,0.035 1.30549,-0.0564 2.83882,-0.42184 4.01553,-0.69402 0.77884,-0.18022 1.5443,-0.41382 2.31639,-0.62071 0.29703,-0.0796 0.59402,-0.15914 0.89101,-0.23872 0.11889,-0.0317 0.23374,-0.0876 0.35633,-0.0955 0.80337,-0.0518 0.35949,0.17813 1.1169,-0.10824 0.40673,-0.15381 0.81394,-0.31148 1.19954,-0.51243 0.86649,-0.45162 -0.0535,-0.17653 0.48678,-0.32145 0.10141,-0.0271 0.69123,-0.19826 0.71278,-0.19099 0.32946,0.1115 0.60248,0.34786 0.90368,0.52177 0.15073,0.087 0.31511,0.15353 0.45187,0.26092 0.10816,0.0849 0.17037,0.21789 0.27372,0.30859 0.30866,0.27135 0.18252,-0.0314 0.27365,0.3086 0.0159,0.0594 0.079,0.12475 0.0477,0.17826 -0.0309,0.0533 -0.11889,0.0317 -0.1782,0.0477 -0.0593,0.0159 -0.11887,0.0318 -0.17819,0.0478 -0.47516,0.12734 -0.95034,0.2547 -1.42551,0.38202 -0.47516,0.12729 -0.95031,0.25461 -1.42546,0.38196 -0.11886,0.0318 -0.23376,0.0875 -0.3564,0.0955 -0.34686,0.13673 -0.65534,-0.12324 -0.98641,-0.11766 -0.123,0.002 -0.23757,0.0637 -0.35639,0.0955 -0.1782,0.0478 -0.35636,0.0955 -0.53453,0.14323 -0.11883,0.0318 -0.23398,0.0836 -0.35639,0.0955 -0.25225,0.0244 -0.50936,-0.022 -0.76049,0.0128 -0.30461,0.0422 -0.59396,0.15917 -0.89093,0.23876 -0.11893,0.0317 -0.23757,0.0637 -0.3564,0.0955 -0.0594,0.0158 -0.11683,0.0514 -0.17819,0.0478 -0.13734,-0.008 -0.26758,-0.0992 -0.40411,-0.0827 -0.30529,0.0369 -0.59396,0.15918 -0.89091,0.23879 -0.47518,0.12727 -0.95034,0.25463 -1.4255,0.38194 -0.12179,0.0326 -0.42118,0.14132 -0.53459,0.14324 -0.19434,0.003 -0.38822,-0.0475 -0.58231,-0.035 -0.12263,0.008 -0.23357,0.10286 -0.35636,0.0955 -0.0867,-0.005 -0.15055,-0.087 -0.22589,-0.13044 -0.13468,-0.0276 -0.26692,-0.0915 -0.40413,-0.0827 -0.18416,0.0119 -0.35045,0.15425 -0.534564,0.14323 -0.797957,-0.0479 -1.589189,-0.18229 -2.376973,-0.31799 -0.279689,-0.0482 -0.264644,-0.27598 -0.321386,-0.48685 -0.0318,-0.11876 -0.0637,-0.23755 -0.0955,-0.35637 -0.0318,-0.11883 -0.12015,-0.2359 -0.0955,-0.35639 0.01227,-0.0603 0.147527,0.006 0.178198,-0.0477 0.03073,-0.0534 -0.07897,-0.12473 -0.0477,-0.17819 0.03073,-0.0534 0.118839,-0.0318 0.178202,-0.0478 0.23757,-0.0637 0.475158,-0.12734 0.71273,-0.191 0.04305,-0.0117 0.527276,-0.14749 0.53456,-0.14322 0.197716,0.11414 -0.151161,0.52271 -0.343591,0.85597 z"
       id="path14" /><path
       style="fill:#d2d3d8;fill-opacity:1;stroke:#000000;stroke-width:0.264583px;stroke-linecap:butt;stroke-linejoin:miter;stroke-opacity:1"
       d="m 103.6914,145.7971 c 0.3681,-0.28953 0.71331,-0.61076 1.10407,-0.86881 0.10283,-0.0674 0.23759,-0.0637 0.35643,-0.0955 0.23757,-0.0637 0.47515,-0.12729 0.71275,-0.19098 0.53452,-0.1432 1.06912,-0.28645 1.6037,-0.42969 0.41575,-0.11143 0.83153,-0.22278 1.24726,-0.3342 0.11881,-0.0318 0.23755,-0.0637 0.35638,-0.0955 0.0593,-0.0159 0.11683,-0.0515 0.17822,-0.0477 0.13735,0.008 0.26661,0.085 0.4041,0.0827 0.12302,-0.002 0.23758,-0.0637 0.35641,-0.0955 0.17818,-0.0478 0.35633,-0.0955 0.53456,-0.14324 0.0594,-0.0158 0.11684,-0.0514 0.17819,-0.0477 1.14478,0.23426 -0.28337,0.005 0.76049,-0.0128 0.13734,-0.002 0.26684,0.0745 0.40411,0.0827 0.0614,0.004 0.11885,-0.0318 0.17819,-0.0478 0.11884,-0.0318 0.23342,-0.0934 0.3564,-0.0955 0.2937,-0.19381 0.40876,0.19989 0.63006,0.21317 0.12271,0.007 0.23358,-0.10285 0.35634,-0.0955 0.33134,0.0199 0.16661,0.14636 0.27372,0.30863 0.0756,0.11486 0.198,0.19379 0.27365,0.30865 0.0341,0.0511 0.0319,0.11886 0.0478,0.17819 0.0319,0.11882 0.0637,0.23754 0.0955,0.35636 0.0637,0.23759 0.12733,0.47521 0.19099,0.71277 0.0159,0.0594 0.0318,0.11879 0.0477,0.17816 0.0158,0.0594 0.0935,0.13743 0.0477,0.17825 -0.0918,0.082 -0.23755,0.0637 -0.35638,0.0955 -0.1782,0.0477 -0.3564,0.0955 -0.53454,0.14323 -0.5346,0.14324 -1.06914,0.28648 -1.60368,0.4297 -0.77217,0.20692 -1.54432,0.41378 -2.31645,0.6207 -0.29699,0.0796 -0.59396,0.15916 -0.8909,0.23869 -0.1782,0.0478 -0.35015,0.1401 -0.53457,0.14327 -0.75965,0.0128 -0.051,-0.17875 -0.85598,-0.34361 -0.12042,-0.0247 -0.23589,0.12014 -0.35642,0.0955 -0.0602,-0.0123 0.0136,-0.18219 -0.0477,-0.17824 -0.30687,0.0198 -0.59394,0.15918 -0.89093,0.23871 -0.11881,0.0319 -0.23361,0.10287 -0.35639,0.0955 -0.0868,-0.005 -0.14075,-0.11302 -0.22592,-0.13047 -0.12043,-0.0247 -0.23595,0.12005 -0.35641,0.0955 -0.0852,-0.0174 -0.14073,-0.113 -0.2259,-0.13043 -0.0603,-0.0123 -0.11798,0.0601 -0.17818,0.0477 -0.0852,-0.0173 -0.15068,-0.087 -0.22592,-0.13043 -0.0753,-0.0435 -0.14075,-0.11304 -0.22592,-0.13052 -0.0602,-0.0123 -0.11883,0.0319 -0.1782,0.0478 -0.29698,0.0796 -0.59396,0.15915 -0.89093,0.23872 -0.21751,0.0583 -0.39237,0.17926 -0.58231,-0.035 -0.007,-0.009 -0.14557,-0.52399 -0.14323,-0.53461 0.0173,-0.0852 0.0579,-0.17801 0.13044,-0.22591 0.10283,-0.0674 0.25084,-0.0322 0.35637,-0.0955 0.28427,-0.16987 0.53034,-0.39673 0.79546,-0.59508 z"
       id="path15" /><path
       style="fill:#cfd3d7;fill-opacity:1;stroke:#000000;stroke-width:0.264583px;stroke-linecap:butt;stroke-linejoin:miter;stroke-opacity:1"
       d="m 105.43243,150.86896 c 1.02627,-0.42744 2.15967,-0.50248 3.20732,-0.85942 0.52711,-0.17954 1.03333,-0.41563 1.55596,-0.60785 0.22336,-0.0821 0.48064,-0.1288 0.71276,-0.19097 0.41574,-0.11142 0.8315,-0.22282 1.2473,-0.33425 0.2969,-0.0796 0.59392,-0.15916 0.89089,-0.2387 0.0594,-0.0158 0.11687,-0.0514 0.17818,-0.0478 0.13737,0.008 0.2851,0.014 0.40417,0.0827 0.0534,0.0307 -0.006,0.14751 0.0477,0.17816 0.10655,0.0615 0.24985,-0.15702 0.35637,-0.0955 0.0533,0.031 -0.006,0.14755 0.0477,0.17824 0.11904,0.0687 0.28506,0.014 0.40411,0.0827 0.2596,0.14984 0.26284,0.26708 0.32136,0.48682 0.12732,0.47518 0.25463,0.95035 0.38196,1.42545 0.0319,0.11882 0.17665,0.26405 0.0955,0.35643 -0.12168,0.13862 -0.35637,0.0955 -0.53457,0.14325 -0.23756,0.0637 -0.47514,0.12729 -0.71273,0.19094 -0.23755,0.0637 -0.49225,0.082 -0.71274,0.19099 -0.0782,0.0381 -0.0654,0.16824 -0.13047,0.22594 -0.0461,0.0405 -0.11882,0.0318 -0.17818,0.0477 -0.0595,0.0159 -0.11883,0.0318 -0.17822,0.0477 -0.17819,0.0478 -0.35637,0.0955 -0.53455,0.14321 -0.47518,0.12735 -0.95031,0.25468 -1.42547,0.382 -0.10013,0.0267 -0.80339,0.23721 -0.89092,0.23872 -0.13758,0.002 -0.26666,-0.085 -0.40416,-0.0827 -0.12295,0.002 -0.23758,0.0637 -0.35638,0.0955 -0.17819,0.0477 -0.35636,0.0955 -0.53457,0.1432 -0.0594,0.0159 -0.1167,0.0467 -0.17818,0.0478 -0.19438,0.003 -0.38924,-0.0119 -0.5823,-0.035 -0.13657,-0.0163 -0.26664,-0.085 -0.40412,-0.0827 -0.12299,0.002 -0.23759,0.0637 -0.35635,0.0955 -0.17824,0.0478 -0.35013,0.14009 -0.5346,0.14323 -0.087,9.6e-4 -0.13898,-0.13189 -0.22591,-0.13046 -0.24594,0.004 -0.47519,0.12729 -0.71272,0.19098 -0.0594,0.0159 -0.11803,0.0601 -0.1782,0.0477 -0.0852,-0.0173 -0.14078,-0.11303 -0.22593,-0.13043 -0.0602,-0.0123 -0.11802,0.0601 -0.17819,0.0478 -0.0853,-0.0174 -0.17798,-0.0579 -0.22591,-0.13045 -0.04,-0.0612 -0.1998,-0.74561 -0.2387,-0.89093 -0.0318,-0.11884 -0.0637,-0.23757 -0.0955,-0.35635 -0.0159,-0.0593 -0.079,-0.12477 -0.0478,-0.17821 0.0307,-0.0532 0.13215,-0.007 0.17818,-0.0477 0.0649,-0.0577 0.087,-0.15067 0.13044,-0.2259 0.20579,-0.18241 0.41149,-0.36492 0.61725,-0.54735 z"
       id="path16" /><path
       style="fill:#ddd0c8;fill-opacity:1;stroke:#000000;stroke-width:0.264583px;stroke-linecap:butt;stroke-linejoin:miter;stroke-opacity:1"
       d="m 94.14958,155.80199 c -0.20148,0.43596 -0.402947,0.87193 -0.604461,1.30785 -0.05936,0.0159 -0.137631,0.002 -0.178188,0.0478 -0.11478,0.13066 -0.14608,0.32119 -0.260896,0.45185 -0.04059,0.0463 -0.147531,-0.006 -0.178202,0.0477 -0.03081,0.0533 0.07851,0.125 0.04774,0.17822 -0.03081,0.0533 -0.132262,0.007 -0.178196,0.0477 -0.06491,0.0579 -0.06538,0.16819 -0.130452,0.22591 -0.145472,0.12905 -0.35846,0.17535 -0.486789,0.32143 -0.0406,0.0462 0.07849,0.12497 0.04772,0.17814 -0.03072,0.0534 -0.132272,0.007 -0.178184,0.0478 -0.06501,0.0578 -0.06538,0.16819 -0.130452,0.22591 -0.0917,0.0818 -0.294977,-0.0112 -0.356385,0.0955 -0.0308,0.0533 0.07848,0.12497 0.04774,0.1782 -0.03081,0.0533 -0.147511,-0.006 -0.178186,0.0478 -0.03081,0.0533 0.07849,0.12498 0.04774,0.17823 -0.02176,0.0377 -0.64657,0.13235 -0.712747,0.19098 -0.04614,0.0405 0.07848,0.1249 0.04774,0.17813 -0.03084,0.0533 -0.147532,-0.006 -0.17818,0.0478 -0.03073,0.0534 0.09375,0.13739 0.04774,0.17814 -0.0917,0.0818 -0.248801,0.0358 -0.356385,0.0955 -0.120056,0.0667 -0.193795,0.19797 -0.30862,0.27366 -0.05111,0.0341 -0.118779,0.0319 -0.178205,0.0477 -0.14639,0.16649 -0.273175,0.35247 -0.439067,0.49959 -0.04617,0.0405 -0.118831,0.0318 -0.178197,0.0477 -0.225469,0.0604 -0.543395,0.20358 -0.760505,0.0128 -0.09236,-0.0812 -0.02773,-0.25371 -0.09549,-0.35635 -0.04791,-0.0726 -0.16823,-0.0654 -0.225928,-0.13044 -0.04083,-0.0461 -0.0069,-0.13216 -0.04774,-0.1782 -0.05768,-0.0651 -0.17802,-0.0579 -0.225944,-0.13043 -0.172729,-0.2617 -0.229053,-0.59214 -0.416914,-0.84319 -0.03673,-0.0494 -0.124745,0.079 -0.178196,0.0477 -0.02302,-0.0133 -0.51123,-0.58891 -0.547356,-0.61725 -0.150625,-0.087 -0.301244,-0.17393 -0.451859,-0.26088 -0.01592,-0.0594 -0.0069,-0.1322 -0.04774,-0.17821 -0.05769,-0.0651 -0.150626,-0.087 -0.225933,-0.13044 -0.150619,-0.087 -0.301242,-0.17388 -0.451862,-0.26085 -0.225944,-0.13047 -0.451869,-0.2609 -0.677795,-0.39133 -0.15062,-0.087 -0.287118,-0.20517 -0.45186,-0.26089 -0.05826,-0.0197 -0.12475,0.079 -0.178206,0.0477 -0.467452,-0.26989 0.567248,-0.13657 -0.273675,-0.30869 -0.133428,-0.0273 -0.401138,0.17053 -0.534553,0.1433 -0.170369,-0.0349 -0.287106,-0.2052 -0.451857,-0.26087 -0.05827,-0.0197 -0.118834,0.0318 -0.178202,0.0477 -0.05936,0.0159 -0.118829,0.0318 -0.178191,0.0477 -0.145348,0.0389 -0.829886,0.19835 -0.890936,0.2387 -0.07258,0.0477 -0.07306,0.16063 -0.130457,0.22596 -0.383653,0.43653 -0.293524,0.15008 -0.795431,0.59509 -0.119436,0.1053 -0.269491,0.53919 -0.391322,0.67777 -0.02707,0.0314 -0.608918,0.53287 -0.617228,0.54743 -0.269894,0.46744 0.559538,-0.16536 -0.0827,0.40407 -0.04617,0.0406 -0.126849,0.0139 -0.178193,0.0477 -0.559376,0.3694 -0.08428,0.21354 -0.486805,0.32147 -0.280466,0.0752 -0.20574,0.11186 -0.45186,-0.2609 -0.03385,-0.0514 -0.03186,-0.1188 -0.04774,-0.17812 -0.03186,-0.11883 -0.06367,-0.23764 -0.0955,-0.35643 -0.04775,-0.17814 -0.06144,-0.36917 -0.143232,-0.53452 -0.09269,-0.18752 -0.406045,-0.34024 -0.321432,-0.48685 0.03081,-0.0533 0.118832,-0.0318 0.178203,-0.0477 0.417876,-0.11197 -0.09529,-0.0195 0.404113,0.0827 0.06024,0.0123 0.118829,-0.0318 0.178196,-0.0477 0.475164,-0.12732 0.950328,-0.25463 1.425495,-0.38196 0.08026,-0.0215 0.487603,-0.10157 0.534564,-0.14324 0.130119,-0.11541 0.146076,-0.32121 0.260875,-0.45188 0.09067,-0.10339 0.217885,-0.17034 0.308625,-0.27367 0.05706,-0.0656 0.06539,-0.16818 0.130447,-0.22591 0.04624,-0.0408 0.1321,-0.007 0.178204,-0.0477 0.190688,-0.16906 0.132545,-0.21948 0.08269,-0.4041 -0.05828,-0.21752 -0.04094,-0.42943 -0.321421,-0.48683 -0.06024,-0.0123 -0.124745,0.079 -0.178192,0.0478 -0.05322,-0.0308 0.0055,-0.14749 -0.04774,-0.17818 -0.0532,-0.0308 -0.118003,0.0601 -0.178192,0.0477 -0.170368,-0.0349 -0.281462,-0.226 -0.451861,-0.2609 -0.06024,-0.0123 -0.124747,0.079 -0.178188,0.0478 -0.05322,-0.0309 -0.0016,-0.1376 -0.04774,-0.17824 -0.130651,-0.11479 -0.315038,-0.15346 -0.451865,-0.26086 -0.108159,-0.0849 -0.197959,-0.19386 -0.273667,-0.30861 -0.03387,-0.0513 0.0055,-0.14747 -0.04774,-0.17821 -0.119103,-0.0687 -0.285053,-0.014 -0.404114,-0.0827 -0.0532,-0.0308 -0.0069,-0.13218 -0.04775,-0.17816 -0.05768,-0.0651 -0.157536,-0.0768 -0.225936,-0.13046 -0.404817,-0.31775 -0.726306,-0.64885 -1.046974,-1.05633 -0.145529,-0.18496 -0.253112,-0.55705 -0.547357,-0.61729 -0.06024,-0.0123 -0.11878,0.0319 -0.178198,0.0477 -0.05936,0.0159 -0.118831,0.0318 -0.178183,0.0478 -0.653342,0.17507 -1.306703,0.35013 -1.960053,0.52519 -0.05936,0.0159 -0.118779,0.0319 -0.178185,0.0478 -0.05936,0.0159 -0.124745,0.079 -0.178198,0.0477 -0.05321,-0.0308 -0.07849,-0.12492 -0.04775,-0.17817 0.03082,-0.0533 0.147523,0.006 0.178183,-0.0478 0.03084,-0.0533 -0.06012,-0.11787 -0.04775,-0.17817 0.01743,-0.0852 0.08689,-0.1507 0.130453,-0.2259 0.04348,-0.0753 0.05786,-0.17804 0.130461,-0.22592 0.102816,-0.0674 0.237564,-0.0637 0.356381,-0.0955 0.05936,-0.0159 0.147525,0.006 0.178198,-0.0477 0.03082,-0.0533 -0.09375,-0.13741 -0.04774,-0.17822 0.09169,-0.0818 0.253716,-0.0277 0.356386,-0.0955 0.07259,-0.0477 0.0654,-0.16822 0.130452,-0.22591 0.0404,-0.0362 0.619585,-0.16601 0.712751,-0.19099 0.237566,-0.0637 0.475168,-0.12728 0.712747,-0.19097 0.05936,-0.0159 0.11881,-0.0318 0.178199,-0.0477 0.05936,-0.0159 0.118022,-0.06 0.178184,-0.0478 0.08528,0.0174 0.140734,0.11304 0.225927,0.13044 0.06023,0.0123 0.11884,-0.0318 0.178198,-0.0477 0.0753,0.0435 0.140754,0.11301 0.225946,0.13041 0.06023,0.0123 0.124739,-0.0789 0.178185,-0.0478 0.05322,0.0308 0.0069,0.13218 0.04775,0.1782 0.115406,0.1301 0.336476,0.13076 0.451855,0.26088 0.04078,0.046 0.0069,0.13218 0.04774,0.17817 0.115413,0.13014 0.336483,0.13077 0.451866,0.26085 0.04078,0.046 0.0069,0.13224 0.04775,0.17825 0.05768,0.0651 0.168218,0.0654 0.225925,0.13044 0.04078,0.046 0.03187,0.11882 0.04774,0.17815 0.04774,0.1782 0.05374,0.37326 0.143237,0.53459 0.08442,0.15203 0.336468,0.13076 0.451855,0.26088 0.06087,0.0687 0.141988,0.63848 0.190978,0.71271 0.04791,0.0726 0.168244,0.0654 0.225929,0.13044 0.08156,0.092 0.01388,0.26439 0.09549,0.35639 0.05769,0.0651 0.168245,0.0654 0.225939,0.13045 0.04083,0.0461 0.0069,0.13214 0.04774,0.17816 0.115414,0.13014 0.321226,0.14608 0.451852,0.26091 0.103281,0.0908 0.170393,0.21787 0.273679,0.30864 0.06522,0.0575 0.150614,0.087 0.225934,0.13044 0.09125,0.10283 0.170395,0.21785 0.27369,0.30864 0.06522,0.0575 0.150615,0.087 0.225927,0.13044 0.0753,0.0435 0.140722,0.113 0.225924,0.13043 0.06024,0.0123 0.118009,-0.0601 0.178197,-0.0477 0.08528,0.0174 0.140732,0.11303 0.225932,0.13044 0.06024,0.0123 0.118003,-0.0601 0.17819,-0.0478 0.954163,0.19527 -1.112695,0.19773 0.808245,0.16541 0.06153,-9.6e-4 0.118779,-0.0319 0.178197,-0.0477 0.178196,-0.0477 0.350092,-0.14629 0.53456,-0.14323 0.536696,-0.43712 0.682897,0.22394 1.03417,0.29585 0.120403,0.0247 0.249853,-0.15702 0.356381,-0.0955 0.301241,0.1739 -0.332185,0.27228 0.273676,0.30863 0.122697,0.007 0.237568,-0.0637 0.356375,-0.0955 0.05936,-0.0159 0.118008,-0.0601 0.178204,-0.0477 0.840917,0.1721 -0.193817,0.0388 0.273682,0.30863 0.05322,0.0308 0.118776,-0.0319 0.178192,-0.0477 0.178183,-0.0478 0.356387,-0.0955 0.534552,-0.14329 0.415773,-0.11136 0.831543,-0.22279 1.247315,-0.33416 0.05936,-0.0159 0.11878,-0.0319 0.178182,-0.0478 0.05936,-0.0159 0.126867,-0.0138 0.178207,-0.0477 0.514838,-0.33996 0.214171,-0.22548 0.343591,-0.85596 0.01743,-0.0852 0.112994,-0.14076 0.130447,-0.22592 0.01224,-0.0602 -0.06012,-0.11794 -0.04774,-0.17821 0.03491,-0.17037 0.205192,-0.28708 0.260881,-0.45183 0.04407,-0.13032 0.07442,-0.26691 0.0827,-0.40414 0.0037,-0.0614 -0.09374,-0.13736 -0.04774,-0.17816 0.09169,-0.0818 0.253721,-0.0277 0.356381,-0.0955 0.3144,-0.20758 -0.02281,-0.41159 0.03496,-0.58226 0.05574,-0.16481 0.205119,-0.28718 0.260878,-0.45187 0.01975,-0.0583 -0.03186,-0.11878 -0.04775,-0.17823 0.01164,-0.19409 -0.02737,-0.3981 0.03496,-0.58224 0.111486,-0.32954 0.347824,-0.60254 0.521747,-0.90379"
       id="path17" /><ellipse
       style="fill:#343434;fill-opacity:1;stroke:#00131a;stroke-width:0.264583;stroke-linejoin:round;stroke-opacity:0"
       id="path18"
       cx="-1.1522628"
       cy="170.03737"
       rx="1.5652972"
       ry="0.4728502"
       transform="rotate(-26.44931)" /><ellipse
       style="fill:#343434;fill-opacity:1;stroke:#00131a;stroke-width:0.279892;stroke-linejoin:round;stroke-opacity:0"
       id="path19"
       cx="-25.247118"
       cy="176.45804"
       rx="2.3865378"
       ry="1.0342102"
       transform="matrix(0.83970094,-0.5430491,0.56485427,0.82519068,0,0)" /><path
       style="fill:#ddd0c8;fill-opacity:1;stroke:#000000;stroke-width:0.264583px;stroke-linecap:butt;stroke-linejoin:miter;stroke-opacity:1"
       d="m 81.933332,157.17935 c 0.02526,0.0945 0.05064,0.18897 0.07596,0.28349 0.01685,0.063 0.03964,0.12474 0.05064,0.18898 0.01891,0.10925 0.0047,0.2223 0.02142,0.3319 0.0064,0.043 0.02259,0.084 0.03373,0.12598 0.0197,0.0735 0.03939,0.14695 0.05907,0.22047 0.01128,0.042 0.0274,0.0829 0.03374,0.12598 0.0084,0.0547 0.01235,0.11058 0.01076,0.16596 -0.0068,0.22808 -0.04406,0.11725 -0.01006,0.34032 0.0064,0.043 0.02259,0.084 0.03373,0.12599 0.0084,0.0315 0.0259,0.0619 0.02526,0.0945 -8.69e-4,0.0487 -0.03003,0.0943 -0.02918,0.14289 6.83e-4,0.0435 0.02842,0.0829 0.03373,0.12595 0.0041,0.0342 -0.004,0.0687 -0.0062,0.10291 -0.0041,0.0687 -0.01523,0.13727 -0.0124,0.20584 0.0015,0.0325 0.02178,0.062 0.0253,0.0946 0.0057,0.0444 -0.0031,0.09 0.0023,0.13443 0.0035,0.0325 0.01685,0.063 0.02527,0.0945 0.0084,0.0315 0.01685,0.063 0.02539,0.0943 0.01127,0.042 0.02742,0.083 0.03373,0.12596 0.0057,0.0445 2.71e-4,0.0897 0.0023,0.13447 0.0024,0.0553 0.0096,0.11044 0.01076,0.16597 7.69e-4,0.0342 -0.0095,0.0687 -0.0062,0.10291 0.0035,0.0324 0.0259,0.0619 0.02526,0.0945 -8.95e-4,0.0486 -0.03236,0.0944 -0.02918,0.14289 0.0042,0.0651 0.03964,0.12475 0.05063,0.189 0.02827,0.0784 -0.01476,0.15895 -0.0039,0.23739 0.0072,0.0539 0.035,0.10359 0.0422,0.15749 0.08468,0.0711 -0.03004,0.0943 -0.02917,0.14287 4.52e-4,0.0326 0.02184,0.0622 0.02527,0.0945 0.003,0.0343 -0.0095,0.0687 -0.0062,0.10291 0.0035,0.0324 0.02285,0.0621 0.02525,0.0945 0.0013,0.0243 -0.015,0.0472 -0.01458,0.0714 6.31e-4,0.0217 0.01128,0.042 0.01685,0.063 0.01127,0.042 0.02259,0.084 0.03373,0.12596 0.04277,0.15962 -3.31e-4,-0.0402 0.0023,0.13445 6.32e-4,0.0217 0.01127,0.042 0.01685,0.063 0.01414,0.0523 0.02816,0.10504 0.04221,0.15752 0.0056,0.0209 0.01128,0.042 0.01685,0.063 0.0056,0.0209 0.01523,0.0414 0.01686,0.063 0.0019,0.0343 -0.0083,0.0687 -0.0062,0.10291 0.0022,0.0352 0.04408,0.12589 0.04219,0.15747 -9.29e-4,0.0155 -0.02333,0.025 -0.02295,0.0399 4.77e-4,0.0327 0.01685,0.063 0.02526,0.0945 0.01685,0.063 0.03374,0.12597 0.05065,0.18899 0.03656,0.1365 0.07316,0.27302 0.109715,0.40947 0.01685,0.063 0.03381,0.12603 0.05066,0.18903 0.0025,0.0102 -0.0013,0.0261 0.0084,0.0315 0.009,0.006 0.02081,-0.006 0.03155,-0.008 0.0107,-0.003 0.02081,-0.006 0.0316,-0.008 0.02081,-0.006 0.04201,-0.0113 0.06299,-0.0169 0.01071,-0.003 0.02324,-0.001 0.03157,-0.008 0.198217,-0.17575 -0.02023,-0.004 0.12375,-0.16821 0.0067,-0.009 0.03018,0.002 0.03156,-0.008 0.0044,-0.0215 -0.02162,-0.0418 -0.01685,-0.063 0.03232,-0.009 0.04573,-0.004 0.05426,-0.0487 0.0021,-0.0116 -0.0097,-0.0207 -0.0084,-0.0315 0.0278,-0.23247 0.03223,-0.0548 0.03544,-0.24575 7e-4,-0.0449 6.01e-4,-0.0897 -0.0023,-0.13445 -8.89e-4,-0.0111 -0.01076,-0.0208 -0.0084,-0.0315 0.0036,-0.0149 0.01951,-0.0252 0.02296,-0.0399 0.0023,-0.011 -0.0056,-0.0209 -0.0084,-0.0315 -0.0025,-0.0102 -0.0056,-0.0209 -0.0084,-0.0315 -0.01132,-0.0421 -0.02259,-0.084 -0.03374,-0.12597 -0.01128,-0.042 -0.02643,-0.0832 -0.03381,-0.12602 -0.04627,-0.2828 -0.01027,-0.11858 0.02472,-0.41178 0.0053,-0.0445 -0.003,-0.0896 -0.0023,-0.13443 10e-5,-0.0344 0.0021,-0.0688 0.0062,-0.10291 0.0026,-0.0243 0.01501,-0.0471 0.01463,-0.0713 -6.83e-4,-0.0435 -0.03314,-0.0824 -0.03374,-0.12599 -3.9e-4,-0.0246 0.01314,-0.0472 0.01455,-0.0715 -0.0029,-0.16882 -0.005,-0.0897 0.0039,-0.23738 0.0021,-0.0343 -6.85e-4,-0.0693 0.0062,-0.10291 0.0036,-0.0149 0.02191,-0.0248 0.023,-0.04 0.0011,-0.0218 -0.02039,-0.0413 -0.01686,-0.063 0.0091,-0.0628 0.04242,-0.12022 0.05227,-0.18282 0.02357,-0.14958 0.02888,-0.30147 0.04777,-0.45169 0.0263,-0.20874 0.104144,-0.68831 0.127043,-0.91183 0.0105,-0.10261 0.0077,-0.20627 0.01851,-0.30881 0.0052,-0.0484 0.02348,-0.0946 0.02916,-0.1429 0.0011,-0.011 -0.0056,-0.0212 -0.0084,-0.0315 -0.0025,-0.0102 -0.0056,-0.0209 -0.0084,-0.0315 -0.0057,-0.021 -0.01127,-0.042 -0.01685,-0.063 -0.0084,-0.0315 -0.02486,-0.0619 -0.02526,-0.0945 -0.001,-0.0585 0.0198,-0.11579 0.02078,-0.17436 3.86e-4,-0.0217 -0.01127,-0.042 -0.01685,-0.063 -0.0084,-0.0315 -0.01685,-0.063 -0.02526,-0.0945 -0.02258,-0.084 -0.04501,-0.16799 -0.06752,-0.25201 -0.129409,-0.48299 -0.258815,-0.96594 -0.388259,-1.44898 -0.0079,-0.0297 -0.0223,-0.0639 -0.02531,-0.0944 -0.0055,-0.0553 -0.0083,-0.11057 -0.01067,-0.16591 -0.0017,-0.0449 0.0031,-0.09 -0.0023,-0.13446 -0.0035,-0.0325 -0.01685,-0.063 -0.02526,-0.0945 -0.0025,-0.0102 0.0021,-0.0343 -0.0084,-0.0315 -0.0107,0.003 0.0056,0.0209 0.0084,0.0315 0.0056,0.0209 0.01624,0.0413 0.01685,0.063 0.0015,0.0918 -0.03045,0.0627 -0.0607,0.15133 -0.0035,0.0102 0.0056,0.021 0.0084,0.0315"
       id="path20" /><ellipse
       style="fill:#343434;fill-opacity:1;stroke:#00131a;stroke-width:0.264583;stroke-linejoin:round;stroke-opacity:0"
       id="path21"
       cx="68.613358"
       cy="169.53423"
       rx="0.7011227"
       ry="2.1359785"
       transform="rotate(-4.985215)" /></g></svg>
